G04 #@! TF.FileFunction,Copper,L1,Top,Signal*
%FSLAX46Y46*%
G04 Gerber Fmt 4.6, Leading zero omitted, Abs format (unit mm)*
G04 Created by KiCad (PCBNEW 4.0.0-stable) date Sunday, July 24, 2016 'PMt' 12:32:08 PM*
%MOMM*%
G01*
G04 APERTURE LIST*
%ADD10C,0.100000*%
%ADD11R,1.000000X1.250000*%
%ADD12R,1.198880X1.198880*%
%ADD13R,2.029460X1.140460*%
%ADD14R,1.350000X0.400000*%
%ADD15O,0.950000X1.250000*%
%ADD16O,1.550000X1.000000*%
%ADD17R,1.727200X2.032000*%
%ADD18O,1.727200X2.032000*%
%ADD19R,2.032000X1.727200*%
%ADD20O,2.032000X1.727200*%
%ADD21R,0.800100X0.800100*%
%ADD22R,1.300000X0.700000*%
%ADD23R,0.700000X1.300000*%
%ADD24R,1.060000X0.650000*%
%ADD25R,0.450000X1.750000*%
%ADD26C,0.609600*%
%ADD27C,0.400000*%
%ADD28C,0.200000*%
%ADD29C,0.304800*%
G04 APERTURE END LIST*
D10*
D11*
X20590000Y9525000D03*
X22590000Y9525000D03*
D12*
X26449020Y6985000D03*
X24350980Y6985000D03*
X26449020Y4445000D03*
X24350980Y4445000D03*
D13*
X6985000Y9591040D03*
X6985000Y11998960D03*
D14*
X4102540Y9555900D03*
X4102540Y8905900D03*
X4102540Y8255900D03*
X4102540Y7605900D03*
X4102540Y6955900D03*
D15*
X4102540Y10755900D03*
X4102540Y5755900D03*
D16*
X1402540Y11755900D03*
X1402540Y4755900D03*
D17*
X16510000Y1905000D03*
D18*
X13970000Y1905000D03*
X11430000Y1905000D03*
D17*
X7620000Y1905000D03*
D18*
X5080000Y1905000D03*
X2540000Y1905000D03*
D19*
X29210000Y14605000D03*
D20*
X29210000Y12065000D03*
X29210000Y9525000D03*
X29210000Y6985000D03*
X29210000Y4445000D03*
X29210000Y1905000D03*
D17*
X25400000Y1905000D03*
D18*
X22860000Y1905000D03*
X20320000Y1905000D03*
D21*
X24399240Y11745000D03*
X24399240Y9845000D03*
X26398220Y10795000D03*
D22*
X3810000Y13655000D03*
X3810000Y15555000D03*
X6985000Y4130000D03*
X6985000Y6030000D03*
X1270000Y13655000D03*
X1270000Y15555000D03*
D23*
X20640000Y12065000D03*
X22540000Y12065000D03*
X20640000Y6985000D03*
X22540000Y6985000D03*
X20640000Y4445000D03*
X22540000Y4445000D03*
D24*
X5885000Y15555000D03*
X5885000Y14605000D03*
X5885000Y13655000D03*
X8085000Y13655000D03*
X8085000Y15555000D03*
D25*
X18195000Y11855000D03*
X17545000Y11855000D03*
X16895000Y11855000D03*
X16245000Y11855000D03*
X15595000Y11855000D03*
X14945000Y11855000D03*
X14295000Y11855000D03*
X13645000Y11855000D03*
X12995000Y11855000D03*
X12345000Y11855000D03*
X11695000Y11855000D03*
X11045000Y11855000D03*
X10395000Y11855000D03*
X9745000Y11855000D03*
X9745000Y4655000D03*
X10395000Y4655000D03*
X11045000Y4655000D03*
X11695000Y4655000D03*
X12345000Y4655000D03*
X12995000Y4655000D03*
X13645000Y4655000D03*
X14295000Y4655000D03*
X14945000Y4655000D03*
X15595000Y4655000D03*
X16245000Y4655000D03*
X16895000Y4655000D03*
X17545000Y4655000D03*
X18195000Y4655000D03*
D11*
X11065000Y15240000D03*
X13065000Y15240000D03*
D12*
X26449020Y15240000D03*
X24350980Y15240000D03*
D23*
X20640000Y15240000D03*
X22540000Y15240000D03*
D11*
X18145000Y15240000D03*
X16145000Y15240000D03*
D26*
X14097000Y7112000D03*
X12827000Y8382000D03*
X14097000Y6096000D03*
X8509000Y9144000D03*
X9144000Y6477000D03*
X12192000Y7747000D03*
X10668000Y7747000D03*
X9779000Y8636000D03*
X8509000Y7366000D03*
X6985000Y7366000D03*
X5461000Y7366000D03*
X3810000Y14605000D03*
X1270000Y14605000D03*
X6985000Y10795000D03*
X10287000Y3048000D03*
X21844000Y8128000D03*
X21590000Y15240000D03*
X14605000Y15240000D03*
X9525000Y13970000D03*
X7112000Y14732000D03*
X4826000Y12573000D03*
X23622000Y12573000D03*
X14224000Y9398000D03*
X18034000Y9398000D03*
X13081000Y10414000D03*
X15240000Y10414000D03*
X19431000Y9398000D03*
X14224000Y10414000D03*
X23622000Y11049000D03*
D27*
X12995000Y6010000D02*
X14097000Y7112000D01*
X12995000Y4655000D02*
X12995000Y6010000D01*
X10922000Y9906000D02*
X11303000Y9906000D01*
X11303000Y9906000D02*
X12827000Y8382000D01*
X9144000Y10668000D02*
X9144000Y11009598D01*
X9144000Y11009598D02*
X8154638Y11998960D01*
X9906000Y9906000D02*
X9144000Y10668000D01*
X10922000Y9906000D02*
X9906000Y9906000D01*
X11065000Y15240000D02*
X11065000Y14215000D01*
X11065000Y14215000D02*
X9932401Y13082401D01*
X9932401Y13082401D02*
X9238079Y13082401D01*
X9238079Y13082401D02*
X8154638Y11998960D01*
X8154638Y11998960D02*
X6985000Y11998960D01*
X6985000Y11998960D02*
X6985000Y12555000D01*
X6985000Y12555000D02*
X5885000Y13655000D01*
X13645000Y4655000D02*
X13645000Y5644000D01*
X13645000Y5644000D02*
X14097000Y6096000D01*
X9779000Y8636000D02*
X10668000Y7747000D01*
X9779000Y8636000D02*
X9271000Y9144000D01*
X9271000Y9144000D02*
X8509000Y9144000D01*
X6985000Y10795000D02*
X8000322Y10795000D01*
X8000322Y10795000D02*
X8509000Y10286322D01*
X8509000Y10286322D02*
X8509000Y9144000D01*
X8509000Y7366000D02*
X8509000Y7112000D01*
X8509000Y7112000D02*
X9144000Y6477000D01*
X10668000Y7747000D02*
X12192000Y7747000D01*
X6985000Y7366000D02*
X8509000Y7366000D01*
X5461000Y7366000D02*
X6985000Y7366000D01*
X4102540Y6955900D02*
X5050900Y6955900D01*
X5050900Y6955900D02*
X5461000Y7366000D01*
X6985000Y10795000D02*
X4141640Y10795000D01*
X4141640Y10795000D02*
X4102540Y10755900D01*
X11695000Y4655000D02*
X11695000Y3570678D01*
X11695000Y3570678D02*
X11551921Y3427599D01*
X11551921Y3427599D02*
X10666599Y3427599D01*
X10666599Y3427599D02*
X10287000Y3048000D01*
X22590000Y9525000D02*
X22590000Y8874000D01*
X22590000Y8874000D02*
X21844000Y8128000D01*
X22590000Y9525000D02*
X22987000Y9525000D01*
X20640000Y15240000D02*
X21590000Y15240000D01*
X14605000Y13440000D02*
X14605000Y15240000D01*
X14295000Y11855000D02*
X14295000Y13130000D01*
X14295000Y13130000D02*
X14605000Y13440000D01*
X13065000Y15240000D02*
X14605000Y15240000D01*
X16145000Y15240000D02*
X14605000Y15240000D01*
X3810000Y14605000D02*
X1270000Y14605000D01*
X5885000Y14605000D02*
X3810000Y14605000D01*
X3810000Y15555000D02*
X3810000Y14605000D01*
X1270000Y15555000D02*
X1270000Y14605000D01*
X12345000Y5930000D02*
X12345000Y4655000D01*
X12345000Y6325556D02*
X12345000Y5930000D01*
X16245000Y10225556D02*
X12345000Y6325556D01*
X16245000Y11855000D02*
X16245000Y10225556D01*
X13820000Y1905000D02*
X13970000Y1905000D01*
X12345000Y3380000D02*
X13820000Y1905000D01*
X12345000Y4655000D02*
X12345000Y3380000D01*
X25645769Y13437309D02*
X20847691Y13437309D01*
X19045000Y15240000D02*
X18145000Y15240000D01*
X20847691Y13437309D02*
X19045000Y15240000D01*
X26449020Y6985000D02*
X26449020Y9309778D01*
X25645769Y10113029D02*
X25645769Y13437309D01*
X26449020Y14240560D02*
X26449020Y15240000D01*
X26449020Y9309778D02*
X25645769Y10113029D01*
X25645769Y13437309D02*
X26449020Y14240560D01*
X26449020Y4445000D02*
X26449020Y6985000D01*
X18145000Y15240000D02*
X18145000Y15115000D01*
X16245000Y13130000D02*
X16245000Y11855000D01*
X18145000Y15115000D02*
X16245000Y13215000D01*
X16245000Y13215000D02*
X16245000Y13130000D01*
D28*
X22540000Y6985000D02*
X24350980Y6985000D01*
X22540000Y4445000D02*
X24350980Y4445000D01*
D27*
X4102540Y9555900D02*
X6949860Y9555900D01*
X6949860Y9555900D02*
X6985000Y9591040D01*
D29*
X5715000Y8483600D02*
X5389100Y8809500D01*
X5389100Y8809500D02*
X4673940Y8809500D01*
X4673940Y8809500D02*
X4577540Y8905900D01*
X4577540Y8905900D02*
X4102540Y8905900D01*
X8984688Y8483600D02*
X5715000Y8483600D01*
X10298600Y7169688D02*
X8984688Y8483600D01*
X10395000Y4655000D02*
X10395000Y5967500D01*
X10298600Y6063900D02*
X10298600Y7169688D01*
X10395000Y5967500D02*
X10298600Y6063900D01*
X4577540Y8255900D02*
X4102540Y8255900D01*
X9745000Y4655000D02*
X9745000Y5967500D01*
X9745000Y5967500D02*
X9841400Y6063900D01*
X9841400Y6063900D02*
X9841400Y6980312D01*
X9841400Y6980312D02*
X8795312Y8026400D01*
X8795312Y8026400D02*
X5525622Y8026400D01*
X5525622Y8026400D02*
X5199722Y8352300D01*
X5199722Y8352300D02*
X4673940Y8352300D01*
X4673940Y8352300D02*
X4577540Y8255900D01*
D27*
X12674600Y508000D02*
X17659400Y508000D01*
X17659400Y508000D02*
X19056400Y1905000D01*
X19056400Y1905000D02*
X20320000Y1905000D01*
X11430000Y1905000D02*
X11430000Y1752600D01*
X11430000Y1752600D02*
X12674600Y508000D01*
X8085000Y15555000D02*
X8085000Y15410000D01*
X8085000Y15410000D02*
X9525000Y13970000D01*
X6985000Y4130000D02*
X8035000Y4130000D01*
X8035000Y4130000D02*
X10260000Y1905000D01*
X10260000Y1905000D02*
X11430000Y1905000D01*
D28*
X1933589Y6247754D02*
X1933590Y10264047D01*
X6503990Y636590D02*
X4617734Y636590D01*
X7620000Y1752600D02*
X6503990Y636590D01*
X7620000Y1905000D02*
X7620000Y1752600D01*
X3810000Y13105000D02*
X3810000Y13655000D01*
X3810000Y12140457D02*
X3810000Y13105000D01*
X1933590Y10264047D02*
X3810000Y12140457D01*
X3810000Y4371343D02*
X1933589Y6247754D01*
X3810000Y1444324D02*
X3810000Y4371343D01*
X4617734Y636590D02*
X3810000Y1444324D01*
X7747000Y14732000D02*
X8085000Y14394000D01*
X8085000Y14394000D02*
X8085000Y13655000D01*
X7112000Y14732000D02*
X7747000Y14732000D01*
X2286000Y6393727D02*
X2286000Y10118073D01*
X2286000Y10118073D02*
X4740927Y12573000D01*
X4740927Y12573000D02*
X4826000Y12573000D01*
X5080000Y1905000D02*
X5080000Y3599727D01*
X5080000Y3599727D02*
X2286000Y6393727D01*
X5080000Y1905000D02*
X5080000Y4425000D01*
X5080000Y4425000D02*
X6685000Y6030000D01*
X6685000Y6030000D02*
X6985000Y6030000D01*
X1270000Y13655000D02*
X1570000Y13655000D01*
X1570000Y13655000D02*
X2540000Y12685000D01*
X2540000Y12685000D02*
X2540000Y11554292D01*
X2540000Y11554292D02*
X1524000Y10538292D01*
X1524000Y10538292D02*
X1524000Y6096000D01*
X1524000Y6096000D02*
X2540000Y5080000D01*
X2540000Y5080000D02*
X2540000Y1905000D01*
D27*
X29210000Y9525000D02*
X27668220Y9525000D01*
X27668220Y9525000D02*
X26398220Y10795000D01*
D28*
X22540000Y12065000D02*
X23114000Y12065000D01*
X23114000Y12065000D02*
X23622000Y12573000D01*
X29210000Y6985000D02*
X28953798Y6985000D01*
X22540000Y11765000D02*
X22540000Y12065000D01*
X14224000Y9398000D02*
X14224000Y8909000D01*
X14224000Y8909000D02*
X11045000Y5730000D01*
X11045000Y5730000D02*
X11045000Y4655000D01*
X19953000Y8763000D02*
X18669000Y8763000D01*
X18669000Y8763000D02*
X18034000Y9398000D01*
X20590000Y9400000D02*
X19953000Y8763000D01*
X20590000Y9525000D02*
X20590000Y9400000D01*
X12061000Y10414000D02*
X11695000Y10780000D01*
X11695000Y10780000D02*
X11695000Y11855000D01*
X13081000Y10414000D02*
X12061000Y10414000D01*
X15595000Y11855000D02*
X15595000Y10769000D01*
X15595000Y10769000D02*
X15240000Y10414000D01*
X17545000Y11855000D02*
X17545000Y10780000D01*
X17545000Y10780000D02*
X18927000Y9398000D01*
X18927000Y9398000D02*
X19431000Y9398000D01*
X13919201Y10109201D02*
X14224000Y10414000D01*
X13666799Y9856799D02*
X13919201Y10109201D01*
X11992006Y9856799D02*
X13666799Y9856799D01*
X11490394Y10358411D02*
X11992006Y9856799D01*
X10166589Y10358411D02*
X11490394Y10358411D01*
X9745000Y11855000D02*
X9745000Y10780000D01*
X9745000Y10780000D02*
X10166589Y10358411D01*
X24399240Y11745000D02*
X24318000Y11745000D01*
X24318000Y11745000D02*
X23622000Y11049000D01*
X24691955Y11745000D02*
X24693350Y11743605D01*
X20640000Y12065000D02*
X18405000Y12065000D01*
X18405000Y12065000D02*
X18195000Y11855000D01*
X20640000Y6985000D02*
X16200000Y6985000D01*
X16200000Y6985000D02*
X14945000Y5730000D01*
X14945000Y5730000D02*
X14945000Y4655000D01*
X14295000Y4655000D02*
X14295000Y3580000D01*
X14295000Y3580000D02*
X14347401Y3527599D01*
X14347401Y3527599D02*
X19172599Y3527599D01*
X19172599Y3527599D02*
X20090000Y4445000D01*
X20090000Y4445000D02*
X20640000Y4445000D01*
D27*
X24399240Y9044950D02*
X25497179Y7947011D01*
X24399240Y9845000D02*
X24399240Y9044950D01*
X25497179Y7947011D02*
X25497179Y3757997D01*
X25497179Y3757997D02*
X25060182Y3321000D01*
X25060182Y3321000D02*
X24123600Y3321000D01*
X24123600Y3321000D02*
X22860000Y2057400D01*
X22860000Y2057400D02*
X22860000Y1905000D01*
D28*
X22540000Y15240000D02*
X24350980Y15240000D01*
G36*
X5239385Y7740163D02*
X5268285Y7716424D01*
X5296923Y7692394D01*
X5298786Y7691370D01*
X5300433Y7690017D01*
X5333389Y7672347D01*
X5366154Y7654334D01*
X5368185Y7653690D01*
X5370059Y7652685D01*
X5405809Y7641755D01*
X5441459Y7630446D01*
X5443573Y7630209D01*
X5445610Y7629586D01*
X5482782Y7625811D01*
X5519970Y7621639D01*
X5524138Y7621610D01*
X5524209Y7621603D01*
X5524276Y7621609D01*
X5525622Y7621600D01*
X8627638Y7621600D01*
X9436600Y6812638D01*
X9436600Y6226756D01*
X9435024Y6224837D01*
X9410994Y6196199D01*
X9409970Y6194336D01*
X9408617Y6192689D01*
X9390947Y6159733D01*
X9372934Y6126968D01*
X9372290Y6124937D01*
X9371285Y6123063D01*
X9360355Y6087313D01*
X9349046Y6051663D01*
X9348809Y6049549D01*
X9348186Y6047512D01*
X9344411Y6010340D01*
X9340239Y5973152D01*
X9340210Y5968984D01*
X9340203Y5968913D01*
X9340209Y5968846D01*
X9340200Y5967500D01*
X9340200Y5706142D01*
X9305748Y5665719D01*
X9276420Y5600657D01*
X9266379Y5530000D01*
X9266379Y4418000D01*
X8386790Y4418000D01*
X8354895Y4449895D01*
X8322582Y4476438D01*
X8290591Y4503281D01*
X8288510Y4504425D01*
X8286668Y4505938D01*
X8249800Y4525706D01*
X8213219Y4545817D01*
X8210952Y4546536D01*
X8208856Y4547660D01*
X8168872Y4559885D01*
X8129059Y4572514D01*
X8126698Y4572779D01*
X8124421Y4573475D01*
X8082794Y4577703D01*
X8041316Y4582356D01*
X8036674Y4582388D01*
X8036579Y4582398D01*
X8036490Y4582390D01*
X8035000Y4582400D01*
X7866152Y4582400D01*
X7864304Y4588367D01*
X7825035Y4647959D01*
X7770719Y4694252D01*
X7705657Y4723580D01*
X7635000Y4733621D01*
X6335000Y4733621D01*
X6294806Y4730416D01*
X6226633Y4709304D01*
X6167041Y4670035D01*
X6120748Y4615719D01*
X6091420Y4550657D01*
X6081379Y4480000D01*
X6081379Y4418000D01*
X5571368Y4418000D01*
X6579748Y5426379D01*
X7635000Y5426379D01*
X7675194Y5429584D01*
X7743367Y5450696D01*
X7802959Y5489965D01*
X7849252Y5544281D01*
X7878580Y5609343D01*
X7888621Y5680000D01*
X7888621Y6380000D01*
X7885416Y6420194D01*
X7864304Y6488367D01*
X7825035Y6547959D01*
X7770719Y6594252D01*
X7705657Y6623580D01*
X7635000Y6633621D01*
X6335000Y6633621D01*
X6294806Y6630416D01*
X6226633Y6609304D01*
X6167041Y6570035D01*
X6120748Y6515719D01*
X6091420Y6450657D01*
X6081379Y6380000D01*
X6081379Y5924748D01*
X4830816Y4674184D01*
X4810145Y4649020D01*
X4789230Y4624094D01*
X4788339Y4622473D01*
X4787161Y4621039D01*
X4771763Y4592321D01*
X4756097Y4563825D01*
X4755537Y4562060D01*
X4754661Y4560426D01*
X4746320Y4533143D01*
X4543584Y4634511D01*
X4276036Y4902059D01*
X4380900Y4933868D01*
X4506658Y5001086D01*
X4616886Y5091547D01*
X4707348Y5201774D01*
X4774568Y5327531D01*
X4815962Y5463986D01*
X4829940Y5605895D01*
X4829940Y5755895D01*
X4102545Y5755895D01*
X4102545Y5735895D01*
X4102535Y5735895D01*
X4102535Y5755895D01*
X4082535Y5755895D01*
X4082535Y5755905D01*
X4102535Y5755905D01*
X4102535Y6955895D01*
X4102545Y6955895D01*
X4102545Y5755905D01*
X4829940Y5755905D01*
X4829940Y5905905D01*
X4815962Y6047814D01*
X4774568Y6184269D01*
X4707348Y6310026D01*
X4616886Y6420253D01*
X4515448Y6503500D01*
X4802399Y6503500D01*
X4851162Y6513200D01*
X4897096Y6532226D01*
X4938435Y6559848D01*
X4973592Y6595004D01*
X5001214Y6636344D01*
X5020240Y6682277D01*
X5029940Y6731041D01*
X5029940Y6892795D01*
X4966840Y6955895D01*
X4102545Y6955895D01*
X4102535Y6955895D01*
X4082535Y6955895D01*
X4082535Y6955905D01*
X4102535Y6955905D01*
X4102535Y6975905D01*
X4102545Y6975905D01*
X4102545Y6955905D01*
X4966840Y6955905D01*
X5029940Y7019005D01*
X5029940Y7180759D01*
X5020240Y7229523D01*
X5001214Y7275456D01*
X4997008Y7281751D01*
X5021120Y7335243D01*
X5031161Y7405900D01*
X5031161Y7805900D01*
X5027956Y7846094D01*
X5006844Y7914267D01*
X4996323Y7930233D01*
X5004107Y7947500D01*
X5032048Y7947500D01*
X5239385Y7740163D01*
X5239385Y7740163D01*
G37*
X5239385Y7740163D02*
X5268285Y7716424D01*
X5296923Y7692394D01*
X5298786Y7691370D01*
X5300433Y7690017D01*
X5333389Y7672347D01*
X5366154Y7654334D01*
X5368185Y7653690D01*
X5370059Y7652685D01*
X5405809Y7641755D01*
X5441459Y7630446D01*
X5443573Y7630209D01*
X5445610Y7629586D01*
X5482782Y7625811D01*
X5519970Y7621639D01*
X5524138Y7621610D01*
X5524209Y7621603D01*
X5524276Y7621609D01*
X5525622Y7621600D01*
X8627638Y7621600D01*
X9436600Y6812638D01*
X9436600Y6226756D01*
X9435024Y6224837D01*
X9410994Y6196199D01*
X9409970Y6194336D01*
X9408617Y6192689D01*
X9390947Y6159733D01*
X9372934Y6126968D01*
X9372290Y6124937D01*
X9371285Y6123063D01*
X9360355Y6087313D01*
X9349046Y6051663D01*
X9348809Y6049549D01*
X9348186Y6047512D01*
X9344411Y6010340D01*
X9340239Y5973152D01*
X9340210Y5968984D01*
X9340203Y5968913D01*
X9340209Y5968846D01*
X9340200Y5967500D01*
X9340200Y5706142D01*
X9305748Y5665719D01*
X9276420Y5600657D01*
X9266379Y5530000D01*
X9266379Y4418000D01*
X8386790Y4418000D01*
X8354895Y4449895D01*
X8322582Y4476438D01*
X8290591Y4503281D01*
X8288510Y4504425D01*
X8286668Y4505938D01*
X8249800Y4525706D01*
X8213219Y4545817D01*
X8210952Y4546536D01*
X8208856Y4547660D01*
X8168872Y4559885D01*
X8129059Y4572514D01*
X8126698Y4572779D01*
X8124421Y4573475D01*
X8082794Y4577703D01*
X8041316Y4582356D01*
X8036674Y4582388D01*
X8036579Y4582398D01*
X8036490Y4582390D01*
X8035000Y4582400D01*
X7866152Y4582400D01*
X7864304Y4588367D01*
X7825035Y4647959D01*
X7770719Y4694252D01*
X7705657Y4723580D01*
X7635000Y4733621D01*
X6335000Y4733621D01*
X6294806Y4730416D01*
X6226633Y4709304D01*
X6167041Y4670035D01*
X6120748Y4615719D01*
X6091420Y4550657D01*
X6081379Y4480000D01*
X6081379Y4418000D01*
X5571368Y4418000D01*
X6579748Y5426379D01*
X7635000Y5426379D01*
X7675194Y5429584D01*
X7743367Y5450696D01*
X7802959Y5489965D01*
X7849252Y5544281D01*
X7878580Y5609343D01*
X7888621Y5680000D01*
X7888621Y6380000D01*
X7885416Y6420194D01*
X7864304Y6488367D01*
X7825035Y6547959D01*
X7770719Y6594252D01*
X7705657Y6623580D01*
X7635000Y6633621D01*
X6335000Y6633621D01*
X6294806Y6630416D01*
X6226633Y6609304D01*
X6167041Y6570035D01*
X6120748Y6515719D01*
X6091420Y6450657D01*
X6081379Y6380000D01*
X6081379Y5924748D01*
X4830816Y4674184D01*
X4810145Y4649020D01*
X4789230Y4624094D01*
X4788339Y4622473D01*
X4787161Y4621039D01*
X4771763Y4592321D01*
X4756097Y4563825D01*
X4755537Y4562060D01*
X4754661Y4560426D01*
X4746320Y4533143D01*
X4543584Y4634511D01*
X4276036Y4902059D01*
X4380900Y4933868D01*
X4506658Y5001086D01*
X4616886Y5091547D01*
X4707348Y5201774D01*
X4774568Y5327531D01*
X4815962Y5463986D01*
X4829940Y5605895D01*
X4829940Y5755895D01*
X4102545Y5755895D01*
X4102545Y5735895D01*
X4102535Y5735895D01*
X4102535Y5755895D01*
X4082535Y5755895D01*
X4082535Y5755905D01*
X4102535Y5755905D01*
X4102535Y6955895D01*
X4102545Y6955895D01*
X4102545Y5755905D01*
X4829940Y5755905D01*
X4829940Y5905905D01*
X4815962Y6047814D01*
X4774568Y6184269D01*
X4707348Y6310026D01*
X4616886Y6420253D01*
X4515448Y6503500D01*
X4802399Y6503500D01*
X4851162Y6513200D01*
X4897096Y6532226D01*
X4938435Y6559848D01*
X4973592Y6595004D01*
X5001214Y6636344D01*
X5020240Y6682277D01*
X5029940Y6731041D01*
X5029940Y6892795D01*
X4966840Y6955895D01*
X4102545Y6955895D01*
X4102535Y6955895D01*
X4082535Y6955895D01*
X4082535Y6955905D01*
X4102535Y6955905D01*
X4102535Y6975905D01*
X4102545Y6975905D01*
X4102545Y6955905D01*
X4966840Y6955905D01*
X5029940Y7019005D01*
X5029940Y7180759D01*
X5020240Y7229523D01*
X5001214Y7275456D01*
X4997008Y7281751D01*
X5021120Y7335243D01*
X5031161Y7405900D01*
X5031161Y7805900D01*
X5027956Y7846094D01*
X5006844Y7914267D01*
X4996323Y7930233D01*
X5004107Y7947500D01*
X5032048Y7947500D01*
X5239385Y7740163D01*
G36*
X11892600Y5782400D02*
X11758105Y5782400D01*
X11695005Y5719300D01*
X11695005Y4655005D01*
X11715005Y4655005D01*
X11715005Y4654995D01*
X11695005Y4654995D01*
X11695005Y4634995D01*
X11694995Y4634995D01*
X11694995Y4654995D01*
X11674995Y4654995D01*
X11674995Y4655005D01*
X11694995Y4655005D01*
X11694995Y5719300D01*
X11631895Y5782400D01*
X11595768Y5782400D01*
X11892600Y6079232D01*
X11892600Y5782400D01*
X11892600Y5782400D01*
G37*
X11892600Y5782400D02*
X11758105Y5782400D01*
X11695005Y5719300D01*
X11695005Y4655005D01*
X11715005Y4655005D01*
X11715005Y4654995D01*
X11695005Y4654995D01*
X11695005Y4634995D01*
X11694995Y4634995D01*
X11694995Y4654995D01*
X11674995Y4654995D01*
X11674995Y4655005D01*
X11694995Y4655005D01*
X11694995Y5719300D01*
X11631895Y5782400D01*
X11595768Y5782400D01*
X11892600Y6079232D01*
X11892600Y5782400D01*
G36*
X5716649Y11428730D02*
X5719854Y11388536D01*
X5740966Y11320363D01*
X5780235Y11260771D01*
X5834551Y11214478D01*
X5899613Y11185150D01*
X5970270Y11175109D01*
X7999730Y11175109D01*
X8039924Y11178314D01*
X8108097Y11199426D01*
X8167689Y11238695D01*
X8213982Y11293011D01*
X8216099Y11297709D01*
X8691600Y10822208D01*
X8691600Y10668000D01*
X8695678Y10626407D01*
X8699320Y10584781D01*
X8699984Y10582496D01*
X8700216Y10580128D01*
X8712299Y10540108D01*
X8723953Y10499993D01*
X8725047Y10497882D01*
X8725735Y10495604D01*
X8745370Y10458675D01*
X8764586Y10421605D01*
X8766068Y10419748D01*
X8767186Y10417646D01*
X8793621Y10385233D01*
X8819670Y10352602D01*
X8822931Y10349296D01*
X8822990Y10349223D01*
X8823057Y10349167D01*
X8824105Y10348105D01*
X9586105Y9586105D01*
X9618418Y9559562D01*
X9650409Y9532719D01*
X9652490Y9531575D01*
X9654332Y9530062D01*
X9691216Y9510285D01*
X9727781Y9490183D01*
X9730046Y9489465D01*
X9732145Y9488339D01*
X9772160Y9476105D01*
X9811941Y9463486D01*
X9814302Y9463221D01*
X9816579Y9462525D01*
X9858206Y9458297D01*
X9899684Y9453644D01*
X9904326Y9453612D01*
X9904421Y9453602D01*
X9904510Y9453610D01*
X9906000Y9453600D01*
X11115610Y9453600D01*
X12276937Y8292273D01*
X12288793Y8227672D01*
X12329019Y8126073D01*
X12388213Y8034222D01*
X12464120Y7955618D01*
X12553849Y7893254D01*
X12653983Y7849507D01*
X12663948Y7847316D01*
X10798401Y5981769D01*
X10796149Y6004734D01*
X10792892Y6041963D01*
X10792299Y6044004D01*
X10792091Y6046126D01*
X10781278Y6081939D01*
X10770851Y6117830D01*
X10769871Y6119721D01*
X10769256Y6121757D01*
X10751706Y6154764D01*
X10734494Y6187970D01*
X10733167Y6189633D01*
X10732167Y6191513D01*
X10708555Y6220464D01*
X10703400Y6226921D01*
X10703400Y7169688D01*
X10699749Y7206922D01*
X10696492Y7244151D01*
X10695899Y7246192D01*
X10695691Y7248314D01*
X10684878Y7284127D01*
X10674451Y7320018D01*
X10673471Y7321909D01*
X10672856Y7323945D01*
X10655306Y7356952D01*
X10638094Y7390158D01*
X10636767Y7391821D01*
X10635767Y7393701D01*
X10612155Y7422652D01*
X10588806Y7451901D01*
X10585880Y7454867D01*
X10585834Y7454924D01*
X10585781Y7454968D01*
X10584837Y7455925D01*
X9270925Y8769837D01*
X9242025Y8793576D01*
X9213387Y8817606D01*
X9211524Y8818630D01*
X9209877Y8819983D01*
X9176921Y8837653D01*
X9144156Y8855666D01*
X9142125Y8856310D01*
X9140251Y8857315D01*
X9104501Y8868245D01*
X9068851Y8879554D01*
X9066737Y8879791D01*
X9064700Y8880414D01*
X9027528Y8884189D01*
X8990340Y8888361D01*
X8986172Y8888390D01*
X8986101Y8888397D01*
X8986034Y8888391D01*
X8984688Y8888400D01*
X8215474Y8888400D01*
X8243310Y8950153D01*
X8253351Y9020810D01*
X8253351Y10161270D01*
X8250146Y10201464D01*
X8229034Y10269637D01*
X8189765Y10329229D01*
X8135449Y10375522D01*
X8070387Y10404850D01*
X7999730Y10414891D01*
X5970270Y10414891D01*
X5930076Y10411686D01*
X5861903Y10390574D01*
X5802311Y10351305D01*
X5756018Y10296989D01*
X5726690Y10231927D01*
X5716649Y10161270D01*
X5716649Y10008300D01*
X4786132Y10008300D01*
X4777540Y10009521D01*
X4516936Y10009521D01*
X4616886Y10091547D01*
X4707348Y10201774D01*
X4774568Y10327531D01*
X4815962Y10463986D01*
X4829940Y10605895D01*
X4829940Y10755895D01*
X4102545Y10755895D01*
X4102545Y10735895D01*
X4102535Y10735895D01*
X4102535Y10755895D01*
X4082535Y10755895D01*
X4082535Y10755905D01*
X4102535Y10755905D01*
X4102535Y10775905D01*
X4102545Y10775905D01*
X4102545Y10755905D01*
X4829940Y10755905D01*
X4829940Y10905905D01*
X4815962Y11047814D01*
X4774568Y11184269D01*
X4707348Y11310026D01*
X4616886Y11420253D01*
X4506658Y11510714D01*
X4380900Y11577932D01*
X4276036Y11609741D01*
X4697102Y12030807D01*
X4759706Y12017043D01*
X4868955Y12014754D01*
X4976567Y12033729D01*
X5078445Y12073245D01*
X5170706Y12131796D01*
X5249839Y12207152D01*
X5312827Y12296444D01*
X5334891Y12346000D01*
X5716649Y12346000D01*
X5716649Y11428730D01*
X5716649Y11428730D01*
G37*
X5716649Y11428730D02*
X5719854Y11388536D01*
X5740966Y11320363D01*
X5780235Y11260771D01*
X5834551Y11214478D01*
X5899613Y11185150D01*
X5970270Y11175109D01*
X7999730Y11175109D01*
X8039924Y11178314D01*
X8108097Y11199426D01*
X8167689Y11238695D01*
X8213982Y11293011D01*
X8216099Y11297709D01*
X8691600Y10822208D01*
X8691600Y10668000D01*
X8695678Y10626407D01*
X8699320Y10584781D01*
X8699984Y10582496D01*
X8700216Y10580128D01*
X8712299Y10540108D01*
X8723953Y10499993D01*
X8725047Y10497882D01*
X8725735Y10495604D01*
X8745370Y10458675D01*
X8764586Y10421605D01*
X8766068Y10419748D01*
X8767186Y10417646D01*
X8793621Y10385233D01*
X8819670Y10352602D01*
X8822931Y10349296D01*
X8822990Y10349223D01*
X8823057Y10349167D01*
X8824105Y10348105D01*
X9586105Y9586105D01*
X9618418Y9559562D01*
X9650409Y9532719D01*
X9652490Y9531575D01*
X9654332Y9530062D01*
X9691216Y9510285D01*
X9727781Y9490183D01*
X9730046Y9489465D01*
X9732145Y9488339D01*
X9772160Y9476105D01*
X9811941Y9463486D01*
X9814302Y9463221D01*
X9816579Y9462525D01*
X9858206Y9458297D01*
X9899684Y9453644D01*
X9904326Y9453612D01*
X9904421Y9453602D01*
X9904510Y9453610D01*
X9906000Y9453600D01*
X11115610Y9453600D01*
X12276937Y8292273D01*
X12288793Y8227672D01*
X12329019Y8126073D01*
X12388213Y8034222D01*
X12464120Y7955618D01*
X12553849Y7893254D01*
X12653983Y7849507D01*
X12663948Y7847316D01*
X10798401Y5981769D01*
X10796149Y6004734D01*
X10792892Y6041963D01*
X10792299Y6044004D01*
X10792091Y6046126D01*
X10781278Y6081939D01*
X10770851Y6117830D01*
X10769871Y6119721D01*
X10769256Y6121757D01*
X10751706Y6154764D01*
X10734494Y6187970D01*
X10733167Y6189633D01*
X10732167Y6191513D01*
X10708555Y6220464D01*
X10703400Y6226921D01*
X10703400Y7169688D01*
X10699749Y7206922D01*
X10696492Y7244151D01*
X10695899Y7246192D01*
X10695691Y7248314D01*
X10684878Y7284127D01*
X10674451Y7320018D01*
X10673471Y7321909D01*
X10672856Y7323945D01*
X10655306Y7356952D01*
X10638094Y7390158D01*
X10636767Y7391821D01*
X10635767Y7393701D01*
X10612155Y7422652D01*
X10588806Y7451901D01*
X10585880Y7454867D01*
X10585834Y7454924D01*
X10585781Y7454968D01*
X10584837Y7455925D01*
X9270925Y8769837D01*
X9242025Y8793576D01*
X9213387Y8817606D01*
X9211524Y8818630D01*
X9209877Y8819983D01*
X9176921Y8837653D01*
X9144156Y8855666D01*
X9142125Y8856310D01*
X9140251Y8857315D01*
X9104501Y8868245D01*
X9068851Y8879554D01*
X9066737Y8879791D01*
X9064700Y8880414D01*
X9027528Y8884189D01*
X8990340Y8888361D01*
X8986172Y8888390D01*
X8986101Y8888397D01*
X8986034Y8888391D01*
X8984688Y8888400D01*
X8215474Y8888400D01*
X8243310Y8950153D01*
X8253351Y9020810D01*
X8253351Y10161270D01*
X8250146Y10201464D01*
X8229034Y10269637D01*
X8189765Y10329229D01*
X8135449Y10375522D01*
X8070387Y10404850D01*
X7999730Y10414891D01*
X5970270Y10414891D01*
X5930076Y10411686D01*
X5861903Y10390574D01*
X5802311Y10351305D01*
X5756018Y10296989D01*
X5726690Y10231927D01*
X5716649Y10161270D01*
X5716649Y10008300D01*
X4786132Y10008300D01*
X4777540Y10009521D01*
X4516936Y10009521D01*
X4616886Y10091547D01*
X4707348Y10201774D01*
X4774568Y10327531D01*
X4815962Y10463986D01*
X4829940Y10605895D01*
X4829940Y10755895D01*
X4102545Y10755895D01*
X4102545Y10735895D01*
X4102535Y10735895D01*
X4102535Y10755895D01*
X4082535Y10755895D01*
X4082535Y10755905D01*
X4102535Y10755905D01*
X4102535Y10775905D01*
X4102545Y10775905D01*
X4102545Y10755905D01*
X4829940Y10755905D01*
X4829940Y10905905D01*
X4815962Y11047814D01*
X4774568Y11184269D01*
X4707348Y11310026D01*
X4616886Y11420253D01*
X4506658Y11510714D01*
X4380900Y11577932D01*
X4276036Y11609741D01*
X4697102Y12030807D01*
X4759706Y12017043D01*
X4868955Y12014754D01*
X4976567Y12033729D01*
X5078445Y12073245D01*
X5170706Y12131796D01*
X5249839Y12207152D01*
X5312827Y12296444D01*
X5334891Y12346000D01*
X5716649Y12346000D01*
X5716649Y11428730D01*
M02*
