%TF.GenerationSoftware,KiCad,Pcbnew,7.0.11*%
%TF.CreationDate,2025-12-26T11:46:50-08:00*%
%TF.ProjectId,uart-friend-c,75617274-2d66-4726-9965-6e642d632e6b,rev?*%
%TF.SameCoordinates,PX9765530PY6521e48*%
%TF.FileFunction,Paste,Top*%
%TF.FilePolarity,Positive*%
%FSLAX46Y46*%
G04 Gerber Fmt 4.6, Leading zero omitted, Abs format (unit mm)*
G04 Created by KiCad (PCBNEW 7.0.11) date 2025-12-26 11:46:50*
%MOMM*%
%LPD*%
G01*
G04 APERTURE LIST*
G04 Aperture macros list*
%AMRoundRect*
0 Rectangle with rounded corners*
0 $1 Rounding radius*
0 $2 $3 $4 $5 $6 $7 $8 $9 X,Y pos of 4 corners*
0 Add a 4 corners polygon primitive as box body*
4,1,4,$2,$3,$4,$5,$6,$7,$8,$9,$2,$3,0*
0 Add four circle primitives for the rounded corners*
1,1,$1+$1,$2,$3*
1,1,$1+$1,$4,$5*
1,1,$1+$1,$6,$7*
1,1,$1+$1,$8,$9*
0 Add four rect primitives between the rounded corners*
20,1,$1+$1,$2,$3,$4,$5,0*
20,1,$1+$1,$4,$5,$6,$7,0*
20,1,$1+$1,$6,$7,$8,$9,0*
20,1,$1+$1,$8,$9,$2,$3,0*%
G04 Aperture macros list end*
%ADD10R,1.000000X1.250000*%
%ADD11R,1.198880X1.198880*%
%ADD12R,2.029460X1.140460*%
%ADD13R,0.800100X0.800100*%
%ADD14R,0.700000X1.300000*%
%ADD15R,1.060000X0.650000*%
%ADD16R,0.450000X1.750000*%
%ADD17RoundRect,0.095000X-0.575000X0.095000X-0.575000X-0.095000X0.575000X-0.095000X0.575000X0.095000X0*%
%ADD18RoundRect,0.095000X-0.575000X0.305000X-0.575000X-0.305000X0.575000X-0.305000X0.575000X0.305000X0*%
G04 APERTURE END LIST*
D10*
%TO.C,C2*%
X6750000Y6045000D03*
X4750000Y6045000D03*
%TD*%
D11*
%TO.C,D1*%
X24350980Y7795000D03*
X26449020Y7795000D03*
%TD*%
%TO.C,D2*%
X24350980Y4795000D03*
X26449020Y4795000D03*
%TD*%
D12*
%TO.C,F1*%
X2500000Y12591040D03*
X2500000Y14998960D03*
%TD*%
D13*
%TO.C,Q1*%
X24399240Y11745000D03*
X24399240Y9845000D03*
X26398220Y10795000D03*
%TD*%
D14*
%TO.C,R1*%
X3950000Y10545000D03*
X2050000Y10545000D03*
%TD*%
%TO.C,R2*%
X7450000Y3795000D03*
X5550000Y3795000D03*
%TD*%
%TO.C,R3*%
X5550000Y10545000D03*
X7450000Y10545000D03*
%TD*%
%TO.C,R4*%
X20640000Y12045000D03*
X22540000Y12045000D03*
%TD*%
%TO.C,R5*%
X20640000Y8045000D03*
X22540000Y8045000D03*
%TD*%
%TO.C,R6*%
X20640000Y4445000D03*
X22540000Y4445000D03*
%TD*%
D15*
%TO.C,U1*%
X5400000Y14995000D03*
X5400000Y14045000D03*
X5400000Y13095000D03*
X7600000Y13095000D03*
X7600000Y14995000D03*
%TD*%
D16*
%TO.C,U2*%
X18195000Y11855000D03*
X17545000Y11855000D03*
X16895000Y11855000D03*
X16245000Y11855000D03*
X15595000Y11855000D03*
X14945000Y11855000D03*
X14295000Y11855000D03*
X13645000Y11855000D03*
X12995000Y11855000D03*
X12345000Y11855000D03*
X11695000Y11855000D03*
X11045000Y11855000D03*
X10395000Y11855000D03*
X9745000Y11855000D03*
X9745000Y4655000D03*
X10395000Y4655000D03*
X11045000Y4655000D03*
X11695000Y4655000D03*
X12345000Y4655000D03*
X12995000Y4655000D03*
X13645000Y4655000D03*
X14295000Y4655000D03*
X14945000Y4655000D03*
X15595000Y4655000D03*
X16245000Y4655000D03*
X16895000Y4655000D03*
X17545000Y4655000D03*
X18195000Y4655000D03*
%TD*%
D10*
%TO.C,C1*%
X11000000Y14795000D03*
X13000000Y14795000D03*
%TD*%
D11*
%TO.C,D3*%
X24350980Y14795000D03*
X26449020Y14795000D03*
%TD*%
D14*
%TO.C,R7*%
X20640000Y14795000D03*
X22540000Y14795000D03*
%TD*%
D10*
%TO.C,C3*%
X18145000Y14795000D03*
X16145000Y14795000D03*
%TD*%
D17*
%TO.C,P2*%
X-45000Y5700000D03*
X-45000Y6350000D03*
X-45000Y7000000D03*
X-45000Y8300000D03*
X-45000Y8950000D03*
X-45000Y9600000D03*
X-45000Y10250000D03*
X-45000Y11550000D03*
X-45000Y10900000D03*
D18*
X-45000Y12990000D03*
X-45000Y4790000D03*
%TD*%
D14*
%TO.C,R8*%
X3950000Y3795000D03*
X2050000Y3795000D03*
%TD*%
M02*
