M48
; DRILL file {KiCad 7.0.2-0} date 2023 November 06, Monday 23:03:41
; FORMAT={-:-/ absolute / metric / decimal}
; #@! TF.CreationDate,2023-11-06T23:03:41-08:00
; #@! TF.GenerationSoftware,Kicad,Pcbnew,7.0.2-0
; #@! TF.FileFunction,Plated,1,2,PTH
FMAT,2
METRIC
; #@! TA.AperFunction,Plated,PTH,ViaDrill
T1C0.305
; #@! TA.AperFunction,Plated,PTH,ComponentDrill
T2C1.000
%
G90
G05
T1
X7.874Y13.716
X7.874Y2.54
X8.255Y7.62
X13.843Y11.43
X15.367Y11.43
X16.891Y5.969
X19.939Y9.271
X19.939Y8.509
X22.479Y9.271
X22.479Y8.128
X22.86Y10.795
X24.257Y5.588
X25.527Y5.588
X26.162Y11.938
X26.164Y7.132
X27.94Y5.715
X31.242Y2.54
X32.639Y1.016
T2
X29.21Y14.605
X29.21Y12.065
X29.21Y9.525
X29.21Y6.985
X29.21Y4.445
X29.21Y1.905
T0
M30
