%TF.GenerationSoftware,KiCad,Pcbnew,7.0.2-0*%
%TF.CreationDate,2023-11-06T23:03:35-08:00*%
%TF.ProjectId,uart-friend-232,75617274-2d66-4726-9965-6e642d323332,rev?*%
%TF.SameCoordinates,PX9765530PY6521e48*%
%TF.FileFunction,Legend,Top*%
%TF.FilePolarity,Positive*%
%FSLAX46Y46*%
G04 Gerber Fmt 4.6, Leading zero omitted, Abs format (unit mm)*
G04 Created by KiCad (PCBNEW 7.0.2-0) date 2023-11-06 23:03:35*
%MOMM*%
%LPD*%
G01*
G04 APERTURE LIST*
G04 Aperture macros list*
%AMRoundRect*
0 Rectangle with rounded corners*
0 $1 Rounding radius*
0 $2 $3 $4 $5 $6 $7 $8 $9 X,Y pos of 4 corners*
0 Add a 4 corners polygon primitive as box body*
4,1,4,$2,$3,$4,$5,$6,$7,$8,$9,$2,$3,0*
0 Add four circle primitives for the rounded corners*
1,1,$1+$1,$2,$3*
1,1,$1+$1,$4,$5*
1,1,$1+$1,$6,$7*
1,1,$1+$1,$8,$9*
0 Add four rect primitives between the rounded corners*
20,1,$1+$1,$2,$3,$4,$5,0*
20,1,$1+$1,$4,$5,$6,$7,0*
20,1,$1+$1,$6,$7,$8,$9,0*
20,1,$1+$1,$8,$9,$2,$3,0*%
G04 Aperture macros list end*
%ADD10C,0.150000*%
%ADD11C,0.120000*%
%ADD12O,2.100000X2.100000*%
%ADD13RoundRect,0.200000X-0.850000X-0.850000X0.850000X-0.850000X0.850000X0.850000X-0.850000X0.850000X0*%
%ADD14RoundRect,0.300000X-0.637500X-0.100000X0.637500X-0.100000X0.637500X0.100000X-0.637500X0.100000X0*%
%ADD15RoundRect,0.200000X1.740000X-0.923333X1.740000X0.923333X-1.740000X0.923333X-1.740000X-0.923333X0*%
%ADD16RoundRect,0.450000X-0.250000X-0.475000X0.250000X-0.475000X0.250000X0.475000X-0.250000X0.475000X0*%
%ADD17RoundRect,0.450000X0.475000X-0.250000X0.475000X0.250000X-0.475000X0.250000X-0.475000X-0.250000X0*%
%ADD18RoundRect,0.450000X-0.475000X0.250000X-0.475000X-0.250000X0.475000X-0.250000X0.475000X0.250000X0*%
G04 APERTURE END LIST*
D10*
X27640619Y4278334D02*
X27164428Y3945001D01*
X27640619Y3706906D02*
X26640619Y3706906D01*
X26640619Y3706906D02*
X26640619Y4087858D01*
X26640619Y4087858D02*
X26688238Y4183096D01*
X26688238Y4183096D02*
X26735857Y4230715D01*
X26735857Y4230715D02*
X26831095Y4278334D01*
X26831095Y4278334D02*
X26973952Y4278334D01*
X26973952Y4278334D02*
X27069190Y4230715D01*
X27069190Y4230715D02*
X27116809Y4183096D01*
X27116809Y4183096D02*
X27164428Y4087858D01*
X27164428Y4087858D02*
X27164428Y3706906D01*
X26640619Y4611668D02*
X27640619Y5278334D01*
X26640619Y5278334D02*
X27640619Y4611668D01*
X26640619Y6223096D02*
X26640619Y6794524D01*
X27640619Y6508810D02*
X26640619Y6508810D01*
X26640619Y7032620D02*
X27640619Y7699286D01*
X26640619Y7699286D02*
X27640619Y7032620D01*
X26640619Y8810715D02*
X27640619Y9144048D01*
X27640619Y9144048D02*
X26640619Y9477381D01*
X26640619Y9667858D02*
X26640619Y10239286D01*
X27640619Y9953572D02*
X26640619Y9953572D01*
X26688238Y13970096D02*
X26640619Y13874858D01*
X26640619Y13874858D02*
X26640619Y13732001D01*
X26640619Y13732001D02*
X26688238Y13589144D01*
X26688238Y13589144D02*
X26783476Y13493906D01*
X26783476Y13493906D02*
X26878714Y13446287D01*
X26878714Y13446287D02*
X27069190Y13398668D01*
X27069190Y13398668D02*
X27212047Y13398668D01*
X27212047Y13398668D02*
X27402523Y13446287D01*
X27402523Y13446287D02*
X27497761Y13493906D01*
X27497761Y13493906D02*
X27593000Y13589144D01*
X27593000Y13589144D02*
X27640619Y13732001D01*
X27640619Y13732001D02*
X27640619Y13827239D01*
X27640619Y13827239D02*
X27593000Y13970096D01*
X27593000Y13970096D02*
X27545380Y14017715D01*
X27545380Y14017715D02*
X27212047Y14017715D01*
X27212047Y14017715D02*
X27212047Y13827239D01*
X27640619Y14446287D02*
X26640619Y14446287D01*
X26640619Y14446287D02*
X27640619Y15017715D01*
X27640619Y15017715D02*
X26640619Y15017715D01*
X27640619Y15493906D02*
X26640619Y15493906D01*
X26640619Y15493906D02*
X26640619Y15732001D01*
X26640619Y15732001D02*
X26688238Y15874858D01*
X26688238Y15874858D02*
X26783476Y15970096D01*
X26783476Y15970096D02*
X26878714Y16017715D01*
X26878714Y16017715D02*
X27069190Y16065334D01*
X27069190Y16065334D02*
X27212047Y16065334D01*
X27212047Y16065334D02*
X27402523Y16017715D01*
X27402523Y16017715D02*
X27497761Y15970096D01*
X27497761Y15970096D02*
X27593000Y15874858D01*
X27593000Y15874858D02*
X27640619Y15732001D01*
X27640619Y15732001D02*
X27640619Y15493906D01*
%TO.C,J2*%
X26590666Y1426381D02*
X26590666Y712096D01*
X26590666Y712096D02*
X26543047Y569239D01*
X26543047Y569239D02*
X26447809Y474000D01*
X26447809Y474000D02*
X26304952Y426381D01*
X26304952Y426381D02*
X26209714Y426381D01*
X27019238Y1331143D02*
X27066857Y1378762D01*
X27066857Y1378762D02*
X27162095Y1426381D01*
X27162095Y1426381D02*
X27400190Y1426381D01*
X27400190Y1426381D02*
X27495428Y1378762D01*
X27495428Y1378762D02*
X27543047Y1331143D01*
X27543047Y1331143D02*
X27590666Y1235905D01*
X27590666Y1235905D02*
X27590666Y1140667D01*
X27590666Y1140667D02*
X27543047Y997810D01*
X27543047Y997810D02*
X26971619Y426381D01*
X26971619Y426381D02*
X27590666Y426381D01*
%TO.C,U2*%
X17653095Y12242381D02*
X17653095Y11432858D01*
X17653095Y11432858D02*
X17700714Y11337620D01*
X17700714Y11337620D02*
X17748333Y11290000D01*
X17748333Y11290000D02*
X17843571Y11242381D01*
X17843571Y11242381D02*
X18034047Y11242381D01*
X18034047Y11242381D02*
X18129285Y11290000D01*
X18129285Y11290000D02*
X18176904Y11337620D01*
X18176904Y11337620D02*
X18224523Y11432858D01*
X18224523Y11432858D02*
X18224523Y12242381D01*
X18653095Y12147143D02*
X18700714Y12194762D01*
X18700714Y12194762D02*
X18795952Y12242381D01*
X18795952Y12242381D02*
X19034047Y12242381D01*
X19034047Y12242381D02*
X19129285Y12194762D01*
X19129285Y12194762D02*
X19176904Y12147143D01*
X19176904Y12147143D02*
X19224523Y12051905D01*
X19224523Y12051905D02*
X19224523Y11956667D01*
X19224523Y11956667D02*
X19176904Y11813810D01*
X19176904Y11813810D02*
X18605476Y11242381D01*
X18605476Y11242381D02*
X19224523Y11242381D01*
%TO.C,J1*%
X33194666Y1299381D02*
X33194666Y585096D01*
X33194666Y585096D02*
X33147047Y442239D01*
X33147047Y442239D02*
X33051809Y347000D01*
X33051809Y347000D02*
X32908952Y299381D01*
X32908952Y299381D02*
X32813714Y299381D01*
X34194666Y299381D02*
X33623238Y299381D01*
X33908952Y299381D02*
X33908952Y1299381D01*
X33908952Y1299381D02*
X33813714Y1156524D01*
X33813714Y1156524D02*
X33718476Y1061286D01*
X33718476Y1061286D02*
X33623238Y1013667D01*
%TO.C,C6*%
X24598333Y11951620D02*
X24550714Y11904000D01*
X24550714Y11904000D02*
X24407857Y11856381D01*
X24407857Y11856381D02*
X24312619Y11856381D01*
X24312619Y11856381D02*
X24169762Y11904000D01*
X24169762Y11904000D02*
X24074524Y11999239D01*
X24074524Y11999239D02*
X24026905Y12094477D01*
X24026905Y12094477D02*
X23979286Y12284953D01*
X23979286Y12284953D02*
X23979286Y12427810D01*
X23979286Y12427810D02*
X24026905Y12618286D01*
X24026905Y12618286D02*
X24074524Y12713524D01*
X24074524Y12713524D02*
X24169762Y12808762D01*
X24169762Y12808762D02*
X24312619Y12856381D01*
X24312619Y12856381D02*
X24407857Y12856381D01*
X24407857Y12856381D02*
X24550714Y12808762D01*
X24550714Y12808762D02*
X24598333Y12761143D01*
X25455476Y12856381D02*
X25265000Y12856381D01*
X25265000Y12856381D02*
X25169762Y12808762D01*
X25169762Y12808762D02*
X25122143Y12761143D01*
X25122143Y12761143D02*
X25026905Y12618286D01*
X25026905Y12618286D02*
X24979286Y12427810D01*
X24979286Y12427810D02*
X24979286Y12046858D01*
X24979286Y12046858D02*
X25026905Y11951620D01*
X25026905Y11951620D02*
X25074524Y11904000D01*
X25074524Y11904000D02*
X25169762Y11856381D01*
X25169762Y11856381D02*
X25360238Y11856381D01*
X25360238Y11856381D02*
X25455476Y11904000D01*
X25455476Y11904000D02*
X25503095Y11951620D01*
X25503095Y11951620D02*
X25550714Y12046858D01*
X25550714Y12046858D02*
X25550714Y12284953D01*
X25550714Y12284953D02*
X25503095Y12380191D01*
X25503095Y12380191D02*
X25455476Y12427810D01*
X25455476Y12427810D02*
X25360238Y12475429D01*
X25360238Y12475429D02*
X25169762Y12475429D01*
X25169762Y12475429D02*
X25074524Y12427810D01*
X25074524Y12427810D02*
X25026905Y12380191D01*
X25026905Y12380191D02*
X24979286Y12284953D01*
%TO.C,C5*%
X24598333Y6236620D02*
X24550714Y6189000D01*
X24550714Y6189000D02*
X24407857Y6141381D01*
X24407857Y6141381D02*
X24312619Y6141381D01*
X24312619Y6141381D02*
X24169762Y6189000D01*
X24169762Y6189000D02*
X24074524Y6284239D01*
X24074524Y6284239D02*
X24026905Y6379477D01*
X24026905Y6379477D02*
X23979286Y6569953D01*
X23979286Y6569953D02*
X23979286Y6712810D01*
X23979286Y6712810D02*
X24026905Y6903286D01*
X24026905Y6903286D02*
X24074524Y6998524D01*
X24074524Y6998524D02*
X24169762Y7093762D01*
X24169762Y7093762D02*
X24312619Y7141381D01*
X24312619Y7141381D02*
X24407857Y7141381D01*
X24407857Y7141381D02*
X24550714Y7093762D01*
X24550714Y7093762D02*
X24598333Y7046143D01*
X25503095Y7141381D02*
X25026905Y7141381D01*
X25026905Y7141381D02*
X24979286Y6665191D01*
X24979286Y6665191D02*
X25026905Y6712810D01*
X25026905Y6712810D02*
X25122143Y6760429D01*
X25122143Y6760429D02*
X25360238Y6760429D01*
X25360238Y6760429D02*
X25455476Y6712810D01*
X25455476Y6712810D02*
X25503095Y6665191D01*
X25503095Y6665191D02*
X25550714Y6569953D01*
X25550714Y6569953D02*
X25550714Y6331858D01*
X25550714Y6331858D02*
X25503095Y6236620D01*
X25503095Y6236620D02*
X25455476Y6189000D01*
X25455476Y6189000D02*
X25360238Y6141381D01*
X25360238Y6141381D02*
X25122143Y6141381D01*
X25122143Y6141381D02*
X25026905Y6189000D01*
X25026905Y6189000D02*
X24979286Y6236620D01*
%TO.C,C4*%
X8368380Y6183334D02*
X8416000Y6135715D01*
X8416000Y6135715D02*
X8463619Y5992858D01*
X8463619Y5992858D02*
X8463619Y5897620D01*
X8463619Y5897620D02*
X8416000Y5754763D01*
X8416000Y5754763D02*
X8320761Y5659525D01*
X8320761Y5659525D02*
X8225523Y5611906D01*
X8225523Y5611906D02*
X8035047Y5564287D01*
X8035047Y5564287D02*
X7892190Y5564287D01*
X7892190Y5564287D02*
X7701714Y5611906D01*
X7701714Y5611906D02*
X7606476Y5659525D01*
X7606476Y5659525D02*
X7511238Y5754763D01*
X7511238Y5754763D02*
X7463619Y5897620D01*
X7463619Y5897620D02*
X7463619Y5992858D01*
X7463619Y5992858D02*
X7511238Y6135715D01*
X7511238Y6135715D02*
X7558857Y6183334D01*
X7796952Y7040477D02*
X8463619Y7040477D01*
X7416000Y6802382D02*
X8130285Y6564287D01*
X8130285Y6564287D02*
X8130285Y7183334D01*
%TO.C,C3*%
X11543380Y9993334D02*
X11591000Y9945715D01*
X11591000Y9945715D02*
X11638619Y9802858D01*
X11638619Y9802858D02*
X11638619Y9707620D01*
X11638619Y9707620D02*
X11591000Y9564763D01*
X11591000Y9564763D02*
X11495761Y9469525D01*
X11495761Y9469525D02*
X11400523Y9421906D01*
X11400523Y9421906D02*
X11210047Y9374287D01*
X11210047Y9374287D02*
X11067190Y9374287D01*
X11067190Y9374287D02*
X10876714Y9421906D01*
X10876714Y9421906D02*
X10781476Y9469525D01*
X10781476Y9469525D02*
X10686238Y9564763D01*
X10686238Y9564763D02*
X10638619Y9707620D01*
X10638619Y9707620D02*
X10638619Y9802858D01*
X10638619Y9802858D02*
X10686238Y9945715D01*
X10686238Y9945715D02*
X10733857Y9993334D01*
X10638619Y10326668D02*
X10638619Y10945715D01*
X10638619Y10945715D02*
X11019571Y10612382D01*
X11019571Y10612382D02*
X11019571Y10755239D01*
X11019571Y10755239D02*
X11067190Y10850477D01*
X11067190Y10850477D02*
X11114809Y10898096D01*
X11114809Y10898096D02*
X11210047Y10945715D01*
X11210047Y10945715D02*
X11448142Y10945715D01*
X11448142Y10945715D02*
X11543380Y10898096D01*
X11543380Y10898096D02*
X11591000Y10850477D01*
X11591000Y10850477D02*
X11638619Y10755239D01*
X11638619Y10755239D02*
X11638619Y10469525D01*
X11638619Y10469525D02*
X11591000Y10374287D01*
X11591000Y10374287D02*
X11543380Y10326668D01*
%TO.C,C2*%
X11543380Y6183334D02*
X11591000Y6135715D01*
X11591000Y6135715D02*
X11638619Y5992858D01*
X11638619Y5992858D02*
X11638619Y5897620D01*
X11638619Y5897620D02*
X11591000Y5754763D01*
X11591000Y5754763D02*
X11495761Y5659525D01*
X11495761Y5659525D02*
X11400523Y5611906D01*
X11400523Y5611906D02*
X11210047Y5564287D01*
X11210047Y5564287D02*
X11067190Y5564287D01*
X11067190Y5564287D02*
X10876714Y5611906D01*
X10876714Y5611906D02*
X10781476Y5659525D01*
X10781476Y5659525D02*
X10686238Y5754763D01*
X10686238Y5754763D02*
X10638619Y5897620D01*
X10638619Y5897620D02*
X10638619Y5992858D01*
X10638619Y5992858D02*
X10686238Y6135715D01*
X10686238Y6135715D02*
X10733857Y6183334D01*
X10733857Y6564287D02*
X10686238Y6611906D01*
X10686238Y6611906D02*
X10638619Y6707144D01*
X10638619Y6707144D02*
X10638619Y6945239D01*
X10638619Y6945239D02*
X10686238Y7040477D01*
X10686238Y7040477D02*
X10733857Y7088096D01*
X10733857Y7088096D02*
X10829095Y7135715D01*
X10829095Y7135715D02*
X10924333Y7135715D01*
X10924333Y7135715D02*
X11067190Y7088096D01*
X11067190Y7088096D02*
X11638619Y6516668D01*
X11638619Y6516668D02*
X11638619Y7135715D01*
%TO.C,C1*%
X8368380Y9993334D02*
X8416000Y9945715D01*
X8416000Y9945715D02*
X8463619Y9802858D01*
X8463619Y9802858D02*
X8463619Y9707620D01*
X8463619Y9707620D02*
X8416000Y9564763D01*
X8416000Y9564763D02*
X8320761Y9469525D01*
X8320761Y9469525D02*
X8225523Y9421906D01*
X8225523Y9421906D02*
X8035047Y9374287D01*
X8035047Y9374287D02*
X7892190Y9374287D01*
X7892190Y9374287D02*
X7701714Y9421906D01*
X7701714Y9421906D02*
X7606476Y9469525D01*
X7606476Y9469525D02*
X7511238Y9564763D01*
X7511238Y9564763D02*
X7463619Y9707620D01*
X7463619Y9707620D02*
X7463619Y9802858D01*
X7463619Y9802858D02*
X7511238Y9945715D01*
X7511238Y9945715D02*
X7558857Y9993334D01*
X8463619Y10945715D02*
X8463619Y10374287D01*
X8463619Y10660001D02*
X7463619Y10660001D01*
X7463619Y10660001D02*
X7606476Y10564763D01*
X7606476Y10564763D02*
X7701714Y10469525D01*
X7701714Y10469525D02*
X7749333Y10374287D01*
D11*
%TO.C,J2*%
X30540000Y13335000D02*
X30540000Y575000D01*
X27880000Y575000D02*
X30540000Y575000D01*
X27880000Y13335000D02*
X30540000Y13335000D01*
X27880000Y15935000D02*
X29210000Y15935000D01*
X27880000Y14605000D02*
X27880000Y15935000D01*
X27880000Y13335000D02*
X27880000Y575000D01*
%TO.C,U2*%
X18415000Y5520000D02*
X16215000Y5520000D01*
X18415000Y10990000D02*
X20615000Y10990000D01*
X18415000Y10990000D02*
X14815000Y10990000D01*
X18415000Y5520000D02*
X20615000Y5520000D01*
%TO.C,J1*%
X31785000Y1531667D02*
X35525000Y1531667D01*
X35525000Y14978333D02*
X31785000Y14978333D01*
X31785000Y14978333D02*
X31785000Y1531667D01*
X31545000Y15218333D02*
X31545000Y11025000D01*
X33785000Y15218333D02*
X31545000Y15218333D01*
%TO.C,C6*%
X24503748Y10060000D02*
X25026252Y10060000D01*
X24503748Y11530000D02*
X25026252Y11530000D01*
%TO.C,C5*%
X24503748Y7520000D02*
X25026252Y7520000D01*
X24503748Y8990000D02*
X25026252Y8990000D01*
%TO.C,C4*%
X10260000Y6088748D02*
X10260000Y6611252D01*
X8790000Y6088748D02*
X8790000Y6611252D01*
%TO.C,C3*%
X13435000Y9898748D02*
X13435000Y10421252D01*
X11965000Y9898748D02*
X11965000Y10421252D01*
%TO.C,C2*%
X11965000Y6611252D02*
X11965000Y6088748D01*
X13435000Y6611252D02*
X13435000Y6088748D01*
%TO.C,C1*%
X8790000Y10421252D02*
X8790000Y9898748D01*
X10260000Y10421252D02*
X10260000Y9898748D01*
%TD*%
%LPC*%
D12*
%TO.C,J2*%
X29210000Y1905000D03*
X29210000Y4445000D03*
X29210000Y6985000D03*
X29210000Y9525000D03*
X29210000Y12065000D03*
D13*
X29210000Y14605000D03*
%TD*%
D14*
%TO.C,U2*%
X15552500Y10530000D03*
X15552500Y9880000D03*
X15552500Y9230000D03*
X15552500Y8580000D03*
X15552500Y7930000D03*
X15552500Y7280000D03*
X15552500Y6630000D03*
X15552500Y5980000D03*
X21277500Y5980000D03*
X21277500Y6630000D03*
X21277500Y7280000D03*
X21277500Y7930000D03*
X21277500Y8580000D03*
X21277500Y9230000D03*
X21277500Y9880000D03*
X21277500Y10530000D03*
%TD*%
D15*
%TO.C,J1*%
X33785000Y13795000D03*
X33785000Y11025000D03*
X33785000Y8255000D03*
X33785000Y5485000D03*
X33785000Y2715000D03*
%TD*%
D16*
%TO.C,C6*%
X23815000Y10795000D03*
X25715000Y10795000D03*
%TD*%
%TO.C,C5*%
X23815000Y8255000D03*
X25715000Y8255000D03*
%TD*%
D17*
%TO.C,C4*%
X9525000Y5400000D03*
X9525000Y7300000D03*
%TD*%
%TO.C,C3*%
X12700000Y9210000D03*
X12700000Y11110000D03*
%TD*%
D18*
%TO.C,C2*%
X12700000Y7300000D03*
X12700000Y5400000D03*
%TD*%
%TO.C,C1*%
X9525000Y11110000D03*
X9525000Y9210000D03*
%TD*%
%LPD*%
M02*
