%TF.GenerationSoftware,KiCad,Pcbnew,7.0.2-0*%
%TF.CreationDate,2023-11-06T23:03:35-08:00*%
%TF.ProjectId,uart-friend-232,75617274-2d66-4726-9965-6e642d323332,rev?*%
%TF.SameCoordinates,PX9765530PY6521e48*%
%TF.FileFunction,Copper,L2,Bot*%
%TF.FilePolarity,Positive*%
%FSLAX46Y46*%
G04 Gerber Fmt 4.6, Leading zero omitted, Abs format (unit mm)*
G04 Created by KiCad (PCBNEW 7.0.2-0) date 2023-11-06 23:03:35*
%MOMM*%
%LPD*%
G01*
G04 APERTURE LIST*
G04 Aperture macros list*
%AMFreePoly0*
4,1,19,0.500000,-0.750000,0.000000,-0.750000,0.000000,-0.744911,-0.071157,-0.744911,-0.207708,-0.704816,-0.327430,-0.627875,-0.420627,-0.520320,-0.479746,-0.390866,-0.500000,-0.250000,-0.500000,0.250000,-0.479746,0.390866,-0.420627,0.520320,-0.327430,0.627875,-0.207708,0.704816,-0.071157,0.744911,0.000000,0.744911,0.000000,0.750000,0.500000,0.750000,0.500000,-0.750000,0.500000,-0.750000,
$1*%
%AMFreePoly1*
4,1,19,0.000000,0.744911,0.071157,0.744911,0.207708,0.704816,0.327430,0.627875,0.420627,0.520320,0.479746,0.390866,0.500000,0.250000,0.500000,-0.250000,0.479746,-0.390866,0.420627,-0.520320,0.327430,-0.627875,0.207708,-0.704816,0.071157,-0.744911,0.000000,-0.744911,0.000000,-0.750000,-0.500000,-0.750000,-0.500000,0.750000,0.000000,0.750000,0.000000,0.744911,0.000000,0.744911,
$1*%
%AMFreePoly2*
4,1,19,0.550000,-0.750000,0.000000,-0.750000,0.000000,-0.744911,-0.071157,-0.744911,-0.207708,-0.704816,-0.327430,-0.627875,-0.420627,-0.520320,-0.479746,-0.390866,-0.500000,-0.250000,-0.500000,0.250000,-0.479746,0.390866,-0.420627,0.520320,-0.327430,0.627875,-0.207708,0.704816,-0.071157,0.744911,0.000000,0.744911,0.000000,0.750000,0.550000,0.750000,0.550000,-0.750000,0.550000,-0.750000,
$1*%
%AMFreePoly3*
4,1,19,0.000000,0.744911,0.071157,0.744911,0.207708,0.704816,0.327430,0.627875,0.420627,0.520320,0.479746,0.390866,0.500000,0.250000,0.500000,-0.250000,0.479746,-0.390866,0.420627,-0.520320,0.327430,-0.627875,0.207708,-0.704816,0.071157,-0.744911,0.000000,-0.744911,0.000000,-0.750000,-0.550000,-0.750000,-0.550000,0.750000,0.000000,0.750000,0.000000,0.744911,0.000000,0.744911,
$1*%
G04 Aperture macros list end*
%ADD10C,0.150000*%
%TA.AperFunction,NonConductor*%
%ADD11C,0.150000*%
%TD*%
%TA.AperFunction,ComponentPad*%
%ADD12O,1.700000X1.700000*%
%TD*%
%TA.AperFunction,ComponentPad*%
%ADD13R,1.700000X1.700000*%
%TD*%
%TA.AperFunction,SMDPad,CuDef*%
%ADD14FreePoly0,180.000000*%
%TD*%
%TA.AperFunction,SMDPad,CuDef*%
%ADD15FreePoly1,180.000000*%
%TD*%
%TA.AperFunction,SMDPad,CuDef*%
%ADD16FreePoly0,0.000000*%
%TD*%
%TA.AperFunction,SMDPad,CuDef*%
%ADD17FreePoly1,0.000000*%
%TD*%
%TA.AperFunction,SMDPad,CuDef*%
%ADD18FreePoly2,0.000000*%
%TD*%
%TA.AperFunction,SMDPad,CuDef*%
%ADD19R,1.000000X1.500000*%
%TD*%
%TA.AperFunction,SMDPad,CuDef*%
%ADD20FreePoly3,0.000000*%
%TD*%
%TA.AperFunction,SMDPad,CuDef*%
%ADD21R,3.480000X1.846667*%
%TD*%
%TA.AperFunction,ViaPad*%
%ADD22C,0.609600*%
%TD*%
%TA.AperFunction,Conductor*%
%ADD23C,0.400000*%
%TD*%
%TA.AperFunction,Conductor*%
%ADD24C,0.200000*%
%TD*%
G04 APERTURE END LIST*
D10*
D11*
X8239095Y15752620D02*
X8239095Y15085953D01*
X8239095Y14752620D02*
X8191476Y14800239D01*
X8191476Y14800239D02*
X8239095Y14847858D01*
X8239095Y14847858D02*
X8286714Y14800239D01*
X8286714Y14800239D02*
X8239095Y14752620D01*
X8239095Y14752620D02*
X8239095Y14847858D01*
X8715285Y15752620D02*
X8715285Y14752620D01*
X9143856Y15752620D02*
X9143856Y15228810D01*
X9143856Y15228810D02*
X9096237Y15133572D01*
X9096237Y15133572D02*
X9000999Y15085953D01*
X9000999Y15085953D02*
X8858142Y15085953D01*
X8858142Y15085953D02*
X8762904Y15133572D01*
X8762904Y15133572D02*
X8715285Y15181191D01*
X10048618Y15752620D02*
X10048618Y15228810D01*
X10048618Y15228810D02*
X10000999Y15133572D01*
X10000999Y15133572D02*
X9905761Y15085953D01*
X9905761Y15085953D02*
X9715285Y15085953D01*
X9715285Y15085953D02*
X9620047Y15133572D01*
X10048618Y15705000D02*
X9953380Y15752620D01*
X9953380Y15752620D02*
X9715285Y15752620D01*
X9715285Y15752620D02*
X9620047Y15705000D01*
X9620047Y15705000D02*
X9572428Y15609762D01*
X9572428Y15609762D02*
X9572428Y15514524D01*
X9572428Y15514524D02*
X9620047Y15419286D01*
X9620047Y15419286D02*
X9715285Y15371667D01*
X9715285Y15371667D02*
X9953380Y15371667D01*
X9953380Y15371667D02*
X10048618Y15324048D01*
X10524809Y15752620D02*
X10524809Y15085953D01*
X10524809Y15276429D02*
X10572428Y15181191D01*
X10572428Y15181191D02*
X10620047Y15133572D01*
X10620047Y15133572D02*
X10715285Y15085953D01*
X10715285Y15085953D02*
X10810523Y15085953D01*
X11001000Y15085953D02*
X11381952Y15085953D01*
X11143857Y14752620D02*
X11143857Y15609762D01*
X11143857Y15609762D02*
X11191476Y15705000D01*
X11191476Y15705000D02*
X11286714Y15752620D01*
X11286714Y15752620D02*
X11381952Y15752620D01*
X11620048Y15085953D02*
X11810524Y15752620D01*
X11810524Y15752620D02*
X12001000Y15276429D01*
X12001000Y15276429D02*
X12191476Y15752620D01*
X12191476Y15752620D02*
X12381952Y15085953D01*
X12762905Y15752620D02*
X12762905Y15085953D01*
X12762905Y14752620D02*
X12715286Y14800239D01*
X12715286Y14800239D02*
X12762905Y14847858D01*
X12762905Y14847858D02*
X12810524Y14800239D01*
X12810524Y14800239D02*
X12762905Y14752620D01*
X12762905Y14752620D02*
X12762905Y14847858D01*
X13667666Y15085953D02*
X13667666Y15895477D01*
X13667666Y15895477D02*
X13620047Y15990715D01*
X13620047Y15990715D02*
X13572428Y16038334D01*
X13572428Y16038334D02*
X13477190Y16085953D01*
X13477190Y16085953D02*
X13334333Y16085953D01*
X13334333Y16085953D02*
X13239095Y16038334D01*
X13667666Y15705000D02*
X13572428Y15752620D01*
X13572428Y15752620D02*
X13381952Y15752620D01*
X13381952Y15752620D02*
X13286714Y15705000D01*
X13286714Y15705000D02*
X13239095Y15657381D01*
X13239095Y15657381D02*
X13191476Y15562143D01*
X13191476Y15562143D02*
X13191476Y15276429D01*
X13191476Y15276429D02*
X13239095Y15181191D01*
X13239095Y15181191D02*
X13286714Y15133572D01*
X13286714Y15133572D02*
X13381952Y15085953D01*
X13381952Y15085953D02*
X13572428Y15085953D01*
X13572428Y15085953D02*
X13667666Y15133572D01*
X14858143Y14847858D02*
X14905762Y14800239D01*
X14905762Y14800239D02*
X15001000Y14752620D01*
X15001000Y14752620D02*
X15239095Y14752620D01*
X15239095Y14752620D02*
X15334333Y14800239D01*
X15334333Y14800239D02*
X15381952Y14847858D01*
X15381952Y14847858D02*
X15429571Y14943096D01*
X15429571Y14943096D02*
X15429571Y15038334D01*
X15429571Y15038334D02*
X15381952Y15181191D01*
X15381952Y15181191D02*
X14810524Y15752620D01*
X14810524Y15752620D02*
X15429571Y15752620D01*
X16048619Y14752620D02*
X16143857Y14752620D01*
X16143857Y14752620D02*
X16239095Y14800239D01*
X16239095Y14800239D02*
X16286714Y14847858D01*
X16286714Y14847858D02*
X16334333Y14943096D01*
X16334333Y14943096D02*
X16381952Y15133572D01*
X16381952Y15133572D02*
X16381952Y15371667D01*
X16381952Y15371667D02*
X16334333Y15562143D01*
X16334333Y15562143D02*
X16286714Y15657381D01*
X16286714Y15657381D02*
X16239095Y15705000D01*
X16239095Y15705000D02*
X16143857Y15752620D01*
X16143857Y15752620D02*
X16048619Y15752620D01*
X16048619Y15752620D02*
X15953381Y15705000D01*
X15953381Y15705000D02*
X15905762Y15657381D01*
X15905762Y15657381D02*
X15858143Y15562143D01*
X15858143Y15562143D02*
X15810524Y15371667D01*
X15810524Y15371667D02*
X15810524Y15133572D01*
X15810524Y15133572D02*
X15858143Y14943096D01*
X15858143Y14943096D02*
X15905762Y14847858D01*
X15905762Y14847858D02*
X15953381Y14800239D01*
X15953381Y14800239D02*
X16048619Y14752620D01*
X16762905Y14847858D02*
X16810524Y14800239D01*
X16810524Y14800239D02*
X16905762Y14752620D01*
X16905762Y14752620D02*
X17143857Y14752620D01*
X17143857Y14752620D02*
X17239095Y14800239D01*
X17239095Y14800239D02*
X17286714Y14847858D01*
X17286714Y14847858D02*
X17334333Y14943096D01*
X17334333Y14943096D02*
X17334333Y15038334D01*
X17334333Y15038334D02*
X17286714Y15181191D01*
X17286714Y15181191D02*
X16715286Y15752620D01*
X16715286Y15752620D02*
X17334333Y15752620D01*
X17667667Y14752620D02*
X18286714Y14752620D01*
X18286714Y14752620D02*
X17953381Y15133572D01*
X17953381Y15133572D02*
X18096238Y15133572D01*
X18096238Y15133572D02*
X18191476Y15181191D01*
X18191476Y15181191D02*
X18239095Y15228810D01*
X18239095Y15228810D02*
X18286714Y15324048D01*
X18286714Y15324048D02*
X18286714Y15562143D01*
X18286714Y15562143D02*
X18239095Y15657381D01*
X18239095Y15657381D02*
X18191476Y15705000D01*
X18191476Y15705000D02*
X18096238Y15752620D01*
X18096238Y15752620D02*
X17810524Y15752620D01*
X17810524Y15752620D02*
X17715286Y15705000D01*
X17715286Y15705000D02*
X17667667Y15657381D01*
D10*
D11*
X8540666Y988953D02*
X8540666Y1655620D01*
X8112095Y988953D02*
X8112095Y1512762D01*
X8112095Y1512762D02*
X8159714Y1608000D01*
X8159714Y1608000D02*
X8254952Y1655620D01*
X8254952Y1655620D02*
X8397809Y1655620D01*
X8397809Y1655620D02*
X8493047Y1608000D01*
X8493047Y1608000D02*
X8540666Y1560381D01*
X9445428Y1655620D02*
X9445428Y1131810D01*
X9445428Y1131810D02*
X9397809Y1036572D01*
X9397809Y1036572D02*
X9302571Y988953D01*
X9302571Y988953D02*
X9112095Y988953D01*
X9112095Y988953D02*
X9016857Y1036572D01*
X9445428Y1608000D02*
X9350190Y1655620D01*
X9350190Y1655620D02*
X9112095Y1655620D01*
X9112095Y1655620D02*
X9016857Y1608000D01*
X9016857Y1608000D02*
X8969238Y1512762D01*
X8969238Y1512762D02*
X8969238Y1417524D01*
X8969238Y1417524D02*
X9016857Y1322286D01*
X9016857Y1322286D02*
X9112095Y1274667D01*
X9112095Y1274667D02*
X9350190Y1274667D01*
X9350190Y1274667D02*
X9445428Y1227048D01*
X9921619Y1655620D02*
X9921619Y988953D01*
X9921619Y1179429D02*
X9969238Y1084191D01*
X9969238Y1084191D02*
X10016857Y1036572D01*
X10016857Y1036572D02*
X10112095Y988953D01*
X10112095Y988953D02*
X10207333Y988953D01*
X10397810Y988953D02*
X10778762Y988953D01*
X10540667Y655620D02*
X10540667Y1512762D01*
X10540667Y1512762D02*
X10588286Y1608000D01*
X10588286Y1608000D02*
X10683524Y1655620D01*
X10683524Y1655620D02*
X10778762Y1655620D01*
X11112096Y1274667D02*
X11874001Y1274667D01*
X12207334Y988953D02*
X12588286Y988953D01*
X12350191Y1655620D02*
X12350191Y798477D01*
X12350191Y798477D02*
X12397810Y703239D01*
X12397810Y703239D02*
X12493048Y655620D01*
X12493048Y655620D02*
X12588286Y655620D01*
X12921620Y1655620D02*
X12921620Y988953D01*
X12921620Y1179429D02*
X12969239Y1084191D01*
X12969239Y1084191D02*
X13016858Y1036572D01*
X13016858Y1036572D02*
X13112096Y988953D01*
X13112096Y988953D02*
X13207334Y988953D01*
X13540668Y1655620D02*
X13540668Y988953D01*
X13540668Y655620D02*
X13493049Y703239D01*
X13493049Y703239D02*
X13540668Y750858D01*
X13540668Y750858D02*
X13588287Y703239D01*
X13588287Y703239D02*
X13540668Y655620D01*
X13540668Y655620D02*
X13540668Y750858D01*
X14397810Y1608000D02*
X14302572Y1655620D01*
X14302572Y1655620D02*
X14112096Y1655620D01*
X14112096Y1655620D02*
X14016858Y1608000D01*
X14016858Y1608000D02*
X13969239Y1512762D01*
X13969239Y1512762D02*
X13969239Y1131810D01*
X13969239Y1131810D02*
X14016858Y1036572D01*
X14016858Y1036572D02*
X14112096Y988953D01*
X14112096Y988953D02*
X14302572Y988953D01*
X14302572Y988953D02*
X14397810Y1036572D01*
X14397810Y1036572D02*
X14445429Y1131810D01*
X14445429Y1131810D02*
X14445429Y1227048D01*
X14445429Y1227048D02*
X13969239Y1322286D01*
X14874001Y988953D02*
X14874001Y1655620D01*
X14874001Y1084191D02*
X14921620Y1036572D01*
X14921620Y1036572D02*
X15016858Y988953D01*
X15016858Y988953D02*
X15159715Y988953D01*
X15159715Y988953D02*
X15254953Y1036572D01*
X15254953Y1036572D02*
X15302572Y1131810D01*
X15302572Y1131810D02*
X15302572Y1655620D01*
X16207334Y1655620D02*
X16207334Y655620D01*
X16207334Y1608000D02*
X16112096Y1655620D01*
X16112096Y1655620D02*
X15921620Y1655620D01*
X15921620Y1655620D02*
X15826382Y1608000D01*
X15826382Y1608000D02*
X15778763Y1560381D01*
X15778763Y1560381D02*
X15731144Y1465143D01*
X15731144Y1465143D02*
X15731144Y1179429D01*
X15731144Y1179429D02*
X15778763Y1084191D01*
X15778763Y1084191D02*
X15826382Y1036572D01*
X15826382Y1036572D02*
X15921620Y988953D01*
X15921620Y988953D02*
X16112096Y988953D01*
X16112096Y988953D02*
X16207334Y1036572D01*
X16683525Y1274667D02*
X17445430Y1274667D01*
X17874001Y750858D02*
X17921620Y703239D01*
X17921620Y703239D02*
X18016858Y655620D01*
X18016858Y655620D02*
X18254953Y655620D01*
X18254953Y655620D02*
X18350191Y703239D01*
X18350191Y703239D02*
X18397810Y750858D01*
X18397810Y750858D02*
X18445429Y846096D01*
X18445429Y846096D02*
X18445429Y941334D01*
X18445429Y941334D02*
X18397810Y1084191D01*
X18397810Y1084191D02*
X17826382Y1655620D01*
X17826382Y1655620D02*
X18445429Y1655620D01*
X18778763Y655620D02*
X19397810Y655620D01*
X19397810Y655620D02*
X19064477Y1036572D01*
X19064477Y1036572D02*
X19207334Y1036572D01*
X19207334Y1036572D02*
X19302572Y1084191D01*
X19302572Y1084191D02*
X19350191Y1131810D01*
X19350191Y1131810D02*
X19397810Y1227048D01*
X19397810Y1227048D02*
X19397810Y1465143D01*
X19397810Y1465143D02*
X19350191Y1560381D01*
X19350191Y1560381D02*
X19302572Y1608000D01*
X19302572Y1608000D02*
X19207334Y1655620D01*
X19207334Y1655620D02*
X18921620Y1655620D01*
X18921620Y1655620D02*
X18826382Y1608000D01*
X18826382Y1608000D02*
X18778763Y1560381D01*
X19778763Y750858D02*
X19826382Y703239D01*
X19826382Y703239D02*
X19921620Y655620D01*
X19921620Y655620D02*
X20159715Y655620D01*
X20159715Y655620D02*
X20254953Y703239D01*
X20254953Y703239D02*
X20302572Y750858D01*
X20302572Y750858D02*
X20350191Y846096D01*
X20350191Y846096D02*
X20350191Y941334D01*
X20350191Y941334D02*
X20302572Y1084191D01*
X20302572Y1084191D02*
X19731144Y1655620D01*
X19731144Y1655620D02*
X20350191Y1655620D01*
%TA.AperFunction,EtchedComponent*%
%TO.C,JP3*%
G36*
X18665000Y7320000D02*
G01*
X18165000Y7320000D01*
X18165000Y7920000D01*
X18665000Y7920000D01*
X18665000Y7320000D01*
G37*
%TD.AperFunction*%
%TA.AperFunction,EtchedComponent*%
%TO.C,JP2*%
G36*
X18665000Y4780000D02*
G01*
X18165000Y4780000D01*
X18165000Y5380000D01*
X18665000Y5380000D01*
X18665000Y4780000D01*
G37*
%TD.AperFunction*%
%TA.AperFunction,EtchedComponent*%
%TO.C,JP1*%
G36*
X18015000Y12400000D02*
G01*
X17515000Y12400000D01*
X17515000Y13000000D01*
X18015000Y13000000D01*
X18015000Y12400000D01*
G37*
%TD.AperFunction*%
%TD*%
D12*
%TO.P,J2,6,Pin_6*%
%TO.N,unconnected-(J2-Pin_6-Pad6)*%
X29210000Y1905000D03*
%TO.P,J2,5,Pin_5*%
%TO.N,/UART_TX*%
X29210000Y4445000D03*
%TO.P,J2,4,Pin_4*%
%TO.N,/UART_RX*%
X29210000Y6985000D03*
%TO.P,J2,3,Pin_3*%
%TO.N,+5V*%
X29210000Y9525000D03*
%TO.P,J2,2,Pin_2*%
%TO.N,unconnected-(J2-Pin_2-Pad2)*%
X29210000Y12065000D03*
D13*
%TO.P,J2,1,Pin_1*%
%TO.N,GND*%
X29210000Y14605000D03*
%TD*%
D14*
%TO.P,JP3,1,A*%
%TO.N,/RS232_TX*%
X19065000Y7620000D03*
D15*
%TO.P,JP3,2,B*%
%TO.N,/RS232_TX_J*%
X17765000Y7620000D03*
%TD*%
D16*
%TO.P,JP2,1,A*%
%TO.N,/RS232_RX*%
X17765000Y5080000D03*
D17*
%TO.P,JP2,2,B*%
%TO.N,/RS232_RX_J*%
X19065000Y5080000D03*
%TD*%
D18*
%TO.P,JP1,1,A*%
%TO.N,GND*%
X17115000Y12700000D03*
D19*
%TO.P,JP1,2,C*%
%TO.N,/FORCEON*%
X18415000Y12700000D03*
D20*
%TO.P,JP1,3,B*%
%TO.N,+5V*%
X19715000Y12700000D03*
%TD*%
D21*
%TO.P,J1,6,6*%
%TO.N,unconnected-(J1-Pad6)*%
X33785000Y12410000D03*
%TO.P,J1,7,7*%
%TO.N,unconnected-(J1-Pad7)*%
X33785000Y9640000D03*
%TO.P,J1,8,8*%
%TO.N,unconnected-(J1-Pad8)*%
X33785000Y6870000D03*
%TO.P,J1,9,9*%
%TO.N,unconnected-(J1-Pad9)*%
X33785000Y4100000D03*
%TD*%
D22*
%TO.N,GND*%
X31242000Y2540000D03*
X32639000Y1016000D03*
X7874000Y13716000D03*
X7874000Y2540000D03*
%TO.N,/UART_TX*%
X24257000Y5588000D03*
%TO.N,/RS232_RX_J*%
X25527000Y5588000D03*
%TO.N,/RS232_TX_J*%
X27940000Y5715000D03*
%TO.N,+5V*%
X22860000Y10795000D03*
%TO.N,GND*%
X26162000Y11938000D03*
X26163739Y7131601D03*
X19939000Y9271000D03*
X22479000Y9271000D03*
%TO.N,/FORCEON*%
X22479000Y8128000D03*
%TO.N,GND*%
X15367000Y11430000D03*
X13843000Y11430000D03*
X8255000Y7620000D03*
%TO.N,/RS232_RX*%
X16891000Y5969000D03*
%TO.N,/RS232_TX*%
X19939000Y8509000D03*
%TD*%
D23*
%TO.N,GND*%
X8255000Y7620000D02*
X7874000Y8001000D01*
X7874000Y8001000D02*
X7874000Y8763000D01*
X7874000Y8763000D02*
X7874000Y13716000D01*
X8255000Y7620000D02*
X7874000Y7239000D01*
X7874000Y7239000D02*
X7874000Y2540000D01*
D24*
%TO.N,/RS232_RX_J*%
X24970300Y5031300D02*
X25527000Y5588000D01*
X19065000Y5080000D02*
X19113700Y5031300D01*
X19113700Y5031300D02*
X24970300Y5031300D01*
%TO.N,/UART_TX*%
X24892000Y6223000D02*
X24257000Y5588000D01*
%TO.N,/RS232_TX_J*%
X17877047Y6574901D02*
X17765000Y6686948D01*
%TO.N,/UART_TX*%
X24892000Y6223000D02*
X26162000Y6223000D01*
X26162000Y6223000D02*
X27940000Y4445000D01*
%TO.N,/RS232_TX_J*%
X27080099Y6574901D02*
X17877047Y6574901D01*
X27940000Y5715000D02*
X27080099Y6574901D01*
X17765000Y6686948D02*
X17765000Y7620000D01*
%TO.N,/UART_TX*%
X27940000Y4445000D02*
X29210000Y4445000D01*
D23*
%TO.N,+5V*%
X22860000Y10795000D02*
X20955000Y12700000D01*
X20955000Y12700000D02*
X19715000Y12700000D01*
D24*
%TO.N,/FORCEON*%
X18415000Y12700000D02*
X18415000Y12319000D01*
X18415000Y12319000D02*
X22479000Y8255000D01*
X22479000Y8255000D02*
X22479000Y8128000D01*
%TO.N,/RS232_RX*%
X16891000Y5954000D02*
X17765000Y5080000D01*
X16891000Y5969000D02*
X16891000Y5954000D01*
%TO.N,/RS232_TX*%
X19939000Y8509000D02*
X19939000Y8494000D01*
X19939000Y8494000D02*
X19065000Y7620000D01*
%TO.N,/UART_TX*%
X29057600Y4445000D02*
X29210000Y4445000D01*
%TO.N,unconnected-(J2-Pin_6-Pad6)*%
X29057600Y1905000D02*
X29210000Y1905000D01*
%TD*%
%TA.AperFunction,Conductor*%
%TO.N,GND*%
G36*
X34095303Y15981498D02*
G01*
X34116277Y15964595D01*
X35014595Y15066277D01*
X35048621Y15003965D01*
X35051500Y14977182D01*
X35051500Y13663034D01*
X35031498Y13594913D01*
X34977842Y13548420D01*
X34925500Y13537034D01*
X32024936Y13537034D01*
X31995227Y13531125D01*
X31965519Y13525215D01*
X31898140Y13480194D01*
X31853119Y13412815D01*
X31853118Y13412814D01*
X31853119Y13412814D01*
X31841300Y13353398D01*
X31841300Y11466602D01*
X31853119Y11407186D01*
X31898140Y11339806D01*
X31965520Y11294785D01*
X32024936Y11282966D01*
X34925500Y11282966D01*
X34993621Y11262964D01*
X35040114Y11209308D01*
X35051500Y11156966D01*
X35051500Y10893034D01*
X35031498Y10824913D01*
X34977842Y10778420D01*
X34925500Y10767034D01*
X32024936Y10767034D01*
X31995227Y10761125D01*
X31965519Y10755215D01*
X31898140Y10710194D01*
X31853119Y10642815D01*
X31853118Y10642814D01*
X31853119Y10642814D01*
X31841300Y10583398D01*
X31841300Y8696602D01*
X31853119Y8637186D01*
X31898140Y8569806D01*
X31965520Y8524785D01*
X32024936Y8512966D01*
X34925500Y8512966D01*
X34993621Y8492964D01*
X35040114Y8439308D01*
X35051500Y8386966D01*
X35051500Y8123034D01*
X35031498Y8054913D01*
X34977842Y8008420D01*
X34925500Y7997034D01*
X32024936Y7997034D01*
X31995227Y7991125D01*
X31965519Y7985215D01*
X31898140Y7940194D01*
X31853119Y7872815D01*
X31853118Y7872814D01*
X31853119Y7872814D01*
X31841300Y7813398D01*
X31841300Y5926602D01*
X31853119Y5867186D01*
X31898140Y5799806D01*
X31965520Y5754785D01*
X32024936Y5742966D01*
X34925500Y5742966D01*
X34993621Y5722964D01*
X35040114Y5669308D01*
X35051500Y5616966D01*
X35051500Y5353034D01*
X35031498Y5284913D01*
X34977842Y5238420D01*
X34925500Y5227034D01*
X32024936Y5227034D01*
X31995227Y5221125D01*
X31965519Y5215215D01*
X31898140Y5170194D01*
X31853119Y5102815D01*
X31848481Y5079500D01*
X31841300Y5043398D01*
X31841300Y3156602D01*
X31853119Y3097186D01*
X31898140Y3029806D01*
X31965520Y2984785D01*
X32024936Y2972966D01*
X34925500Y2972966D01*
X34993621Y2952964D01*
X35040114Y2899308D01*
X35051500Y2846966D01*
X35051500Y1532818D01*
X35031498Y1464697D01*
X35014595Y1443723D01*
X34116277Y545405D01*
X34053965Y511379D01*
X34027182Y508500D01*
X21188225Y508500D01*
X21120104Y528502D01*
X21073611Y582158D01*
X21062225Y634500D01*
X21062225Y1905000D01*
X28151201Y1905000D01*
X28171546Y1698444D01*
X28171546Y1698442D01*
X28171547Y1698439D01*
X28221787Y1532818D01*
X28231799Y1499814D01*
X28329643Y1316761D01*
X28461316Y1156317D01*
X28621760Y1024644D01*
X28621761Y1024644D01*
X28621763Y1024642D01*
X28804816Y926798D01*
X29003439Y866547D01*
X29210000Y846202D01*
X29416561Y866547D01*
X29615184Y926798D01*
X29798237Y1024642D01*
X29958683Y1156317D01*
X30090358Y1316763D01*
X30188202Y1499816D01*
X30248453Y1698439D01*
X30268798Y1905000D01*
X30248453Y2111561D01*
X30188202Y2310184D01*
X30090358Y2493237D01*
X30090356Y2493240D01*
X29958683Y2653684D01*
X29798239Y2785357D01*
X29615186Y2883201D01*
X29615185Y2883202D01*
X29615184Y2883202D01*
X29416561Y2943453D01*
X29416558Y2943454D01*
X29416556Y2943454D01*
X29210000Y2963799D01*
X29003443Y2943454D01*
X29003440Y2943454D01*
X29003439Y2943453D01*
X28857911Y2899308D01*
X28804813Y2883201D01*
X28621760Y2785357D01*
X28461316Y2653684D01*
X28329643Y2493240D01*
X28231799Y2310187D01*
X28171546Y2111557D01*
X28151201Y1905000D01*
X21062225Y1905000D01*
X21062225Y2124557D01*
X7619500Y2124557D01*
X7551379Y2144559D01*
X7504886Y2198215D01*
X7493500Y2250557D01*
X7493500Y5969001D01*
X16377270Y5969001D01*
X16398080Y5824269D01*
X16398080Y5824268D01*
X16398081Y5824266D01*
X16444344Y5722964D01*
X16458824Y5691257D01*
X16554578Y5580750D01*
X16677589Y5501696D01*
X16817888Y5460500D01*
X16817889Y5460500D01*
X16902814Y5460500D01*
X16970935Y5440498D01*
X16991909Y5423595D01*
X17017376Y5398128D01*
X17051402Y5335816D01*
X17054281Y5309033D01*
X17054281Y5300443D01*
X17056026Y5288308D01*
X17057309Y5270374D01*
X17057309Y4889632D01*
X17056027Y4871703D01*
X17054281Y4859558D01*
X17054281Y4800439D01*
X17074741Y4658131D01*
X17091397Y4601409D01*
X17091398Y4601406D01*
X17151126Y4470621D01*
X17183085Y4420892D01*
X17277239Y4312231D01*
X17314647Y4279817D01*
X17321917Y4273517D01*
X17376500Y4238439D01*
X17442870Y4195786D01*
X17496643Y4171229D01*
X17634598Y4130722D01*
X17649226Y4128619D01*
X17693108Y4122309D01*
X17693111Y4122309D01*
X18264999Y4122309D01*
X18265000Y4122309D01*
X18344480Y4138119D01*
X18345000Y4138467D01*
X18412751Y4159681D01*
X18481218Y4140898D01*
X18484967Y4138489D01*
X18485520Y4138119D01*
X18565000Y4122309D01*
X18565001Y4122309D01*
X19136892Y4122309D01*
X19171996Y4127357D01*
X19195402Y4130722D01*
X19333357Y4171229D01*
X19387130Y4195786D01*
X19508084Y4273518D01*
X19552761Y4312231D01*
X19646915Y4420892D01*
X19678874Y4470621D01*
X19738602Y4601406D01*
X19749082Y4637099D01*
X19787465Y4696824D01*
X19852046Y4726317D01*
X19869978Y4727600D01*
X24900205Y4727600D01*
X24917232Y4724823D01*
X24927612Y4725303D01*
X24927615Y4725302D01*
X24974419Y4727466D01*
X24980238Y4727600D01*
X24999454Y4727600D01*
X25014113Y4729302D01*
X25041037Y4730546D01*
X25047361Y4733339D01*
X25075098Y4741929D01*
X25081910Y4743202D01*
X25104835Y4757398D01*
X25120261Y4765529D01*
X25144905Y4776409D01*
X25149793Y4781298D01*
X25172563Y4799333D01*
X25178446Y4802975D01*
X25194698Y4824499D01*
X25206134Y4837640D01*
X25411092Y5042598D01*
X25473402Y5076621D01*
X25500185Y5079500D01*
X25600112Y5079500D01*
X25679514Y5102815D01*
X25740411Y5120696D01*
X25863421Y5199750D01*
X25959176Y5310257D01*
X26019919Y5443266D01*
X26040729Y5588000D01*
X26039732Y5594931D01*
X26049833Y5665201D01*
X26096324Y5718859D01*
X26164444Y5738864D01*
X26232565Y5718865D01*
X26253544Y5701959D01*
X27675686Y4279817D01*
X27685766Y4265808D01*
X27728076Y4227238D01*
X27732265Y4223238D01*
X27745153Y4210350D01*
X27745156Y4210348D01*
X27745871Y4209633D01*
X27757441Y4200468D01*
X27777353Y4182316D01*
X27783799Y4179819D01*
X27809493Y4166276D01*
X27815204Y4162364D01*
X27841443Y4156194D01*
X27858099Y4151036D01*
X27883229Y4141300D01*
X27890143Y4141300D01*
X27918991Y4137953D01*
X27925730Y4136368D01*
X27925730Y4136369D01*
X27925731Y4136368D01*
X27952427Y4140093D01*
X27969835Y4141300D01*
X28107565Y4141300D01*
X28175686Y4121298D01*
X28222179Y4067642D01*
X28228139Y4051876D01*
X28231797Y4039818D01*
X28329643Y3856761D01*
X28461316Y3696317D01*
X28621760Y3564644D01*
X28621761Y3564644D01*
X28621763Y3564642D01*
X28804816Y3466798D01*
X29003439Y3406547D01*
X29210000Y3386202D01*
X29416561Y3406547D01*
X29615184Y3466798D01*
X29798237Y3564642D01*
X29958683Y3696317D01*
X30090358Y3856763D01*
X30188202Y4039816D01*
X30248453Y4238439D01*
X30268798Y4445000D01*
X30266274Y4470621D01*
X30253393Y4601406D01*
X30248453Y4651561D01*
X30188202Y4850184D01*
X30090358Y5033237D01*
X30090356Y5033240D01*
X29958683Y5193684D01*
X29798239Y5325357D01*
X29615186Y5423201D01*
X29615185Y5423202D01*
X29615184Y5423202D01*
X29416561Y5483453D01*
X29416558Y5483454D01*
X29416556Y5483454D01*
X29209999Y5503799D01*
X29003443Y5483454D01*
X29003440Y5483454D01*
X29003439Y5483453D01*
X28861834Y5440498D01*
X28804813Y5423201D01*
X28621762Y5325359D01*
X28561370Y5275796D01*
X28496022Y5248043D01*
X28426044Y5260025D01*
X28373653Y5307939D01*
X28355482Y5376571D01*
X28366823Y5425538D01*
X28372173Y5437255D01*
X28372176Y5437257D01*
X28432919Y5570266D01*
X28453729Y5715000D01*
X28432919Y5859734D01*
X28372176Y5992743D01*
X28372174Y5992745D01*
X28366823Y6004463D01*
X28356720Y6074737D01*
X28386213Y6139318D01*
X28445939Y6177701D01*
X28516935Y6177701D01*
X28561370Y6154204D01*
X28621759Y6104644D01*
X28639497Y6095163D01*
X28804816Y6006798D01*
X29003439Y5946547D01*
X29210000Y5926202D01*
X29416561Y5946547D01*
X29615184Y6006798D01*
X29798237Y6104642D01*
X29958683Y6236317D01*
X30090358Y6396763D01*
X30188202Y6579816D01*
X30248453Y6778439D01*
X30268798Y6985000D01*
X30266274Y7010621D01*
X30253393Y7141406D01*
X30248453Y7191561D01*
X30188202Y7390184D01*
X30090358Y7573237D01*
X30052391Y7619500D01*
X29958683Y7733684D01*
X29798239Y7865357D01*
X29615186Y7963201D01*
X29615185Y7963202D01*
X29615184Y7963202D01*
X29416561Y8023453D01*
X29416558Y8023454D01*
X29416556Y8023454D01*
X29209999Y8043799D01*
X29003443Y8023454D01*
X29003440Y8023454D01*
X29003439Y8023453D01*
X28877384Y7985215D01*
X28804813Y7963201D01*
X28621760Y7865357D01*
X28461316Y7733684D01*
X28329643Y7573240D01*
X28231799Y7390187D01*
X28171546Y7191557D01*
X28151201Y6985001D01*
X28171546Y6778444D01*
X28171546Y6778442D01*
X28171547Y6778439D01*
X28226733Y6596513D01*
X28231799Y6579814D01*
X28329641Y6396764D01*
X28330505Y6395711D01*
X28362161Y6357138D01*
X28391135Y6321834D01*
X28418889Y6256487D01*
X28406907Y6186509D01*
X28358995Y6134117D01*
X28290363Y6115945D01*
X28225616Y6135902D01*
X28153412Y6182304D01*
X28013112Y6223500D01*
X28013111Y6223500D01*
X27913187Y6223500D01*
X27845066Y6243502D01*
X27824092Y6260405D01*
X27344414Y6740083D01*
X27334336Y6754090D01*
X27292021Y6792665D01*
X27287831Y6796666D01*
X27274946Y6809551D01*
X27274942Y6809554D01*
X27274227Y6810269D01*
X27262658Y6819433D01*
X27242744Y6837588D01*
X27236294Y6840086D01*
X27210608Y6853625D01*
X27204896Y6857538D01*
X27178661Y6863708D01*
X27161995Y6868868D01*
X27136870Y6878601D01*
X27129956Y6878601D01*
X27101108Y6881948D01*
X27094368Y6883534D01*
X27067672Y6879809D01*
X27050264Y6878601D01*
X19814643Y6878601D01*
X19746522Y6898603D01*
X19700029Y6952259D01*
X19689925Y7022533D01*
X19700029Y7056943D01*
X19709010Y7076612D01*
X19738602Y7141406D01*
X19755257Y7198127D01*
X19775719Y7340442D01*
X19775719Y7399557D01*
X19773973Y7411703D01*
X19772691Y7429632D01*
X19772691Y7810374D01*
X19773974Y7828308D01*
X19775719Y7840443D01*
X19775719Y7849033D01*
X19795721Y7917154D01*
X19812621Y7938127D01*
X19838093Y7963598D01*
X19900406Y7997621D01*
X19927187Y8000500D01*
X20012112Y8000500D01*
X20090285Y8023454D01*
X20152411Y8041696D01*
X20275421Y8120750D01*
X20371176Y8231257D01*
X20431919Y8364266D01*
X20452729Y8509000D01*
X20431919Y8653734D01*
X20371176Y8786743D01*
X20358392Y8801496D01*
X20275421Y8897251D01*
X20152410Y8976305D01*
X20012112Y9017500D01*
X20012111Y9017500D01*
X19865889Y9017500D01*
X19865888Y9017500D01*
X19725589Y8976305D01*
X19602578Y8897251D01*
X19506824Y8786744D01*
X19446080Y8653732D01*
X19444969Y8646003D01*
X19415474Y8581423D01*
X19355747Y8543041D01*
X19284754Y8543042D01*
X19258876Y8550641D01*
X19195398Y8569280D01*
X19136892Y8577691D01*
X19136889Y8577691D01*
X18565000Y8577691D01*
X18538506Y8572421D01*
X18485518Y8561881D01*
X18484999Y8561533D01*
X18417245Y8540320D01*
X18348779Y8559105D01*
X18345001Y8561533D01*
X18344481Y8561881D01*
X18304634Y8569807D01*
X18265000Y8577691D01*
X17693111Y8577691D01*
X17693108Y8577691D01*
X17634599Y8569279D01*
X17496645Y8528772D01*
X17496642Y8528771D01*
X17496643Y8528771D01*
X17462035Y8512966D01*
X17442866Y8504212D01*
X17321917Y8426484D01*
X17277240Y8387770D01*
X17183085Y8279109D01*
X17151126Y8229380D01*
X17091397Y8098593D01*
X17074741Y8041870D01*
X17054281Y7899562D01*
X17054281Y7840443D01*
X17056026Y7828308D01*
X17057309Y7810374D01*
X17057309Y7429632D01*
X17056027Y7411703D01*
X17054281Y7399558D01*
X17054281Y7340439D01*
X17074741Y7198131D01*
X17091397Y7141408D01*
X17091398Y7141406D01*
X17151126Y7010621D01*
X17183085Y6960892D01*
X17277239Y6852231D01*
X17321916Y6813518D01*
X17326972Y6810269D01*
X17403421Y6761138D01*
X17449914Y6707482D01*
X17458054Y6670058D01*
X17459159Y6670264D01*
X17460994Y6660438D01*
X17463000Y6643131D01*
X17464245Y6616212D01*
X17467041Y6609880D01*
X17475627Y6582150D01*
X17476900Y6575340D01*
X17491093Y6552417D01*
X17499227Y6536986D01*
X17510108Y6512344D01*
X17514996Y6507456D01*
X17533027Y6484693D01*
X17536674Y6478803D01*
X17558186Y6462558D01*
X17571350Y6451102D01*
X17612730Y6409722D01*
X17622812Y6395711D01*
X17630490Y6388712D01*
X17630491Y6388710D01*
X17665000Y6357251D01*
X17665124Y6357138D01*
X17669313Y6353138D01*
X17682200Y6340251D01*
X17682203Y6340249D01*
X17682918Y6339534D01*
X17694488Y6330369D01*
X17714400Y6312217D01*
X17720849Y6309719D01*
X17746540Y6296177D01*
X17752251Y6292265D01*
X17777425Y6286345D01*
X17839157Y6251279D01*
X17872132Y6188404D01*
X17865879Y6117684D01*
X17822385Y6061570D01*
X17755458Y6037879D01*
X17748579Y6037691D01*
X17693108Y6037691D01*
X17634599Y6029279D01*
X17545245Y6003042D01*
X17474249Y6003042D01*
X17414522Y6041426D01*
X17385030Y6106003D01*
X17383919Y6113734D01*
X17323176Y6246743D01*
X17273183Y6304438D01*
X17227421Y6357251D01*
X17104410Y6436305D01*
X16964112Y6477500D01*
X16964111Y6477500D01*
X16817889Y6477500D01*
X16817888Y6477500D01*
X16677589Y6436305D01*
X16554578Y6357251D01*
X16458824Y6246744D01*
X16398080Y6113732D01*
X16377270Y5969001D01*
X7493500Y5969001D01*
X7493500Y11929936D01*
X17711300Y11929936D01*
X17723119Y11870520D01*
X17768140Y11803140D01*
X17835520Y11758119D01*
X17894936Y11746300D01*
X18506014Y11746300D01*
X18574135Y11726298D01*
X18595109Y11709395D01*
X21947226Y8357277D01*
X21981252Y8294965D01*
X21982848Y8250250D01*
X21965270Y8128000D01*
X21986080Y7983269D01*
X21986080Y7983268D01*
X21986081Y7983266D01*
X22006694Y7938130D01*
X22046824Y7850257D01*
X22142578Y7739750D01*
X22265589Y7660696D01*
X22405888Y7619500D01*
X22405889Y7619500D01*
X22552112Y7619500D01*
X22622261Y7640099D01*
X22692411Y7660696D01*
X22815421Y7739750D01*
X22911176Y7850257D01*
X22971919Y7983266D01*
X22992729Y8128000D01*
X22971919Y8272734D01*
X22911176Y8405743D01*
X22841159Y8486547D01*
X22815421Y8516251D01*
X22732908Y8569278D01*
X22692411Y8595304D01*
X22612968Y8618631D01*
X22547412Y8637880D01*
X22493816Y8669681D01*
X21638497Y9525000D01*
X28151201Y9525000D01*
X28171546Y9318444D01*
X28171546Y9318442D01*
X28171547Y9318439D01*
X28231798Y9119816D01*
X28231799Y9119814D01*
X28329643Y8936761D01*
X28461316Y8776317D01*
X28621760Y8644644D01*
X28621761Y8644644D01*
X28621763Y8644642D01*
X28804816Y8546798D01*
X29003439Y8486547D01*
X29168687Y8470272D01*
X29209999Y8466202D01*
X29209999Y8466203D01*
X29210000Y8466202D01*
X29416561Y8486547D01*
X29615184Y8546798D01*
X29798237Y8644642D01*
X29958683Y8776317D01*
X30090358Y8936763D01*
X30188202Y9119816D01*
X30248453Y9318439D01*
X30268798Y9525000D01*
X30248453Y9731561D01*
X30188202Y9930184D01*
X30090358Y10113237D01*
X30090356Y10113240D01*
X29958683Y10273684D01*
X29798239Y10405357D01*
X29615186Y10503201D01*
X29615185Y10503202D01*
X29615184Y10503202D01*
X29416561Y10563453D01*
X29416558Y10563454D01*
X29416556Y10563454D01*
X29209999Y10583799D01*
X29003443Y10563454D01*
X29003440Y10563454D01*
X29003439Y10563453D01*
X28851150Y10517257D01*
X28804813Y10503201D01*
X28621760Y10405357D01*
X28461316Y10273684D01*
X28329643Y10113240D01*
X28231799Y9930187D01*
X28171546Y9731557D01*
X28151201Y9525000D01*
X21638497Y9525000D01*
X19636283Y11527214D01*
X19602257Y11589526D01*
X19607322Y11660341D01*
X19649869Y11717177D01*
X19716389Y11741988D01*
X19725378Y11742309D01*
X19786892Y11742309D01*
X19821996Y11747357D01*
X19845402Y11750722D01*
X19983357Y11791229D01*
X20037130Y11815786D01*
X20158084Y11893518D01*
X20202761Y11932231D01*
X20296915Y12040892D01*
X20328874Y12090621D01*
X20388602Y12221406D01*
X20388602Y12221409D01*
X20389166Y12222642D01*
X20435659Y12276298D01*
X20503780Y12296300D01*
X20735592Y12296300D01*
X20803713Y12276298D01*
X20824687Y12259395D01*
X22326220Y10757862D01*
X22360246Y10695550D01*
X22361842Y10686700D01*
X22367080Y10650268D01*
X22427824Y10517257D01*
X22523578Y10406750D01*
X22646589Y10327696D01*
X22786888Y10286500D01*
X22786889Y10286500D01*
X22933112Y10286500D01*
X23003261Y10307099D01*
X23073411Y10327696D01*
X23196421Y10406750D01*
X23292176Y10517257D01*
X23352919Y10650266D01*
X23373729Y10795000D01*
X23352919Y10939734D01*
X23292176Y11072743D01*
X23279392Y11087497D01*
X23196421Y11183251D01*
X23121535Y11231376D01*
X23073411Y11262304D01*
X22948827Y11298886D01*
X22895232Y11330686D01*
X22160917Y12065001D01*
X28151201Y12065001D01*
X28171546Y11858444D01*
X28171546Y11858442D01*
X28171547Y11858439D01*
X28214398Y11717177D01*
X28231799Y11659814D01*
X28329643Y11476761D01*
X28461316Y11316317D01*
X28621760Y11184644D01*
X28621761Y11184644D01*
X28621763Y11184642D01*
X28804816Y11086798D01*
X29003439Y11026547D01*
X29168687Y11010272D01*
X29209999Y11006202D01*
X29209999Y11006203D01*
X29210000Y11006202D01*
X29416561Y11026547D01*
X29615184Y11086798D01*
X29798237Y11184642D01*
X29958683Y11316317D01*
X30090358Y11476763D01*
X30188202Y11659816D01*
X30248453Y11858439D01*
X30268798Y12065000D01*
X30248453Y12271561D01*
X30188202Y12470184D01*
X30090358Y12653237D01*
X30090356Y12653240D01*
X29958683Y12813684D01*
X29798239Y12945357D01*
X29615186Y13043201D01*
X29615185Y13043202D01*
X29615184Y13043202D01*
X29416561Y13103453D01*
X29416558Y13103454D01*
X29416556Y13103454D01*
X29210000Y13123799D01*
X29003443Y13103454D01*
X29003440Y13103454D01*
X29003439Y13103453D01*
X28873982Y13064183D01*
X28804813Y13043201D01*
X28621760Y12945357D01*
X28461316Y12813684D01*
X28329643Y12653240D01*
X28231799Y12470187D01*
X28231798Y12470185D01*
X28231798Y12470184D01*
X28179052Y12296300D01*
X28171546Y12271557D01*
X28151201Y12065001D01*
X22160917Y12065001D01*
X21195248Y13030670D01*
X21195247Y13030671D01*
X21175413Y13040778D01*
X21158563Y13051104D01*
X21140560Y13064184D01*
X21119392Y13071062D01*
X21101131Y13078626D01*
X21081305Y13088727D01*
X21059325Y13092209D01*
X21040109Y13096822D01*
X21018939Y13103700D01*
X21018938Y13103700D01*
X20503780Y13103700D01*
X20435659Y13123702D01*
X20389166Y13177358D01*
X20388602Y13178594D01*
X20328874Y13309379D01*
X20296915Y13359108D01*
X20202761Y13467769D01*
X20158084Y13506482D01*
X20158085Y13506482D01*
X20158082Y13506484D01*
X20037133Y13584212D01*
X20037130Y13584214D01*
X19983357Y13608771D01*
X19983354Y13608772D01*
X19845400Y13649279D01*
X19786892Y13657691D01*
X19786889Y13657691D01*
X19165000Y13657691D01*
X19085520Y13641881D01*
X19064582Y13637716D01*
X19015418Y13637716D01*
X18994480Y13641881D01*
X18935064Y13653700D01*
X17894936Y13653700D01*
X17872711Y13649279D01*
X17835519Y13641881D01*
X17768140Y13596860D01*
X17723119Y13529481D01*
X17718545Y13506484D01*
X17711300Y13470064D01*
X17711300Y11929936D01*
X7493500Y11929936D01*
X7493500Y13734988D01*
X28156800Y13734988D01*
X28168590Y13675715D01*
X28213500Y13608501D01*
X28280714Y13563591D01*
X28339987Y13551800D01*
X29082500Y13551800D01*
X29082500Y14118190D01*
X29174237Y14105000D01*
X29245763Y14105000D01*
X29337500Y14118190D01*
X29337500Y13551800D01*
X30080013Y13551800D01*
X30139285Y13563591D01*
X30206499Y13608501D01*
X30251409Y13675715D01*
X30263200Y13734988D01*
X30263200Y14477500D01*
X29693671Y14477500D01*
X29710000Y14533111D01*
X29710000Y14676889D01*
X29693671Y14732500D01*
X30263200Y14732500D01*
X30263200Y15475013D01*
X30251409Y15534286D01*
X30206499Y15601500D01*
X30139285Y15646410D01*
X30080013Y15658200D01*
X29337500Y15658200D01*
X29337500Y15091811D01*
X29245763Y15105000D01*
X29174237Y15105000D01*
X29082500Y15091811D01*
X29082500Y15658200D01*
X28339987Y15658200D01*
X28280714Y15646410D01*
X28213500Y15601500D01*
X28168590Y15534286D01*
X28156800Y15475013D01*
X28156800Y14732500D01*
X28726329Y14732500D01*
X28710000Y14676889D01*
X28710000Y14533111D01*
X28726329Y14477500D01*
X28156800Y14477500D01*
X28156800Y13734988D01*
X7493500Y13734988D01*
X7493500Y14027443D01*
X7513502Y14095564D01*
X7567158Y14142057D01*
X7619500Y14153443D01*
X18998748Y14153443D01*
X18998748Y15875500D01*
X19018750Y15943621D01*
X19072406Y15990114D01*
X19124748Y16001500D01*
X34027182Y16001500D01*
X34095303Y15981498D01*
G37*
%TD.AperFunction*%
%TD*%
M02*
