<?xml version="1.0" standalone="no"?>
 <!DOCTYPE svg PUBLIC "-//W3C//DTD SVG 1.1//EN" 
 "http://www.w3.org/Graphics/SVG/1.1/DTD/svg11.dtd"> 
<svg xmlns="http://www.w3.org/2000/svg" version="1.1" 
    width="29.7002cm" height="21.0007cm" viewBox="0 0 116930 82680 ">
<title>SVG Picture created as uart-friend-B.SilkS.svg date 2016/07/24 12:31:50 </title>
  <desc>Picture generated by PCBNEW </desc>
<g style="fill:#000000; fill-opacity:1;stroke:#000000; stroke-opacity:1;
stroke-linecap:round; stroke-linejoin:round; "
 transform="translate(0 0) scale(1 1)">
</g>
<g style="fill:#000000; fill-opacity:0.0; 
stroke:#000000; stroke-width:-0.000393701; stroke-opacity:1; 
stroke-linecap:round; stroke-linejoin:round;">
</g>
<g style="fill:#000000; fill-opacity:0.0; 
stroke:#000000; stroke-width:39.3701; stroke-opacity:1; 
stroke-linecap:round; stroke-linejoin:round;">
</g>
<g style="fill:#000000; fill-opacity:0.0; 
stroke:#000000; stroke-width:59.0551; stroke-opacity:1; 
stroke-linecap:round; stroke-linejoin:round;">
<rect x="69685.9" y="65357.2" width="42519.7" height="12598.4" rx="0" />
</g>
<g style="fill:#000000; fill-opacity:0.0; 
stroke:#000000; stroke-width:39.3701; stroke-opacity:1; 
stroke-linecap:round; stroke-linejoin:round;">
</g>
<g style="fill:#000000; fill-opacity:0.0; 
stroke:#000000; stroke-width:59.0551; stroke-opacity:1; 
stroke-linecap:round; stroke-linejoin:round;">
<rect x="3937.01" y="3937.01" width="109056" height="74806" rx="0" />
</g>
<g style="fill:#000000; fill-opacity:0.0; 
stroke:#000000; stroke-width:39.3701; stroke-opacity:1; 
stroke-linecap:round; stroke-linejoin:round;">
</g>
<g style="fill:#000000; fill-opacity:0.0; 
stroke:#000000; stroke-width:59.0551; stroke-opacity:1; 
stroke-linecap:round; stroke-linejoin:round;">
<rect x="4724.41" y="4724.41" width="107481" height="73231.2" rx="0" />
</g>
<g style="fill:#000000; fill-opacity:0.0; 
stroke:#000000; stroke-width:39.3701; stroke-opacity:1; 
stroke-linecap:round; stroke-linejoin:round;">
</g>
<g style="fill:#000000; fill-opacity:0.0; 
stroke:#000000; stroke-width:59.0551; stroke-opacity:1; 
stroke-linecap:round; stroke-linejoin:round;">
<path d="M23622 4724
L23622 3937
" />
</g>
<g style="fill:#000000; fill-opacity:0.0; 
stroke:#000000; stroke-width:39.3701; stroke-opacity:1; 
stroke-linecap:round; stroke-linejoin:round;">
</g>
<g style="fill:#000000; fill-opacity:0.0; 
stroke:#000000; stroke-width:59.0551; stroke-opacity:1; 
stroke-linecap:round; stroke-linejoin:round;">
<path d="M43307 4724
L43307 3937
" />
</g>
<g style="fill:#000000; fill-opacity:0.0; 
stroke:#000000; stroke-width:39.3701; stroke-opacity:1; 
stroke-linecap:round; stroke-linejoin:round;">
</g>
<g style="fill:#000000; fill-opacity:0.0; 
stroke:#000000; stroke-width:59.0551; stroke-opacity:1; 
stroke-linecap:round; stroke-linejoin:round;">
<path d="M62992 4724
L62992 3937
" />
</g>
<g style="fill:#000000; fill-opacity:0.0; 
stroke:#000000; stroke-width:39.3701; stroke-opacity:1; 
stroke-linecap:round; stroke-linejoin:round;">
</g>
<g style="fill:#000000; fill-opacity:0.0; 
stroke:#000000; stroke-width:59.0551; stroke-opacity:1; 
stroke-linecap:round; stroke-linejoin:round;">
<path d="M82677 4724
L82677 3937
" />
</g>
<g style="fill:#000000; fill-opacity:0.0; 
stroke:#000000; stroke-width:39.3701; stroke-opacity:1; 
stroke-linecap:round; stroke-linejoin:round;">
</g>
<g style="fill:#000000; fill-opacity:0.0; 
stroke:#000000; stroke-width:59.0551; stroke-opacity:1; 
stroke-linecap:round; stroke-linejoin:round;">
<path d="M102362 4724
L102362 3937
" />
</g>
<g style="fill:#000000; fill-opacity:0.0; 
stroke:#000000; stroke-width:39.3701; stroke-opacity:1; 
stroke-linecap:round; stroke-linejoin:round;">
</g>
<g style="fill:#000000; fill-opacity:0.0; 
stroke:#000000; stroke-width:59.0551; stroke-opacity:1; 
stroke-linecap:round; stroke-linejoin:round;">
<path d="M14169 4562
L13877 4562
" />
<path d="M14023 4562
L14023 4050
L13974 4123
L13925 4172
L13877 4196
" />
</g>
<g style="fill:#000000; fill-opacity:0.0; 
stroke:#000000; stroke-width:39.3701; stroke-opacity:1; 
stroke-linecap:round; stroke-linejoin:round;">
</g>
<g style="fill:#000000; fill-opacity:0.0; 
stroke:#000000; stroke-width:59.0551; stroke-opacity:1; 
stroke-linecap:round; stroke-linejoin:round;">
<path d="M33562 4099
L33586 4074
L33635 4050
L33757 4050
L33805 4074
L33830 4099
L33854 4147
L33854 4196
L33830 4269
L33537 4562
L33854 4562
" />
</g>
<g style="fill:#000000; fill-opacity:0.0; 
stroke:#000000; stroke-width:39.3701; stroke-opacity:1; 
stroke-linecap:round; stroke-linejoin:round;">
</g>
<g style="fill:#000000; fill-opacity:0.0; 
stroke:#000000; stroke-width:59.0551; stroke-opacity:1; 
stroke-linecap:round; stroke-linejoin:round;">
<path d="M53222 4050
L53539 4050
L53368 4245
L53442 4245
L53490 4269
L53515 4294
L53539 4342
L53539 4464
L53515 4513
L53490 4537
L53442 4562
L53295 4562
L53247 4537
L53222 4513
" />
</g>
<g style="fill:#000000; fill-opacity:0.0; 
stroke:#000000; stroke-width:39.3701; stroke-opacity:1; 
stroke-linecap:round; stroke-linejoin:round;">
</g>
<g style="fill:#000000; fill-opacity:0.0; 
stroke:#000000; stroke-width:59.0551; stroke-opacity:1; 
stroke-linecap:round; stroke-linejoin:round;">
<path d="M73175 4221
L73175 4562
" />
<path d="M73053 4026
L72932 4391
L73248 4391
" />
</g>
<g style="fill:#000000; fill-opacity:0.0; 
stroke:#000000; stroke-width:39.3701; stroke-opacity:1; 
stroke-linecap:round; stroke-linejoin:round;">
</g>
<g style="fill:#000000; fill-opacity:0.0; 
stroke:#000000; stroke-width:59.0551; stroke-opacity:1; 
stroke-linecap:round; stroke-linejoin:round;">
<path d="M92885 4050
L92641 4050
L92617 4294
L92641 4269
L92690 4245
L92812 4245
L92860 4269
L92885 4294
L92909 4342
L92909 4464
L92885 4513
L92860 4537
L92812 4562
L92690 4562
L92641 4537
L92617 4513
" />
</g>
<g style="fill:#000000; fill-opacity:0.0; 
stroke:#000000; stroke-width:39.3701; stroke-opacity:1; 
stroke-linecap:round; stroke-linejoin:round;">
</g>
<g style="fill:#000000; fill-opacity:0.0; 
stroke:#000000; stroke-width:59.0551; stroke-opacity:1; 
stroke-linecap:round; stroke-linejoin:round;">
<path d="M112545 4050
L112448 4050
L112399 4074
L112375 4099
L112326 4172
L112302 4269
L112302 4464
L112326 4513
L112350 4537
L112399 4562
L112497 4562
L112545 4537
L112570 4513
L112594 4464
L112594 4342
L112570 4294
L112545 4269
L112497 4245
L112399 4245
L112350 4269
L112326 4294
L112302 4342
" />
</g>
<g style="fill:#000000; fill-opacity:0.0; 
stroke:#000000; stroke-width:39.3701; stroke-opacity:1; 
stroke-linecap:round; stroke-linejoin:round;">
</g>
<g style="fill:#000000; fill-opacity:0.0; 
stroke:#000000; stroke-width:59.0551; stroke-opacity:1; 
stroke-linecap:round; stroke-linejoin:round;">
<path d="M23622 77955
L23622 78742
" />
</g>
<g style="fill:#000000; fill-opacity:0.0; 
stroke:#000000; stroke-width:39.3701; stroke-opacity:1; 
stroke-linecap:round; stroke-linejoin:round;">
</g>
<g style="fill:#000000; fill-opacity:0.0; 
stroke:#000000; stroke-width:59.0551; stroke-opacity:1; 
stroke-linecap:round; stroke-linejoin:round;">
<path d="M43307 77955
L43307 78742
" />
</g>
<g style="fill:#000000; fill-opacity:0.0; 
stroke:#000000; stroke-width:39.3701; stroke-opacity:1; 
stroke-linecap:round; stroke-linejoin:round;">
</g>
<g style="fill:#000000; fill-opacity:0.0; 
stroke:#000000; stroke-width:59.0551; stroke-opacity:1; 
stroke-linecap:round; stroke-linejoin:round;">
<path d="M62992 77955
L62992 78742
" />
</g>
<g style="fill:#000000; fill-opacity:0.0; 
stroke:#000000; stroke-width:39.3701; stroke-opacity:1; 
stroke-linecap:round; stroke-linejoin:round;">
</g>
<g style="fill:#000000; fill-opacity:0.0; 
stroke:#000000; stroke-width:59.0551; stroke-opacity:1; 
stroke-linecap:round; stroke-linejoin:round;">
<path d="M82677 77955
L82677 78742
" />
</g>
<g style="fill:#000000; fill-opacity:0.0; 
stroke:#000000; stroke-width:39.3701; stroke-opacity:1; 
stroke-linecap:round; stroke-linejoin:round;">
</g>
<g style="fill:#000000; fill-opacity:0.0; 
stroke:#000000; stroke-width:59.0551; stroke-opacity:1; 
stroke-linecap:round; stroke-linejoin:round;">
<path d="M102362 77955
L102362 78742
" />
</g>
<g style="fill:#000000; fill-opacity:0.0; 
stroke:#000000; stroke-width:39.3701; stroke-opacity:1; 
stroke-linecap:round; stroke-linejoin:round;">
</g>
<g style="fill:#000000; fill-opacity:0.0; 
stroke:#000000; stroke-width:59.0551; stroke-opacity:1; 
stroke-linecap:round; stroke-linejoin:round;">
<path d="M14169 78580
L13877 78580
" />
<path d="M14023 78580
L14023 78069
L13974 78142
L13925 78190
L13877 78215
" />
</g>
<g style="fill:#000000; fill-opacity:0.0; 
stroke:#000000; stroke-width:39.3701; stroke-opacity:1; 
stroke-linecap:round; stroke-linejoin:round;">
</g>
<g style="fill:#000000; fill-opacity:0.0; 
stroke:#000000; stroke-width:59.0551; stroke-opacity:1; 
stroke-linecap:round; stroke-linejoin:round;">
<path d="M33562 78117
L33586 78093
L33635 78069
L33757 78069
L33805 78093
L33830 78117
L33854 78166
L33854 78215
L33830 78288
L33537 78580
L33854 78580
" />
</g>
<g style="fill:#000000; fill-opacity:0.0; 
stroke:#000000; stroke-width:39.3701; stroke-opacity:1; 
stroke-linecap:round; stroke-linejoin:round;">
</g>
<g style="fill:#000000; fill-opacity:0.0; 
stroke:#000000; stroke-width:59.0551; stroke-opacity:1; 
stroke-linecap:round; stroke-linejoin:round;">
<path d="M53222 78069
L53539 78069
L53368 78263
L53442 78263
L53490 78288
L53515 78312
L53539 78361
L53539 78483
L53515 78532
L53490 78556
L53442 78580
L53295 78580
L53247 78556
L53222 78532
" />
</g>
<g style="fill:#000000; fill-opacity:0.0; 
stroke:#000000; stroke-width:39.3701; stroke-opacity:1; 
stroke-linecap:round; stroke-linejoin:round;">
</g>
<g style="fill:#000000; fill-opacity:0.0; 
stroke:#000000; stroke-width:59.0551; stroke-opacity:1; 
stroke-linecap:round; stroke-linejoin:round;">
<path d="M73175 78239
L73175 78580
" />
<path d="M73053 78044
L72932 78410
L73248 78410
" />
</g>
<g style="fill:#000000; fill-opacity:0.0; 
stroke:#000000; stroke-width:39.3701; stroke-opacity:1; 
stroke-linecap:round; stroke-linejoin:round;">
</g>
<g style="fill:#000000; fill-opacity:0.0; 
stroke:#000000; stroke-width:59.0551; stroke-opacity:1; 
stroke-linecap:round; stroke-linejoin:round;">
<path d="M92885 78069
L92641 78069
L92617 78312
L92641 78288
L92690 78263
L92812 78263
L92860 78288
L92885 78312
L92909 78361
L92909 78483
L92885 78532
L92860 78556
L92812 78580
L92690 78580
L92641 78556
L92617 78532
" />
</g>
<g style="fill:#000000; fill-opacity:0.0; 
stroke:#000000; stroke-width:39.3701; stroke-opacity:1; 
stroke-linecap:round; stroke-linejoin:round;">
</g>
<g style="fill:#000000; fill-opacity:0.0; 
stroke:#000000; stroke-width:59.0551; stroke-opacity:1; 
stroke-linecap:round; stroke-linejoin:round;">
<path d="M112545 78069
L112448 78069
L112399 78093
L112375 78117
L112326 78190
L112302 78288
L112302 78483
L112326 78532
L112350 78556
L112399 78580
L112497 78580
L112545 78556
L112570 78532
L112594 78483
L112594 78361
L112570 78312
L112545 78288
L112497 78263
L112399 78263
L112350 78288
L112326 78312
L112302 78361
" />
</g>
<g style="fill:#000000; fill-opacity:0.0; 
stroke:#000000; stroke-width:39.3701; stroke-opacity:1; 
stroke-linecap:round; stroke-linejoin:round;">
</g>
<g style="fill:#000000; fill-opacity:0.0; 
stroke:#000000; stroke-width:59.0551; stroke-opacity:1; 
stroke-linecap:round; stroke-linejoin:round;">
<path d="M3937 23622
L4724 23622
" />
</g>
<g style="fill:#000000; fill-opacity:0.0; 
stroke:#000000; stroke-width:39.3701; stroke-opacity:1; 
stroke-linecap:round; stroke-linejoin:round;">
</g>
<g style="fill:#000000; fill-opacity:0.0; 
stroke:#000000; stroke-width:59.0551; stroke-opacity:1; 
stroke-linecap:round; stroke-linejoin:round;">
<path d="M3937 43307
L4724 43307
" />
</g>
<g style="fill:#000000; fill-opacity:0.0; 
stroke:#000000; stroke-width:39.3701; stroke-opacity:1; 
stroke-linecap:round; stroke-linejoin:round;">
</g>
<g style="fill:#000000; fill-opacity:0.0; 
stroke:#000000; stroke-width:59.0551; stroke-opacity:1; 
stroke-linecap:round; stroke-linejoin:round;">
<path d="M3937 62992
L4724 62992
" />
</g>
<g style="fill:#000000; fill-opacity:0.0; 
stroke:#000000; stroke-width:39.3701; stroke-opacity:1; 
stroke-linecap:round; stroke-linejoin:round;">
</g>
<g style="fill:#000000; fill-opacity:0.0; 
stroke:#000000; stroke-width:59.0551; stroke-opacity:1; 
stroke-linecap:round; stroke-linejoin:round;">
<path d="M4208 13864
L4452 13864
" />
<path d="M4160 14011
L4330 13499
L4501 14011
" />
</g>
<g style="fill:#000000; fill-opacity:0.0; 
stroke:#000000; stroke-width:39.3701; stroke-opacity:1; 
stroke-linecap:round; stroke-linejoin:round;">
</g>
<g style="fill:#000000; fill-opacity:0.0; 
stroke:#000000; stroke-width:59.0551; stroke-opacity:1; 
stroke-linecap:round; stroke-linejoin:round;">
<path d="M4367 33428
L4440 33452
L4464 33476
L4489 33525
L4489 33598
L4464 33647
L4440 33671
L4391 33696
L4196 33696
L4196 33184
L4367 33184
L4416 33208
L4440 33233
L4464 33281
L4464 33330
L4440 33379
L4416 33403
L4367 33428
L4196 33428
" />
</g>
<g style="fill:#000000; fill-opacity:0.0; 
stroke:#000000; stroke-width:39.3701; stroke-opacity:1; 
stroke-linecap:round; stroke-linejoin:round;">
</g>
<g style="fill:#000000; fill-opacity:0.0; 
stroke:#000000; stroke-width:59.0551; stroke-opacity:1; 
stroke-linecap:round; stroke-linejoin:round;">
<path d="M4489 53332
L4464 53356
L4391 53381
L4342 53381
L4269 53356
L4221 53308
L4196 53259
L4172 53161
L4172 53088
L4196 52991
L4221 52942
L4269 52893
L4342 52869
L4391 52869
L4464 52893
L4489 52918
" />
</g>
<g style="fill:#000000; fill-opacity:0.0; 
stroke:#000000; stroke-width:39.3701; stroke-opacity:1; 
stroke-linecap:round; stroke-linejoin:round;">
</g>
<g style="fill:#000000; fill-opacity:0.0; 
stroke:#000000; stroke-width:59.0551; stroke-opacity:1; 
stroke-linecap:round; stroke-linejoin:round;">
<path d="M4196 73066
L4196 72554
L4318 72554
L4391 72578
L4440 72627
L4464 72676
L4489 72773
L4489 72846
L4464 72944
L4440 72993
L4391 73041
L4318 73066
L4196 73066
" />
</g>
<g style="fill:#000000; fill-opacity:0.0; 
stroke:#000000; stroke-width:39.3701; stroke-opacity:1; 
stroke-linecap:round; stroke-linejoin:round;">
</g>
<g style="fill:#000000; fill-opacity:0.0; 
stroke:#000000; stroke-width:59.0551; stroke-opacity:1; 
stroke-linecap:round; stroke-linejoin:round;">
<path d="M112992 23622
L112205 23622
" />
</g>
<g style="fill:#000000; fill-opacity:0.0; 
stroke:#000000; stroke-width:39.3701; stroke-opacity:1; 
stroke-linecap:round; stroke-linejoin:round;">
</g>
<g style="fill:#000000; fill-opacity:0.0; 
stroke:#000000; stroke-width:59.0551; stroke-opacity:1; 
stroke-linecap:round; stroke-linejoin:round;">
<path d="M112992 43307
L112205 43307
" />
</g>
<g style="fill:#000000; fill-opacity:0.0; 
stroke:#000000; stroke-width:39.3701; stroke-opacity:1; 
stroke-linecap:round; stroke-linejoin:round;">
</g>
<g style="fill:#000000; fill-opacity:0.0; 
stroke:#000000; stroke-width:59.0551; stroke-opacity:1; 
stroke-linecap:round; stroke-linejoin:round;">
<path d="M112992 62992
L112205 62992
" />
</g>
<g style="fill:#000000; fill-opacity:0.0; 
stroke:#000000; stroke-width:39.3701; stroke-opacity:1; 
stroke-linecap:round; stroke-linejoin:round;">
</g>
<g style="fill:#000000; fill-opacity:0.0; 
stroke:#000000; stroke-width:59.0551; stroke-opacity:1; 
stroke-linecap:round; stroke-linejoin:round;">
<path d="M112477 13864
L112721 13864
" />
<path d="M112428 14011
L112599 13499
L112769 14011
" />
</g>
<g style="fill:#000000; fill-opacity:0.0; 
stroke:#000000; stroke-width:39.3701; stroke-opacity:1; 
stroke-linecap:round; stroke-linejoin:round;">
</g>
<g style="fill:#000000; fill-opacity:0.0; 
stroke:#000000; stroke-width:59.0551; stroke-opacity:1; 
stroke-linecap:round; stroke-linejoin:round;">
<path d="M112635 33428
L112708 33452
L112733 33476
L112757 33525
L112757 33598
L112733 33647
L112708 33671
L112660 33696
L112465 33696
L112465 33184
L112635 33184
L112684 33208
L112708 33233
L112733 33281
L112733 33330
L112708 33379
L112684 33403
L112635 33428
L112465 33428
" />
</g>
<g style="fill:#000000; fill-opacity:0.0; 
stroke:#000000; stroke-width:39.3701; stroke-opacity:1; 
stroke-linecap:round; stroke-linejoin:round;">
</g>
<g style="fill:#000000; fill-opacity:0.0; 
stroke:#000000; stroke-width:59.0551; stroke-opacity:1; 
stroke-linecap:round; stroke-linejoin:round;">
<path d="M112757 53332
L112733 53356
L112660 53381
L112611 53381
L112538 53356
L112489 53308
L112465 53259
L112440 53161
L112440 53088
L112465 52991
L112489 52942
L112538 52893
L112611 52869
L112660 52869
L112733 52893
L112757 52918
" />
</g>
<g style="fill:#000000; fill-opacity:0.0; 
stroke:#000000; stroke-width:39.3701; stroke-opacity:1; 
stroke-linecap:round; stroke-linejoin:round;">
</g>
<g style="fill:#000000; fill-opacity:0.0; 
stroke:#000000; stroke-width:59.0551; stroke-opacity:1; 
stroke-linecap:round; stroke-linejoin:round;">
<path d="M112465 73066
L112465 72554
L112587 72554
L112660 72578
L112708 72627
L112733 72676
L112757 72773
L112757 72846
L112733 72944
L112708 72993
L112660 73041
L112587 73066
L112465 73066
" />
</g>
<g style="fill:#000000; fill-opacity:0.0; 
stroke:#000000; stroke-width:39.3701; stroke-opacity:1; 
stroke-linecap:round; stroke-linejoin:round;">
</g>
<g style="fill:#000000; fill-opacity:0.0; 
stroke:#000000; stroke-width:59.0551; stroke-opacity:1; 
stroke-linecap:round; stroke-linejoin:round;">
<path d="M78881 76293
L78881 75703
L79022 75703
L79106 75731
L79162 75787
L79190 75843
L79219 75956
L79219 76040
L79190 76153
L79162 76209
L79106 76265
L79022 76293
L78881 76293
" />
<path d="M79725 76293
L79725 75984
L79697 75928
L79640 75899
L79528 75899
L79472 75928
" />
<path d="M79725 76265
L79669 76293
L79528 76293
L79472 76265
L79444 76209
L79444 76153
L79472 76096
L79528 76068
L79669 76068
L79725 76040
" />
<path d="M79922 75899
L80147 75899
" />
<path d="M80006 75703
L80006 76209
L80034 76265
L80090 76293
L80147 76293
" />
<path d="M80568 76265
L80512 76293
L80400 76293
L80343 76265
L80315 76209
L80315 75984
L80343 75928
L80400 75899
L80512 75899
L80568 75928
L80597 75984
L80597 76040
L80315 76096
" />
<path d="M80850 76237
L80878 76265
L80850 76293
L80822 76265
L80850 76237
L80850 76293
" />
<path d="M80850 75928
L80878 75956
L80850 75984
L80822 75956
L80850 75928
L80850 75984
" />
</g>
<g style="fill:#000000; fill-opacity:0.0; 
stroke:#000000; stroke-width:39.3701; stroke-opacity:1; 
stroke-linecap:round; stroke-linejoin:round;">
</g>
<g style="fill:#000000; fill-opacity:0.0; 
stroke:#000000; stroke-width:59.0551; stroke-opacity:1; 
stroke-linecap:round; stroke-linejoin:round;">
<path d="M69685 76577
L112205 76577
" />
</g>
<g style="fill:#000000; fill-opacity:0.0; 
stroke:#000000; stroke-width:39.3701; stroke-opacity:1; 
stroke-linecap:round; stroke-linejoin:round;">
</g>
<g style="fill:#000000; fill-opacity:0.0; 
stroke:#000000; stroke-width:59.0551; stroke-opacity:1; 
stroke-linecap:round; stroke-linejoin:round;">
<path d="M70220 77395
L70220 76805
" />
<path d="M70557 77395
L70304 77058
" />
<path d="M70557 76805
L70220 77142
" />
<path d="M70810 77395
L70810 77002
" />
<path d="M70810 76805
L70782 76833
L70810 76861
L70838 76833
L70810 76805
L70810 76861
" />
<path d="M71429 77339
L71401 77367
L71316 77395
L71260 77395
L71176 77367
L71120 77311
L71091 77255
L71063 77142
L71063 77058
L71091 76946
L71120 76889
L71176 76833
L71260 76805
L71316 76805
L71401 76833
L71429 76861
" />
<path d="M71935 77395
L71935 77086
L71907 77030
L71851 77002
L71738 77002
L71682 77030
" />
<path d="M71935 77367
L71879 77395
L71738 77395
L71682 77367
L71654 77311
L71654 77255
L71682 77199
L71738 77171
L71879 77171
L71935 77142
" />
<path d="M72469 77395
L72469 76805
" />
<path d="M72469 77367
L72413 77395
L72301 77395
L72244 77367
L72216 77339
L72188 77283
L72188 77114
L72216 77058
L72244 77030
L72301 77002
L72413 77002
L72469 77030
" />
<path d="M73201 77086
L73397 77086
" />
<path d="M73482 77395
L73201 77395
L73201 76805
L73482 76805
" />
<path d="M73735 77339
L73763 77367
L73735 77395
L73707 77367
L73735 77339
L73735 77395
" />
<path d="M74016 77395
L74016 76805
L74157 76805
L74241 76833
L74297 76889
L74325 76946
L74354 77058
L74354 77142
L74325 77255
L74297 77311
L74241 77367
L74157 77395
L74016 77395
" />
<path d="M74607 77339
L74635 77367
L74607 77395
L74579 77367
L74607 77339
L74607 77395
" />
<path d="M74860 77227
L75141 77227
" />
<path d="M74804 77395
L75000 76805
L75197 77395
" />
<path d="M75394 77339
L75422 77367
L75394 77395
L75366 77367
L75394 77339
L75394 77395
" />
<path d="M76575 77395
L76575 76805
" />
<path d="M76631 77171
L76800 77395
" />
<path d="M76800 77002
L76575 77227
" />
<path d="M77053 77395
L77053 77002
" />
<path d="M77053 76805
L77025 76833
L77053 76861
L77081 76833
L77053 76805
L77053 76861
" />
<path d="M77588 77367
L77531 77395
L77419 77395
L77363 77367
L77334 77339
L77306 77283
L77306 77114
L77334 77058
L77363 77030
L77419 77002
L77531 77002
L77588 77030
" />
<path d="M78094 77395
L78094 77086
L78066 77030
L78009 77002
L77897 77002
L77841 77030
" />
<path d="M78094 77367
L78037 77395
L77897 77395
L77841 77367
L77813 77311
L77813 77255
L77841 77199
L77897 77171
L78037 77171
L78094 77142
" />
<path d="M78628 77395
L78628 76805
" />
<path d="M78628 77367
L78572 77395
L78459 77395
L78403 77367
L78375 77339
L78347 77283
L78347 77114
L78375 77058
L78403 77030
L78459 77002
L78572 77002
L78628 77030
" />
<path d="M79612 77002
L79612 77395
" />
<path d="M79472 76777
L79331 77199
L79697 77199
" />
<path d="M79922 77339
L79950 77367
L79922 77395
L79894 77367
L79922 77339
L79922 77395
" />
<path d="M80315 76805
L80372 76805
L80428 76833
L80456 76861
L80484 76917
L80512 77030
L80512 77171
L80484 77283
L80456 77339
L80428 77367
L80372 77395
L80315 77395
L80259 77367
L80231 77339
L80203 77283
L80175 77171
L80175 77030
L80203 76917
L80231 76861
L80259 76833
L80315 76805
" />
<path d="M80765 77339
L80793 77367
L80765 77395
L80737 77367
L80765 77339
L80765 77395
" />
<path d="M81159 76805
L81215 76805
L81271 76833
L81300 76861
L81328 76917
L81356 77030
L81356 77171
L81328 77283
L81300 77339
L81271 77367
L81215 77395
L81159 77395
L81103 77367
L81075 77339
L81046 77283
L81018 77171
L81018 77030
L81046 76917
L81075 76861
L81103 76833
L81159 76805
" />
<path d="M81609 77171
L82059 77171
" />
<path d="M82312 77367
L82368 77395
L82481 77395
L82537 77367
L82565 77311
L82565 77283
L82537 77227
L82481 77199
L82396 77199
L82340 77171
L82312 77114
L82312 77086
L82340 77030
L82396 77002
L82481 77002
L82537 77030
" />
<path d="M82734 77002
L82959 77002
" />
<path d="M82818 76805
L82818 77311
L82846 77367
L82903 77395
L82959 77395
" />
<path d="M83409 77395
L83409 77086
L83381 77030
L83324 77002
L83212 77002
L83156 77030
" />
<path d="M83409 77367
L83352 77395
L83212 77395
L83156 77367
L83127 77311
L83127 77255
L83156 77199
L83212 77171
L83352 77171
L83409 77142
" />
<path d="M83690 77395
L83690 76805
" />
<path d="M83690 77030
L83746 77002
L83859 77002
L83915 77030
L83943 77058
L83971 77114
L83971 77283
L83943 77339
L83915 77367
L83859 77395
L83746 77395
L83690 77367
" />
<path d="M84309 77395
L84252 77367
L84224 77311
L84224 76805
" />
<path d="M84759 77367
L84702 77395
L84590 77395
L84534 77367
L84505 77311
L84505 77086
L84534 77030
L84590 77002
L84702 77002
L84759 77030
L84787 77086
L84787 77142
L84505 77199
" />
</g>
<g style="fill:#000000; fill-opacity:0.0; 
stroke:#000000; stroke-width:39.3701; stroke-opacity:1; 
stroke-linecap:round; stroke-linejoin:round;">
</g>
<g style="fill:#000000; fill-opacity:0.0; 
stroke:#000000; stroke-width:59.0551; stroke-opacity:1; 
stroke-linecap:round; stroke-linejoin:round;">
<path d="M69685 75396
L112205 75396
" />
</g>
<g style="fill:#000000; fill-opacity:0.0; 
stroke:#000000; stroke-width:39.3701; stroke-opacity:1; 
stroke-linecap:round; stroke-linejoin:round;">
</g>
<g style="fill:#000000; fill-opacity:0.0; 
stroke:#000000; stroke-width:118.11; stroke-opacity:1; 
stroke-linecap:round; stroke-linejoin:round;">
<path d="M104022 76293
L103825 76012
" />
<path d="M103684 76293
L103684 75703
L103909 75703
L103965 75731
L103994 75759
L104022 75815
L104022 75899
L103994 75956
L103965 75984
L103909 76012
L103684 76012
" />
<path d="M104500 76265
L104444 76293
L104331 76293
L104275 76265
L104247 76209
L104247 75984
L104275 75928
L104331 75899
L104444 75899
L104500 75928
L104528 75984
L104528 76040
L104247 76096
" />
<path d="M104725 75899
L104865 76293
L105006 75899
" />
<path d="M105231 76237
L105259 76265
L105231 76293
L105203 76265
L105231 76237
L105231 76293
" />
<path d="M105231 75928
L105259 75956
L105231 75984
L105203 75956
L105231 75928
L105231 75984
" />
</g>
<g style="fill:#000000; fill-opacity:0.0; 
stroke:#000000; stroke-width:39.3701; stroke-opacity:1; 
stroke-linecap:round; stroke-linejoin:round;">
</g>
<g style="fill:#000000; fill-opacity:0.0; 
stroke:#000000; stroke-width:59.0551; stroke-opacity:1; 
stroke-linecap:round; stroke-linejoin:round;">
<path d="M70192 76265
L70276 76293
L70417 76293
L70473 76265
L70501 76237
L70529 76181
L70529 76124
L70501 76068
L70473 76040
L70417 76012
L70304 75984
L70248 75956
L70220 75928
L70192 75871
L70192 75815
L70220 75759
L70248 75731
L70304 75703
L70445 75703
L70529 75731
" />
<path d="M70782 76293
L70782 75899
" />
<path d="M70782 75703
L70754 75731
L70782 75759
L70810 75731
L70782 75703
L70782 75759
" />
<path d="M71007 75899
L71316 75899
L71007 76293
L71316 76293
" />
<path d="M71766 76265
L71710 76293
L71598 76293
L71541 76265
L71513 76209
L71513 75984
L71541 75928
L71598 75899
L71710 75899
L71766 75928
L71795 75984
L71795 76040
L71513 76096
" />
<path d="M72048 76237
L72076 76265
L72048 76293
L72019 76265
L72048 76237
L72048 76293
" />
<path d="M72048 75928
L72076 75956
L72048 75984
L72019 75956
L72048 75928
L72048 75984
" />
<path d="M72751 76124
L73032 76124
" />
<path d="M72694 76293
L72891 75703
L73088 76293
" />
<path d="M73538 75899
L73538 76293
" />
<path d="M73397 75674
L73257 76096
L73622 76096
" />
</g>
<g style="fill:#000000; fill-opacity:0.0; 
stroke:#000000; stroke-width:39.3701; stroke-opacity:1; 
stroke-linecap:round; stroke-linejoin:round;">
</g>
<g style="fill:#000000; fill-opacity:0.0; 
stroke:#000000; stroke-width:59.0551; stroke-opacity:1; 
stroke-linecap:round; stroke-linejoin:round;">
<path d="M103684 77395
L103684 76805
" />
<path d="M104219 77395
L104219 76805
" />
<path d="M104219 77367
L104162 77395
L104050 77395
L103994 77367
L103965 77339
L103937 77283
L103937 77114
L103965 77058
L103994 77030
L104050 77002
L104162 77002
L104219 77030
" />
<path d="M104500 77339
L104528 77367
L104500 77395
L104472 77367
L104500 77339
L104500 77395
" />
<path d="M104500 77030
L104528 77058
L104500 77086
L104472 77058
L104500 77030
L104500 77086
" />
<path d="M105540 77395
L105203 77395
" />
<path d="M105372 77395
L105372 76805
L105315 76889
L105259 76946
L105203 76974
" />
<path d="M106215 76777
L105709 77536
" />
<path d="M106721 77395
L106384 77395
" />
<path d="M106553 77395
L106553 76805
L106496 76889
L106440 76946
L106384 76974
" />
</g>
<g style="fill:#000000; fill-opacity:0.0; 
stroke:#000000; stroke-width:39.3701; stroke-opacity:1; 
stroke-linecap:round; stroke-linejoin:round;">
</g>
<g style="fill:#000000; fill-opacity:0.0; 
stroke:#000000; stroke-width:59.0551; stroke-opacity:1; 
stroke-linecap:round; stroke-linejoin:round;">
<path d="M69685 73821
L112205 73821
" />
</g>
<g style="fill:#000000; fill-opacity:0.0; 
stroke:#000000; stroke-width:39.3701; stroke-opacity:1; 
stroke-linecap:round; stroke-linejoin:round;">
</g>
<g style="fill:#000000; fill-opacity:0.0; 
stroke:#000000; stroke-width:157.48; stroke-opacity:1; 
stroke-linecap:round; stroke-linejoin:round;">
<path d="M70257 74099
L70707 74099
" />
<path d="M70384 74886
L70482 74099
" />
<path d="M70871 74886
L70937 74361
" />
<path d="M70970 74099
L70927 74136
L70960 74174
L71002 74136
L70970 74099
L70960 74174
" />
<path d="M71199 74361
L71499 74361
" />
<path d="M71345 74099
L71260 74774
L71288 74849
L71359 74886
L71434 74886
" />
<path d="M71809 74886
L71738 74849
L71710 74774
L71795 74099
" />
<path d="M72413 74849
L72334 74886
L72184 74886
L72113 74849
L72085 74774
L72123 74474
L72169 74399
L72249 74361
L72399 74361
L72469 74399
L72498 74474
L72488 74549
L72104 74624
" />
<path d="M72793 74811
L72826 74849
L72783 74886
L72751 74849
L72793 74811
L72783 74886
" />
<path d="M72844 74399
L72877 74436
L72835 74474
L72802 74436
L72844 74399
L72835 74474
" />
</g>
<g style="fill:#000000; fill-opacity:0.0; 
stroke:#000000; stroke-width:39.3701; stroke-opacity:1; 
stroke-linecap:round; stroke-linejoin:round;">
</g>
<g style="fill:#000000; fill-opacity:0.0; 
stroke:#000000; stroke-width:59.0551; stroke-opacity:1; 
stroke-linecap:round; stroke-linejoin:round;">
<path d="M70417 73070
L70220 73070
" />
<path d="M70220 73380
L70220 72789
L70501 72789
" />
<path d="M70726 73380
L70726 72986
" />
<path d="M70726 72789
L70698 72817
L70726 72845
L70754 72817
L70726 72789
L70726 72845
" />
<path d="M71091 73380
L71035 73352
L71007 73295
L71007 72789
" />
<path d="M71541 73352
L71485 73380
L71373 73380
L71316 73352
L71288 73295
L71288 73070
L71316 73014
L71373 72986
L71485 72986
L71541 73014
L71570 73070
L71570 73127
L71288 73183
" />
<path d="M71823 73323
L71851 73352
L71823 73380
L71795 73352
L71823 73323
L71823 73380
" />
<path d="M71823 73014
L71851 73042
L71823 73070
L71795 73042
L71823 73014
L71823 73070
" />
<path d="M72807 72986
L72807 73380
" />
<path d="M72554 72986
L72554 73295
L72582 73352
L72638 73380
L72723 73380
L72779 73352
L72807 73323
" />
<path d="M73341 73380
L73341 73070
L73313 73014
L73257 72986
L73144 72986
L73088 73014
" />
<path d="M73341 73352
L73285 73380
L73144 73380
L73088 73352
L73060 73295
L73060 73239
L73088 73183
L73144 73155
L73285 73155
L73341 73127
" />
<path d="M73622 73380
L73622 72986
" />
<path d="M73622 73099
L73651 73042
L73679 73014
L73735 72986
L73791 72986
" />
<path d="M73904 72986
L74129 72986
" />
<path d="M73988 72789
L73988 73295
L74016 73352
L74072 73380
L74129 73380
" />
<path d="M74325 73155
L74775 73155
" />
<path d="M74972 72986
L75197 72986
" />
<path d="M75057 73380
L75057 72874
L75085 72817
L75141 72789
L75197 72789
" />
<path d="M75394 73380
L75394 72986
" />
<path d="M75394 73099
L75422 73042
L75450 73014
L75507 72986
L75563 72986
" />
<path d="M75760 73380
L75760 72986
" />
<path d="M75760 72789
L75732 72817
L75760 72845
L75788 72817
L75760 72789
L75760 72845
" />
<path d="M76266 73352
L76210 73380
L76097 73380
L76041 73352
L76013 73295
L76013 73070
L76041 73014
L76097 72986
L76210 72986
L76266 73014
L76294 73070
L76294 73127
L76013 73183
" />
<path d="M76547 72986
L76547 73380
" />
<path d="M76547 73042
L76575 73014
L76631 72986
L76716 72986
L76772 73014
L76800 73070
L76800 73380
" />
<path d="M77334 73380
L77334 72789
" />
<path d="M77334 73352
L77278 73380
L77166 73380
L77109 73352
L77081 73323
L77053 73267
L77053 73099
L77081 73042
L77109 73014
L77166 72986
L77278 72986
L77334 73014
" />
<path d="M77616 73323
L77644 73352
L77616 73380
L77588 73352
L77616 73323
L77616 73380
" />
<path d="M77897 73380
L77897 72789
" />
<path d="M77953 73155
L78122 73380
" />
<path d="M78122 72986
L77897 73211
" />
<path d="M78375 73380
L78375 72986
" />
<path d="M78375 72789
L78347 72817
L78375 72845
L78403 72817
L78375 72789
L78375 72845
" />
<path d="M78909 73352
L78853 73380
L78741 73380
L78684 73352
L78656 73323
L78628 73267
L78628 73099
L78656 73042
L78684 73014
L78741 72986
L78853 72986
L78909 73014
" />
<path d="M79415 73380
L79415 73070
L79387 73014
L79331 72986
L79219 72986
L79162 73014
" />
<path d="M79415 73352
L79359 73380
L79219 73380
L79162 73352
L79134 73295
L79134 73239
L79162 73183
L79219 73155
L79359 73155
L79415 73127
" />
<path d="M79950 73380
L79950 72789
" />
<path d="M79950 73352
L79894 73380
L79781 73380
L79725 73352
L79697 73323
L79669 73267
L79669 73099
L79697 73042
L79725 73014
L79781 72986
L79894 72986
L79950 73014
" />
<path d="M80090 73436
L80540 73436
" />
<path d="M80681 72986
L80681 73577
" />
<path d="M80681 73014
L80737 72986
L80850 72986
L80906 73014
L80934 73042
L80962 73099
L80962 73267
L80934 73323
L80906 73352
L80850 73380
L80737 73380
L80681 73352
" />
<path d="M81468 73352
L81412 73380
L81300 73380
L81243 73352
L81215 73323
L81187 73267
L81187 73099
L81215 73042
L81243 73014
L81300 72986
L81412 72986
L81468 73014
" />
<path d="M81721 73380
L81721 72789
" />
<path d="M81721 73014
L81778 72986
L81890 72986
L81946 73014
L81974 73042
L82003 73099
L82003 73267
L81974 73323
L81946 73352
L81890 73380
L81778 73380
L81721 73352
" />
</g>
<g style="fill:#000000; fill-opacity:0.0; 
stroke:#000000; stroke-width:39.3701; stroke-opacity:1; 
stroke-linecap:round; stroke-linejoin:round;">
</g>
<g style="fill:#000000; fill-opacity:0.0; 
stroke:#000000; stroke-width:59.0551; stroke-opacity:1; 
stroke-linecap:round; stroke-linejoin:round;">
<path d="M69685 71459
L112205 71459
" />
</g>
<g style="fill:#000000; fill-opacity:0.0; 
stroke:#000000; stroke-width:39.3701; stroke-opacity:1; 
stroke-linecap:round; stroke-linejoin:round;">
</g>
<g style="fill:#000000; fill-opacity:0.0; 
stroke:#000000; stroke-width:59.0551; stroke-opacity:1; 
stroke-linecap:round; stroke-linejoin:round;">
<path d="M70192 72289
L70276 72317
L70417 72317
L70473 72289
L70501 72260
L70529 72204
L70529 72148
L70501 72092
L70473 72064
L70417 72036
L70304 72007
L70248 71979
L70220 71951
L70192 71895
L70192 71839
L70220 71782
L70248 71754
L70304 71726
L70445 71726
L70529 71754
" />
<path d="M70782 72317
L70782 71726
" />
<path d="M71035 72317
L71035 72007
L71007 71951
L70951 71923
L70867 71923
L70810 71951
L70782 71979
" />
<path d="M71541 72289
L71485 72317
L71373 72317
L71316 72289
L71288 72232
L71288 72007
L71316 71951
L71373 71923
L71485 71923
L71541 71951
L71570 72007
L71570 72064
L71288 72120
" />
<path d="M72048 72289
L71991 72317
L71879 72317
L71823 72289
L71795 72232
L71795 72007
L71823 71951
L71879 71923
L71991 71923
L72048 71951
L72076 72007
L72076 72064
L71795 72120
" />
<path d="M72244 71923
L72469 71923
" />
<path d="M72329 71726
L72329 72232
L72357 72289
L72413 72317
L72469 72317
" />
<path d="M72666 72260
L72694 72289
L72666 72317
L72638 72289
L72666 72260
L72666 72317
" />
<path d="M72666 71951
L72694 71979
L72666 72007
L72638 71979
L72666 71951
L72666 72007
" />
</g>
<g style="fill:#000000; fill-opacity:0.0; 
stroke:#000000; stroke-width:39.3701; stroke-opacity:1; 
stroke-linecap:round; stroke-linejoin:round;">
</g>
<g style="fill:#000000; fill-opacity:0.0; 
stroke:#000000; stroke-width:59.0551; stroke-opacity:1; 
stroke-linecap:round; stroke-linejoin:round;">
<path d="M77559 75396
L77559 76577
" />
</g>
<g style="fill:#000000; fill-opacity:0.0; 
stroke:#000000; stroke-width:39.3701; stroke-opacity:1; 
stroke-linecap:round; stroke-linejoin:round;">
</g>
<g style="fill:#000000; fill-opacity:0.0; 
stroke:#000000; stroke-width:59.0551; stroke-opacity:1; 
stroke-linecap:round; stroke-linejoin:round;">
<path d="M102756 75396
L102756 77955
" />
</g>
<g style="fill:#840084; fill-opacity:0.0; 
stroke:#840084; stroke-width:59.0551; stroke-opacity:1; 
stroke-linecap:round; stroke-linejoin:round;">
<path d="M73490 36884
L73509 36865
L73528 36809
L73528 36771
L73509 36715
L73471 36678
L73434 36659
L73359 36640
L73303 36640
L73228 36659
L73190 36678
L73153 36715
L73134 36771
L73134 36809
L73153 36865
L73171 36884
" />
<path d="M73134 36996
L73134 37221
" />
<path d="M73528 37109
L73134 37109
" />
<path d="M73509 37334
L73528 37390
L73528 37484
L73509 37521
L73490 37540
L73453 37559
L73415 37559
L73378 37540
L73359 37521
L73340 37484
L73321 37409
L73303 37371
L73284 37353
L73246 37334
L73209 37334
L73171 37353
L73153 37371
L73134 37409
L73134 37503
L73153 37559
" />
<path d="M73066 36565
L73066 37634
" />
<path d="M73134 37768
L73528 37900
L73134 38031
" />
<path d="M73134 38106
L73134 38331
" />
<path d="M73528 38218
L73134 38218
" />
<path d="M73134 38700
L73134 38925
" />
<path d="M73528 38812
L73134 38812
" />
<path d="M73134 39018
L73528 39281
" />
<path d="M73134 39281
L73528 39018
" />
<path d="M73528 39884
L73340 39753
" />
<path d="M73528 39659
L73134 39659
L73134 39809
L73153 39846
L73171 39865
L73209 39884
L73265 39884
L73303 39865
L73321 39846
L73340 39809
L73340 39659
" />
<path d="M73134 40015
L73528 40278
" />
<path d="M73134 40278
L73528 40015
" />
<path d="M73528 40550
L73134 40550
L73134 40643
L73153 40700
L73190 40737
L73228 40756
L73303 40775
L73359 40775
L73434 40756
L73471 40737
L73509 40700
L73528 40643
L73528 40550
" />
<path d="M73134 40887
L73134 41112
" />
<path d="M73528 41000
L73134 41000
" />
<path d="M73528 41468
L73340 41337
" />
<path d="M73528 41243
L73134 41243
L73134 41393
L73153 41431
L73171 41449
L73209 41468
L73265 41468
L73303 41449
L73321 41431
L73340 41393
L73340 41243
" />
<path d="M73066 40456
L73066 41543
" />
<path d="M72684 37875
L72684 37687
L72871 37668
L72853 37687
L72834 37725
L72834 37818
L72853 37856
L72871 37875
L72909 37893
L73003 37893
L73040 37875
L73059 37856
L73078 37818
L73078 37725
L73059 37687
L73040 37668
" />
<path d="M72684 38006
L73078 38137
L72684 38268
" />
<path d="M69934 37196
L70328 37328
L69934 37459
" />
<path d="M70328 37815
L70140 37684
" />
<path d="M70328 37590
L69934 37590
L69934 37740
L69953 37778
L69971 37796
L70009 37815
L70065 37815
L70103 37796
L70121 37778
L70140 37740
L70140 37590
" />
<path d="M70121 37984
L70121 38115
" />
<path d="M70328 38171
L70328 37984
L69934 37984
L69934 38171
" />
<path d="M69953 38546
L69934 38509
L69934 38453
L69953 38396
L69990 38359
L70028 38340
L70103 38321
L70159 38321
L70234 38340
L70271 38359
L70309 38396
L70328 38453
L70328 38490
L70309 38546
L70290 38565
L70159 38565
L70159 38490
" />
<path d="M69184 37875
L69184 37687
L69371 37668
L69353 37687
L69334 37725
L69334 37818
L69353 37856
L69371 37875
L69409 37893
L69503 37893
L69540 37875
L69559 37856
L69578 37818
L69578 37725
L69559 37687
L69540 37668
" />
<path d="M69184 38006
L69578 38137
L69184 38268
" />
<path d="M66434 37246
L66828 37378
L66434 37509
" />
<path d="M66828 37865
L66640 37734
" />
<path d="M66828 37640
L66434 37640
L66434 37790
L66453 37828
L66471 37846
L66509 37865
L66565 37865
L66603 37846
L66621 37828
L66640 37790
L66640 37640
" />
<path d="M66621 38034
L66621 38165
" />
<path d="M66828 38221
L66828 38034
L66434 38034
L66434 38221
" />
<path d="M66453 38596
L66434 38559
L66434 38503
L66453 38446
L66490 38409
L66528 38390
L66603 38371
L66659 38371
L66734 38390
L66771 38409
L66809 38446
L66828 38503
L66828 38540
L66809 38596
L66790 38615
L66659 38615
L66659 38540
" />
<path d="M65684 37368
L65684 37612
L65834 37481
L65834 37537
L65853 37575
L65871 37593
L65909 37612
L66003 37612
L66040 37593
L66059 37575
L66078 37537
L66078 37425
L66059 37387
L66040 37368
" />
<path d="M66040 37781
L66059 37800
L66078 37781
L66059 37762
L66040 37781
L66078 37781
" />
<path d="M65684 37931
L65684 38174
L65834 38043
L65834 38099
L65853 38137
L65871 38156
L65909 38174
L66003 38174
L66040 38156
L66059 38137
L66078 38099
L66078 37987
L66059 37950
L66040 37931
" />
<path d="M65684 38287
L66078 38418
L65684 38549
" />
<path d="M63278 37662
L63278 37437
" />
<path d="M63278 37550
L62884 37550
L62940 37512
L62978 37475
L62996 37437
" />
<path d="M63240 37831
L63259 37850
L63278 37831
L63259 37812
L63240 37831
L63278 37831
" />
<path d="M63053 38074
L63034 38037
L63015 38018
L62978 38000
L62959 38000
L62921 38018
L62903 38037
L62884 38074
L62884 38149
L62903 38187
L62921 38206
L62959 38224
L62978 38224
L63015 38206
L63034 38187
L63053 38149
L63053 38074
L63071 38037
L63090 38018
L63128 38000
L63203 38000
L63240 38018
L63259 38037
L63278 38074
L63278 38149
L63259 38187
L63240 38206
L63203 38224
L63128 38224
L63090 38206
L63071 38187
L63053 38149
" />
<path d="M62884 38337
L63278 38468
L62884 38599
" />
<path d="M65203 35434
L65071 35828
L64940 35434
" />
<path d="M64584 35828
L64715 35640
" />
<path d="M64809 35828
L64809 35434
L64659 35434
L64621 35453
L64603 35471
L64584 35509
L64584 35565
L64603 35603
L64621 35621
L64659 35640
L64809 35640
" />
<path d="M64415 35621
L64284 35621
" />
<path d="M64228 35828
L64415 35828
L64415 35434
L64228 35434
" />
<path d="M63853 35453
L63890 35434
L63946 35434
L64003 35453
L64040 35490
L64059 35528
L64078 35603
L64078 35659
L64059 35734
L64040 35771
L64003 35809
L63946 35828
L63909 35828
L63853 35809
L63834 35790
L63834 35659
L63909 35659
" />
<path d="M68524 35429
L68393 35822
L68262 35429
" />
<path d="M67906 35785
L67925 35804
L67981 35822
L68018 35822
L68074 35804
L68112 35766
L68131 35729
L68149 35654
L68149 35598
L68131 35523
L68112 35485
L68074 35448
L68018 35429
L67981 35429
L67925 35448
L67906 35466
" />
<path d="M67512 35785
L67531 35804
L67587 35822
L67625 35822
L67681 35804
L67718 35766
L67737 35729
L67756 35654
L67756 35598
L67737 35523
L67718 35485
L67681 35448
L67625 35429
L67587 35429
L67531 35448
L67512 35466
" />
<path d="M68778 36583
L68796 36564
L68834 36508
L68853 36470
L68871 36414
L68890 36320
L68890 36245
L68871 36152
L68853 36095
L68834 36058
L68796 36002
L68778 35983
" />
<path d="M68571 36433
L68609 36414
L68628 36376
L68628 36039
" />
<path d="M68365 36433
L68403 36414
L68421 36395
L68440 36358
L68440 36245
L68421 36208
L68403 36189
L68365 36170
L68309 36170
L68271 36189
L68253 36208
L68234 36245
L68234 36358
L68253 36395
L68271 36414
L68309 36433
L68365 36433
" />
<path d="M67896 36170
L67896 36489
L67915 36526
L67934 36545
L67971 36564
L68028 36564
L68065 36545
" />
<path d="M67896 36414
L67934 36433
L68009 36433
L68046 36414
L68065 36395
L68084 36358
L68084 36245
L68065 36208
L68046 36189
L68009 36170
L67934 36170
L67896 36189
" />
<path d="M67709 36433
L67709 36170
" />
<path d="M67709 36039
L67728 36058
L67709 36077
L67690 36058
L67709 36039
L67709 36077
" />
<path d="M67353 36414
L67390 36433
L67465 36433
L67503 36414
L67521 36395
L67540 36358
L67540 36245
L67521 36208
L67503 36189
L67465 36170
L67390 36170
L67353 36189
" />
<path d="M67221 36583
L67203 36564
L67165 36508
L67146 36470
L67128 36414
L67109 36320
L67109 36245
L67128 36152
L67146 36095
L67165 36058
L67203 36002
L67221 35983
" />
<path d="M72671 35429
L72540 35822
L72409 35429
" />
<path d="M72334 35429
L72109 35429
" />
<path d="M72221 35822
L72221 35429
" />
<path d="M71996 35710
L71809 35710
" />
<path d="M72034 35822
L71903 35429
L71771 35822
" />
<path d="M71415 35822
L71546 35635
" />
<path d="M71640 35822
L71640 35429
L71490 35429
L71453 35448
L71434 35466
L71415 35504
L71415 35560
L71434 35598
L71453 35616
L71490 35635
L71640 35635
" />
<path d="M71040 35448
L71078 35429
L71134 35429
L71190 35448
L71228 35485
L71246 35523
L71265 35598
L71265 35654
L71246 35729
L71228 35766
L71190 35804
L71134 35822
L71096 35822
L71040 35804
L71021 35785
L71021 35654
L71096 35654
" />
<path d="M70853 35616
L70721 35616
" />
<path d="M70665 35822
L70853 35822
L70853 35429
L70665 35429
" />
<path d="M70553 35429
L70328 35429
" />
<path d="M70440 35822
L70440 35429
" />
<path d="M72502 36583
L72521 36564
L72559 36508
L72577 36470
L72596 36414
L72615 36320
L72615 36245
L72596 36152
L72577 36095
L72559 36058
L72521 36002
L72502 35983
" />
<path d="M72371 36414
L72334 36433
L72259 36433
L72221 36414
L72203 36376
L72203 36358
L72221 36320
L72259 36301
L72315 36301
L72353 36283
L72371 36245
L72371 36226
L72353 36189
L72315 36170
L72259 36170
L72221 36189
" />
<path d="M71865 36170
L71865 36433
" />
<path d="M72034 36170
L72034 36376
L72015 36414
L71978 36433
L71921 36433
L71884 36414
L71865 36395
" />
<path d="M71678 36170
L71678 36564
" />
<path d="M71678 36189
L71640 36170
L71565 36170
L71528 36189
L71509 36208
L71490 36245
L71490 36358
L71509 36395
L71528 36414
L71565 36433
L71640 36433
L71678 36414
" />
<path d="M71321 36170
L71321 36564
" />
<path d="M71321 36189
L71284 36170
L71209 36170
L71171 36189
L71153 36208
L71134 36245
L71134 36358
L71153 36395
L71171 36414
L71209 36433
L71284 36433
L71321 36414
" />
<path d="M70909 36433
L70946 36414
L70965 36376
L70965 36039
" />
<path d="M70796 36170
L70703 36433
" />
<path d="M70609 36170
L70703 36433
L70740 36526
L70759 36545
L70796 36564
" />
<path d="M70497 36583
L70478 36564
L70440 36508
L70422 36470
L70403 36414
L70384 36320
L70384 36245
L70403 36152
L70422 36095
L70440 36058
L70478 36002
L70497 35983
" />
</g>
<g style="fill:#C2C200; fill-opacity:0.0; 
stroke:#C2C200; stroke-width:59.0551; stroke-opacity:1; 
stroke-linecap:round; stroke-linejoin:round;">
<path d="M74750 41750
L74750 35250
" />
<path d="M62500 41750
L74750 41750
" />
<path d="M62500 35250
L62500 41750
" />
<path d="M74750 35250
L62500 35250
" />
</g>
<g style="fill:#840000; fill-opacity:0.0; 
stroke:#840000; stroke-width:59.0551; stroke-opacity:1; 
stroke-linecap:round; stroke-linejoin:round;">
<path d="M71185 40709
L70792 40709
L70792 40859
L70811 40896
L70829 40915
L70867 40934
L70923 40934
L70961 40915
L70979 40896
L70998 40859
L70998 40709
" />
<path d="M70792 41065
L70792 41309
L70942 41178
L70942 41234
L70961 41271
L70979 41290
L71017 41309
L71110 41309
L71148 41290
L71167 41271
L71185 41234
L71185 41121
L71167 41084
L71148 41065
" />
<path d="M67685 40709
L67292 40709
L67292 40859
L67311 40896
L67329 40915
L67367 40934
L67423 40934
L67461 40915
L67479 40896
L67498 40859
L67498 40709
" />
<path d="M67423 41271
L67685 41271
" />
<path d="M67273 41178
L67554 41084
L67554 41328
" />
<path d="M74685 40709
L74292 40709
L74292 40859
L74311 40896
L74329 40915
L74367 40934
L74423 40934
L74461 40915
L74479 40896
L74498 40859
L74498 40709
" />
<path d="M74292 41271
L74292 41196
L74311 41159
L74329 41140
L74386 41103
L74461 41084
L74610 41084
L74648 41103
L74667 41121
L74685 41159
L74685 41234
L74667 41271
L74648 41290
L74610 41309
L74517 41309
L74479 41290
L74461 41271
L74442 41234
L74442 41159
L74461 41121
L74479 41103
L74517 41084
" />
</g>
<g style="fill:#840084; fill-opacity:0.0; 
stroke:#840084; stroke-width:59.0551; stroke-opacity:1; 
stroke-linecap:round; stroke-linejoin:round;">
<path d="M69610 41511
L69000 41511
" />
<path d="M69610 41000
L69610 41511
" />
<path d="M69050 39350
L69050 37050
" />
<path d="M69050 37050
L68950 37050
" />
<path d="M68950 37050
L68950 39350
" />
<path d="M68950 39350
L69000 39350
" />
<path d="M69000 39350
L69000 37050
" />
<path d="M69100 40400
L69100 40550
" />
<path d="M68900 40400
L68900 40550
" />
<path d="M68100 40400
L68100 40550
" />
<path d="M67900 40400
L67900 40550
" />
<path d="M67100 40400
L67100 40550
" />
<path d="M66900 40400
L66900 40550
" />
<path d="M68500 39400
L69500 39400
" />
<path d="M68900 37000
L68900 39400
" />
<path d="M69100 37000
L68900 37000
" />
<path d="M69100 39400
L69100 37000
" />
<path d="M68500 40400
L68500 39400
" />
<path d="M69500 40400
L68500 40400
" />
<path d="M69500 40400
L69500 39400
" />
<path d="M67500 40400
L67500 39400
" />
<path d="M67500 40400
L66500 40400
" />
<path d="M67100 39400
L67100 37000
" />
<path d="M67100 37000
L66900 37000
" />
<path d="M66900 37000
L66900 39400
" />
<path d="M66500 39400
L67500 39400
" />
<path d="M67500 39400
L68500 39400
" />
<path d="M67900 37000
L67900 39400
" />
<path d="M68100 37000
L67900 37000
" />
<path d="M68100 39400
L68100 37000
" />
<path d="M67500 40400
L67500 39400
" />
<path d="M68500 40400
L67500 40400
" />
<path d="M68500 40400
L68500 39400
" />
<path d="M66500 40400
L66500 39400
" />
<path d="M66110 41511
L65500 41511
" />
<path d="M66110 41000
L66110 41511
" />
<path d="M65550 39350
L65550 37050
" />
<path d="M65550 37050
L65450 37050
" />
<path d="M65450 37050
L65450 39350
" />
<path d="M65450 39350
L65500 39350
" />
<path d="M65500 39350
L65500 37050
" />
<path d="M65600 40400
L65600 40550
" />
<path d="M65400 40400
L65400 40550
" />
<path d="M64600 40400
L64600 40550
" />
<path d="M64400 40400
L64400 40550
" />
<path d="M63600 40400
L63600 40550
" />
<path d="M63400 40400
L63400 40550
" />
<path d="M65000 39400
L66000 39400
" />
<path d="M65400 37000
L65400 39400
" />
<path d="M65600 37000
L65400 37000
" />
<path d="M65600 39400
L65600 37000
" />
<path d="M65000 40400
L65000 39400
" />
<path d="M66000 40400
L65000 40400
" />
<path d="M66000 40400
L66000 39400
" />
<path d="M64000 40400
L64000 39400
" />
<path d="M64000 40400
L63000 40400
" />
<path d="M63600 39400
L63600 37000
" />
<path d="M63600 37000
L63400 37000
" />
<path d="M63400 37000
L63400 39400
" />
<path d="M63000 39400
L64000 39400
" />
<path d="M64000 39400
L65000 39400
" />
<path d="M64400 37000
L64400 39400
" />
<path d="M64600 37000
L64400 37000
" />
<path d="M64600 39400
L64600 37000
" />
<path d="M64000 40400
L64000 39400
" />
<path d="M65000 40400
L64000 40400
" />
<path d="M65000 40400
L65000 39400
" />
<path d="M63000 40400
L63000 39400
" />
<path d="M73110 41511
L72500 41511
" />
<path d="M73110 41000
L73110 41511
" />
<path d="M72550 39350
L72550 37050
" />
<path d="M72550 37050
L72450 37050
" />
<path d="M72450 37050
L72450 39350
" />
<path d="M72450 39350
L72500 39350
" />
<path d="M72500 39350
L72500 37050
" />
<path d="M72600 40400
L72600 40550
" />
<path d="M72400 40400
L72400 40550
" />
<path d="M71600 40400
L71600 40550
" />
<path d="M71400 40400
L71400 40550
" />
<path d="M70600 40400
L70600 40550
" />
<path d="M70400 40400
L70400 40550
" />
<path d="M72000 39400
L73000 39400
" />
<path d="M72400 37000
L72400 39400
" />
<path d="M72600 37000
L72400 37000
" />
<path d="M72600 39400
L72600 37000
" />
<path d="M72000 40400
L72000 39400
" />
<path d="M73000 40400
L72000 40400
" />
<path d="M73000 40400
L73000 39400
" />
<path d="M71000 40400
L71000 39400
" />
<path d="M71000 40400
L70000 40400
" />
<path d="M70600 39400
L70600 37000
" />
<path d="M70600 37000
L70400 37000
" />
<path d="M70400 37000
L70400 39400
" />
<path d="M70000 39400
L71000 39400
" />
<path d="M71000 39400
L72000 39400
" />
<path d="M71400 37000
L71400 39400
" />
<path d="M71600 37000
L71400 37000
" />
<path d="M71600 39400
L71600 37000
" />
<path d="M71000 40400
L71000 39400
" />
<path d="M72000 40400
L71000 40400
" />
<path d="M72000 40400
L72000 39400
" />
<path d="M70000 40400
L70000 39400
" />
</g>
<g style="fill:#840000; fill-opacity:0.0; 
stroke:#840000; stroke-width:59.0551; stroke-opacity:1; 
stroke-linecap:round; stroke-linejoin:round;">
</g>
<g style="fill:#840000; fill-opacity:0.0; 
stroke:#840000; stroke-width:0; stroke-opacity:1; 
stroke-linecap:round; stroke-linejoin:round;">
</g>
<g style="fill:#840000; fill-opacity:1.0; 
stroke:#840000; stroke-width:0; stroke-opacity:1; 
stroke-linecap:round; stroke-linejoin:round;">
<polyline style="fill-rule:evenodd;"
points="69340,41400
68660,41400
68660,40600
69340,40600
69340,41400
" /> 
</g>
<g style="fill:#840000; fill-opacity:1.0; 
stroke:#840000; stroke-width:680; stroke-opacity:1; 
stroke-linecap:round; stroke-linejoin:round;">
</g>
<g style="fill:#840000; fill-opacity:0.0; 
stroke:#840000; stroke-width:680; stroke-opacity:1; 
stroke-linecap:round; stroke-linejoin:round;">
<path d="M68000 41060
L68000 40940
" />
<path d="M67000 41060
L67000 40940
" />
</g>
<g style="fill:#840000; fill-opacity:0.0; 
stroke:#840000; stroke-width:0; stroke-opacity:1; 
stroke-linecap:round; stroke-linejoin:round;">
</g>
<g style="fill:#840000; fill-opacity:1.0; 
stroke:#840000; stroke-width:0; stroke-opacity:1; 
stroke-linecap:round; stroke-linejoin:round;">
<polyline style="fill-rule:evenodd;"
points="65840,41400
65160,41400
65160,40600
65840,40600
65840,41400
" /> 
</g>
<g style="fill:#840000; fill-opacity:1.0; 
stroke:#840000; stroke-width:680; stroke-opacity:1; 
stroke-linecap:round; stroke-linejoin:round;">
</g>
<g style="fill:#840000; fill-opacity:0.0; 
stroke:#840000; stroke-width:680; stroke-opacity:1; 
stroke-linecap:round; stroke-linejoin:round;">
<path d="M64500 41060
L64500 40940
" />
<path d="M63500 41060
L63500 40940
" />
</g>
<g style="fill:#840000; fill-opacity:0.0; 
stroke:#840000; stroke-width:0; stroke-opacity:1; 
stroke-linecap:round; stroke-linejoin:round;">
</g>
<g style="fill:#840000; fill-opacity:1.0; 
stroke:#840000; stroke-width:0; stroke-opacity:1; 
stroke-linecap:round; stroke-linejoin:round;">
<polyline style="fill-rule:evenodd;"
points="72840,41400
72160,41400
72160,40600
72840,40600
72840,41400
" /> 
</g>
<g style="fill:#840000; fill-opacity:1.0; 
stroke:#840000; stroke-width:680; stroke-opacity:1; 
stroke-linecap:round; stroke-linejoin:round;">
</g>
<g style="fill:#840000; fill-opacity:0.0; 
stroke:#840000; stroke-width:680; stroke-opacity:1; 
stroke-linecap:round; stroke-linejoin:round;">
<path d="M71500 41060
L71500 40940
" />
<path d="M70500 41060
L70500 40940
" />
</g> 
</svg>
