G04 #@! TF.FileFunction,Soldermask,Top*
%FSLAX46Y46*%
G04 Gerber Fmt 4.6, Leading zero omitted, Abs format (unit mm)*
G04 Created by KiCad (PCBNEW 4.0.0-stable) date Monday, June 13, 2016 'PMt' 12:16:50 PM*
%MOMM*%
G01*
G04 APERTURE LIST*
%ADD10C,0.100000*%
%ADD11R,2.432000X2.127200*%
%ADD12O,2.432000X2.127200*%
%ADD13R,2.127200X2.432000*%
%ADD14O,2.127200X2.432000*%
%ADD15R,1.598880X1.598880*%
%ADD16R,1.200100X1.200100*%
%ADD17R,1.400000X1.650000*%
%ADD18R,0.850000X2.150000*%
%ADD19R,1.100000X1.700000*%
%ADD20R,1.460000X1.050000*%
%ADD21R,1.700000X1.100000*%
%ADD22R,1.750000X0.800000*%
%ADD23O,1.350000X1.650000*%
%ADD24O,1.950000X1.400000*%
%ADD25R,2.429460X1.540460*%
G04 APERTURE END LIST*
D10*
D11*
X29210000Y32385000D03*
D12*
X29210000Y29845000D03*
X29210000Y27305000D03*
X29210000Y24765000D03*
X29210000Y22225000D03*
X29210000Y19685000D03*
D13*
X25400000Y19685000D03*
D14*
X22860000Y19685000D03*
X20320000Y19685000D03*
D13*
X16510000Y19685000D03*
D14*
X13970000Y19685000D03*
X11430000Y19685000D03*
D13*
X7620000Y19685000D03*
D14*
X5080000Y19685000D03*
X2540000Y19685000D03*
D15*
X26449020Y33020000D03*
X24350980Y33020000D03*
D16*
X24399240Y29525000D03*
X24399240Y27625000D03*
X26398220Y28575000D03*
D15*
X26449020Y22225000D03*
X24350980Y22225000D03*
X26449020Y24765000D03*
X24350980Y24765000D03*
D17*
X18145000Y33020000D03*
X16145000Y33020000D03*
D18*
X18195000Y29635000D03*
X17545000Y29635000D03*
X16895000Y29635000D03*
X16245000Y29635000D03*
X15595000Y29635000D03*
X14945000Y29635000D03*
X14295000Y29635000D03*
X13645000Y29635000D03*
X12995000Y29635000D03*
X12345000Y29635000D03*
X11695000Y29635000D03*
X11045000Y29635000D03*
X10395000Y29635000D03*
X9745000Y29635000D03*
X9745000Y22435000D03*
X10395000Y22435000D03*
X11045000Y22435000D03*
X11695000Y22435000D03*
X12345000Y22435000D03*
X12995000Y22435000D03*
X13645000Y22435000D03*
X14295000Y22435000D03*
X14945000Y22435000D03*
X15595000Y22435000D03*
X16245000Y22435000D03*
X16895000Y22435000D03*
X17545000Y22435000D03*
X18195000Y22435000D03*
D19*
X20640000Y33020000D03*
X22540000Y33020000D03*
X20640000Y22225000D03*
X22540000Y22225000D03*
X20640000Y29845000D03*
X22540000Y29845000D03*
X20640000Y24765000D03*
X22540000Y24765000D03*
D17*
X20590000Y27305000D03*
X22590000Y27305000D03*
X11065000Y33020000D03*
X13065000Y33020000D03*
D20*
X5885000Y33335000D03*
X5885000Y32385000D03*
X5885000Y31435000D03*
X8085000Y31435000D03*
X8085000Y33335000D03*
D21*
X1270000Y31435000D03*
X1270000Y33335000D03*
D22*
X4102540Y27335900D03*
X4102540Y26685900D03*
X4102540Y26035900D03*
X4102540Y25385900D03*
X4102540Y24735900D03*
D23*
X4102540Y28535900D03*
X4102540Y23535900D03*
D24*
X1402540Y29535900D03*
X1402540Y22535900D03*
D25*
X6985000Y27371040D03*
X6985000Y29778960D03*
D21*
X3810000Y31435000D03*
X3810000Y33335000D03*
X6985000Y21910000D03*
X6985000Y23810000D03*
D17*
X20590000Y9525000D03*
X22590000Y9525000D03*
D15*
X26449020Y6985000D03*
X24350980Y6985000D03*
X26449020Y4445000D03*
X24350980Y4445000D03*
D25*
X6985000Y9591040D03*
X6985000Y11998960D03*
D22*
X4102540Y9555900D03*
X4102540Y8905900D03*
X4102540Y8255900D03*
X4102540Y7605900D03*
X4102540Y6955900D03*
D23*
X4102540Y10755900D03*
X4102540Y5755900D03*
D24*
X1402540Y11755900D03*
X1402540Y4755900D03*
D13*
X16510000Y1905000D03*
D14*
X13970000Y1905000D03*
X11430000Y1905000D03*
D13*
X7620000Y1905000D03*
D14*
X5080000Y1905000D03*
X2540000Y1905000D03*
D11*
X29210000Y14605000D03*
D12*
X29210000Y12065000D03*
X29210000Y9525000D03*
X29210000Y6985000D03*
X29210000Y4445000D03*
X29210000Y1905000D03*
D13*
X25400000Y1905000D03*
D14*
X22860000Y1905000D03*
X20320000Y1905000D03*
D16*
X24399240Y11745000D03*
X24399240Y9845000D03*
X26398220Y10795000D03*
D21*
X3810000Y13655000D03*
X3810000Y15555000D03*
X6985000Y4130000D03*
X6985000Y6030000D03*
X1270000Y13655000D03*
X1270000Y15555000D03*
D19*
X20640000Y12065000D03*
X22540000Y12065000D03*
X20640000Y6985000D03*
X22540000Y6985000D03*
X20640000Y4445000D03*
X22540000Y4445000D03*
D20*
X5885000Y15555000D03*
X5885000Y14605000D03*
X5885000Y13655000D03*
X8085000Y13655000D03*
X8085000Y15555000D03*
D18*
X18195000Y11855000D03*
X17545000Y11855000D03*
X16895000Y11855000D03*
X16245000Y11855000D03*
X15595000Y11855000D03*
X14945000Y11855000D03*
X14295000Y11855000D03*
X13645000Y11855000D03*
X12995000Y11855000D03*
X12345000Y11855000D03*
X11695000Y11855000D03*
X11045000Y11855000D03*
X10395000Y11855000D03*
X9745000Y11855000D03*
X9745000Y4655000D03*
X10395000Y4655000D03*
X11045000Y4655000D03*
X11695000Y4655000D03*
X12345000Y4655000D03*
X12995000Y4655000D03*
X13645000Y4655000D03*
X14295000Y4655000D03*
X14945000Y4655000D03*
X15595000Y4655000D03*
X16245000Y4655000D03*
X16895000Y4655000D03*
X17545000Y4655000D03*
X18195000Y4655000D03*
D17*
X11065000Y15240000D03*
X13065000Y15240000D03*
D15*
X26449020Y15240000D03*
X24350980Y15240000D03*
D19*
X20640000Y15240000D03*
X22540000Y15240000D03*
D17*
X18145000Y15240000D03*
X16145000Y15240000D03*
M02*
