G04 #@! TF.FileFunction,Legend,Top*
%FSLAX46Y46*%
G04 Gerber Fmt 4.6, Leading zero omitted, Abs format (unit mm)*
G04 Created by KiCad (PCBNEW 4.0.0-stable) date Wednesday, March 30, 2016 'PMt' 02:33:30 PM*
%MOMM*%
G01*
G04 APERTURE LIST*
%ADD10C,0.100000*%
%ADD11C,0.150000*%
%ADD12R,1.400000X1.650000*%
%ADD13R,1.598880X1.598880*%
%ADD14R,2.429460X1.540460*%
%ADD15R,1.750000X0.800000*%
%ADD16O,1.350000X1.650000*%
%ADD17O,1.950000X1.400000*%
%ADD18R,2.127200X2.432000*%
%ADD19O,2.127200X2.432000*%
%ADD20R,2.432000X2.127200*%
%ADD21O,2.432000X2.127200*%
%ADD22R,1.200100X1.200100*%
%ADD23R,1.700000X1.100000*%
%ADD24R,1.100000X1.700000*%
%ADD25R,1.460000X1.050000*%
%ADD26R,0.850000X2.150000*%
G04 APERTURE END LIST*
D10*
D11*
X28011381Y762143D02*
X27011381Y762143D01*
X27011381Y1000238D01*
X27059000Y1143096D01*
X27154238Y1238334D01*
X27249476Y1285953D01*
X27439952Y1333572D01*
X27582810Y1333572D01*
X27773286Y1285953D01*
X27868524Y1238334D01*
X27963762Y1143096D01*
X28011381Y1000238D01*
X28011381Y762143D01*
X27011381Y1619286D02*
X27011381Y2190715D01*
X28011381Y1905000D02*
X27011381Y1905000D01*
X28011381Y3095477D02*
X27535190Y2762143D01*
X28011381Y2524048D02*
X27011381Y2524048D01*
X27011381Y2905001D01*
X27059000Y3000239D01*
X27106619Y3047858D01*
X27201857Y3095477D01*
X27344714Y3095477D01*
X27439952Y3047858D01*
X27487571Y3000239D01*
X27535190Y2905001D01*
X27535190Y2524048D01*
X26839000Y524048D02*
X26839000Y3285953D01*
X28011381Y4278334D02*
X27535190Y3945000D01*
X28011381Y3706905D02*
X27011381Y3706905D01*
X27011381Y4087858D01*
X27059000Y4183096D01*
X27106619Y4230715D01*
X27201857Y4278334D01*
X27344714Y4278334D01*
X27439952Y4230715D01*
X27487571Y4183096D01*
X27535190Y4087858D01*
X27535190Y3706905D01*
X27011381Y4611667D02*
X28011381Y5278334D01*
X27011381Y5278334D02*
X28011381Y4611667D01*
X27011381Y6223095D02*
X27011381Y6794524D01*
X28011381Y6508809D02*
X27011381Y6508809D01*
X27011381Y7032619D02*
X28011381Y7699286D01*
X27011381Y7699286D02*
X28011381Y7032619D01*
X27011381Y8810714D02*
X28011381Y9144047D01*
X27011381Y9477381D01*
X27011381Y9667857D02*
X27011381Y10239286D01*
X28011381Y9953571D02*
X27011381Y9953571D01*
X27916143Y11263381D02*
X27963762Y11215762D01*
X28011381Y11072905D01*
X28011381Y10977667D01*
X27963762Y10834809D01*
X27868524Y10739571D01*
X27773286Y10691952D01*
X27582810Y10644333D01*
X27439952Y10644333D01*
X27249476Y10691952D01*
X27154238Y10739571D01*
X27059000Y10834809D01*
X27011381Y10977667D01*
X27011381Y11072905D01*
X27059000Y11215762D01*
X27106619Y11263381D01*
X27011381Y11549095D02*
X27011381Y12120524D01*
X28011381Y11834809D02*
X27011381Y11834809D01*
X27963762Y12406238D02*
X28011381Y12549095D01*
X28011381Y12787191D01*
X27963762Y12882429D01*
X27916143Y12930048D01*
X27820905Y12977667D01*
X27725667Y12977667D01*
X27630429Y12930048D01*
X27582810Y12882429D01*
X27535190Y12787191D01*
X27487571Y12596714D01*
X27439952Y12501476D01*
X27392333Y12453857D01*
X27297095Y12406238D01*
X27201857Y12406238D01*
X27106619Y12453857D01*
X27059000Y12501476D01*
X27011381Y12596714D01*
X27011381Y12834810D01*
X27059000Y12977667D01*
X26839000Y10453857D02*
X26839000Y13168143D01*
X27059000Y14097096D02*
X27011381Y14001858D01*
X27011381Y13859001D01*
X27059000Y13716143D01*
X27154238Y13620905D01*
X27249476Y13573286D01*
X27439952Y13525667D01*
X27582810Y13525667D01*
X27773286Y13573286D01*
X27868524Y13620905D01*
X27963762Y13716143D01*
X28011381Y13859001D01*
X28011381Y13954239D01*
X27963762Y14097096D01*
X27916143Y14144715D01*
X27582810Y14144715D01*
X27582810Y13954239D01*
X28011381Y14573286D02*
X27011381Y14573286D01*
X28011381Y15144715D01*
X27011381Y15144715D01*
X28011381Y15620905D02*
X27011381Y15620905D01*
X27011381Y15859000D01*
X27059000Y16001858D01*
X27154238Y16097096D01*
X27249476Y16144715D01*
X27439952Y16192334D01*
X27582810Y16192334D01*
X27773286Y16144715D01*
X27868524Y16097096D01*
X27963762Y16001858D01*
X28011381Y15859000D01*
X28011381Y15620905D01*
X22090000Y10375000D02*
X21090000Y10375000D01*
X21090000Y8675000D02*
X22090000Y8675000D01*
X23800000Y6235000D02*
X26500000Y6235000D01*
X23800000Y7735000D02*
X26500000Y7735000D01*
X25300000Y6835000D02*
X25300000Y7085000D01*
X25300000Y7085000D02*
X25150000Y6935000D01*
X25050000Y7335000D02*
X25050000Y6635000D01*
X25400000Y6985000D02*
X25750000Y6985000D01*
X25050000Y6985000D02*
X25400000Y7335000D01*
X25400000Y7335000D02*
X25400000Y6635000D01*
X25400000Y6635000D02*
X25050000Y6985000D01*
X23800000Y3695000D02*
X26500000Y3695000D01*
X23800000Y5195000D02*
X26500000Y5195000D01*
X25300000Y4295000D02*
X25300000Y4545000D01*
X25300000Y4545000D02*
X25150000Y4395000D01*
X25050000Y4795000D02*
X25050000Y4095000D01*
X25400000Y4445000D02*
X25750000Y4445000D01*
X25050000Y4445000D02*
X25400000Y4795000D01*
X25400000Y4795000D02*
X25400000Y4095000D01*
X25400000Y4095000D02*
X25050000Y4445000D01*
X-1277460Y12605900D02*
X-1277460Y3905900D01*
X5127540Y12605900D02*
X5127540Y3905900D01*
X5127540Y3905900D02*
X-1277460Y3905900D01*
X-47460Y3905900D02*
X-47460Y12605900D01*
X-1277460Y12605900D02*
X5127540Y12605900D01*
X27910000Y16155000D02*
X27910000Y14605000D01*
X29210000Y16155000D02*
X27910000Y16155000D01*
X33401000Y14732000D02*
X39243000Y14732000D01*
X39243000Y14732000D02*
X39243000Y14478000D01*
X39243000Y14478000D02*
X33401000Y14478000D01*
X33401000Y14478000D02*
X33401000Y14605000D01*
X33401000Y14605000D02*
X39243000Y14605000D01*
X30734000Y14859000D02*
X30353000Y14859000D01*
X30734000Y14351000D02*
X30353000Y14351000D01*
X30734000Y12319000D02*
X30353000Y12319000D01*
X30734000Y11811000D02*
X30353000Y11811000D01*
X30734000Y9779000D02*
X30353000Y9779000D01*
X30734000Y9271000D02*
X30353000Y9271000D01*
X30734000Y1651000D02*
X30353000Y1651000D01*
X30734000Y2159000D02*
X30353000Y2159000D01*
X30734000Y4191000D02*
X30353000Y4191000D01*
X30734000Y4699000D02*
X30353000Y4699000D01*
X30734000Y6731000D02*
X30353000Y6731000D01*
X30734000Y7239000D02*
X30353000Y7239000D01*
X30734000Y15875000D02*
X33274000Y15875000D01*
X30734000Y13335000D02*
X33274000Y13335000D01*
X30734000Y13335000D02*
X30734000Y10795000D01*
X30734000Y10795000D02*
X33274000Y10795000D01*
X33274000Y12319000D02*
X39370000Y12319000D01*
X39370000Y12319000D02*
X39370000Y11811000D01*
X39370000Y11811000D02*
X33274000Y11811000D01*
X33274000Y10795000D02*
X33274000Y13335000D01*
X33274000Y13335000D02*
X33274000Y15875000D01*
X39370000Y14351000D02*
X33274000Y14351000D01*
X39370000Y14859000D02*
X39370000Y14351000D01*
X33274000Y14859000D02*
X39370000Y14859000D01*
X30734000Y13335000D02*
X33274000Y13335000D01*
X30734000Y15875000D02*
X30734000Y13335000D01*
X30734000Y5715000D02*
X33274000Y5715000D01*
X30734000Y5715000D02*
X30734000Y3175000D01*
X30734000Y3175000D02*
X33274000Y3175000D01*
X33274000Y4699000D02*
X39370000Y4699000D01*
X39370000Y4699000D02*
X39370000Y4191000D01*
X39370000Y4191000D02*
X33274000Y4191000D01*
X33274000Y3175000D02*
X33274000Y5715000D01*
X33274000Y635000D02*
X33274000Y3175000D01*
X39370000Y1651000D02*
X33274000Y1651000D01*
X39370000Y2159000D02*
X39370000Y1651000D01*
X33274000Y2159000D02*
X39370000Y2159000D01*
X30734000Y635000D02*
X33274000Y635000D01*
X30734000Y3175000D02*
X30734000Y635000D01*
X30734000Y3175000D02*
X33274000Y3175000D01*
X30734000Y8255000D02*
X33274000Y8255000D01*
X30734000Y8255000D02*
X30734000Y5715000D01*
X30734000Y5715000D02*
X33274000Y5715000D01*
X33274000Y7239000D02*
X39370000Y7239000D01*
X39370000Y7239000D02*
X39370000Y6731000D01*
X39370000Y6731000D02*
X33274000Y6731000D01*
X33274000Y5715000D02*
X33274000Y8255000D01*
X33274000Y8255000D02*
X33274000Y10795000D01*
X39370000Y9271000D02*
X33274000Y9271000D01*
X39370000Y9779000D02*
X39370000Y9271000D01*
X33274000Y9779000D02*
X39370000Y9779000D01*
X30734000Y8255000D02*
X33274000Y8255000D01*
X30734000Y10795000D02*
X30734000Y8255000D01*
X30734000Y10795000D02*
X33274000Y10795000D01*
X26050240Y9495840D02*
X26050240Y9544100D01*
X25349200Y12294820D02*
X26050240Y12294820D01*
X26050240Y12294820D02*
X26050240Y12045900D01*
X26050240Y9495840D02*
X26050240Y9295180D01*
X26050240Y9295180D02*
X25349200Y9295180D01*
X4685000Y15205000D02*
X4685000Y14005000D01*
X2935000Y14005000D02*
X2935000Y15205000D01*
X7860000Y5680000D02*
X7860000Y4480000D01*
X6110000Y4480000D02*
X6110000Y5680000D01*
X2145000Y15205000D02*
X2145000Y14005000D01*
X395000Y14005000D02*
X395000Y15205000D01*
X22190000Y11190000D02*
X20990000Y11190000D01*
X20990000Y12940000D02*
X22190000Y12940000D01*
X22190000Y6110000D02*
X20990000Y6110000D01*
X20990000Y7860000D02*
X22190000Y7860000D01*
X22190000Y3570000D02*
X20990000Y3570000D01*
X20990000Y5320000D02*
X22190000Y5320000D01*
X6785000Y16305000D02*
G75*
G03X6785000Y16305000I-100000J0D01*
G01*
X7235000Y16055000D02*
X6735000Y16055000D01*
X7235000Y13155000D02*
X7235000Y16055000D01*
X6735000Y13155000D02*
X7235000Y13155000D01*
X6735000Y16055000D02*
X6735000Y13155000D01*
X19295000Y11130000D02*
X18645000Y11130000D01*
X19295000Y5380000D02*
X18645000Y5380000D01*
X8645000Y5380000D02*
X9295000Y5380000D01*
X8645000Y11130000D02*
X9295000Y11130000D01*
X19295000Y11130000D02*
X19295000Y5380000D01*
X8645000Y11130000D02*
X8645000Y5380000D01*
X18645000Y11130000D02*
X18645000Y12730000D01*
X12565000Y16090000D02*
X11565000Y16090000D01*
X11565000Y14390000D02*
X12565000Y14390000D01*
X23800000Y14490000D02*
X26500000Y14490000D01*
X23800000Y15990000D02*
X26500000Y15990000D01*
X25300000Y15090000D02*
X25300000Y15340000D01*
X25300000Y15340000D02*
X25150000Y15190000D01*
X25050000Y15590000D02*
X25050000Y14890000D01*
X25400000Y15240000D02*
X25750000Y15240000D01*
X25050000Y15240000D02*
X25400000Y15590000D01*
X25400000Y15590000D02*
X25400000Y14890000D01*
X25400000Y14890000D02*
X25050000Y15240000D01*
X22190000Y14365000D02*
X20990000Y14365000D01*
X20990000Y16115000D02*
X22190000Y16115000D01*
X16645000Y14390000D02*
X17645000Y14390000D01*
X17645000Y16090000D02*
X16645000Y16090000D01*
X19153143Y9231334D02*
X19200762Y9183715D01*
X19248381Y9040858D01*
X19248381Y8945620D01*
X19200762Y8802762D01*
X19105524Y8707524D01*
X19010286Y8659905D01*
X18819810Y8612286D01*
X18676952Y8612286D01*
X18486476Y8659905D01*
X18391238Y8707524D01*
X18296000Y8802762D01*
X18248381Y8945620D01*
X18248381Y9040858D01*
X18296000Y9183715D01*
X18343619Y9231334D01*
X18343619Y9612286D02*
X18296000Y9659905D01*
X18248381Y9755143D01*
X18248381Y9993239D01*
X18296000Y10088477D01*
X18343619Y10136096D01*
X18438857Y10183715D01*
X18534095Y10183715D01*
X18676952Y10136096D01*
X19248381Y9564667D01*
X19248381Y10183715D01*
X24661905Y7929619D02*
X24661905Y8929619D01*
X24900000Y8929619D01*
X25042858Y8882000D01*
X25138096Y8786762D01*
X25185715Y8691524D01*
X25233334Y8501048D01*
X25233334Y8358190D01*
X25185715Y8167714D01*
X25138096Y8072476D01*
X25042858Y7977238D01*
X24900000Y7929619D01*
X24661905Y7929619D01*
X26185715Y7929619D02*
X25614286Y7929619D01*
X25900000Y7929619D02*
X25900000Y8929619D01*
X25804762Y8786762D01*
X25709524Y8691524D01*
X25614286Y8643905D01*
X24661905Y5135619D02*
X24661905Y6135619D01*
X24900000Y6135619D01*
X25042858Y6088000D01*
X25138096Y5992762D01*
X25185715Y5897524D01*
X25233334Y5707048D01*
X25233334Y5564190D01*
X25185715Y5373714D01*
X25138096Y5278476D01*
X25042858Y5183238D01*
X24900000Y5135619D01*
X24661905Y5135619D01*
X25614286Y6040381D02*
X25661905Y6088000D01*
X25757143Y6135619D01*
X25995239Y6135619D01*
X26090477Y6088000D01*
X26138096Y6040381D01*
X26185715Y5945143D01*
X26185715Y5849905D01*
X26138096Y5707048D01*
X25566667Y5135619D01*
X26185715Y5135619D01*
X4162751Y10362607D02*
X4162751Y10029273D01*
X4686561Y10029273D02*
X3686561Y10029273D01*
X3686561Y10505464D01*
X4686561Y11410226D02*
X4686561Y10838797D01*
X4686561Y11124511D02*
X3686561Y11124511D01*
X3829418Y11029273D01*
X3924656Y10934035D01*
X3972275Y10838797D01*
X1595381Y5738905D02*
X595381Y5738905D01*
X595381Y6119858D01*
X643000Y6215096D01*
X690619Y6262715D01*
X785857Y6310334D01*
X928714Y6310334D01*
X1023952Y6262715D01*
X1071571Y6215096D01*
X1119190Y6119858D01*
X1119190Y5738905D01*
X1595381Y7262715D02*
X1595381Y6691286D01*
X1595381Y6977000D02*
X595381Y6977000D01*
X738238Y6881762D01*
X833476Y6786524D01*
X881095Y6691286D01*
X28471905Y17073619D02*
X28471905Y18073619D01*
X28852858Y18073619D01*
X28948096Y18026000D01*
X28995715Y17978381D01*
X29043334Y17883143D01*
X29043334Y17740286D01*
X28995715Y17645048D01*
X28948096Y17597429D01*
X28852858Y17549810D01*
X28471905Y17549810D01*
X29948096Y18073619D02*
X29471905Y18073619D01*
X29424286Y17597429D01*
X29471905Y17645048D01*
X29567143Y17692667D01*
X29805239Y17692667D01*
X29900477Y17645048D01*
X29948096Y17597429D01*
X29995715Y17502190D01*
X29995715Y17264095D01*
X29948096Y17168857D01*
X29900477Y17121238D01*
X29805239Y17073619D01*
X29567143Y17073619D01*
X29471905Y17121238D01*
X29424286Y17168857D01*
X25304762Y12279381D02*
X25209524Y12327000D01*
X25114286Y12422238D01*
X24971429Y12565095D01*
X24876190Y12612714D01*
X24780952Y12612714D01*
X24828571Y12374619D02*
X24733333Y12422238D01*
X24638095Y12517476D01*
X24590476Y12707952D01*
X24590476Y13041286D01*
X24638095Y13231762D01*
X24733333Y13327000D01*
X24828571Y13374619D01*
X25019048Y13374619D01*
X25114286Y13327000D01*
X25209524Y13231762D01*
X25257143Y13041286D01*
X25257143Y12707952D01*
X25209524Y12517476D01*
X25114286Y12422238D01*
X25019048Y12374619D01*
X24828571Y12374619D01*
X26209524Y12374619D02*
X25638095Y12374619D01*
X25923809Y12374619D02*
X25923809Y13374619D01*
X25828571Y13231762D01*
X25733333Y13136524D01*
X25638095Y13088905D01*
X3119381Y10120334D02*
X2643190Y9787000D01*
X3119381Y9548905D02*
X2119381Y9548905D01*
X2119381Y9929858D01*
X2167000Y10025096D01*
X2214619Y10072715D01*
X2309857Y10120334D01*
X2452714Y10120334D01*
X2547952Y10072715D01*
X2595571Y10025096D01*
X2643190Y9929858D01*
X2643190Y9548905D01*
X3119381Y11072715D02*
X3119381Y10501286D01*
X3119381Y10787000D02*
X2119381Y10787000D01*
X2262238Y10691762D01*
X2357476Y10596524D01*
X2405095Y10501286D01*
X9215381Y4151334D02*
X8739190Y3818000D01*
X9215381Y3579905D02*
X8215381Y3579905D01*
X8215381Y3960858D01*
X8263000Y4056096D01*
X8310619Y4103715D01*
X8405857Y4151334D01*
X8548714Y4151334D01*
X8643952Y4103715D01*
X8691571Y4056096D01*
X8739190Y3960858D01*
X8739190Y3579905D01*
X8310619Y4532286D02*
X8263000Y4579905D01*
X8215381Y4675143D01*
X8215381Y4913239D01*
X8263000Y5008477D01*
X8310619Y5056096D01*
X8405857Y5103715D01*
X8501095Y5103715D01*
X8643952Y5056096D01*
X9215381Y4484667D01*
X9215381Y5103715D01*
X1722381Y10120334D02*
X1246190Y9787000D01*
X1722381Y9548905D02*
X722381Y9548905D01*
X722381Y9929858D01*
X770000Y10025096D01*
X817619Y10072715D01*
X912857Y10120334D01*
X1055714Y10120334D01*
X1150952Y10072715D01*
X1198571Y10025096D01*
X1246190Y9929858D01*
X1246190Y9548905D01*
X722381Y10453667D02*
X722381Y11072715D01*
X1103333Y10739381D01*
X1103333Y10882239D01*
X1150952Y10977477D01*
X1198571Y11025096D01*
X1293810Y11072715D01*
X1531905Y11072715D01*
X1627143Y11025096D01*
X1674762Y10977477D01*
X1722381Y10882239D01*
X1722381Y10596524D01*
X1674762Y10501286D01*
X1627143Y10453667D01*
X19883381Y11898334D02*
X19407190Y11565000D01*
X19883381Y11326905D02*
X18883381Y11326905D01*
X18883381Y11707858D01*
X18931000Y11803096D01*
X18978619Y11850715D01*
X19073857Y11898334D01*
X19216714Y11898334D01*
X19311952Y11850715D01*
X19359571Y11803096D01*
X19407190Y11707858D01*
X19407190Y11326905D01*
X19216714Y12755477D02*
X19883381Y12755477D01*
X18835762Y12517381D02*
X19550048Y12279286D01*
X19550048Y12898334D01*
X19248381Y6818334D02*
X18772190Y6485000D01*
X19248381Y6246905D02*
X18248381Y6246905D01*
X18248381Y6627858D01*
X18296000Y6723096D01*
X18343619Y6770715D01*
X18438857Y6818334D01*
X18581714Y6818334D01*
X18676952Y6770715D01*
X18724571Y6723096D01*
X18772190Y6627858D01*
X18772190Y6246905D01*
X18248381Y7723096D02*
X18248381Y7246905D01*
X18724571Y7199286D01*
X18676952Y7246905D01*
X18629333Y7342143D01*
X18629333Y7580239D01*
X18676952Y7675477D01*
X18724571Y7723096D01*
X18819810Y7770715D01*
X19057905Y7770715D01*
X19153143Y7723096D01*
X19200762Y7675477D01*
X19248381Y7580239D01*
X19248381Y7342143D01*
X19200762Y7246905D01*
X19153143Y7199286D01*
X19883381Y4278334D02*
X19407190Y3945000D01*
X19883381Y3706905D02*
X18883381Y3706905D01*
X18883381Y4087858D01*
X18931000Y4183096D01*
X18978619Y4230715D01*
X19073857Y4278334D01*
X19216714Y4278334D01*
X19311952Y4230715D01*
X19359571Y4183096D01*
X19407190Y4087858D01*
X19407190Y3706905D01*
X18883381Y5135477D02*
X18883381Y4945000D01*
X18931000Y4849762D01*
X18978619Y4802143D01*
X19121476Y4706905D01*
X19311952Y4659286D01*
X19692905Y4659286D01*
X19788143Y4706905D01*
X19835762Y4754524D01*
X19883381Y4849762D01*
X19883381Y5040239D01*
X19835762Y5135477D01*
X19788143Y5183096D01*
X19692905Y5230715D01*
X19454810Y5230715D01*
X19359571Y5183096D01*
X19311952Y5135477D01*
X19264333Y5040239D01*
X19264333Y4849762D01*
X19311952Y4754524D01*
X19359571Y4706905D01*
X19454810Y4659286D01*
X8977381Y14732095D02*
X9786905Y14732095D01*
X9882143Y14779714D01*
X9929762Y14827333D01*
X9977381Y14922571D01*
X9977381Y15113048D01*
X9929762Y15208286D01*
X9882143Y15255905D01*
X9786905Y15303524D01*
X8977381Y15303524D01*
X9977381Y16303524D02*
X9977381Y15732095D01*
X9977381Y16017809D02*
X8977381Y16017809D01*
X9120238Y15922571D01*
X9215476Y15827333D01*
X9263095Y15732095D01*
X8215381Y11430095D02*
X9024905Y11430095D01*
X9120143Y11477714D01*
X9167762Y11525333D01*
X9215381Y11620571D01*
X9215381Y11811048D01*
X9167762Y11906286D01*
X9120143Y11953905D01*
X9024905Y12001524D01*
X8215381Y12001524D01*
X8310619Y12430095D02*
X8263000Y12477714D01*
X8215381Y12572952D01*
X8215381Y12811048D01*
X8263000Y12906286D01*
X8310619Y12953905D01*
X8405857Y13001524D01*
X8501095Y13001524D01*
X8643952Y12953905D01*
X9215381Y12382476D01*
X9215381Y13001524D01*
X11898334Y13104857D02*
X11850715Y13057238D01*
X11707858Y13009619D01*
X11612620Y13009619D01*
X11469762Y13057238D01*
X11374524Y13152476D01*
X11326905Y13247714D01*
X11279286Y13438190D01*
X11279286Y13581048D01*
X11326905Y13771524D01*
X11374524Y13866762D01*
X11469762Y13962000D01*
X11612620Y14009619D01*
X11707858Y14009619D01*
X11850715Y13962000D01*
X11898334Y13914381D01*
X12850715Y13009619D02*
X12279286Y13009619D01*
X12565000Y13009619D02*
X12565000Y14009619D01*
X12469762Y13866762D01*
X12374524Y13771524D01*
X12279286Y13723905D01*
X24661905Y13390619D02*
X24661905Y14390619D01*
X24900000Y14390619D01*
X25042858Y14343000D01*
X25138096Y14247762D01*
X25185715Y14152524D01*
X25233334Y13962048D01*
X25233334Y13819190D01*
X25185715Y13628714D01*
X25138096Y13533476D01*
X25042858Y13438238D01*
X24900000Y13390619D01*
X24661905Y13390619D01*
X25566667Y14390619D02*
X26185715Y14390619D01*
X25852381Y14009667D01*
X25995239Y14009667D01*
X26090477Y13962048D01*
X26138096Y13914429D01*
X26185715Y13819190D01*
X26185715Y13581095D01*
X26138096Y13485857D01*
X26090477Y13438238D01*
X25995239Y13390619D01*
X25709524Y13390619D01*
X25614286Y13438238D01*
X25566667Y13485857D01*
X21423334Y13136619D02*
X21090000Y13612810D01*
X20851905Y13136619D02*
X20851905Y14136619D01*
X21232858Y14136619D01*
X21328096Y14089000D01*
X21375715Y14041381D01*
X21423334Y13946143D01*
X21423334Y13803286D01*
X21375715Y13708048D01*
X21328096Y13660429D01*
X21232858Y13612810D01*
X20851905Y13612810D01*
X21756667Y14136619D02*
X22423334Y14136619D01*
X21994762Y13136619D01*
X16978334Y13104857D02*
X16930715Y13057238D01*
X16787858Y13009619D01*
X16692620Y13009619D01*
X16549762Y13057238D01*
X16454524Y13152476D01*
X16406905Y13247714D01*
X16359286Y13438190D01*
X16359286Y13581048D01*
X16406905Y13771524D01*
X16454524Y13866762D01*
X16549762Y13962000D01*
X16692620Y14009619D01*
X16787858Y14009619D01*
X16930715Y13962000D01*
X16978334Y13914381D01*
X17311667Y14009619D02*
X17930715Y14009619D01*
X17597381Y13628667D01*
X17740239Y13628667D01*
X17835477Y13581048D01*
X17883096Y13533429D01*
X17930715Y13438190D01*
X17930715Y13200095D01*
X17883096Y13104857D01*
X17835477Y13057238D01*
X17740239Y13009619D01*
X17454524Y13009619D01*
X17359286Y13057238D01*
X17311667Y13104857D01*
%LPC*%
D12*
X20590000Y9525000D03*
X22590000Y9525000D03*
D13*
X26449020Y6985000D03*
X24350980Y6985000D03*
X26449020Y4445000D03*
X24350980Y4445000D03*
D14*
X6985000Y9591040D03*
X6985000Y11998960D03*
D15*
X4102540Y9555900D03*
X4102540Y8905900D03*
X4102540Y8255900D03*
X4102540Y7605900D03*
X4102540Y6955900D03*
D16*
X4102540Y10755900D03*
X4102540Y5755900D03*
D17*
X1402540Y11755900D03*
X1402540Y4755900D03*
D18*
X16510000Y1905000D03*
D19*
X13970000Y1905000D03*
X11430000Y1905000D03*
D18*
X7620000Y1905000D03*
D19*
X5080000Y1905000D03*
X2540000Y1905000D03*
D20*
X29210000Y14605000D03*
D21*
X29210000Y12065000D03*
X29210000Y9525000D03*
X29210000Y6985000D03*
X29210000Y4445000D03*
X29210000Y1905000D03*
D18*
X25400000Y1905000D03*
D19*
X22860000Y1905000D03*
X20320000Y1905000D03*
D22*
X24399240Y11745000D03*
X24399240Y9845000D03*
X26398220Y10795000D03*
D23*
X3810000Y13655000D03*
X3810000Y15555000D03*
X6985000Y4130000D03*
X6985000Y6030000D03*
X1270000Y13655000D03*
X1270000Y15555000D03*
D24*
X20640000Y12065000D03*
X22540000Y12065000D03*
X20640000Y6985000D03*
X22540000Y6985000D03*
X20640000Y4445000D03*
X22540000Y4445000D03*
D25*
X5885000Y15555000D03*
X5885000Y14605000D03*
X5885000Y13655000D03*
X8085000Y13655000D03*
X8085000Y15555000D03*
D26*
X18195000Y11855000D03*
X17545000Y11855000D03*
X16895000Y11855000D03*
X16245000Y11855000D03*
X15595000Y11855000D03*
X14945000Y11855000D03*
X14295000Y11855000D03*
X13645000Y11855000D03*
X12995000Y11855000D03*
X12345000Y11855000D03*
X11695000Y11855000D03*
X11045000Y11855000D03*
X10395000Y11855000D03*
X9745000Y11855000D03*
X9745000Y4655000D03*
X10395000Y4655000D03*
X11045000Y4655000D03*
X11695000Y4655000D03*
X12345000Y4655000D03*
X12995000Y4655000D03*
X13645000Y4655000D03*
X14295000Y4655000D03*
X14945000Y4655000D03*
X15595000Y4655000D03*
X16245000Y4655000D03*
X16895000Y4655000D03*
X17545000Y4655000D03*
X18195000Y4655000D03*
D12*
X11065000Y15240000D03*
X13065000Y15240000D03*
D13*
X26449020Y15240000D03*
X24350980Y15240000D03*
D24*
X20640000Y15240000D03*
X22540000Y15240000D03*
D12*
X18145000Y15240000D03*
X16145000Y15240000D03*
M02*
