G04 #@! TF.FileFunction,Paste,Top*
%FSLAX46Y46*%
G04 Gerber Fmt 4.6, Leading zero omitted, Abs format (unit mm)*
G04 Created by KiCad (PCBNEW 4.0.0-stable) date Wednesday, March 30, 2016 'PMt' 02:33:30 PM*
%MOMM*%
G01*
G04 APERTURE LIST*
%ADD10C,0.100000*%
%ADD11R,1.000000X1.250000*%
%ADD12R,1.198880X1.198880*%
%ADD13R,2.029460X1.140460*%
%ADD14R,1.350000X0.400000*%
%ADD15R,0.800100X0.800100*%
%ADD16R,1.300000X0.700000*%
%ADD17R,0.700000X1.300000*%
%ADD18R,1.060000X0.650000*%
%ADD19R,0.450000X1.750000*%
G04 APERTURE END LIST*
D10*
D11*
X20590000Y9525000D03*
X22590000Y9525000D03*
D12*
X26449020Y6985000D03*
X24350980Y6985000D03*
X26449020Y4445000D03*
X24350980Y4445000D03*
D13*
X6985000Y9591040D03*
X6985000Y11998960D03*
D14*
X4102540Y9555900D03*
X4102540Y8905900D03*
X4102540Y8255900D03*
X4102540Y7605900D03*
X4102540Y6955900D03*
D15*
X24399240Y11745000D03*
X24399240Y9845000D03*
X26398220Y10795000D03*
D16*
X3810000Y13655000D03*
X3810000Y15555000D03*
X6985000Y4130000D03*
X6985000Y6030000D03*
X1270000Y13655000D03*
X1270000Y15555000D03*
D17*
X20640000Y12065000D03*
X22540000Y12065000D03*
X20640000Y6985000D03*
X22540000Y6985000D03*
X20640000Y4445000D03*
X22540000Y4445000D03*
D18*
X5885000Y15555000D03*
X5885000Y14605000D03*
X5885000Y13655000D03*
X8085000Y13655000D03*
X8085000Y15555000D03*
D19*
X18195000Y11855000D03*
X17545000Y11855000D03*
X16895000Y11855000D03*
X16245000Y11855000D03*
X15595000Y11855000D03*
X14945000Y11855000D03*
X14295000Y11855000D03*
X13645000Y11855000D03*
X12995000Y11855000D03*
X12345000Y11855000D03*
X11695000Y11855000D03*
X11045000Y11855000D03*
X10395000Y11855000D03*
X9745000Y11855000D03*
X9745000Y4655000D03*
X10395000Y4655000D03*
X11045000Y4655000D03*
X11695000Y4655000D03*
X12345000Y4655000D03*
X12995000Y4655000D03*
X13645000Y4655000D03*
X14295000Y4655000D03*
X14945000Y4655000D03*
X15595000Y4655000D03*
X16245000Y4655000D03*
X16895000Y4655000D03*
X17545000Y4655000D03*
X18195000Y4655000D03*
D11*
X11065000Y15240000D03*
X13065000Y15240000D03*
D12*
X26449020Y15240000D03*
X24350980Y15240000D03*
D17*
X20640000Y15240000D03*
X22540000Y15240000D03*
D11*
X18145000Y15240000D03*
X16145000Y15240000D03*
M02*
