G04 #@! TF.FileFunction,Copper,L1,Top,Signal*
%FSLAX46Y46*%
G04 Gerber Fmt 4.6, Leading zero omitted, Abs format (unit mm)*
G04 Created by KiCad (PCBNEW 4.0.0-stable) date Monday, June 13, 2016 'PMt' 12:16:50 PM*
%MOMM*%
G01*
G04 APERTURE LIST*
%ADD10C,0.100000*%
%ADD11R,2.032000X1.727200*%
%ADD12O,2.032000X1.727200*%
%ADD13R,1.727200X2.032000*%
%ADD14O,1.727200X2.032000*%
%ADD15R,1.198880X1.198880*%
%ADD16R,0.800100X0.800100*%
%ADD17R,1.000000X1.250000*%
%ADD18R,0.450000X1.750000*%
%ADD19R,0.700000X1.300000*%
%ADD20R,1.060000X0.650000*%
%ADD21R,1.300000X0.700000*%
%ADD22R,1.350000X0.400000*%
%ADD23O,0.950000X1.250000*%
%ADD24O,1.550000X1.000000*%
%ADD25R,2.029460X1.140460*%
%ADD26C,0.609600*%
%ADD27C,0.400000*%
%ADD28C,0.200000*%
%ADD29C,0.304800*%
G04 APERTURE END LIST*
D10*
D11*
X29210000Y32385000D03*
D12*
X29210000Y29845000D03*
X29210000Y27305000D03*
X29210000Y24765000D03*
X29210000Y22225000D03*
X29210000Y19685000D03*
D13*
X25400000Y19685000D03*
D14*
X22860000Y19685000D03*
X20320000Y19685000D03*
D13*
X16510000Y19685000D03*
D14*
X13970000Y19685000D03*
X11430000Y19685000D03*
D13*
X7620000Y19685000D03*
D14*
X5080000Y19685000D03*
X2540000Y19685000D03*
D15*
X26449020Y33020000D03*
X24350980Y33020000D03*
D16*
X24399240Y29525000D03*
X24399240Y27625000D03*
X26398220Y28575000D03*
D15*
X26449020Y22225000D03*
X24350980Y22225000D03*
X26449020Y24765000D03*
X24350980Y24765000D03*
D17*
X18145000Y33020000D03*
X16145000Y33020000D03*
D18*
X18195000Y29635000D03*
X17545000Y29635000D03*
X16895000Y29635000D03*
X16245000Y29635000D03*
X15595000Y29635000D03*
X14945000Y29635000D03*
X14295000Y29635000D03*
X13645000Y29635000D03*
X12995000Y29635000D03*
X12345000Y29635000D03*
X11695000Y29635000D03*
X11045000Y29635000D03*
X10395000Y29635000D03*
X9745000Y29635000D03*
X9745000Y22435000D03*
X10395000Y22435000D03*
X11045000Y22435000D03*
X11695000Y22435000D03*
X12345000Y22435000D03*
X12995000Y22435000D03*
X13645000Y22435000D03*
X14295000Y22435000D03*
X14945000Y22435000D03*
X15595000Y22435000D03*
X16245000Y22435000D03*
X16895000Y22435000D03*
X17545000Y22435000D03*
X18195000Y22435000D03*
D19*
X20640000Y33020000D03*
X22540000Y33020000D03*
X20640000Y22225000D03*
X22540000Y22225000D03*
X20640000Y29845000D03*
X22540000Y29845000D03*
X20640000Y24765000D03*
X22540000Y24765000D03*
D17*
X20590000Y27305000D03*
X22590000Y27305000D03*
X11065000Y33020000D03*
X13065000Y33020000D03*
D20*
X5885000Y33335000D03*
X5885000Y32385000D03*
X5885000Y31435000D03*
X8085000Y31435000D03*
X8085000Y33335000D03*
D21*
X1270000Y31435000D03*
X1270000Y33335000D03*
D22*
X4102540Y27335900D03*
X4102540Y26685900D03*
X4102540Y26035900D03*
X4102540Y25385900D03*
X4102540Y24735900D03*
D23*
X4102540Y28535900D03*
X4102540Y23535900D03*
D24*
X1402540Y29535900D03*
X1402540Y22535900D03*
D25*
X6985000Y27371040D03*
X6985000Y29778960D03*
D21*
X3810000Y31435000D03*
X3810000Y33335000D03*
X6985000Y21910000D03*
X6985000Y23810000D03*
D17*
X20590000Y9525000D03*
X22590000Y9525000D03*
D15*
X26449020Y6985000D03*
X24350980Y6985000D03*
X26449020Y4445000D03*
X24350980Y4445000D03*
D25*
X6985000Y9591040D03*
X6985000Y11998960D03*
D22*
X4102540Y9555900D03*
X4102540Y8905900D03*
X4102540Y8255900D03*
X4102540Y7605900D03*
X4102540Y6955900D03*
D23*
X4102540Y10755900D03*
X4102540Y5755900D03*
D24*
X1402540Y11755900D03*
X1402540Y4755900D03*
D13*
X16510000Y1905000D03*
D14*
X13970000Y1905000D03*
X11430000Y1905000D03*
D13*
X7620000Y1905000D03*
D14*
X5080000Y1905000D03*
X2540000Y1905000D03*
D11*
X29210000Y14605000D03*
D12*
X29210000Y12065000D03*
X29210000Y9525000D03*
X29210000Y6985000D03*
X29210000Y4445000D03*
X29210000Y1905000D03*
D13*
X25400000Y1905000D03*
D14*
X22860000Y1905000D03*
X20320000Y1905000D03*
D16*
X24399240Y11745000D03*
X24399240Y9845000D03*
X26398220Y10795000D03*
D21*
X3810000Y13655000D03*
X3810000Y15555000D03*
X6985000Y4130000D03*
X6985000Y6030000D03*
X1270000Y13655000D03*
X1270000Y15555000D03*
D19*
X20640000Y12065000D03*
X22540000Y12065000D03*
X20640000Y6985000D03*
X22540000Y6985000D03*
X20640000Y4445000D03*
X22540000Y4445000D03*
D20*
X5885000Y15555000D03*
X5885000Y14605000D03*
X5885000Y13655000D03*
X8085000Y13655000D03*
X8085000Y15555000D03*
D18*
X18195000Y11855000D03*
X17545000Y11855000D03*
X16895000Y11855000D03*
X16245000Y11855000D03*
X15595000Y11855000D03*
X14945000Y11855000D03*
X14295000Y11855000D03*
X13645000Y11855000D03*
X12995000Y11855000D03*
X12345000Y11855000D03*
X11695000Y11855000D03*
X11045000Y11855000D03*
X10395000Y11855000D03*
X9745000Y11855000D03*
X9745000Y4655000D03*
X10395000Y4655000D03*
X11045000Y4655000D03*
X11695000Y4655000D03*
X12345000Y4655000D03*
X12995000Y4655000D03*
X13645000Y4655000D03*
X14295000Y4655000D03*
X14945000Y4655000D03*
X15595000Y4655000D03*
X16245000Y4655000D03*
X16895000Y4655000D03*
X17545000Y4655000D03*
X18195000Y4655000D03*
D17*
X11065000Y15240000D03*
X13065000Y15240000D03*
D15*
X26449020Y15240000D03*
X24350980Y15240000D03*
D19*
X20640000Y15240000D03*
X22540000Y15240000D03*
D17*
X18145000Y15240000D03*
X16145000Y15240000D03*
D26*
X12827000Y26162000D03*
X14097000Y24892000D03*
X14097000Y7112000D03*
X12827000Y8382000D03*
X3810000Y32385000D03*
X1270000Y32385000D03*
X14605000Y33020000D03*
X21590000Y33020000D03*
X21844000Y25908000D03*
X6985000Y28575000D03*
X5461000Y25146000D03*
X9779000Y26416000D03*
X8509000Y26924000D03*
X6985000Y25146000D03*
X8509000Y25146000D03*
X10287000Y20828000D03*
X10668000Y25527000D03*
X9144000Y24257000D03*
X12192000Y25527000D03*
X14097000Y23876000D03*
X14097000Y6096000D03*
X8509000Y9144000D03*
X9144000Y6477000D03*
X12192000Y7747000D03*
X10668000Y7747000D03*
X9779000Y8636000D03*
X8509000Y7366000D03*
X6985000Y7366000D03*
X5461000Y7366000D03*
X3810000Y14605000D03*
X1270000Y14605000D03*
X6985000Y10795000D03*
X10287000Y3048000D03*
X21844000Y8128000D03*
X21590000Y15240000D03*
X14605000Y15240000D03*
X9525000Y31750000D03*
X9525000Y13970000D03*
X4826000Y30353000D03*
X7112000Y32512000D03*
X7112000Y14732000D03*
X4826000Y12573000D03*
X23622000Y30353000D03*
X23622000Y12573000D03*
X18034000Y27178000D03*
X14224000Y27178000D03*
X14224000Y9398000D03*
X18034000Y9398000D03*
X13081000Y28194000D03*
X13081000Y10414000D03*
X15240000Y28194000D03*
X15240000Y10414000D03*
X19431000Y27178000D03*
X19431000Y9398000D03*
X23622000Y28829000D03*
X14224000Y28194000D03*
X14224000Y10414000D03*
X23622000Y11049000D03*
D27*
X12995000Y22435000D02*
X12995000Y23790000D01*
X12995000Y23790000D02*
X14097000Y24892000D01*
X10922000Y27686000D02*
X9906000Y27686000D01*
X9906000Y27686000D02*
X9144000Y28448000D01*
X9932401Y30862401D02*
X9238079Y30862401D01*
X6985000Y30335000D02*
X5885000Y31435000D01*
X6985000Y29778960D02*
X6985000Y30335000D01*
X9238079Y30862401D02*
X8154638Y29778960D01*
X9144000Y28448000D02*
X9144000Y28789598D01*
X8154638Y29778960D02*
X6985000Y29778960D01*
X9144000Y28789598D02*
X8154638Y29778960D01*
X10922000Y27686000D02*
X11303000Y27686000D01*
X11303000Y27686000D02*
X12827000Y26162000D01*
X11065000Y33020000D02*
X11065000Y31995000D01*
X11065000Y31995000D02*
X9932401Y30862401D01*
X12995000Y6010000D02*
X14097000Y7112000D01*
X12995000Y4655000D02*
X12995000Y6010000D01*
X10922000Y9906000D02*
X11303000Y9906000D01*
X11303000Y9906000D02*
X12827000Y8382000D01*
X9144000Y10668000D02*
X9144000Y11009598D01*
X9144000Y11009598D02*
X8154638Y11998960D01*
X9906000Y9906000D02*
X9144000Y10668000D01*
X10922000Y9906000D02*
X9906000Y9906000D01*
X11065000Y15240000D02*
X11065000Y14215000D01*
X11065000Y14215000D02*
X9932401Y13082401D01*
X9932401Y13082401D02*
X9238079Y13082401D01*
X9238079Y13082401D02*
X8154638Y11998960D01*
X8154638Y11998960D02*
X6985000Y11998960D01*
X6985000Y11998960D02*
X6985000Y12555000D01*
X6985000Y12555000D02*
X5885000Y13655000D01*
X13645000Y22435000D02*
X13645000Y23424000D01*
X13645000Y23424000D02*
X14097000Y23876000D01*
X8509000Y25146000D02*
X8509000Y24892000D01*
X8509000Y24892000D02*
X9144000Y24257000D01*
X9779000Y26416000D02*
X9271000Y26924000D01*
X9779000Y26416000D02*
X10668000Y25527000D01*
X9271000Y26924000D02*
X8509000Y26924000D01*
X10668000Y25527000D02*
X12192000Y25527000D01*
X10666599Y21207599D02*
X10287000Y20828000D01*
X11551921Y21207599D02*
X10666599Y21207599D01*
X11695000Y21350678D02*
X11551921Y21207599D01*
X11695000Y22435000D02*
X11695000Y21350678D01*
X22590000Y27305000D02*
X22590000Y26654000D01*
X22590000Y27305000D02*
X22987000Y27305000D01*
X22590000Y26654000D02*
X21844000Y25908000D01*
X20640000Y33020000D02*
X21590000Y33020000D01*
X3810000Y32385000D02*
X1270000Y32385000D01*
X1270000Y33335000D02*
X1270000Y32385000D01*
X3810000Y33335000D02*
X3810000Y32385000D01*
X5885000Y32385000D02*
X3810000Y32385000D01*
X8000322Y28575000D02*
X8509000Y28066322D01*
X6985000Y28575000D02*
X8000322Y28575000D01*
X8509000Y28066322D02*
X8509000Y26924000D01*
X5461000Y25146000D02*
X6985000Y25146000D01*
X6985000Y25146000D02*
X8509000Y25146000D01*
X16145000Y33020000D02*
X14605000Y33020000D01*
X14605000Y31220000D02*
X14605000Y33020000D01*
X13065000Y33020000D02*
X14605000Y33020000D01*
X14295000Y30910000D02*
X14605000Y31220000D01*
X14295000Y29635000D02*
X14295000Y30910000D01*
X4102540Y24735900D02*
X5050900Y24735900D01*
X4141640Y28575000D02*
X4102540Y28535900D01*
X5050900Y24735900D02*
X5461000Y25146000D01*
X6985000Y28575000D02*
X4141640Y28575000D01*
X13645000Y4655000D02*
X13645000Y5644000D01*
X13645000Y5644000D02*
X14097000Y6096000D01*
X9779000Y8636000D02*
X10668000Y7747000D01*
X9779000Y8636000D02*
X9271000Y9144000D01*
X9271000Y9144000D02*
X8509000Y9144000D01*
X6985000Y10795000D02*
X8000322Y10795000D01*
X8000322Y10795000D02*
X8509000Y10286322D01*
X8509000Y10286322D02*
X8509000Y9144000D01*
X8509000Y7366000D02*
X8509000Y7112000D01*
X8509000Y7112000D02*
X9144000Y6477000D01*
X10668000Y7747000D02*
X12192000Y7747000D01*
X6985000Y7366000D02*
X8509000Y7366000D01*
X5461000Y7366000D02*
X6985000Y7366000D01*
X4102540Y6955900D02*
X5050900Y6955900D01*
X5050900Y6955900D02*
X5461000Y7366000D01*
X6985000Y10795000D02*
X4141640Y10795000D01*
X4141640Y10795000D02*
X4102540Y10755900D01*
X11695000Y4655000D02*
X11695000Y3570678D01*
X11695000Y3570678D02*
X11551921Y3427599D01*
X11551921Y3427599D02*
X10666599Y3427599D01*
X10666599Y3427599D02*
X10287000Y3048000D01*
X22590000Y9525000D02*
X22590000Y8874000D01*
X22590000Y8874000D02*
X21844000Y8128000D01*
X22590000Y9525000D02*
X22987000Y9525000D01*
X20640000Y15240000D02*
X21590000Y15240000D01*
X14605000Y13440000D02*
X14605000Y15240000D01*
X14295000Y11855000D02*
X14295000Y13130000D01*
X14295000Y13130000D02*
X14605000Y13440000D01*
X13065000Y15240000D02*
X14605000Y15240000D01*
X16145000Y15240000D02*
X14605000Y15240000D01*
X3810000Y14605000D02*
X1270000Y14605000D01*
X5885000Y14605000D02*
X3810000Y14605000D01*
X3810000Y15555000D02*
X3810000Y14605000D01*
X1270000Y15555000D02*
X1270000Y14605000D01*
X13820000Y19685000D02*
X13970000Y19685000D01*
X12345000Y21160000D02*
X13820000Y19685000D01*
X16245000Y28005556D02*
X12345000Y24105556D01*
X12345000Y24105556D02*
X12345000Y23710000D01*
X12345000Y23710000D02*
X12345000Y22435000D01*
X12345000Y22435000D02*
X12345000Y21160000D01*
X25645769Y27893029D02*
X25645769Y31217309D01*
X25645769Y31217309D02*
X26449020Y32020560D01*
X26449020Y32020560D02*
X26449020Y33020000D01*
X26449020Y24765000D02*
X26449020Y27089778D01*
X26449020Y27089778D02*
X25645769Y27893029D01*
X26449020Y22225000D02*
X26449020Y24765000D01*
X20847691Y31217309D02*
X19045000Y33020000D01*
X25645769Y31217309D02*
X20847691Y31217309D01*
X16245000Y30995000D02*
X16245000Y30910000D01*
X18145000Y32895000D02*
X16245000Y30995000D01*
X16245000Y30910000D02*
X16245000Y29635000D01*
X18145000Y33020000D02*
X18145000Y32895000D01*
X19045000Y33020000D02*
X18145000Y33020000D01*
X16245000Y29635000D02*
X16245000Y28005556D01*
X12345000Y5930000D02*
X12345000Y4655000D01*
X12345000Y6325556D02*
X12345000Y5930000D01*
X16245000Y10225556D02*
X12345000Y6325556D01*
X16245000Y11855000D02*
X16245000Y10225556D01*
X13820000Y1905000D02*
X13970000Y1905000D01*
X12345000Y3380000D02*
X13820000Y1905000D01*
X12345000Y4655000D02*
X12345000Y3380000D01*
X25645769Y13437309D02*
X20847691Y13437309D01*
X19045000Y15240000D02*
X18145000Y15240000D01*
X20847691Y13437309D02*
X19045000Y15240000D01*
X26449020Y6985000D02*
X26449020Y9309778D01*
X25645769Y10113029D02*
X25645769Y13437309D01*
X26449020Y14240560D02*
X26449020Y15240000D01*
X26449020Y9309778D02*
X25645769Y10113029D01*
X25645769Y13437309D02*
X26449020Y14240560D01*
X26449020Y4445000D02*
X26449020Y6985000D01*
X18145000Y15240000D02*
X18145000Y15115000D01*
X16245000Y13130000D02*
X16245000Y11855000D01*
X18145000Y15115000D02*
X16245000Y13215000D01*
X16245000Y13215000D02*
X16245000Y13130000D01*
D28*
X22540000Y24765000D02*
X24350980Y24765000D01*
X22540000Y6985000D02*
X24350980Y6985000D01*
X22540000Y22225000D02*
X24350980Y22225000D01*
X22540000Y4445000D02*
X24350980Y4445000D01*
D27*
X6949860Y27335900D02*
X6985000Y27371040D01*
X4102540Y27335900D02*
X6949860Y27335900D01*
X4102540Y9555900D02*
X6949860Y9555900D01*
X6949860Y9555900D02*
X6985000Y9591040D01*
D29*
X10395000Y22435000D02*
X10395000Y23747500D01*
X10395000Y23747500D02*
X10298600Y23843900D01*
X10298600Y23843900D02*
X10298600Y24949688D01*
X10298600Y24949688D02*
X8984688Y26263600D01*
X8984688Y26263600D02*
X5715000Y26263600D01*
X4577540Y26685900D02*
X4102540Y26685900D01*
X4673940Y26589500D02*
X4577540Y26685900D01*
X5389100Y26589500D02*
X4673940Y26589500D01*
X5715000Y26263600D02*
X5389100Y26589500D01*
X5715000Y8483600D02*
X5389100Y8809500D01*
X5389100Y8809500D02*
X4673940Y8809500D01*
X4673940Y8809500D02*
X4577540Y8905900D01*
X4577540Y8905900D02*
X4102540Y8905900D01*
X8984688Y8483600D02*
X5715000Y8483600D01*
X10298600Y7169688D02*
X8984688Y8483600D01*
X10395000Y4655000D02*
X10395000Y5967500D01*
X10298600Y6063900D02*
X10298600Y7169688D01*
X10395000Y5967500D02*
X10298600Y6063900D01*
X9745000Y22435000D02*
X9745000Y23747500D01*
X9745000Y23747500D02*
X9841400Y23843900D01*
X9841400Y23843900D02*
X9841400Y24760312D01*
X9841400Y24760312D02*
X8795312Y25806400D01*
X5525622Y25806400D02*
X5199722Y26132300D01*
X8795312Y25806400D02*
X5525622Y25806400D01*
X4673940Y26132300D02*
X4577540Y26035900D01*
X5199722Y26132300D02*
X4673940Y26132300D01*
X4577540Y26035900D02*
X4102540Y26035900D01*
X4577540Y8255900D02*
X4102540Y8255900D01*
X9745000Y4655000D02*
X9745000Y5967500D01*
X9745000Y5967500D02*
X9841400Y6063900D01*
X9841400Y6063900D02*
X9841400Y6980312D01*
X9841400Y6980312D02*
X8795312Y8026400D01*
X8795312Y8026400D02*
X5525622Y8026400D01*
X5525622Y8026400D02*
X5199722Y8352300D01*
X5199722Y8352300D02*
X4673940Y8352300D01*
X4673940Y8352300D02*
X4577540Y8255900D01*
D27*
X11430000Y19532600D02*
X12674600Y18288000D01*
X19056400Y19685000D02*
X20320000Y19685000D01*
X12674600Y18288000D02*
X17659400Y18288000D01*
X17659400Y18288000D02*
X19056400Y19685000D01*
X6985000Y21910000D02*
X8035000Y21910000D01*
X8035000Y21910000D02*
X10260000Y19685000D01*
X10260000Y19685000D02*
X11430000Y19685000D01*
X11430000Y19685000D02*
X11430000Y19532600D01*
X8085000Y33190000D02*
X9525000Y31750000D01*
X8085000Y33335000D02*
X8085000Y33190000D01*
X12674600Y508000D02*
X17659400Y508000D01*
X17659400Y508000D02*
X19056400Y1905000D01*
X19056400Y1905000D02*
X20320000Y1905000D01*
X11430000Y1905000D02*
X11430000Y1752600D01*
X11430000Y1752600D02*
X12674600Y508000D01*
X8085000Y15555000D02*
X8085000Y15410000D01*
X8085000Y15410000D02*
X9525000Y13970000D01*
X6985000Y4130000D02*
X8035000Y4130000D01*
X8035000Y4130000D02*
X10260000Y1905000D01*
X10260000Y1905000D02*
X11430000Y1905000D01*
D28*
X7620000Y19532600D02*
X6503990Y18416590D01*
X6503990Y18416590D02*
X4617734Y18416590D01*
X4617734Y18416590D02*
X3810000Y19224324D01*
X3810000Y19224324D02*
X3810000Y22151343D01*
X7620000Y19685000D02*
X7620000Y19532600D01*
X3810000Y22151343D02*
X1933589Y24027754D01*
X3810000Y30885000D02*
X3810000Y31435000D01*
X1933589Y24027754D02*
X1933590Y28044047D01*
X1933590Y28044047D02*
X3810000Y29920457D01*
X3810000Y29920457D02*
X3810000Y30885000D01*
X1933589Y6247754D02*
X1933590Y10264047D01*
X6503990Y636590D02*
X4617734Y636590D01*
X7620000Y1752600D02*
X6503990Y636590D01*
X7620000Y1905000D02*
X7620000Y1752600D01*
X3810000Y13105000D02*
X3810000Y13655000D01*
X3810000Y12140457D02*
X3810000Y13105000D01*
X1933590Y10264047D02*
X3810000Y12140457D01*
X3810000Y4371343D02*
X1933589Y6247754D01*
X3810000Y1444324D02*
X3810000Y4371343D01*
X4617734Y636590D02*
X3810000Y1444324D01*
X5080000Y19685000D02*
X5080000Y21379727D01*
X5080000Y22205000D02*
X6685000Y23810000D01*
X5080000Y19685000D02*
X5080000Y22205000D01*
X5080000Y21379727D02*
X2286000Y24173727D01*
X8085000Y32174000D02*
X8085000Y31435000D01*
X7747000Y32512000D02*
X8085000Y32174000D01*
X7112000Y32512000D02*
X7747000Y32512000D01*
X2286000Y24173727D02*
X2286000Y27898073D01*
X6685000Y23810000D02*
X6985000Y23810000D01*
X4740927Y30353000D02*
X4826000Y30353000D01*
X2286000Y27898073D02*
X4740927Y30353000D01*
X7747000Y14732000D02*
X8085000Y14394000D01*
X8085000Y14394000D02*
X8085000Y13655000D01*
X7112000Y14732000D02*
X7747000Y14732000D01*
X2286000Y6393727D02*
X2286000Y10118073D01*
X2286000Y10118073D02*
X4740927Y12573000D01*
X4740927Y12573000D02*
X4826000Y12573000D01*
X5080000Y1905000D02*
X5080000Y3599727D01*
X5080000Y3599727D02*
X2286000Y6393727D01*
X5080000Y1905000D02*
X5080000Y4425000D01*
X5080000Y4425000D02*
X6685000Y6030000D01*
X6685000Y6030000D02*
X6985000Y6030000D01*
X2540000Y22860000D02*
X2540000Y19685000D01*
X1524000Y23876000D02*
X2540000Y22860000D01*
X1570000Y31435000D02*
X2540000Y30465000D01*
X1270000Y31435000D02*
X1570000Y31435000D01*
X1524000Y28318292D02*
X1524000Y23876000D01*
X2540000Y29334292D02*
X1524000Y28318292D01*
X2540000Y30465000D02*
X2540000Y29334292D01*
X1270000Y13655000D02*
X1570000Y13655000D01*
X1570000Y13655000D02*
X2540000Y12685000D01*
X2540000Y12685000D02*
X2540000Y11554292D01*
X2540000Y11554292D02*
X1524000Y10538292D01*
X1524000Y10538292D02*
X1524000Y6096000D01*
X1524000Y6096000D02*
X2540000Y5080000D01*
X2540000Y5080000D02*
X2540000Y1905000D01*
D27*
X29210000Y27305000D02*
X27668220Y27305000D01*
X27668220Y27305000D02*
X26398220Y28575000D01*
X29210000Y9525000D02*
X27668220Y9525000D01*
X27668220Y9525000D02*
X26398220Y10795000D01*
D28*
X29210000Y24765000D02*
X28953798Y24765000D01*
X22540000Y29845000D02*
X23114000Y29845000D01*
X23114000Y29845000D02*
X23622000Y30353000D01*
X22540000Y29545000D02*
X22540000Y29845000D01*
X22540000Y12065000D02*
X23114000Y12065000D01*
X23114000Y12065000D02*
X23622000Y12573000D01*
X29210000Y6985000D02*
X28953798Y6985000D01*
X22540000Y11765000D02*
X22540000Y12065000D01*
X19953000Y26543000D02*
X18669000Y26543000D01*
X14224000Y26689000D02*
X11045000Y23510000D01*
X11045000Y23510000D02*
X11045000Y22435000D01*
X20590000Y27305000D02*
X20590000Y27180000D01*
X20590000Y27180000D02*
X19953000Y26543000D01*
X14224000Y27178000D02*
X14224000Y26689000D01*
X18669000Y26543000D02*
X18034000Y27178000D01*
X14224000Y9398000D02*
X14224000Y8909000D01*
X14224000Y8909000D02*
X11045000Y5730000D01*
X11045000Y5730000D02*
X11045000Y4655000D01*
X19953000Y8763000D02*
X18669000Y8763000D01*
X18669000Y8763000D02*
X18034000Y9398000D01*
X20590000Y9400000D02*
X19953000Y8763000D01*
X20590000Y9525000D02*
X20590000Y9400000D01*
X12061000Y28194000D02*
X11695000Y28560000D01*
X13081000Y28194000D02*
X12061000Y28194000D01*
X11695000Y28560000D02*
X11695000Y29635000D01*
X12061000Y10414000D02*
X11695000Y10780000D01*
X11695000Y10780000D02*
X11695000Y11855000D01*
X13081000Y10414000D02*
X12061000Y10414000D01*
X15595000Y28549000D02*
X15240000Y28194000D01*
X15595000Y29635000D02*
X15595000Y28549000D01*
X15595000Y11855000D02*
X15595000Y10769000D01*
X15595000Y10769000D02*
X15240000Y10414000D01*
X18927000Y27178000D02*
X19431000Y27178000D01*
X17545000Y28560000D02*
X18927000Y27178000D01*
X17545000Y29635000D02*
X17545000Y28560000D01*
X17545000Y11855000D02*
X17545000Y10780000D01*
X17545000Y10780000D02*
X18927000Y9398000D01*
X18927000Y9398000D02*
X19431000Y9398000D01*
X9745000Y28560000D02*
X10166589Y28138411D01*
X24691955Y29525000D02*
X24693350Y29523605D01*
X24318000Y29525000D02*
X23622000Y28829000D01*
X24399240Y29525000D02*
X24318000Y29525000D01*
X9745000Y29635000D02*
X9745000Y28560000D01*
X10166589Y28138411D02*
X11490394Y28138411D01*
X13919201Y27889201D02*
X14224000Y28194000D01*
X13666799Y27636799D02*
X13919201Y27889201D01*
X11490394Y28138411D02*
X11992006Y27636799D01*
X11992006Y27636799D02*
X13666799Y27636799D01*
X13919201Y10109201D02*
X14224000Y10414000D01*
X13666799Y9856799D02*
X13919201Y10109201D01*
X11992006Y9856799D02*
X13666799Y9856799D01*
X11490394Y10358411D02*
X11992006Y9856799D01*
X10166589Y10358411D02*
X11490394Y10358411D01*
X9745000Y11855000D02*
X9745000Y10780000D01*
X9745000Y10780000D02*
X10166589Y10358411D01*
X24399240Y11745000D02*
X24318000Y11745000D01*
X24318000Y11745000D02*
X23622000Y11049000D01*
X24691955Y11745000D02*
X24693350Y11743605D01*
X20640000Y29845000D02*
X18405000Y29845000D01*
X18405000Y29845000D02*
X18195000Y29635000D01*
X20640000Y12065000D02*
X18405000Y12065000D01*
X18405000Y12065000D02*
X18195000Y11855000D01*
X20640000Y24765000D02*
X16200000Y24765000D01*
X16200000Y24765000D02*
X14945000Y23510000D01*
X14945000Y23510000D02*
X14945000Y22435000D01*
X20640000Y6985000D02*
X16200000Y6985000D01*
X16200000Y6985000D02*
X14945000Y5730000D01*
X14945000Y5730000D02*
X14945000Y4655000D01*
X20090000Y22225000D02*
X20640000Y22225000D01*
X19172599Y21307599D02*
X20090000Y22225000D01*
X14295000Y22435000D02*
X14295000Y21360000D01*
X14295000Y21360000D02*
X14347401Y21307599D01*
X14347401Y21307599D02*
X19172599Y21307599D01*
X14295000Y4655000D02*
X14295000Y3580000D01*
X14295000Y3580000D02*
X14347401Y3527599D01*
X14347401Y3527599D02*
X19172599Y3527599D01*
X19172599Y3527599D02*
X20090000Y4445000D01*
X20090000Y4445000D02*
X20640000Y4445000D01*
D27*
X24399240Y27625000D02*
X24399240Y26824950D01*
X24399240Y26824950D02*
X25497179Y25727011D01*
X22860000Y19837400D02*
X22860000Y19685000D01*
X25060182Y21101000D02*
X24123600Y21101000D01*
X24123600Y21101000D02*
X22860000Y19837400D01*
X25497179Y25727011D02*
X25497179Y21537997D01*
X25497179Y21537997D02*
X25060182Y21101000D01*
X24399240Y9044950D02*
X25497179Y7947011D01*
X24399240Y9845000D02*
X24399240Y9044950D01*
X25497179Y7947011D02*
X25497179Y3757997D01*
X25497179Y3757997D02*
X25060182Y3321000D01*
X25060182Y3321000D02*
X24123600Y3321000D01*
X24123600Y3321000D02*
X22860000Y2057400D01*
X22860000Y2057400D02*
X22860000Y1905000D01*
D28*
X22540000Y33020000D02*
X24350980Y33020000D01*
X22540000Y15240000D02*
X24350980Y15240000D01*
G36*
X5239385Y7740163D02*
X5268285Y7716424D01*
X5296923Y7692394D01*
X5298786Y7691370D01*
X5300433Y7690017D01*
X5333389Y7672347D01*
X5366154Y7654334D01*
X5368185Y7653690D01*
X5370059Y7652685D01*
X5405809Y7641755D01*
X5441459Y7630446D01*
X5443573Y7630209D01*
X5445610Y7629586D01*
X5482782Y7625811D01*
X5519970Y7621639D01*
X5524138Y7621610D01*
X5524209Y7621603D01*
X5524276Y7621609D01*
X5525622Y7621600D01*
X8627638Y7621600D01*
X9436600Y6812638D01*
X9436600Y6226756D01*
X9435024Y6224837D01*
X9410994Y6196199D01*
X9409970Y6194336D01*
X9408617Y6192689D01*
X9390947Y6159733D01*
X9372934Y6126968D01*
X9372290Y6124937D01*
X9371285Y6123063D01*
X9360355Y6087313D01*
X9349046Y6051663D01*
X9348809Y6049549D01*
X9348186Y6047512D01*
X9344411Y6010340D01*
X9340239Y5973152D01*
X9340210Y5968984D01*
X9340203Y5968913D01*
X9340209Y5968846D01*
X9340200Y5967500D01*
X9340200Y5706142D01*
X9305748Y5665719D01*
X9276420Y5600657D01*
X9266379Y5530000D01*
X9266379Y4418000D01*
X8386790Y4418000D01*
X8354895Y4449895D01*
X8322582Y4476438D01*
X8290591Y4503281D01*
X8288510Y4504425D01*
X8286668Y4505938D01*
X8249800Y4525706D01*
X8213219Y4545817D01*
X8210952Y4546536D01*
X8208856Y4547660D01*
X8168872Y4559885D01*
X8129059Y4572514D01*
X8126698Y4572779D01*
X8124421Y4573475D01*
X8082794Y4577703D01*
X8041316Y4582356D01*
X8036674Y4582388D01*
X8036579Y4582398D01*
X8036490Y4582390D01*
X8035000Y4582400D01*
X7866152Y4582400D01*
X7864304Y4588367D01*
X7825035Y4647959D01*
X7770719Y4694252D01*
X7705657Y4723580D01*
X7635000Y4733621D01*
X6335000Y4733621D01*
X6294806Y4730416D01*
X6226633Y4709304D01*
X6167041Y4670035D01*
X6120748Y4615719D01*
X6091420Y4550657D01*
X6081379Y4480000D01*
X6081379Y4418000D01*
X5571368Y4418000D01*
X6579748Y5426379D01*
X7635000Y5426379D01*
X7675194Y5429584D01*
X7743367Y5450696D01*
X7802959Y5489965D01*
X7849252Y5544281D01*
X7878580Y5609343D01*
X7888621Y5680000D01*
X7888621Y6380000D01*
X7885416Y6420194D01*
X7864304Y6488367D01*
X7825035Y6547959D01*
X7770719Y6594252D01*
X7705657Y6623580D01*
X7635000Y6633621D01*
X6335000Y6633621D01*
X6294806Y6630416D01*
X6226633Y6609304D01*
X6167041Y6570035D01*
X6120748Y6515719D01*
X6091420Y6450657D01*
X6081379Y6380000D01*
X6081379Y5924748D01*
X4830816Y4674184D01*
X4810145Y4649020D01*
X4789230Y4624094D01*
X4788339Y4622473D01*
X4787161Y4621039D01*
X4771763Y4592321D01*
X4756097Y4563825D01*
X4755537Y4562060D01*
X4754661Y4560426D01*
X4746320Y4533143D01*
X4543584Y4634511D01*
X4276036Y4902059D01*
X4380900Y4933868D01*
X4506658Y5001086D01*
X4616886Y5091547D01*
X4707348Y5201774D01*
X4774568Y5327531D01*
X4815962Y5463986D01*
X4829940Y5605895D01*
X4829940Y5755895D01*
X4102545Y5755895D01*
X4102545Y5735895D01*
X4102535Y5735895D01*
X4102535Y5755895D01*
X4082535Y5755895D01*
X4082535Y5755905D01*
X4102535Y5755905D01*
X4102535Y6955895D01*
X4102545Y6955895D01*
X4102545Y5755905D01*
X4829940Y5755905D01*
X4829940Y5905905D01*
X4815962Y6047814D01*
X4774568Y6184269D01*
X4707348Y6310026D01*
X4616886Y6420253D01*
X4515448Y6503500D01*
X4802399Y6503500D01*
X4851162Y6513200D01*
X4897096Y6532226D01*
X4938435Y6559848D01*
X4973592Y6595004D01*
X5001214Y6636344D01*
X5020240Y6682277D01*
X5029940Y6731041D01*
X5029940Y6892795D01*
X4966840Y6955895D01*
X4102545Y6955895D01*
X4102535Y6955895D01*
X4082535Y6955895D01*
X4082535Y6955905D01*
X4102535Y6955905D01*
X4102535Y6975905D01*
X4102545Y6975905D01*
X4102545Y6955905D01*
X4966840Y6955905D01*
X5029940Y7019005D01*
X5029940Y7180759D01*
X5020240Y7229523D01*
X5001214Y7275456D01*
X4997008Y7281751D01*
X5021120Y7335243D01*
X5031161Y7405900D01*
X5031161Y7805900D01*
X5027956Y7846094D01*
X5006844Y7914267D01*
X4996323Y7930233D01*
X5004107Y7947500D01*
X5032048Y7947500D01*
X5239385Y7740163D01*
X5239385Y7740163D01*
G37*
X5239385Y7740163D02*
X5268285Y7716424D01*
X5296923Y7692394D01*
X5298786Y7691370D01*
X5300433Y7690017D01*
X5333389Y7672347D01*
X5366154Y7654334D01*
X5368185Y7653690D01*
X5370059Y7652685D01*
X5405809Y7641755D01*
X5441459Y7630446D01*
X5443573Y7630209D01*
X5445610Y7629586D01*
X5482782Y7625811D01*
X5519970Y7621639D01*
X5524138Y7621610D01*
X5524209Y7621603D01*
X5524276Y7621609D01*
X5525622Y7621600D01*
X8627638Y7621600D01*
X9436600Y6812638D01*
X9436600Y6226756D01*
X9435024Y6224837D01*
X9410994Y6196199D01*
X9409970Y6194336D01*
X9408617Y6192689D01*
X9390947Y6159733D01*
X9372934Y6126968D01*
X9372290Y6124937D01*
X9371285Y6123063D01*
X9360355Y6087313D01*
X9349046Y6051663D01*
X9348809Y6049549D01*
X9348186Y6047512D01*
X9344411Y6010340D01*
X9340239Y5973152D01*
X9340210Y5968984D01*
X9340203Y5968913D01*
X9340209Y5968846D01*
X9340200Y5967500D01*
X9340200Y5706142D01*
X9305748Y5665719D01*
X9276420Y5600657D01*
X9266379Y5530000D01*
X9266379Y4418000D01*
X8386790Y4418000D01*
X8354895Y4449895D01*
X8322582Y4476438D01*
X8290591Y4503281D01*
X8288510Y4504425D01*
X8286668Y4505938D01*
X8249800Y4525706D01*
X8213219Y4545817D01*
X8210952Y4546536D01*
X8208856Y4547660D01*
X8168872Y4559885D01*
X8129059Y4572514D01*
X8126698Y4572779D01*
X8124421Y4573475D01*
X8082794Y4577703D01*
X8041316Y4582356D01*
X8036674Y4582388D01*
X8036579Y4582398D01*
X8036490Y4582390D01*
X8035000Y4582400D01*
X7866152Y4582400D01*
X7864304Y4588367D01*
X7825035Y4647959D01*
X7770719Y4694252D01*
X7705657Y4723580D01*
X7635000Y4733621D01*
X6335000Y4733621D01*
X6294806Y4730416D01*
X6226633Y4709304D01*
X6167041Y4670035D01*
X6120748Y4615719D01*
X6091420Y4550657D01*
X6081379Y4480000D01*
X6081379Y4418000D01*
X5571368Y4418000D01*
X6579748Y5426379D01*
X7635000Y5426379D01*
X7675194Y5429584D01*
X7743367Y5450696D01*
X7802959Y5489965D01*
X7849252Y5544281D01*
X7878580Y5609343D01*
X7888621Y5680000D01*
X7888621Y6380000D01*
X7885416Y6420194D01*
X7864304Y6488367D01*
X7825035Y6547959D01*
X7770719Y6594252D01*
X7705657Y6623580D01*
X7635000Y6633621D01*
X6335000Y6633621D01*
X6294806Y6630416D01*
X6226633Y6609304D01*
X6167041Y6570035D01*
X6120748Y6515719D01*
X6091420Y6450657D01*
X6081379Y6380000D01*
X6081379Y5924748D01*
X4830816Y4674184D01*
X4810145Y4649020D01*
X4789230Y4624094D01*
X4788339Y4622473D01*
X4787161Y4621039D01*
X4771763Y4592321D01*
X4756097Y4563825D01*
X4755537Y4562060D01*
X4754661Y4560426D01*
X4746320Y4533143D01*
X4543584Y4634511D01*
X4276036Y4902059D01*
X4380900Y4933868D01*
X4506658Y5001086D01*
X4616886Y5091547D01*
X4707348Y5201774D01*
X4774568Y5327531D01*
X4815962Y5463986D01*
X4829940Y5605895D01*
X4829940Y5755895D01*
X4102545Y5755895D01*
X4102545Y5735895D01*
X4102535Y5735895D01*
X4102535Y5755895D01*
X4082535Y5755895D01*
X4082535Y5755905D01*
X4102535Y5755905D01*
X4102535Y6955895D01*
X4102545Y6955895D01*
X4102545Y5755905D01*
X4829940Y5755905D01*
X4829940Y5905905D01*
X4815962Y6047814D01*
X4774568Y6184269D01*
X4707348Y6310026D01*
X4616886Y6420253D01*
X4515448Y6503500D01*
X4802399Y6503500D01*
X4851162Y6513200D01*
X4897096Y6532226D01*
X4938435Y6559848D01*
X4973592Y6595004D01*
X5001214Y6636344D01*
X5020240Y6682277D01*
X5029940Y6731041D01*
X5029940Y6892795D01*
X4966840Y6955895D01*
X4102545Y6955895D01*
X4102535Y6955895D01*
X4082535Y6955895D01*
X4082535Y6955905D01*
X4102535Y6955905D01*
X4102535Y6975905D01*
X4102545Y6975905D01*
X4102545Y6955905D01*
X4966840Y6955905D01*
X5029940Y7019005D01*
X5029940Y7180759D01*
X5020240Y7229523D01*
X5001214Y7275456D01*
X4997008Y7281751D01*
X5021120Y7335243D01*
X5031161Y7405900D01*
X5031161Y7805900D01*
X5027956Y7846094D01*
X5006844Y7914267D01*
X4996323Y7930233D01*
X5004107Y7947500D01*
X5032048Y7947500D01*
X5239385Y7740163D01*
G36*
X11892600Y5782400D02*
X11758105Y5782400D01*
X11695005Y5719300D01*
X11695005Y4655005D01*
X11715005Y4655005D01*
X11715005Y4654995D01*
X11695005Y4654995D01*
X11695005Y4634995D01*
X11694995Y4634995D01*
X11694995Y4654995D01*
X11674995Y4654995D01*
X11674995Y4655005D01*
X11694995Y4655005D01*
X11694995Y5719300D01*
X11631895Y5782400D01*
X11595768Y5782400D01*
X11892600Y6079232D01*
X11892600Y5782400D01*
X11892600Y5782400D01*
G37*
X11892600Y5782400D02*
X11758105Y5782400D01*
X11695005Y5719300D01*
X11695005Y4655005D01*
X11715005Y4655005D01*
X11715005Y4654995D01*
X11695005Y4654995D01*
X11695005Y4634995D01*
X11694995Y4634995D01*
X11694995Y4654995D01*
X11674995Y4654995D01*
X11674995Y4655005D01*
X11694995Y4655005D01*
X11694995Y5719300D01*
X11631895Y5782400D01*
X11595768Y5782400D01*
X11892600Y6079232D01*
X11892600Y5782400D01*
G36*
X5716649Y11428730D02*
X5719854Y11388536D01*
X5740966Y11320363D01*
X5780235Y11260771D01*
X5834551Y11214478D01*
X5899613Y11185150D01*
X5970270Y11175109D01*
X7999730Y11175109D01*
X8039924Y11178314D01*
X8108097Y11199426D01*
X8167689Y11238695D01*
X8213982Y11293011D01*
X8216099Y11297709D01*
X8691600Y10822208D01*
X8691600Y10668000D01*
X8695678Y10626407D01*
X8699320Y10584781D01*
X8699984Y10582496D01*
X8700216Y10580128D01*
X8712299Y10540108D01*
X8723953Y10499993D01*
X8725047Y10497882D01*
X8725735Y10495604D01*
X8745370Y10458675D01*
X8764586Y10421605D01*
X8766068Y10419748D01*
X8767186Y10417646D01*
X8793621Y10385233D01*
X8819670Y10352602D01*
X8822931Y10349296D01*
X8822990Y10349223D01*
X8823057Y10349167D01*
X8824105Y10348105D01*
X9586105Y9586105D01*
X9618418Y9559562D01*
X9650409Y9532719D01*
X9652490Y9531575D01*
X9654332Y9530062D01*
X9691216Y9510285D01*
X9727781Y9490183D01*
X9730046Y9489465D01*
X9732145Y9488339D01*
X9772160Y9476105D01*
X9811941Y9463486D01*
X9814302Y9463221D01*
X9816579Y9462525D01*
X9858206Y9458297D01*
X9899684Y9453644D01*
X9904326Y9453612D01*
X9904421Y9453602D01*
X9904510Y9453610D01*
X9906000Y9453600D01*
X11115610Y9453600D01*
X12276937Y8292273D01*
X12288793Y8227672D01*
X12329019Y8126073D01*
X12388213Y8034222D01*
X12464120Y7955618D01*
X12553849Y7893254D01*
X12653983Y7849507D01*
X12663948Y7847316D01*
X10798401Y5981769D01*
X10796149Y6004734D01*
X10792892Y6041963D01*
X10792299Y6044004D01*
X10792091Y6046126D01*
X10781278Y6081939D01*
X10770851Y6117830D01*
X10769871Y6119721D01*
X10769256Y6121757D01*
X10751706Y6154764D01*
X10734494Y6187970D01*
X10733167Y6189633D01*
X10732167Y6191513D01*
X10708555Y6220464D01*
X10703400Y6226921D01*
X10703400Y7169688D01*
X10699749Y7206922D01*
X10696492Y7244151D01*
X10695899Y7246192D01*
X10695691Y7248314D01*
X10684878Y7284127D01*
X10674451Y7320018D01*
X10673471Y7321909D01*
X10672856Y7323945D01*
X10655306Y7356952D01*
X10638094Y7390158D01*
X10636767Y7391821D01*
X10635767Y7393701D01*
X10612155Y7422652D01*
X10588806Y7451901D01*
X10585880Y7454867D01*
X10585834Y7454924D01*
X10585781Y7454968D01*
X10584837Y7455925D01*
X9270925Y8769837D01*
X9242025Y8793576D01*
X9213387Y8817606D01*
X9211524Y8818630D01*
X9209877Y8819983D01*
X9176921Y8837653D01*
X9144156Y8855666D01*
X9142125Y8856310D01*
X9140251Y8857315D01*
X9104501Y8868245D01*
X9068851Y8879554D01*
X9066737Y8879791D01*
X9064700Y8880414D01*
X9027528Y8884189D01*
X8990340Y8888361D01*
X8986172Y8888390D01*
X8986101Y8888397D01*
X8986034Y8888391D01*
X8984688Y8888400D01*
X8215474Y8888400D01*
X8243310Y8950153D01*
X8253351Y9020810D01*
X8253351Y10161270D01*
X8250146Y10201464D01*
X8229034Y10269637D01*
X8189765Y10329229D01*
X8135449Y10375522D01*
X8070387Y10404850D01*
X7999730Y10414891D01*
X5970270Y10414891D01*
X5930076Y10411686D01*
X5861903Y10390574D01*
X5802311Y10351305D01*
X5756018Y10296989D01*
X5726690Y10231927D01*
X5716649Y10161270D01*
X5716649Y10008300D01*
X4786132Y10008300D01*
X4777540Y10009521D01*
X4516936Y10009521D01*
X4616886Y10091547D01*
X4707348Y10201774D01*
X4774568Y10327531D01*
X4815962Y10463986D01*
X4829940Y10605895D01*
X4829940Y10755895D01*
X4102545Y10755895D01*
X4102545Y10735895D01*
X4102535Y10735895D01*
X4102535Y10755895D01*
X4082535Y10755895D01*
X4082535Y10755905D01*
X4102535Y10755905D01*
X4102535Y10775905D01*
X4102545Y10775905D01*
X4102545Y10755905D01*
X4829940Y10755905D01*
X4829940Y10905905D01*
X4815962Y11047814D01*
X4774568Y11184269D01*
X4707348Y11310026D01*
X4616886Y11420253D01*
X4506658Y11510714D01*
X4380900Y11577932D01*
X4276036Y11609741D01*
X4697102Y12030807D01*
X4759706Y12017043D01*
X4868955Y12014754D01*
X4976567Y12033729D01*
X5078445Y12073245D01*
X5170706Y12131796D01*
X5249839Y12207152D01*
X5312827Y12296444D01*
X5334891Y12346000D01*
X5716649Y12346000D01*
X5716649Y11428730D01*
X5716649Y11428730D01*
G37*
X5716649Y11428730D02*
X5719854Y11388536D01*
X5740966Y11320363D01*
X5780235Y11260771D01*
X5834551Y11214478D01*
X5899613Y11185150D01*
X5970270Y11175109D01*
X7999730Y11175109D01*
X8039924Y11178314D01*
X8108097Y11199426D01*
X8167689Y11238695D01*
X8213982Y11293011D01*
X8216099Y11297709D01*
X8691600Y10822208D01*
X8691600Y10668000D01*
X8695678Y10626407D01*
X8699320Y10584781D01*
X8699984Y10582496D01*
X8700216Y10580128D01*
X8712299Y10540108D01*
X8723953Y10499993D01*
X8725047Y10497882D01*
X8725735Y10495604D01*
X8745370Y10458675D01*
X8764586Y10421605D01*
X8766068Y10419748D01*
X8767186Y10417646D01*
X8793621Y10385233D01*
X8819670Y10352602D01*
X8822931Y10349296D01*
X8822990Y10349223D01*
X8823057Y10349167D01*
X8824105Y10348105D01*
X9586105Y9586105D01*
X9618418Y9559562D01*
X9650409Y9532719D01*
X9652490Y9531575D01*
X9654332Y9530062D01*
X9691216Y9510285D01*
X9727781Y9490183D01*
X9730046Y9489465D01*
X9732145Y9488339D01*
X9772160Y9476105D01*
X9811941Y9463486D01*
X9814302Y9463221D01*
X9816579Y9462525D01*
X9858206Y9458297D01*
X9899684Y9453644D01*
X9904326Y9453612D01*
X9904421Y9453602D01*
X9904510Y9453610D01*
X9906000Y9453600D01*
X11115610Y9453600D01*
X12276937Y8292273D01*
X12288793Y8227672D01*
X12329019Y8126073D01*
X12388213Y8034222D01*
X12464120Y7955618D01*
X12553849Y7893254D01*
X12653983Y7849507D01*
X12663948Y7847316D01*
X10798401Y5981769D01*
X10796149Y6004734D01*
X10792892Y6041963D01*
X10792299Y6044004D01*
X10792091Y6046126D01*
X10781278Y6081939D01*
X10770851Y6117830D01*
X10769871Y6119721D01*
X10769256Y6121757D01*
X10751706Y6154764D01*
X10734494Y6187970D01*
X10733167Y6189633D01*
X10732167Y6191513D01*
X10708555Y6220464D01*
X10703400Y6226921D01*
X10703400Y7169688D01*
X10699749Y7206922D01*
X10696492Y7244151D01*
X10695899Y7246192D01*
X10695691Y7248314D01*
X10684878Y7284127D01*
X10674451Y7320018D01*
X10673471Y7321909D01*
X10672856Y7323945D01*
X10655306Y7356952D01*
X10638094Y7390158D01*
X10636767Y7391821D01*
X10635767Y7393701D01*
X10612155Y7422652D01*
X10588806Y7451901D01*
X10585880Y7454867D01*
X10585834Y7454924D01*
X10585781Y7454968D01*
X10584837Y7455925D01*
X9270925Y8769837D01*
X9242025Y8793576D01*
X9213387Y8817606D01*
X9211524Y8818630D01*
X9209877Y8819983D01*
X9176921Y8837653D01*
X9144156Y8855666D01*
X9142125Y8856310D01*
X9140251Y8857315D01*
X9104501Y8868245D01*
X9068851Y8879554D01*
X9066737Y8879791D01*
X9064700Y8880414D01*
X9027528Y8884189D01*
X8990340Y8888361D01*
X8986172Y8888390D01*
X8986101Y8888397D01*
X8986034Y8888391D01*
X8984688Y8888400D01*
X8215474Y8888400D01*
X8243310Y8950153D01*
X8253351Y9020810D01*
X8253351Y10161270D01*
X8250146Y10201464D01*
X8229034Y10269637D01*
X8189765Y10329229D01*
X8135449Y10375522D01*
X8070387Y10404850D01*
X7999730Y10414891D01*
X5970270Y10414891D01*
X5930076Y10411686D01*
X5861903Y10390574D01*
X5802311Y10351305D01*
X5756018Y10296989D01*
X5726690Y10231927D01*
X5716649Y10161270D01*
X5716649Y10008300D01*
X4786132Y10008300D01*
X4777540Y10009521D01*
X4516936Y10009521D01*
X4616886Y10091547D01*
X4707348Y10201774D01*
X4774568Y10327531D01*
X4815962Y10463986D01*
X4829940Y10605895D01*
X4829940Y10755895D01*
X4102545Y10755895D01*
X4102545Y10735895D01*
X4102535Y10735895D01*
X4102535Y10755895D01*
X4082535Y10755895D01*
X4082535Y10755905D01*
X4102535Y10755905D01*
X4102535Y10775905D01*
X4102545Y10775905D01*
X4102545Y10755905D01*
X4829940Y10755905D01*
X4829940Y10905905D01*
X4815962Y11047814D01*
X4774568Y11184269D01*
X4707348Y11310026D01*
X4616886Y11420253D01*
X4506658Y11510714D01*
X4380900Y11577932D01*
X4276036Y11609741D01*
X4697102Y12030807D01*
X4759706Y12017043D01*
X4868955Y12014754D01*
X4976567Y12033729D01*
X5078445Y12073245D01*
X5170706Y12131796D01*
X5249839Y12207152D01*
X5312827Y12296444D01*
X5334891Y12346000D01*
X5716649Y12346000D01*
X5716649Y11428730D01*
G36*
X5239385Y25520163D02*
X5268285Y25496424D01*
X5296923Y25472394D01*
X5298786Y25471370D01*
X5300433Y25470017D01*
X5333389Y25452347D01*
X5366154Y25434334D01*
X5368185Y25433690D01*
X5370059Y25432685D01*
X5405809Y25421755D01*
X5441459Y25410446D01*
X5443573Y25410209D01*
X5445610Y25409586D01*
X5482782Y25405811D01*
X5519970Y25401639D01*
X5524138Y25401610D01*
X5524209Y25401603D01*
X5524276Y25401609D01*
X5525622Y25401600D01*
X8627638Y25401600D01*
X9436600Y24592638D01*
X9436600Y24006756D01*
X9435024Y24004837D01*
X9410994Y23976199D01*
X9409970Y23974336D01*
X9408617Y23972689D01*
X9390947Y23939733D01*
X9372934Y23906968D01*
X9372290Y23904937D01*
X9371285Y23903063D01*
X9360355Y23867313D01*
X9349046Y23831663D01*
X9348809Y23829549D01*
X9348186Y23827512D01*
X9344411Y23790340D01*
X9340239Y23753152D01*
X9340210Y23748984D01*
X9340203Y23748913D01*
X9340209Y23748846D01*
X9340200Y23747500D01*
X9340200Y23486142D01*
X9305748Y23445719D01*
X9276420Y23380657D01*
X9266379Y23310000D01*
X9266379Y22198000D01*
X8386790Y22198000D01*
X8354895Y22229895D01*
X8322582Y22256438D01*
X8290591Y22283281D01*
X8288510Y22284425D01*
X8286668Y22285938D01*
X8249800Y22305706D01*
X8213219Y22325817D01*
X8210952Y22326536D01*
X8208856Y22327660D01*
X8168872Y22339885D01*
X8129059Y22352514D01*
X8126698Y22352779D01*
X8124421Y22353475D01*
X8082794Y22357703D01*
X8041316Y22362356D01*
X8036674Y22362388D01*
X8036579Y22362398D01*
X8036490Y22362390D01*
X8035000Y22362400D01*
X7866152Y22362400D01*
X7864304Y22368367D01*
X7825035Y22427959D01*
X7770719Y22474252D01*
X7705657Y22503580D01*
X7635000Y22513621D01*
X6335000Y22513621D01*
X6294806Y22510416D01*
X6226633Y22489304D01*
X6167041Y22450035D01*
X6120748Y22395719D01*
X6091420Y22330657D01*
X6081379Y22260000D01*
X6081379Y22198000D01*
X5571368Y22198000D01*
X6579748Y23206379D01*
X7635000Y23206379D01*
X7675194Y23209584D01*
X7743367Y23230696D01*
X7802959Y23269965D01*
X7849252Y23324281D01*
X7878580Y23389343D01*
X7888621Y23460000D01*
X7888621Y24160000D01*
X7885416Y24200194D01*
X7864304Y24268367D01*
X7825035Y24327959D01*
X7770719Y24374252D01*
X7705657Y24403580D01*
X7635000Y24413621D01*
X6335000Y24413621D01*
X6294806Y24410416D01*
X6226633Y24389304D01*
X6167041Y24350035D01*
X6120748Y24295719D01*
X6091420Y24230657D01*
X6081379Y24160000D01*
X6081379Y23704748D01*
X4830816Y22454184D01*
X4810145Y22429020D01*
X4789230Y22404094D01*
X4788339Y22402473D01*
X4787161Y22401039D01*
X4771763Y22372321D01*
X4756097Y22343825D01*
X4755537Y22342060D01*
X4754661Y22340426D01*
X4746320Y22313143D01*
X4543584Y22414511D01*
X4276036Y22682059D01*
X4380900Y22713868D01*
X4506658Y22781086D01*
X4616886Y22871547D01*
X4707348Y22981774D01*
X4774568Y23107531D01*
X4815962Y23243986D01*
X4829940Y23385895D01*
X4829940Y23535895D01*
X4102545Y23535895D01*
X4102545Y23515895D01*
X4102535Y23515895D01*
X4102535Y23535895D01*
X4082535Y23535895D01*
X4082535Y23535905D01*
X4102535Y23535905D01*
X4102535Y24735895D01*
X4102545Y24735895D01*
X4102545Y23535905D01*
X4829940Y23535905D01*
X4829940Y23685905D01*
X4815962Y23827814D01*
X4774568Y23964269D01*
X4707348Y24090026D01*
X4616886Y24200253D01*
X4515448Y24283500D01*
X4802399Y24283500D01*
X4851162Y24293200D01*
X4897096Y24312226D01*
X4938435Y24339848D01*
X4973592Y24375004D01*
X5001214Y24416344D01*
X5020240Y24462277D01*
X5029940Y24511041D01*
X5029940Y24672795D01*
X4966840Y24735895D01*
X4102545Y24735895D01*
X4102535Y24735895D01*
X4082535Y24735895D01*
X4082535Y24735905D01*
X4102535Y24735905D01*
X4102535Y24755905D01*
X4102545Y24755905D01*
X4102545Y24735905D01*
X4966840Y24735905D01*
X5029940Y24799005D01*
X5029940Y24960759D01*
X5020240Y25009523D01*
X5001214Y25055456D01*
X4997008Y25061751D01*
X5021120Y25115243D01*
X5031161Y25185900D01*
X5031161Y25585900D01*
X5027956Y25626094D01*
X5006844Y25694267D01*
X4996323Y25710233D01*
X5004107Y25727500D01*
X5032048Y25727500D01*
X5239385Y25520163D01*
X5239385Y25520163D01*
G37*
X5239385Y25520163D02*
X5268285Y25496424D01*
X5296923Y25472394D01*
X5298786Y25471370D01*
X5300433Y25470017D01*
X5333389Y25452347D01*
X5366154Y25434334D01*
X5368185Y25433690D01*
X5370059Y25432685D01*
X5405809Y25421755D01*
X5441459Y25410446D01*
X5443573Y25410209D01*
X5445610Y25409586D01*
X5482782Y25405811D01*
X5519970Y25401639D01*
X5524138Y25401610D01*
X5524209Y25401603D01*
X5524276Y25401609D01*
X5525622Y25401600D01*
X8627638Y25401600D01*
X9436600Y24592638D01*
X9436600Y24006756D01*
X9435024Y24004837D01*
X9410994Y23976199D01*
X9409970Y23974336D01*
X9408617Y23972689D01*
X9390947Y23939733D01*
X9372934Y23906968D01*
X9372290Y23904937D01*
X9371285Y23903063D01*
X9360355Y23867313D01*
X9349046Y23831663D01*
X9348809Y23829549D01*
X9348186Y23827512D01*
X9344411Y23790340D01*
X9340239Y23753152D01*
X9340210Y23748984D01*
X9340203Y23748913D01*
X9340209Y23748846D01*
X9340200Y23747500D01*
X9340200Y23486142D01*
X9305748Y23445719D01*
X9276420Y23380657D01*
X9266379Y23310000D01*
X9266379Y22198000D01*
X8386790Y22198000D01*
X8354895Y22229895D01*
X8322582Y22256438D01*
X8290591Y22283281D01*
X8288510Y22284425D01*
X8286668Y22285938D01*
X8249800Y22305706D01*
X8213219Y22325817D01*
X8210952Y22326536D01*
X8208856Y22327660D01*
X8168872Y22339885D01*
X8129059Y22352514D01*
X8126698Y22352779D01*
X8124421Y22353475D01*
X8082794Y22357703D01*
X8041316Y22362356D01*
X8036674Y22362388D01*
X8036579Y22362398D01*
X8036490Y22362390D01*
X8035000Y22362400D01*
X7866152Y22362400D01*
X7864304Y22368367D01*
X7825035Y22427959D01*
X7770719Y22474252D01*
X7705657Y22503580D01*
X7635000Y22513621D01*
X6335000Y22513621D01*
X6294806Y22510416D01*
X6226633Y22489304D01*
X6167041Y22450035D01*
X6120748Y22395719D01*
X6091420Y22330657D01*
X6081379Y22260000D01*
X6081379Y22198000D01*
X5571368Y22198000D01*
X6579748Y23206379D01*
X7635000Y23206379D01*
X7675194Y23209584D01*
X7743367Y23230696D01*
X7802959Y23269965D01*
X7849252Y23324281D01*
X7878580Y23389343D01*
X7888621Y23460000D01*
X7888621Y24160000D01*
X7885416Y24200194D01*
X7864304Y24268367D01*
X7825035Y24327959D01*
X7770719Y24374252D01*
X7705657Y24403580D01*
X7635000Y24413621D01*
X6335000Y24413621D01*
X6294806Y24410416D01*
X6226633Y24389304D01*
X6167041Y24350035D01*
X6120748Y24295719D01*
X6091420Y24230657D01*
X6081379Y24160000D01*
X6081379Y23704748D01*
X4830816Y22454184D01*
X4810145Y22429020D01*
X4789230Y22404094D01*
X4788339Y22402473D01*
X4787161Y22401039D01*
X4771763Y22372321D01*
X4756097Y22343825D01*
X4755537Y22342060D01*
X4754661Y22340426D01*
X4746320Y22313143D01*
X4543584Y22414511D01*
X4276036Y22682059D01*
X4380900Y22713868D01*
X4506658Y22781086D01*
X4616886Y22871547D01*
X4707348Y22981774D01*
X4774568Y23107531D01*
X4815962Y23243986D01*
X4829940Y23385895D01*
X4829940Y23535895D01*
X4102545Y23535895D01*
X4102545Y23515895D01*
X4102535Y23515895D01*
X4102535Y23535895D01*
X4082535Y23535895D01*
X4082535Y23535905D01*
X4102535Y23535905D01*
X4102535Y24735895D01*
X4102545Y24735895D01*
X4102545Y23535905D01*
X4829940Y23535905D01*
X4829940Y23685905D01*
X4815962Y23827814D01*
X4774568Y23964269D01*
X4707348Y24090026D01*
X4616886Y24200253D01*
X4515448Y24283500D01*
X4802399Y24283500D01*
X4851162Y24293200D01*
X4897096Y24312226D01*
X4938435Y24339848D01*
X4973592Y24375004D01*
X5001214Y24416344D01*
X5020240Y24462277D01*
X5029940Y24511041D01*
X5029940Y24672795D01*
X4966840Y24735895D01*
X4102545Y24735895D01*
X4102535Y24735895D01*
X4082535Y24735895D01*
X4082535Y24735905D01*
X4102535Y24735905D01*
X4102535Y24755905D01*
X4102545Y24755905D01*
X4102545Y24735905D01*
X4966840Y24735905D01*
X5029940Y24799005D01*
X5029940Y24960759D01*
X5020240Y25009523D01*
X5001214Y25055456D01*
X4997008Y25061751D01*
X5021120Y25115243D01*
X5031161Y25185900D01*
X5031161Y25585900D01*
X5027956Y25626094D01*
X5006844Y25694267D01*
X4996323Y25710233D01*
X5004107Y25727500D01*
X5032048Y25727500D01*
X5239385Y25520163D01*
G36*
X11892600Y23562400D02*
X11758105Y23562400D01*
X11695005Y23499300D01*
X11695005Y22435005D01*
X11715005Y22435005D01*
X11715005Y22434995D01*
X11695005Y22434995D01*
X11695005Y22414995D01*
X11694995Y22414995D01*
X11694995Y22434995D01*
X11674995Y22434995D01*
X11674995Y22435005D01*
X11694995Y22435005D01*
X11694995Y23499300D01*
X11631895Y23562400D01*
X11595768Y23562400D01*
X11892600Y23859232D01*
X11892600Y23562400D01*
X11892600Y23562400D01*
G37*
X11892600Y23562400D02*
X11758105Y23562400D01*
X11695005Y23499300D01*
X11695005Y22435005D01*
X11715005Y22435005D01*
X11715005Y22434995D01*
X11695005Y22434995D01*
X11695005Y22414995D01*
X11694995Y22414995D01*
X11694995Y22434995D01*
X11674995Y22434995D01*
X11674995Y22435005D01*
X11694995Y22435005D01*
X11694995Y23499300D01*
X11631895Y23562400D01*
X11595768Y23562400D01*
X11892600Y23859232D01*
X11892600Y23562400D01*
G36*
X5716649Y29208730D02*
X5719854Y29168536D01*
X5740966Y29100363D01*
X5780235Y29040771D01*
X5834551Y28994478D01*
X5899613Y28965150D01*
X5970270Y28955109D01*
X7999730Y28955109D01*
X8039924Y28958314D01*
X8108097Y28979426D01*
X8167689Y29018695D01*
X8213982Y29073011D01*
X8216099Y29077709D01*
X8691600Y28602208D01*
X8691600Y28448000D01*
X8695678Y28406407D01*
X8699320Y28364781D01*
X8699984Y28362496D01*
X8700216Y28360128D01*
X8712299Y28320108D01*
X8723953Y28279993D01*
X8725047Y28277882D01*
X8725735Y28275604D01*
X8745370Y28238675D01*
X8764586Y28201605D01*
X8766068Y28199748D01*
X8767186Y28197646D01*
X8793621Y28165233D01*
X8819670Y28132602D01*
X8822931Y28129296D01*
X8822990Y28129223D01*
X8823057Y28129167D01*
X8824105Y28128105D01*
X9586105Y27366105D01*
X9618418Y27339562D01*
X9650409Y27312719D01*
X9652490Y27311575D01*
X9654332Y27310062D01*
X9691216Y27290285D01*
X9727781Y27270183D01*
X9730046Y27269465D01*
X9732145Y27268339D01*
X9772160Y27256105D01*
X9811941Y27243486D01*
X9814302Y27243221D01*
X9816579Y27242525D01*
X9858206Y27238297D01*
X9899684Y27233644D01*
X9904326Y27233612D01*
X9904421Y27233602D01*
X9904510Y27233610D01*
X9906000Y27233600D01*
X11115610Y27233600D01*
X12276937Y26072273D01*
X12288793Y26007672D01*
X12329019Y25906073D01*
X12388213Y25814222D01*
X12464120Y25735618D01*
X12553849Y25673254D01*
X12653983Y25629507D01*
X12663948Y25627316D01*
X10798401Y23761769D01*
X10796149Y23784734D01*
X10792892Y23821963D01*
X10792299Y23824004D01*
X10792091Y23826126D01*
X10781278Y23861939D01*
X10770851Y23897830D01*
X10769871Y23899721D01*
X10769256Y23901757D01*
X10751706Y23934764D01*
X10734494Y23967970D01*
X10733167Y23969633D01*
X10732167Y23971513D01*
X10708555Y24000464D01*
X10703400Y24006921D01*
X10703400Y24949688D01*
X10699749Y24986922D01*
X10696492Y25024151D01*
X10695899Y25026192D01*
X10695691Y25028314D01*
X10684878Y25064127D01*
X10674451Y25100018D01*
X10673471Y25101909D01*
X10672856Y25103945D01*
X10655306Y25136952D01*
X10638094Y25170158D01*
X10636767Y25171821D01*
X10635767Y25173701D01*
X10612155Y25202652D01*
X10588806Y25231901D01*
X10585880Y25234867D01*
X10585834Y25234924D01*
X10585781Y25234968D01*
X10584837Y25235925D01*
X9270925Y26549837D01*
X9242025Y26573576D01*
X9213387Y26597606D01*
X9211524Y26598630D01*
X9209877Y26599983D01*
X9176921Y26617653D01*
X9144156Y26635666D01*
X9142125Y26636310D01*
X9140251Y26637315D01*
X9104501Y26648245D01*
X9068851Y26659554D01*
X9066737Y26659791D01*
X9064700Y26660414D01*
X9027528Y26664189D01*
X8990340Y26668361D01*
X8986172Y26668390D01*
X8986101Y26668397D01*
X8986034Y26668391D01*
X8984688Y26668400D01*
X8215474Y26668400D01*
X8243310Y26730153D01*
X8253351Y26800810D01*
X8253351Y27941270D01*
X8250146Y27981464D01*
X8229034Y28049637D01*
X8189765Y28109229D01*
X8135449Y28155522D01*
X8070387Y28184850D01*
X7999730Y28194891D01*
X5970270Y28194891D01*
X5930076Y28191686D01*
X5861903Y28170574D01*
X5802311Y28131305D01*
X5756018Y28076989D01*
X5726690Y28011927D01*
X5716649Y27941270D01*
X5716649Y27788300D01*
X4786132Y27788300D01*
X4777540Y27789521D01*
X4516936Y27789521D01*
X4616886Y27871547D01*
X4707348Y27981774D01*
X4774568Y28107531D01*
X4815962Y28243986D01*
X4829940Y28385895D01*
X4829940Y28535895D01*
X4102545Y28535895D01*
X4102545Y28515895D01*
X4102535Y28515895D01*
X4102535Y28535895D01*
X4082535Y28535895D01*
X4082535Y28535905D01*
X4102535Y28535905D01*
X4102535Y28555905D01*
X4102545Y28555905D01*
X4102545Y28535905D01*
X4829940Y28535905D01*
X4829940Y28685905D01*
X4815962Y28827814D01*
X4774568Y28964269D01*
X4707348Y29090026D01*
X4616886Y29200253D01*
X4506658Y29290714D01*
X4380900Y29357932D01*
X4276036Y29389741D01*
X4697102Y29810807D01*
X4759706Y29797043D01*
X4868955Y29794754D01*
X4976567Y29813729D01*
X5078445Y29853245D01*
X5170706Y29911796D01*
X5249839Y29987152D01*
X5312827Y30076444D01*
X5334891Y30126000D01*
X5716649Y30126000D01*
X5716649Y29208730D01*
X5716649Y29208730D01*
G37*
X5716649Y29208730D02*
X5719854Y29168536D01*
X5740966Y29100363D01*
X5780235Y29040771D01*
X5834551Y28994478D01*
X5899613Y28965150D01*
X5970270Y28955109D01*
X7999730Y28955109D01*
X8039924Y28958314D01*
X8108097Y28979426D01*
X8167689Y29018695D01*
X8213982Y29073011D01*
X8216099Y29077709D01*
X8691600Y28602208D01*
X8691600Y28448000D01*
X8695678Y28406407D01*
X8699320Y28364781D01*
X8699984Y28362496D01*
X8700216Y28360128D01*
X8712299Y28320108D01*
X8723953Y28279993D01*
X8725047Y28277882D01*
X8725735Y28275604D01*
X8745370Y28238675D01*
X8764586Y28201605D01*
X8766068Y28199748D01*
X8767186Y28197646D01*
X8793621Y28165233D01*
X8819670Y28132602D01*
X8822931Y28129296D01*
X8822990Y28129223D01*
X8823057Y28129167D01*
X8824105Y28128105D01*
X9586105Y27366105D01*
X9618418Y27339562D01*
X9650409Y27312719D01*
X9652490Y27311575D01*
X9654332Y27310062D01*
X9691216Y27290285D01*
X9727781Y27270183D01*
X9730046Y27269465D01*
X9732145Y27268339D01*
X9772160Y27256105D01*
X9811941Y27243486D01*
X9814302Y27243221D01*
X9816579Y27242525D01*
X9858206Y27238297D01*
X9899684Y27233644D01*
X9904326Y27233612D01*
X9904421Y27233602D01*
X9904510Y27233610D01*
X9906000Y27233600D01*
X11115610Y27233600D01*
X12276937Y26072273D01*
X12288793Y26007672D01*
X12329019Y25906073D01*
X12388213Y25814222D01*
X12464120Y25735618D01*
X12553849Y25673254D01*
X12653983Y25629507D01*
X12663948Y25627316D01*
X10798401Y23761769D01*
X10796149Y23784734D01*
X10792892Y23821963D01*
X10792299Y23824004D01*
X10792091Y23826126D01*
X10781278Y23861939D01*
X10770851Y23897830D01*
X10769871Y23899721D01*
X10769256Y23901757D01*
X10751706Y23934764D01*
X10734494Y23967970D01*
X10733167Y23969633D01*
X10732167Y23971513D01*
X10708555Y24000464D01*
X10703400Y24006921D01*
X10703400Y24949688D01*
X10699749Y24986922D01*
X10696492Y25024151D01*
X10695899Y25026192D01*
X10695691Y25028314D01*
X10684878Y25064127D01*
X10674451Y25100018D01*
X10673471Y25101909D01*
X10672856Y25103945D01*
X10655306Y25136952D01*
X10638094Y25170158D01*
X10636767Y25171821D01*
X10635767Y25173701D01*
X10612155Y25202652D01*
X10588806Y25231901D01*
X10585880Y25234867D01*
X10585834Y25234924D01*
X10585781Y25234968D01*
X10584837Y25235925D01*
X9270925Y26549837D01*
X9242025Y26573576D01*
X9213387Y26597606D01*
X9211524Y26598630D01*
X9209877Y26599983D01*
X9176921Y26617653D01*
X9144156Y26635666D01*
X9142125Y26636310D01*
X9140251Y26637315D01*
X9104501Y26648245D01*
X9068851Y26659554D01*
X9066737Y26659791D01*
X9064700Y26660414D01*
X9027528Y26664189D01*
X8990340Y26668361D01*
X8986172Y26668390D01*
X8986101Y26668397D01*
X8986034Y26668391D01*
X8984688Y26668400D01*
X8215474Y26668400D01*
X8243310Y26730153D01*
X8253351Y26800810D01*
X8253351Y27941270D01*
X8250146Y27981464D01*
X8229034Y28049637D01*
X8189765Y28109229D01*
X8135449Y28155522D01*
X8070387Y28184850D01*
X7999730Y28194891D01*
X5970270Y28194891D01*
X5930076Y28191686D01*
X5861903Y28170574D01*
X5802311Y28131305D01*
X5756018Y28076989D01*
X5726690Y28011927D01*
X5716649Y27941270D01*
X5716649Y27788300D01*
X4786132Y27788300D01*
X4777540Y27789521D01*
X4516936Y27789521D01*
X4616886Y27871547D01*
X4707348Y27981774D01*
X4774568Y28107531D01*
X4815962Y28243986D01*
X4829940Y28385895D01*
X4829940Y28535895D01*
X4102545Y28535895D01*
X4102545Y28515895D01*
X4102535Y28515895D01*
X4102535Y28535895D01*
X4082535Y28535895D01*
X4082535Y28535905D01*
X4102535Y28535905D01*
X4102535Y28555905D01*
X4102545Y28555905D01*
X4102545Y28535905D01*
X4829940Y28535905D01*
X4829940Y28685905D01*
X4815962Y28827814D01*
X4774568Y28964269D01*
X4707348Y29090026D01*
X4616886Y29200253D01*
X4506658Y29290714D01*
X4380900Y29357932D01*
X4276036Y29389741D01*
X4697102Y29810807D01*
X4759706Y29797043D01*
X4868955Y29794754D01*
X4976567Y29813729D01*
X5078445Y29853245D01*
X5170706Y29911796D01*
X5249839Y29987152D01*
X5312827Y30076444D01*
X5334891Y30126000D01*
X5716649Y30126000D01*
X5716649Y29208730D01*
M02*
