M48
METRIC,TZ
T1C0.400
T2C0.500
T3C0.550
T4C1.016
%
G90
G05
T1
X001270Y014605
X003810Y014605
X004826Y012573
X005461Y007366
X006985Y010795
X006985Y007366
X007112Y014732
X008509Y007366
X009144Y006604
X009525Y013970
X009652Y008763
X010287Y003048
X010668Y007747
X012115Y007747
X012827Y008382
X013361Y003350
X013589Y010528
X014097Y007112
X014478Y010528
X014478Y009652
X014605Y015240
X015367Y010541
X018034Y009398
X019431Y009398
X021590Y015240
X021844Y008128
X023622Y012573
X023622Y011049
T4
X002540Y001905
X005080Y001905
X007620Y001905
X011430Y001905
X013970Y001905
X016510Y001905
X020320Y001905
X022860Y001905
X025400Y001905
X029210Y014605
X029210Y012065
X029210Y009525
X029210Y006985
X029210Y004445
X029210Y001905
T2
X001078Y011756G85X001728Y011756
G05
X001078Y004756G85X001728Y004756
G05
T3
X004103Y010906G85X004103Y010606
G05
X004103Y005906G85X004103Y005606
G05
T0
M30
