M48
METRIC,TZ
T1C0.305
T2C0.500
T3C0.550
T4C1.016
T5C0.305
%
G90
G05
T1
X001270Y032385
X001270Y014605
X003810Y032385
X003810Y014605
X004826Y030353
X004826Y012573
X005461Y025146
X005461Y007366
X006985Y028575
X006985Y025146
X006985Y010795
X006985Y007366
X007112Y032512
X007112Y014732
X008509Y026924
X008509Y025146
X008509Y009144
X008509Y007366
X009144Y024257
X009144Y006477
X009525Y031750
X009525Y013970
X009779Y026416
X009779Y008636
X010287Y020828
X010287Y003048
X010668Y025527
X010668Y007747
X012192Y025527
X012192Y007747
X012827Y026162
X012827Y008382
X013081Y028194
X013081Y010414
X014097Y024892
X014097Y023876
X014097Y007112
X014097Y006096
X014224Y028194
X014224Y027178
X014224Y010414
X014224Y009398
X014605Y033020
X014605Y015240
X015240Y028194
X015240Y010414
X018034Y027178
X018034Y009398
X019431Y027178
X019431Y009398
X021590Y033020
X021590Y015240
X021844Y025908
X021844Y008128
X023622Y030353
X023622Y028829
X023622Y012573
X023622Y011049
T4
X002540Y019685
X002540Y001905
X005080Y019685
X005080Y001905
X007620Y019685
X007620Y001905
X011430Y019685
X011430Y001905
X013970Y019685
X013970Y001905
X016510Y019685
X016510Y001905
X020320Y019685
X020320Y001905
X022860Y019685
X022860Y001905
X025400Y019685
X025400Y001905
X029210Y032385
X029210Y029845
X029210Y027305
X029210Y024765
X029210Y022225
X029210Y019685
X029210Y014605
X029210Y012065
X029210Y009525
X029210Y006985
X029210Y004445
X029210Y001905
T5
X011430Y017628
X011430Y016662
X012065Y017628
X012065Y016662
X012700Y017628
X012700Y016662
X013335Y017628
X013335Y016662
X013970Y017628
X013970Y016662
X014605Y017628
X014605Y016662
X015240Y017628
X015240Y016662
X015875Y017628
X015875Y016662
X016510Y017628
X016510Y016662
X017145Y017628
X017145Y016662
X017780Y017628
X017780Y016662
X018415Y017628
X018415Y016662
T2
X001078Y029536G85X001728Y029536
G05
X001078Y022536G85X001728Y022536
G05
X001078Y011756G85X001728Y011756
G05
X001078Y004756G85X001728Y004756
G05
T3
X004103Y028686G85X004103Y028386
G05
X004103Y023686G85X004103Y023386
G05
X004103Y010906G85X004103Y010606
G05
X004103Y005906G85X004103Y005606
G05
T0
M30
