G04 #@! TF.FileFunction,Legend,Bot*
%FSLAX46Y46*%
G04 Gerber Fmt 4.6, Leading zero omitted, Abs format (unit mm)*
G04 Created by KiCad (PCBNEW 4.0.0-stable) date Monday, June 13, 2016 'PMt' 12:16:50 PM*
%MOMM*%
G01*
G04 APERTURE LIST*
%ADD10C,0.100000*%
%ADD11C,0.150000*%
%ADD12R,2.432000X2.127200*%
%ADD13O,2.432000X2.127200*%
%ADD14R,2.127200X2.432000*%
%ADD15O,2.127200X2.432000*%
%ADD16O,1.350000X1.650000*%
%ADD17O,1.950000X1.400000*%
G04 APERTURE END LIST*
D10*
D11*
X15303333Y33834619D02*
X14970000Y32834619D01*
X14636666Y33834619D01*
X13731904Y32929857D02*
X13779523Y32882238D01*
X13922380Y32834619D01*
X14017618Y32834619D01*
X14160476Y32882238D01*
X14255714Y32977476D01*
X14303333Y33072714D01*
X14350952Y33263190D01*
X14350952Y33406048D01*
X14303333Y33596524D01*
X14255714Y33691762D01*
X14160476Y33787000D01*
X14017618Y33834619D01*
X13922380Y33834619D01*
X13779523Y33787000D01*
X13731904Y33739381D01*
X12731904Y32929857D02*
X12779523Y32882238D01*
X12922380Y32834619D01*
X13017618Y32834619D01*
X13160476Y32882238D01*
X13255714Y32977476D01*
X13303333Y33072714D01*
X13350952Y33263190D01*
X13350952Y33406048D01*
X13303333Y33596524D01*
X13255714Y33691762D01*
X13160476Y33787000D01*
X13017618Y33834619D01*
X12922380Y33834619D01*
X12779523Y33787000D01*
X12731904Y33739381D01*
X15946190Y30903667D02*
X15993810Y30951286D01*
X16089048Y31094143D01*
X16136667Y31189381D01*
X16184286Y31332238D01*
X16231905Y31570333D01*
X16231905Y31760810D01*
X16184286Y31998905D01*
X16136667Y32141762D01*
X16089048Y32237000D01*
X15993810Y32379857D01*
X15946190Y32427476D01*
X15422381Y31284619D02*
X15517619Y31332238D01*
X15565238Y31427476D01*
X15565238Y32284619D01*
X14898571Y31284619D02*
X14993809Y31332238D01*
X15041428Y31379857D01*
X15089047Y31475095D01*
X15089047Y31760810D01*
X15041428Y31856048D01*
X14993809Y31903667D01*
X14898571Y31951286D01*
X14755713Y31951286D01*
X14660475Y31903667D01*
X14612856Y31856048D01*
X14565237Y31760810D01*
X14565237Y31475095D01*
X14612856Y31379857D01*
X14660475Y31332238D01*
X14755713Y31284619D01*
X14898571Y31284619D01*
X13708094Y31951286D02*
X13708094Y31141762D01*
X13755713Y31046524D01*
X13803332Y30998905D01*
X13898571Y30951286D01*
X14041428Y30951286D01*
X14136666Y30998905D01*
X13708094Y31332238D02*
X13803332Y31284619D01*
X13993809Y31284619D01*
X14089047Y31332238D01*
X14136666Y31379857D01*
X14184285Y31475095D01*
X14184285Y31760810D01*
X14136666Y31856048D01*
X14089047Y31903667D01*
X13993809Y31951286D01*
X13803332Y31951286D01*
X13708094Y31903667D01*
X13231904Y31284619D02*
X13231904Y31951286D01*
X13231904Y32284619D02*
X13279523Y32237000D01*
X13231904Y32189381D01*
X13184285Y32237000D01*
X13231904Y32284619D01*
X13231904Y32189381D01*
X12327142Y31332238D02*
X12422380Y31284619D01*
X12612857Y31284619D01*
X12708095Y31332238D01*
X12755714Y31379857D01*
X12803333Y31475095D01*
X12803333Y31760810D01*
X12755714Y31856048D01*
X12708095Y31903667D01*
X12612857Y31951286D01*
X12422380Y31951286D01*
X12327142Y31903667D01*
X11993809Y30903667D02*
X11946190Y30951286D01*
X11850952Y31094143D01*
X11803333Y31189381D01*
X11755714Y31332238D01*
X11708095Y31570333D01*
X11708095Y31760810D01*
X11755714Y31998905D01*
X11803333Y32141762D01*
X11850952Y32237000D01*
X11946190Y32379857D01*
X11993809Y32427476D01*
X6865714Y33821619D02*
X6532381Y32821619D01*
X6199047Y33821619D01*
X5294285Y32821619D02*
X5627619Y33297810D01*
X5865714Y32821619D02*
X5865714Y33821619D01*
X5484761Y33821619D01*
X5389523Y33774000D01*
X5341904Y33726381D01*
X5294285Y33631143D01*
X5294285Y33488286D01*
X5341904Y33393048D01*
X5389523Y33345429D01*
X5484761Y33297810D01*
X5865714Y33297810D01*
X4865714Y33345429D02*
X4532380Y33345429D01*
X4389523Y32821619D02*
X4865714Y32821619D01*
X4865714Y33821619D01*
X4389523Y33821619D01*
X3437142Y33774000D02*
X3532380Y33821619D01*
X3675237Y33821619D01*
X3818095Y33774000D01*
X3913333Y33678762D01*
X3960952Y33583524D01*
X4008571Y33393048D01*
X4008571Y33250190D01*
X3960952Y33059714D01*
X3913333Y32964476D01*
X3818095Y32869238D01*
X3675237Y32821619D01*
X3579999Y32821619D01*
X3437142Y32869238D01*
X3389523Y32916857D01*
X3389523Y33250190D01*
X3579999Y33250190D01*
X9993381Y29217714D02*
X10993381Y28884381D01*
X9993381Y28551047D01*
X10993381Y27646285D02*
X10517190Y27979619D01*
X10993381Y28217714D02*
X9993381Y28217714D01*
X9993381Y27836761D01*
X10041000Y27741523D01*
X10088619Y27693904D01*
X10183857Y27646285D01*
X10326714Y27646285D01*
X10421952Y27693904D01*
X10469571Y27741523D01*
X10517190Y27836761D01*
X10517190Y28217714D01*
X10469571Y27217714D02*
X10469571Y26884380D01*
X10993381Y26741523D02*
X10993381Y27217714D01*
X9993381Y27217714D01*
X9993381Y26741523D01*
X10041000Y25789142D02*
X9993381Y25884380D01*
X9993381Y26027237D01*
X10041000Y26170095D01*
X10136238Y26265333D01*
X10231476Y26312952D01*
X10421952Y26360571D01*
X10564810Y26360571D01*
X10755286Y26312952D01*
X10850524Y26265333D01*
X10945762Y26170095D01*
X10993381Y26027237D01*
X10993381Y25931999D01*
X10945762Y25789142D01*
X10898143Y25741523D01*
X10564810Y25741523D01*
X10564810Y25931999D01*
X8088381Y28908190D02*
X8088381Y28289142D01*
X8469333Y28622476D01*
X8469333Y28479618D01*
X8516952Y28384380D01*
X8564571Y28336761D01*
X8659810Y28289142D01*
X8897905Y28289142D01*
X8993143Y28336761D01*
X9040762Y28384380D01*
X9088381Y28479618D01*
X9088381Y28765333D01*
X9040762Y28860571D01*
X8993143Y28908190D01*
X8993143Y27860571D02*
X9040762Y27812952D01*
X9088381Y27860571D01*
X9040762Y27908190D01*
X8993143Y27860571D01*
X9088381Y27860571D01*
X8088381Y27479619D02*
X8088381Y26860571D01*
X8469333Y27193905D01*
X8469333Y27051047D01*
X8516952Y26955809D01*
X8564571Y26908190D01*
X8659810Y26860571D01*
X8897905Y26860571D01*
X8993143Y26908190D01*
X9040762Y26955809D01*
X9088381Y27051047D01*
X9088381Y27336762D01*
X9040762Y27432000D01*
X8993143Y27479619D01*
X8088381Y26574857D02*
X9088381Y26241524D01*
X8088381Y25908190D01*
X1976381Y28162142D02*
X1976381Y28733571D01*
X1976381Y28447857D02*
X976381Y28447857D01*
X1119238Y28543095D01*
X1214476Y28638333D01*
X1262095Y28733571D01*
X1881143Y27733571D02*
X1928762Y27685952D01*
X1976381Y27733571D01*
X1928762Y27781190D01*
X1881143Y27733571D01*
X1976381Y27733571D01*
X1404952Y27114524D02*
X1357333Y27209762D01*
X1309714Y27257381D01*
X1214476Y27305000D01*
X1166857Y27305000D01*
X1071619Y27257381D01*
X1024000Y27209762D01*
X976381Y27114524D01*
X976381Y26924047D01*
X1024000Y26828809D01*
X1071619Y26781190D01*
X1166857Y26733571D01*
X1214476Y26733571D01*
X1309714Y26781190D01*
X1357333Y26828809D01*
X1404952Y26924047D01*
X1404952Y27114524D01*
X1452571Y27209762D01*
X1500190Y27257381D01*
X1595429Y27305000D01*
X1785905Y27305000D01*
X1881143Y27257381D01*
X1928762Y27209762D01*
X1976381Y27114524D01*
X1976381Y26924047D01*
X1928762Y26828809D01*
X1881143Y26781190D01*
X1785905Y26733571D01*
X1595429Y26733571D01*
X1500190Y26781190D01*
X1452571Y26828809D01*
X1404952Y26924047D01*
X976381Y26447857D02*
X1976381Y26114524D01*
X976381Y25781190D01*
X18883381Y29344714D02*
X19883381Y29011381D01*
X18883381Y28678047D01*
X19883381Y27773285D02*
X19407190Y28106619D01*
X19883381Y28344714D02*
X18883381Y28344714D01*
X18883381Y27963761D01*
X18931000Y27868523D01*
X18978619Y27820904D01*
X19073857Y27773285D01*
X19216714Y27773285D01*
X19311952Y27820904D01*
X19359571Y27868523D01*
X19407190Y27963761D01*
X19407190Y28344714D01*
X19359571Y27344714D02*
X19359571Y27011380D01*
X19883381Y26868523D02*
X19883381Y27344714D01*
X18883381Y27344714D01*
X18883381Y26868523D01*
X18931000Y25916142D02*
X18883381Y26011380D01*
X18883381Y26154237D01*
X18931000Y26297095D01*
X19026238Y26392333D01*
X19121476Y26439952D01*
X19311952Y26487571D01*
X19454810Y26487571D01*
X19645286Y26439952D01*
X19740524Y26392333D01*
X19835762Y26297095D01*
X19883381Y26154237D01*
X19883381Y26058999D01*
X19835762Y25916142D01*
X19788143Y25868523D01*
X19454810Y25868523D01*
X19454810Y26058999D01*
X16978381Y27622476D02*
X16978381Y28098667D01*
X17454571Y28146286D01*
X17406952Y28098667D01*
X17359333Y28003429D01*
X17359333Y27765333D01*
X17406952Y27670095D01*
X17454571Y27622476D01*
X17549810Y27574857D01*
X17787905Y27574857D01*
X17883143Y27622476D01*
X17930762Y27670095D01*
X17978381Y27765333D01*
X17978381Y28003429D01*
X17930762Y28098667D01*
X17883143Y28146286D01*
X16978381Y27289143D02*
X17978381Y26955810D01*
X16978381Y26622476D01*
X25836191Y33834619D02*
X25502858Y32834619D01*
X25169524Y33834619D01*
X24979048Y33834619D02*
X24407619Y33834619D01*
X24693334Y32834619D02*
X24693334Y33834619D01*
X24121905Y33120333D02*
X23645714Y33120333D01*
X24217143Y32834619D02*
X23883810Y33834619D01*
X23550476Y32834619D01*
X22645714Y32834619D02*
X22979048Y33310810D01*
X23217143Y32834619D02*
X23217143Y33834619D01*
X22836190Y33834619D01*
X22740952Y33787000D01*
X22693333Y33739381D01*
X22645714Y33644143D01*
X22645714Y33501286D01*
X22693333Y33406048D01*
X22740952Y33358429D01*
X22836190Y33310810D01*
X23217143Y33310810D01*
X21693333Y33787000D02*
X21788571Y33834619D01*
X21931428Y33834619D01*
X22074286Y33787000D01*
X22169524Y33691762D01*
X22217143Y33596524D01*
X22264762Y33406048D01*
X22264762Y33263190D01*
X22217143Y33072714D01*
X22169524Y32977476D01*
X22074286Y32882238D01*
X21931428Y32834619D01*
X21836190Y32834619D01*
X21693333Y32882238D01*
X21645714Y32929857D01*
X21645714Y33263190D01*
X21836190Y33263190D01*
X21217143Y33358429D02*
X20883809Y33358429D01*
X20740952Y32834619D02*
X21217143Y32834619D01*
X21217143Y33834619D01*
X20740952Y33834619D01*
X20455238Y33834619D02*
X19883809Y33834619D01*
X20169524Y32834619D02*
X20169524Y33834619D01*
X25407619Y30903667D02*
X25455239Y30951286D01*
X25550477Y31094143D01*
X25598096Y31189381D01*
X25645715Y31332238D01*
X25693334Y31570333D01*
X25693334Y31760810D01*
X25645715Y31998905D01*
X25598096Y32141762D01*
X25550477Y32237000D01*
X25455239Y32379857D01*
X25407619Y32427476D01*
X25074286Y31332238D02*
X24979048Y31284619D01*
X24788572Y31284619D01*
X24693333Y31332238D01*
X24645714Y31427476D01*
X24645714Y31475095D01*
X24693333Y31570333D01*
X24788572Y31617952D01*
X24931429Y31617952D01*
X25026667Y31665571D01*
X25074286Y31760810D01*
X25074286Y31808429D01*
X25026667Y31903667D01*
X24931429Y31951286D01*
X24788572Y31951286D01*
X24693333Y31903667D01*
X23788571Y31951286D02*
X23788571Y31284619D01*
X24217143Y31951286D02*
X24217143Y31427476D01*
X24169524Y31332238D01*
X24074286Y31284619D01*
X23931428Y31284619D01*
X23836190Y31332238D01*
X23788571Y31379857D01*
X23312381Y31951286D02*
X23312381Y30951286D01*
X23312381Y31903667D02*
X23217143Y31951286D01*
X23026666Y31951286D01*
X22931428Y31903667D01*
X22883809Y31856048D01*
X22836190Y31760810D01*
X22836190Y31475095D01*
X22883809Y31379857D01*
X22931428Y31332238D01*
X23026666Y31284619D01*
X23217143Y31284619D01*
X23312381Y31332238D01*
X22407619Y31951286D02*
X22407619Y30951286D01*
X22407619Y31903667D02*
X22312381Y31951286D01*
X22121904Y31951286D01*
X22026666Y31903667D01*
X21979047Y31856048D01*
X21931428Y31760810D01*
X21931428Y31475095D01*
X21979047Y31379857D01*
X22026666Y31332238D01*
X22121904Y31284619D01*
X22312381Y31284619D01*
X22407619Y31332238D01*
X21360000Y31284619D02*
X21455238Y31332238D01*
X21502857Y31427476D01*
X21502857Y32284619D01*
X21074285Y31951286D02*
X20836190Y31284619D01*
X20598094Y31951286D02*
X20836190Y31284619D01*
X20931428Y31046524D01*
X20979047Y30998905D01*
X21074285Y30951286D01*
X20312380Y30903667D02*
X20264761Y30951286D01*
X20169523Y31094143D01*
X20121904Y31189381D01*
X20074285Y31332238D01*
X20026666Y31570333D01*
X20026666Y31760810D01*
X20074285Y31998905D01*
X20121904Y32141762D01*
X20169523Y32237000D01*
X20264761Y32379857D01*
X20312380Y32427476D01*
X28011381Y20827857D02*
X27011381Y20827857D01*
X27011381Y20589762D01*
X27059000Y20446904D01*
X27154238Y20351666D01*
X27249476Y20304047D01*
X27439952Y20256428D01*
X27582810Y20256428D01*
X27773286Y20304047D01*
X27868524Y20351666D01*
X27963762Y20446904D01*
X28011381Y20589762D01*
X28011381Y20827857D01*
X27011381Y19970714D02*
X27011381Y19399285D01*
X28011381Y19685000D02*
X27011381Y19685000D01*
X28011381Y18494523D02*
X27535190Y18827857D01*
X28011381Y19065952D02*
X27011381Y19065952D01*
X27011381Y18684999D01*
X27059000Y18589761D01*
X27106619Y18542142D01*
X27201857Y18494523D01*
X27344714Y18494523D01*
X27439952Y18542142D01*
X27487571Y18589761D01*
X27535190Y18684999D01*
X27535190Y19065952D01*
X26839000Y21065952D02*
X26839000Y18304047D01*
X27011381Y27892286D02*
X28011381Y27558953D01*
X27011381Y27225619D01*
X27011381Y27035143D02*
X27011381Y26463714D01*
X28011381Y26749429D02*
X27011381Y26749429D01*
X27916143Y30138619D02*
X27963762Y30186238D01*
X28011381Y30329095D01*
X28011381Y30424333D01*
X27963762Y30567191D01*
X27868524Y30662429D01*
X27773286Y30710048D01*
X27582810Y30757667D01*
X27439952Y30757667D01*
X27249476Y30710048D01*
X27154238Y30662429D01*
X27059000Y30567191D01*
X27011381Y30424333D01*
X27011381Y30329095D01*
X27059000Y30186238D01*
X27106619Y30138619D01*
X27011381Y29852905D02*
X27011381Y29281476D01*
X28011381Y29567191D02*
X27011381Y29567191D01*
X27963762Y28995762D02*
X28011381Y28852905D01*
X28011381Y28614809D01*
X27963762Y28519571D01*
X27916143Y28471952D01*
X27820905Y28424333D01*
X27725667Y28424333D01*
X27630429Y28471952D01*
X27582810Y28519571D01*
X27535190Y28614809D01*
X27487571Y28805286D01*
X27439952Y28900524D01*
X27392333Y28948143D01*
X27297095Y28995762D01*
X27201857Y28995762D01*
X27106619Y28948143D01*
X27059000Y28900524D01*
X27011381Y28805286D01*
X27011381Y28567190D01*
X27059000Y28424333D01*
X26839000Y30948143D02*
X26839000Y28233857D01*
X25868381Y27622476D02*
X25868381Y28098667D01*
X26344571Y28146286D01*
X26296952Y28098667D01*
X26249333Y28003429D01*
X26249333Y27765333D01*
X26296952Y27670095D01*
X26344571Y27622476D01*
X26439810Y27574857D01*
X26677905Y27574857D01*
X26773143Y27622476D01*
X26820762Y27670095D01*
X26868381Y27765333D01*
X26868381Y28003429D01*
X26820762Y28098667D01*
X26773143Y28146286D01*
X25868381Y27289143D02*
X26868381Y26955810D01*
X25868381Y26622476D01*
X27011381Y25526905D02*
X27011381Y24955476D01*
X28011381Y25241191D02*
X27011381Y25241191D01*
X27011381Y24717381D02*
X28011381Y24050714D01*
X27011381Y24050714D02*
X28011381Y24717381D01*
X28011381Y22518666D02*
X27535190Y22852000D01*
X28011381Y23090095D02*
X27011381Y23090095D01*
X27011381Y22709142D01*
X27059000Y22613904D01*
X27106619Y22566285D01*
X27201857Y22518666D01*
X27344714Y22518666D01*
X27439952Y22566285D01*
X27487571Y22613904D01*
X27535190Y22709142D01*
X27535190Y23090095D01*
X27011381Y22185333D02*
X28011381Y21518666D01*
X27011381Y21518666D02*
X28011381Y22185333D01*
X27916143Y12358619D02*
X27963762Y12406238D01*
X28011381Y12549095D01*
X28011381Y12644333D01*
X27963762Y12787191D01*
X27868524Y12882429D01*
X27773286Y12930048D01*
X27582810Y12977667D01*
X27439952Y12977667D01*
X27249476Y12930048D01*
X27154238Y12882429D01*
X27059000Y12787191D01*
X27011381Y12644333D01*
X27011381Y12549095D01*
X27059000Y12406238D01*
X27106619Y12358619D01*
X27011381Y12072905D02*
X27011381Y11501476D01*
X28011381Y11787191D02*
X27011381Y11787191D01*
X27963762Y11215762D02*
X28011381Y11072905D01*
X28011381Y10834809D01*
X27963762Y10739571D01*
X27916143Y10691952D01*
X27820905Y10644333D01*
X27725667Y10644333D01*
X27630429Y10691952D01*
X27582810Y10739571D01*
X27535190Y10834809D01*
X27487571Y11025286D01*
X27439952Y11120524D01*
X27392333Y11168143D01*
X27297095Y11215762D01*
X27201857Y11215762D01*
X27106619Y11168143D01*
X27059000Y11120524D01*
X27011381Y11025286D01*
X27011381Y10787190D01*
X27059000Y10644333D01*
X26839000Y13168143D02*
X26839000Y10453857D01*
X27011381Y10112286D02*
X28011381Y9778953D01*
X27011381Y9445619D01*
X27011381Y9255143D02*
X27011381Y8683714D01*
X28011381Y8969429D02*
X27011381Y8969429D01*
X27011381Y7746905D02*
X27011381Y7175476D01*
X28011381Y7461191D02*
X27011381Y7461191D01*
X27011381Y6937381D02*
X28011381Y6270714D01*
X27011381Y6270714D02*
X28011381Y6937381D01*
X28011381Y4738666D02*
X27535190Y5072000D01*
X28011381Y5310095D02*
X27011381Y5310095D01*
X27011381Y4929142D01*
X27059000Y4833904D01*
X27106619Y4786285D01*
X27201857Y4738666D01*
X27344714Y4738666D01*
X27439952Y4786285D01*
X27487571Y4833904D01*
X27535190Y4929142D01*
X27535190Y5310095D01*
X27011381Y4405333D02*
X28011381Y3738666D01*
X27011381Y3738666D02*
X28011381Y4405333D01*
X28011381Y3047857D02*
X27011381Y3047857D01*
X27011381Y2809762D01*
X27059000Y2666904D01*
X27154238Y2571666D01*
X27249476Y2524047D01*
X27439952Y2476428D01*
X27582810Y2476428D01*
X27773286Y2524047D01*
X27868524Y2571666D01*
X27963762Y2666904D01*
X28011381Y2809762D01*
X28011381Y3047857D01*
X27011381Y2190714D02*
X27011381Y1619285D01*
X28011381Y1905000D02*
X27011381Y1905000D01*
X28011381Y714523D02*
X27535190Y1047857D01*
X28011381Y1285952D02*
X27011381Y1285952D01*
X27011381Y904999D01*
X27059000Y809761D01*
X27106619Y762142D01*
X27201857Y714523D01*
X27344714Y714523D01*
X27439952Y762142D01*
X27487571Y809761D01*
X27535190Y904999D01*
X27535190Y1285952D01*
X26839000Y3285952D02*
X26839000Y524047D01*
X25868381Y9842476D02*
X25868381Y10318667D01*
X26344571Y10366286D01*
X26296952Y10318667D01*
X26249333Y10223429D01*
X26249333Y9985333D01*
X26296952Y9890095D01*
X26344571Y9842476D01*
X26439810Y9794857D01*
X26677905Y9794857D01*
X26773143Y9842476D01*
X26820762Y9890095D01*
X26868381Y9985333D01*
X26868381Y10223429D01*
X26820762Y10318667D01*
X26773143Y10366286D01*
X25868381Y9509143D02*
X26868381Y9175810D01*
X25868381Y8842476D01*
X18883381Y11564714D02*
X19883381Y11231381D01*
X18883381Y10898047D01*
X19883381Y9993285D02*
X19407190Y10326619D01*
X19883381Y10564714D02*
X18883381Y10564714D01*
X18883381Y10183761D01*
X18931000Y10088523D01*
X18978619Y10040904D01*
X19073857Y9993285D01*
X19216714Y9993285D01*
X19311952Y10040904D01*
X19359571Y10088523D01*
X19407190Y10183761D01*
X19407190Y10564714D01*
X19359571Y9564714D02*
X19359571Y9231380D01*
X19883381Y9088523D02*
X19883381Y9564714D01*
X18883381Y9564714D01*
X18883381Y9088523D01*
X18931000Y8136142D02*
X18883381Y8231380D01*
X18883381Y8374237D01*
X18931000Y8517095D01*
X19026238Y8612333D01*
X19121476Y8659952D01*
X19311952Y8707571D01*
X19454810Y8707571D01*
X19645286Y8659952D01*
X19740524Y8612333D01*
X19835762Y8517095D01*
X19883381Y8374237D01*
X19883381Y8278999D01*
X19835762Y8136142D01*
X19788143Y8088523D01*
X19454810Y8088523D01*
X19454810Y8278999D01*
X16978381Y9842476D02*
X16978381Y10318667D01*
X17454571Y10366286D01*
X17406952Y10318667D01*
X17359333Y10223429D01*
X17359333Y9985333D01*
X17406952Y9890095D01*
X17454571Y9842476D01*
X17549810Y9794857D01*
X17787905Y9794857D01*
X17883143Y9842476D01*
X17930762Y9890095D01*
X17978381Y9985333D01*
X17978381Y10223429D01*
X17930762Y10318667D01*
X17883143Y10366286D01*
X16978381Y9509143D02*
X17978381Y9175810D01*
X16978381Y8842476D01*
X9993381Y11437714D02*
X10993381Y11104381D01*
X9993381Y10771047D01*
X10993381Y9866285D02*
X10517190Y10199619D01*
X10993381Y10437714D02*
X9993381Y10437714D01*
X9993381Y10056761D01*
X10041000Y9961523D01*
X10088619Y9913904D01*
X10183857Y9866285D01*
X10326714Y9866285D01*
X10421952Y9913904D01*
X10469571Y9961523D01*
X10517190Y10056761D01*
X10517190Y10437714D01*
X10469571Y9437714D02*
X10469571Y9104380D01*
X10993381Y8961523D02*
X10993381Y9437714D01*
X9993381Y9437714D01*
X9993381Y8961523D01*
X10041000Y8009142D02*
X9993381Y8104380D01*
X9993381Y8247237D01*
X10041000Y8390095D01*
X10136238Y8485333D01*
X10231476Y8532952D01*
X10421952Y8580571D01*
X10564810Y8580571D01*
X10755286Y8532952D01*
X10850524Y8485333D01*
X10945762Y8390095D01*
X10993381Y8247237D01*
X10993381Y8151999D01*
X10945762Y8009142D01*
X10898143Y7961523D01*
X10564810Y7961523D01*
X10564810Y8151999D01*
X8088381Y11128190D02*
X8088381Y10509142D01*
X8469333Y10842476D01*
X8469333Y10699618D01*
X8516952Y10604380D01*
X8564571Y10556761D01*
X8659810Y10509142D01*
X8897905Y10509142D01*
X8993143Y10556761D01*
X9040762Y10604380D01*
X9088381Y10699618D01*
X9088381Y10985333D01*
X9040762Y11080571D01*
X8993143Y11128190D01*
X8993143Y10080571D02*
X9040762Y10032952D01*
X9088381Y10080571D01*
X9040762Y10128190D01*
X8993143Y10080571D01*
X9088381Y10080571D01*
X8088381Y9699619D02*
X8088381Y9080571D01*
X8469333Y9413905D01*
X8469333Y9271047D01*
X8516952Y9175809D01*
X8564571Y9128190D01*
X8659810Y9080571D01*
X8897905Y9080571D01*
X8993143Y9128190D01*
X9040762Y9175809D01*
X9088381Y9271047D01*
X9088381Y9556762D01*
X9040762Y9652000D01*
X8993143Y9699619D01*
X8088381Y8794857D02*
X9088381Y8461524D01*
X8088381Y8128190D01*
X1976381Y10382142D02*
X1976381Y10953571D01*
X1976381Y10667857D02*
X976381Y10667857D01*
X1119238Y10763095D01*
X1214476Y10858333D01*
X1262095Y10953571D01*
X1881143Y9953571D02*
X1928762Y9905952D01*
X1976381Y9953571D01*
X1928762Y10001190D01*
X1881143Y9953571D01*
X1976381Y9953571D01*
X1404952Y9334524D02*
X1357333Y9429762D01*
X1309714Y9477381D01*
X1214476Y9525000D01*
X1166857Y9525000D01*
X1071619Y9477381D01*
X1024000Y9429762D01*
X976381Y9334524D01*
X976381Y9144047D01*
X1024000Y9048809D01*
X1071619Y9001190D01*
X1166857Y8953571D01*
X1214476Y8953571D01*
X1309714Y9001190D01*
X1357333Y9048809D01*
X1404952Y9144047D01*
X1404952Y9334524D01*
X1452571Y9429762D01*
X1500190Y9477381D01*
X1595429Y9525000D01*
X1785905Y9525000D01*
X1881143Y9477381D01*
X1928762Y9429762D01*
X1976381Y9334524D01*
X1976381Y9144047D01*
X1928762Y9048809D01*
X1881143Y9001190D01*
X1785905Y8953571D01*
X1595429Y8953571D01*
X1500190Y9001190D01*
X1452571Y9048809D01*
X1404952Y9144047D01*
X976381Y8667857D02*
X1976381Y8334524D01*
X976381Y8001190D01*
X6865714Y16041619D02*
X6532381Y15041619D01*
X6199047Y16041619D01*
X5294285Y15041619D02*
X5627619Y15517810D01*
X5865714Y15041619D02*
X5865714Y16041619D01*
X5484761Y16041619D01*
X5389523Y15994000D01*
X5341904Y15946381D01*
X5294285Y15851143D01*
X5294285Y15708286D01*
X5341904Y15613048D01*
X5389523Y15565429D01*
X5484761Y15517810D01*
X5865714Y15517810D01*
X4865714Y15565429D02*
X4532380Y15565429D01*
X4389523Y15041619D02*
X4865714Y15041619D01*
X4865714Y16041619D01*
X4389523Y16041619D01*
X3437142Y15994000D02*
X3532380Y16041619D01*
X3675237Y16041619D01*
X3818095Y15994000D01*
X3913333Y15898762D01*
X3960952Y15803524D01*
X4008571Y15613048D01*
X4008571Y15470190D01*
X3960952Y15279714D01*
X3913333Y15184476D01*
X3818095Y15089238D01*
X3675237Y15041619D01*
X3579999Y15041619D01*
X3437142Y15089238D01*
X3389523Y15136857D01*
X3389523Y15470190D01*
X3579999Y15470190D01*
X15303333Y16054619D02*
X14970000Y15054619D01*
X14636666Y16054619D01*
X13731904Y15149857D02*
X13779523Y15102238D01*
X13922380Y15054619D01*
X14017618Y15054619D01*
X14160476Y15102238D01*
X14255714Y15197476D01*
X14303333Y15292714D01*
X14350952Y15483190D01*
X14350952Y15626048D01*
X14303333Y15816524D01*
X14255714Y15911762D01*
X14160476Y16007000D01*
X14017618Y16054619D01*
X13922380Y16054619D01*
X13779523Y16007000D01*
X13731904Y15959381D01*
X12731904Y15149857D02*
X12779523Y15102238D01*
X12922380Y15054619D01*
X13017618Y15054619D01*
X13160476Y15102238D01*
X13255714Y15197476D01*
X13303333Y15292714D01*
X13350952Y15483190D01*
X13350952Y15626048D01*
X13303333Y15816524D01*
X13255714Y15911762D01*
X13160476Y16007000D01*
X13017618Y16054619D01*
X12922380Y16054619D01*
X12779523Y16007000D01*
X12731904Y15959381D01*
X15946190Y13123667D02*
X15993810Y13171286D01*
X16089048Y13314143D01*
X16136667Y13409381D01*
X16184286Y13552238D01*
X16231905Y13790333D01*
X16231905Y13980810D01*
X16184286Y14218905D01*
X16136667Y14361762D01*
X16089048Y14457000D01*
X15993810Y14599857D01*
X15946190Y14647476D01*
X15422381Y13504619D02*
X15517619Y13552238D01*
X15565238Y13647476D01*
X15565238Y14504619D01*
X14898571Y13504619D02*
X14993809Y13552238D01*
X15041428Y13599857D01*
X15089047Y13695095D01*
X15089047Y13980810D01*
X15041428Y14076048D01*
X14993809Y14123667D01*
X14898571Y14171286D01*
X14755713Y14171286D01*
X14660475Y14123667D01*
X14612856Y14076048D01*
X14565237Y13980810D01*
X14565237Y13695095D01*
X14612856Y13599857D01*
X14660475Y13552238D01*
X14755713Y13504619D01*
X14898571Y13504619D01*
X13708094Y14171286D02*
X13708094Y13361762D01*
X13755713Y13266524D01*
X13803332Y13218905D01*
X13898571Y13171286D01*
X14041428Y13171286D01*
X14136666Y13218905D01*
X13708094Y13552238D02*
X13803332Y13504619D01*
X13993809Y13504619D01*
X14089047Y13552238D01*
X14136666Y13599857D01*
X14184285Y13695095D01*
X14184285Y13980810D01*
X14136666Y14076048D01*
X14089047Y14123667D01*
X13993809Y14171286D01*
X13803332Y14171286D01*
X13708094Y14123667D01*
X13231904Y13504619D02*
X13231904Y14171286D01*
X13231904Y14504619D02*
X13279523Y14457000D01*
X13231904Y14409381D01*
X13184285Y14457000D01*
X13231904Y14504619D01*
X13231904Y14409381D01*
X12327142Y13552238D02*
X12422380Y13504619D01*
X12612857Y13504619D01*
X12708095Y13552238D01*
X12755714Y13599857D01*
X12803333Y13695095D01*
X12803333Y13980810D01*
X12755714Y14076048D01*
X12708095Y14123667D01*
X12612857Y14171286D01*
X12422380Y14171286D01*
X12327142Y14123667D01*
X11993809Y13123667D02*
X11946190Y13171286D01*
X11850952Y13314143D01*
X11803333Y13409381D01*
X11755714Y13552238D01*
X11708095Y13790333D01*
X11708095Y13980810D01*
X11755714Y14218905D01*
X11803333Y14361762D01*
X11850952Y14457000D01*
X11946190Y14599857D01*
X11993809Y14647476D01*
X25836191Y16054619D02*
X25502858Y15054619D01*
X25169524Y16054619D01*
X24979048Y16054619D02*
X24407619Y16054619D01*
X24693334Y15054619D02*
X24693334Y16054619D01*
X24121905Y15340333D02*
X23645714Y15340333D01*
X24217143Y15054619D02*
X23883810Y16054619D01*
X23550476Y15054619D01*
X22645714Y15054619D02*
X22979048Y15530810D01*
X23217143Y15054619D02*
X23217143Y16054619D01*
X22836190Y16054619D01*
X22740952Y16007000D01*
X22693333Y15959381D01*
X22645714Y15864143D01*
X22645714Y15721286D01*
X22693333Y15626048D01*
X22740952Y15578429D01*
X22836190Y15530810D01*
X23217143Y15530810D01*
X21693333Y16007000D02*
X21788571Y16054619D01*
X21931428Y16054619D01*
X22074286Y16007000D01*
X22169524Y15911762D01*
X22217143Y15816524D01*
X22264762Y15626048D01*
X22264762Y15483190D01*
X22217143Y15292714D01*
X22169524Y15197476D01*
X22074286Y15102238D01*
X21931428Y15054619D01*
X21836190Y15054619D01*
X21693333Y15102238D01*
X21645714Y15149857D01*
X21645714Y15483190D01*
X21836190Y15483190D01*
X21217143Y15578429D02*
X20883809Y15578429D01*
X20740952Y15054619D02*
X21217143Y15054619D01*
X21217143Y16054619D01*
X20740952Y16054619D01*
X20455238Y16054619D02*
X19883809Y16054619D01*
X20169524Y15054619D02*
X20169524Y16054619D01*
X25407619Y13123667D02*
X25455239Y13171286D01*
X25550477Y13314143D01*
X25598096Y13409381D01*
X25645715Y13552238D01*
X25693334Y13790333D01*
X25693334Y13980810D01*
X25645715Y14218905D01*
X25598096Y14361762D01*
X25550477Y14457000D01*
X25455239Y14599857D01*
X25407619Y14647476D01*
X25074286Y13552238D02*
X24979048Y13504619D01*
X24788572Y13504619D01*
X24693333Y13552238D01*
X24645714Y13647476D01*
X24645714Y13695095D01*
X24693333Y13790333D01*
X24788572Y13837952D01*
X24931429Y13837952D01*
X25026667Y13885571D01*
X25074286Y13980810D01*
X25074286Y14028429D01*
X25026667Y14123667D01*
X24931429Y14171286D01*
X24788572Y14171286D01*
X24693333Y14123667D01*
X23788571Y14171286D02*
X23788571Y13504619D01*
X24217143Y14171286D02*
X24217143Y13647476D01*
X24169524Y13552238D01*
X24074286Y13504619D01*
X23931428Y13504619D01*
X23836190Y13552238D01*
X23788571Y13599857D01*
X23312381Y14171286D02*
X23312381Y13171286D01*
X23312381Y14123667D02*
X23217143Y14171286D01*
X23026666Y14171286D01*
X22931428Y14123667D01*
X22883809Y14076048D01*
X22836190Y13980810D01*
X22836190Y13695095D01*
X22883809Y13599857D01*
X22931428Y13552238D01*
X23026666Y13504619D01*
X23217143Y13504619D01*
X23312381Y13552238D01*
X22407619Y14171286D02*
X22407619Y13171286D01*
X22407619Y14123667D02*
X22312381Y14171286D01*
X22121904Y14171286D01*
X22026666Y14123667D01*
X21979047Y14076048D01*
X21931428Y13980810D01*
X21931428Y13695095D01*
X21979047Y13599857D01*
X22026666Y13552238D01*
X22121904Y13504619D01*
X22312381Y13504619D01*
X22407619Y13552238D01*
X21360000Y13504619D02*
X21455238Y13552238D01*
X21502857Y13647476D01*
X21502857Y14504619D01*
X21074285Y14171286D02*
X20836190Y13504619D01*
X20598094Y14171286D02*
X20836190Y13504619D01*
X20931428Y13266524D01*
X20979047Y13218905D01*
X21074285Y13171286D01*
X20312380Y13123667D02*
X20264761Y13171286D01*
X20169523Y13314143D01*
X20121904Y13409381D01*
X20074285Y13552238D01*
X20026666Y13790333D01*
X20026666Y13980810D01*
X20074285Y14218905D01*
X20121904Y14361762D01*
X20169523Y14457000D01*
X20264761Y14599857D01*
X20312380Y14647476D01*
X26950000Y18385000D02*
X25400000Y18385000D01*
X26950000Y19685000D02*
X26950000Y18385000D01*
X25527000Y23876000D02*
X25527000Y29718000D01*
X25527000Y29718000D02*
X25273000Y29718000D01*
X25273000Y29718000D02*
X25273000Y23876000D01*
X25273000Y23876000D02*
X25400000Y23876000D01*
X25400000Y23876000D02*
X25400000Y29718000D01*
X25654000Y21209000D02*
X25654000Y20828000D01*
X25146000Y21209000D02*
X25146000Y20828000D01*
X23114000Y21209000D02*
X23114000Y20828000D01*
X22606000Y21209000D02*
X22606000Y20828000D01*
X20574000Y21209000D02*
X20574000Y20828000D01*
X20066000Y21209000D02*
X20066000Y20828000D01*
X24130000Y23749000D02*
X26670000Y23749000D01*
X25146000Y29845000D02*
X25146000Y23749000D01*
X25654000Y29845000D02*
X25146000Y29845000D01*
X25654000Y23749000D02*
X25654000Y29845000D01*
X24130000Y21209000D02*
X24130000Y23749000D01*
X26670000Y21209000D02*
X24130000Y21209000D01*
X26670000Y21209000D02*
X26670000Y23749000D01*
X21590000Y21209000D02*
X21590000Y23749000D01*
X21590000Y21209000D02*
X19050000Y21209000D01*
X20574000Y23749000D02*
X20574000Y29845000D01*
X20574000Y29845000D02*
X20066000Y29845000D01*
X20066000Y29845000D02*
X20066000Y23749000D01*
X19050000Y23749000D02*
X21590000Y23749000D01*
X21590000Y23749000D02*
X24130000Y23749000D01*
X22606000Y29845000D02*
X22606000Y23749000D01*
X23114000Y29845000D02*
X22606000Y29845000D01*
X23114000Y23749000D02*
X23114000Y29845000D01*
X21590000Y21209000D02*
X21590000Y23749000D01*
X24130000Y21209000D02*
X21590000Y21209000D01*
X24130000Y21209000D02*
X24130000Y23749000D01*
X19050000Y21209000D02*
X19050000Y23749000D01*
X18060000Y18385000D02*
X16510000Y18385000D01*
X18060000Y19685000D02*
X18060000Y18385000D01*
X16637000Y23876000D02*
X16637000Y29718000D01*
X16637000Y29718000D02*
X16383000Y29718000D01*
X16383000Y29718000D02*
X16383000Y23876000D01*
X16383000Y23876000D02*
X16510000Y23876000D01*
X16510000Y23876000D02*
X16510000Y29718000D01*
X16764000Y21209000D02*
X16764000Y20828000D01*
X16256000Y21209000D02*
X16256000Y20828000D01*
X14224000Y21209000D02*
X14224000Y20828000D01*
X13716000Y21209000D02*
X13716000Y20828000D01*
X11684000Y21209000D02*
X11684000Y20828000D01*
X11176000Y21209000D02*
X11176000Y20828000D01*
X15240000Y23749000D02*
X17780000Y23749000D01*
X16256000Y29845000D02*
X16256000Y23749000D01*
X16764000Y29845000D02*
X16256000Y29845000D01*
X16764000Y23749000D02*
X16764000Y29845000D01*
X15240000Y21209000D02*
X15240000Y23749000D01*
X17780000Y21209000D02*
X15240000Y21209000D01*
X17780000Y21209000D02*
X17780000Y23749000D01*
X12700000Y21209000D02*
X12700000Y23749000D01*
X12700000Y21209000D02*
X10160000Y21209000D01*
X11684000Y23749000D02*
X11684000Y29845000D01*
X11684000Y29845000D02*
X11176000Y29845000D01*
X11176000Y29845000D02*
X11176000Y23749000D01*
X10160000Y23749000D02*
X12700000Y23749000D01*
X12700000Y23749000D02*
X15240000Y23749000D01*
X13716000Y29845000D02*
X13716000Y23749000D01*
X14224000Y29845000D02*
X13716000Y29845000D01*
X14224000Y23749000D02*
X14224000Y29845000D01*
X12700000Y21209000D02*
X12700000Y23749000D01*
X15240000Y21209000D02*
X12700000Y21209000D01*
X15240000Y21209000D02*
X15240000Y23749000D01*
X10160000Y21209000D02*
X10160000Y23749000D01*
X9170000Y18385000D02*
X7620000Y18385000D01*
X9170000Y19685000D02*
X9170000Y18385000D01*
X7747000Y23876000D02*
X7747000Y29718000D01*
X7747000Y29718000D02*
X7493000Y29718000D01*
X7493000Y29718000D02*
X7493000Y23876000D01*
X7493000Y23876000D02*
X7620000Y23876000D01*
X7620000Y23876000D02*
X7620000Y29718000D01*
X7874000Y21209000D02*
X7874000Y20828000D01*
X7366000Y21209000D02*
X7366000Y20828000D01*
X5334000Y21209000D02*
X5334000Y20828000D01*
X4826000Y21209000D02*
X4826000Y20828000D01*
X2794000Y21209000D02*
X2794000Y20828000D01*
X2286000Y21209000D02*
X2286000Y20828000D01*
X6350000Y23749000D02*
X8890000Y23749000D01*
X7366000Y29845000D02*
X7366000Y23749000D01*
X7874000Y29845000D02*
X7366000Y29845000D01*
X7874000Y23749000D02*
X7874000Y29845000D01*
X6350000Y21209000D02*
X6350000Y23749000D01*
X8890000Y21209000D02*
X6350000Y21209000D01*
X8890000Y21209000D02*
X8890000Y23749000D01*
X3810000Y21209000D02*
X3810000Y23749000D01*
X3810000Y21209000D02*
X1270000Y21209000D01*
X2794000Y23749000D02*
X2794000Y29845000D01*
X2794000Y29845000D02*
X2286000Y29845000D01*
X2286000Y29845000D02*
X2286000Y23749000D01*
X1270000Y23749000D02*
X3810000Y23749000D01*
X3810000Y23749000D02*
X6350000Y23749000D01*
X4826000Y29845000D02*
X4826000Y23749000D01*
X5334000Y29845000D02*
X4826000Y29845000D01*
X5334000Y23749000D02*
X5334000Y29845000D01*
X3810000Y21209000D02*
X3810000Y23749000D01*
X6350000Y21209000D02*
X3810000Y21209000D01*
X6350000Y21209000D02*
X6350000Y23749000D01*
X1270000Y21209000D02*
X1270000Y23749000D01*
X18060000Y605000D02*
X16510000Y605000D01*
X18060000Y1905000D02*
X18060000Y605000D01*
X16637000Y6096000D02*
X16637000Y11938000D01*
X16637000Y11938000D02*
X16383000Y11938000D01*
X16383000Y11938000D02*
X16383000Y6096000D01*
X16383000Y6096000D02*
X16510000Y6096000D01*
X16510000Y6096000D02*
X16510000Y11938000D01*
X16764000Y3429000D02*
X16764000Y3048000D01*
X16256000Y3429000D02*
X16256000Y3048000D01*
X14224000Y3429000D02*
X14224000Y3048000D01*
X13716000Y3429000D02*
X13716000Y3048000D01*
X11684000Y3429000D02*
X11684000Y3048000D01*
X11176000Y3429000D02*
X11176000Y3048000D01*
X15240000Y5969000D02*
X17780000Y5969000D01*
X16256000Y12065000D02*
X16256000Y5969000D01*
X16764000Y12065000D02*
X16256000Y12065000D01*
X16764000Y5969000D02*
X16764000Y12065000D01*
X15240000Y3429000D02*
X15240000Y5969000D01*
X17780000Y3429000D02*
X15240000Y3429000D01*
X17780000Y3429000D02*
X17780000Y5969000D01*
X12700000Y3429000D02*
X12700000Y5969000D01*
X12700000Y3429000D02*
X10160000Y3429000D01*
X11684000Y5969000D02*
X11684000Y12065000D01*
X11684000Y12065000D02*
X11176000Y12065000D01*
X11176000Y12065000D02*
X11176000Y5969000D01*
X10160000Y5969000D02*
X12700000Y5969000D01*
X12700000Y5969000D02*
X15240000Y5969000D01*
X13716000Y12065000D02*
X13716000Y5969000D01*
X14224000Y12065000D02*
X13716000Y12065000D01*
X14224000Y5969000D02*
X14224000Y12065000D01*
X12700000Y3429000D02*
X12700000Y5969000D01*
X15240000Y3429000D02*
X12700000Y3429000D01*
X15240000Y3429000D02*
X15240000Y5969000D01*
X10160000Y3429000D02*
X10160000Y5969000D01*
X9170000Y605000D02*
X7620000Y605000D01*
X9170000Y1905000D02*
X9170000Y605000D01*
X7747000Y6096000D02*
X7747000Y11938000D01*
X7747000Y11938000D02*
X7493000Y11938000D01*
X7493000Y11938000D02*
X7493000Y6096000D01*
X7493000Y6096000D02*
X7620000Y6096000D01*
X7620000Y6096000D02*
X7620000Y11938000D01*
X7874000Y3429000D02*
X7874000Y3048000D01*
X7366000Y3429000D02*
X7366000Y3048000D01*
X5334000Y3429000D02*
X5334000Y3048000D01*
X4826000Y3429000D02*
X4826000Y3048000D01*
X2794000Y3429000D02*
X2794000Y3048000D01*
X2286000Y3429000D02*
X2286000Y3048000D01*
X6350000Y5969000D02*
X8890000Y5969000D01*
X7366000Y12065000D02*
X7366000Y5969000D01*
X7874000Y12065000D02*
X7366000Y12065000D01*
X7874000Y5969000D02*
X7874000Y12065000D01*
X6350000Y3429000D02*
X6350000Y5969000D01*
X8890000Y3429000D02*
X6350000Y3429000D01*
X8890000Y3429000D02*
X8890000Y5969000D01*
X3810000Y3429000D02*
X3810000Y5969000D01*
X3810000Y3429000D02*
X1270000Y3429000D01*
X2794000Y5969000D02*
X2794000Y12065000D01*
X2794000Y12065000D02*
X2286000Y12065000D01*
X2286000Y12065000D02*
X2286000Y5969000D01*
X1270000Y5969000D02*
X3810000Y5969000D01*
X3810000Y5969000D02*
X6350000Y5969000D01*
X4826000Y12065000D02*
X4826000Y5969000D01*
X5334000Y12065000D02*
X4826000Y12065000D01*
X5334000Y5969000D02*
X5334000Y12065000D01*
X3810000Y3429000D02*
X3810000Y5969000D01*
X6350000Y3429000D02*
X3810000Y3429000D01*
X6350000Y3429000D02*
X6350000Y5969000D01*
X1270000Y3429000D02*
X1270000Y5969000D01*
X26950000Y605000D02*
X25400000Y605000D01*
X26950000Y1905000D02*
X26950000Y605000D01*
X25527000Y6096000D02*
X25527000Y11938000D01*
X25527000Y11938000D02*
X25273000Y11938000D01*
X25273000Y11938000D02*
X25273000Y6096000D01*
X25273000Y6096000D02*
X25400000Y6096000D01*
X25400000Y6096000D02*
X25400000Y11938000D01*
X25654000Y3429000D02*
X25654000Y3048000D01*
X25146000Y3429000D02*
X25146000Y3048000D01*
X23114000Y3429000D02*
X23114000Y3048000D01*
X22606000Y3429000D02*
X22606000Y3048000D01*
X20574000Y3429000D02*
X20574000Y3048000D01*
X20066000Y3429000D02*
X20066000Y3048000D01*
X24130000Y5969000D02*
X26670000Y5969000D01*
X25146000Y12065000D02*
X25146000Y5969000D01*
X25654000Y12065000D02*
X25146000Y12065000D01*
X25654000Y5969000D02*
X25654000Y12065000D01*
X24130000Y3429000D02*
X24130000Y5969000D01*
X26670000Y3429000D02*
X24130000Y3429000D01*
X26670000Y3429000D02*
X26670000Y5969000D01*
X21590000Y3429000D02*
X21590000Y5969000D01*
X21590000Y3429000D02*
X19050000Y3429000D01*
X20574000Y5969000D02*
X20574000Y12065000D01*
X20574000Y12065000D02*
X20066000Y12065000D01*
X20066000Y12065000D02*
X20066000Y5969000D01*
X19050000Y5969000D02*
X21590000Y5969000D01*
X21590000Y5969000D02*
X24130000Y5969000D01*
X22606000Y12065000D02*
X22606000Y5969000D01*
X23114000Y12065000D02*
X22606000Y12065000D01*
X23114000Y5969000D02*
X23114000Y12065000D01*
X21590000Y3429000D02*
X21590000Y5969000D01*
X24130000Y3429000D02*
X21590000Y3429000D01*
X24130000Y3429000D02*
X24130000Y5969000D01*
X19050000Y3429000D02*
X19050000Y5969000D01*
X30952381Y20423095D02*
X29952381Y20423095D01*
X29952381Y20042142D01*
X30000000Y19946904D01*
X30047619Y19899285D01*
X30142857Y19851666D01*
X30285714Y19851666D01*
X30380952Y19899285D01*
X30428571Y19946904D01*
X30476190Y20042142D01*
X30476190Y20423095D01*
X29952381Y18994523D02*
X29952381Y19185000D01*
X30000000Y19280238D01*
X30047619Y19327857D01*
X30190476Y19423095D01*
X30380952Y19470714D01*
X30761905Y19470714D01*
X30857143Y19423095D01*
X30904762Y19375476D01*
X30952381Y19280238D01*
X30952381Y19089761D01*
X30904762Y18994523D01*
X30857143Y18946904D01*
X30761905Y18899285D01*
X30523810Y18899285D01*
X30428571Y18946904D01*
X30380952Y18994523D01*
X30333333Y19089761D01*
X30333333Y19280238D01*
X30380952Y19375476D01*
X30428571Y19423095D01*
X30523810Y19470714D01*
X22062381Y20423095D02*
X21062381Y20423095D01*
X21062381Y20042142D01*
X21110000Y19946904D01*
X21157619Y19899285D01*
X21252857Y19851666D01*
X21395714Y19851666D01*
X21490952Y19899285D01*
X21538571Y19946904D01*
X21586190Y20042142D01*
X21586190Y20423095D01*
X21062381Y19518333D02*
X21062381Y18899285D01*
X21443333Y19232619D01*
X21443333Y19089761D01*
X21490952Y18994523D01*
X21538571Y18946904D01*
X21633810Y18899285D01*
X21871905Y18899285D01*
X21967143Y18946904D01*
X22014762Y18994523D01*
X22062381Y19089761D01*
X22062381Y19375476D01*
X22014762Y19470714D01*
X21967143Y19518333D01*
X13172381Y20423095D02*
X12172381Y20423095D01*
X12172381Y20042142D01*
X12220000Y19946904D01*
X12267619Y19899285D01*
X12362857Y19851666D01*
X12505714Y19851666D01*
X12600952Y19899285D01*
X12648571Y19946904D01*
X12696190Y20042142D01*
X12696190Y20423095D01*
X12505714Y18994523D02*
X13172381Y18994523D01*
X12124762Y19232619D02*
X12839048Y19470714D01*
X12839048Y18851666D01*
X22062381Y2643095D02*
X21062381Y2643095D01*
X21062381Y2262142D01*
X21110000Y2166904D01*
X21157619Y2119285D01*
X21252857Y2071666D01*
X21395714Y2071666D01*
X21490952Y2119285D01*
X21538571Y2166904D01*
X21586190Y2262142D01*
X21586190Y2643095D01*
X21062381Y1738333D02*
X21062381Y1119285D01*
X21443333Y1452619D01*
X21443333Y1309761D01*
X21490952Y1214523D01*
X21538571Y1166904D01*
X21633810Y1119285D01*
X21871905Y1119285D01*
X21967143Y1166904D01*
X22014762Y1214523D01*
X22062381Y1309761D01*
X22062381Y1595476D01*
X22014762Y1690714D01*
X21967143Y1738333D01*
X13172381Y2643095D02*
X12172381Y2643095D01*
X12172381Y2262142D01*
X12220000Y2166904D01*
X12267619Y2119285D01*
X12362857Y2071666D01*
X12505714Y2071666D01*
X12600952Y2119285D01*
X12648571Y2166904D01*
X12696190Y2262142D01*
X12696190Y2643095D01*
X12505714Y1214523D02*
X13172381Y1214523D01*
X12124762Y1452619D02*
X12839048Y1690714D01*
X12839048Y1071666D01*
X30952381Y2643095D02*
X29952381Y2643095D01*
X29952381Y2262142D01*
X30000000Y2166904D01*
X30047619Y2119285D01*
X30142857Y2071666D01*
X30285714Y2071666D01*
X30380952Y2119285D01*
X30428571Y2166904D01*
X30476190Y2262142D01*
X30476190Y2643095D01*
X29952381Y1214523D02*
X29952381Y1405000D01*
X30000000Y1500238D01*
X30047619Y1547857D01*
X30190476Y1643095D01*
X30380952Y1690714D01*
X30761905Y1690714D01*
X30857143Y1643095D01*
X30904762Y1595476D01*
X30952381Y1500238D01*
X30952381Y1309761D01*
X30904762Y1214523D01*
X30857143Y1166904D01*
X30761905Y1119285D01*
X30523810Y1119285D01*
X30428571Y1166904D01*
X30380952Y1214523D01*
X30333333Y1309761D01*
X30333333Y1500238D01*
X30380952Y1595476D01*
X30428571Y1643095D01*
X30523810Y1690714D01*
%LPC*%
D12*
X29210000Y32385000D03*
D13*
X29210000Y29845000D03*
X29210000Y27305000D03*
X29210000Y24765000D03*
X29210000Y22225000D03*
X29210000Y19685000D03*
D14*
X25400000Y19685000D03*
D15*
X22860000Y19685000D03*
X20320000Y19685000D03*
D14*
X16510000Y19685000D03*
D15*
X13970000Y19685000D03*
X11430000Y19685000D03*
D14*
X7620000Y19685000D03*
D15*
X5080000Y19685000D03*
X2540000Y19685000D03*
D16*
X4102540Y28535900D03*
X4102540Y23535900D03*
D17*
X1402540Y29535900D03*
X1402540Y22535900D03*
D16*
X4102540Y10755900D03*
X4102540Y5755900D03*
D17*
X1402540Y11755900D03*
X1402540Y4755900D03*
D14*
X16510000Y1905000D03*
D15*
X13970000Y1905000D03*
X11430000Y1905000D03*
D14*
X7620000Y1905000D03*
D15*
X5080000Y1905000D03*
X2540000Y1905000D03*
D12*
X29210000Y14605000D03*
D13*
X29210000Y12065000D03*
X29210000Y9525000D03*
X29210000Y6985000D03*
X29210000Y4445000D03*
X29210000Y1905000D03*
D14*
X25400000Y1905000D03*
D15*
X22860000Y1905000D03*
X20320000Y1905000D03*
M02*
