G04 #@! TF.FileFunction,Copper,L2,Bot,Signal*
%FSLAX46Y46*%
G04 Gerber Fmt 4.6, Leading zero omitted, Abs format (unit mm)*
G04 Created by KiCad (PCBNEW 4.0.0-stable) date Monday, June 13, 2016 'PMt' 12:16:50 PM*
%MOMM*%
G01*
G04 APERTURE LIST*
%ADD10C,0.100000*%
%ADD11R,2.032000X1.727200*%
%ADD12O,2.032000X1.727200*%
%ADD13R,1.727200X2.032000*%
%ADD14O,1.727200X2.032000*%
%ADD15O,0.950000X1.250000*%
%ADD16O,1.550000X1.000000*%
%ADD17C,0.609600*%
%ADD18C,0.400000*%
%ADD19C,0.200000*%
G04 APERTURE END LIST*
D10*
D11*
X29210000Y32385000D03*
D12*
X29210000Y29845000D03*
X29210000Y27305000D03*
X29210000Y24765000D03*
X29210000Y22225000D03*
X29210000Y19685000D03*
D13*
X25400000Y19685000D03*
D14*
X22860000Y19685000D03*
X20320000Y19685000D03*
D13*
X16510000Y19685000D03*
D14*
X13970000Y19685000D03*
X11430000Y19685000D03*
D13*
X7620000Y19685000D03*
D14*
X5080000Y19685000D03*
X2540000Y19685000D03*
D15*
X4102540Y28535900D03*
X4102540Y23535900D03*
D16*
X1402540Y29535900D03*
X1402540Y22535900D03*
D15*
X4102540Y10755900D03*
X4102540Y5755900D03*
D16*
X1402540Y11755900D03*
X1402540Y4755900D03*
D13*
X16510000Y1905000D03*
D14*
X13970000Y1905000D03*
X11430000Y1905000D03*
D13*
X7620000Y1905000D03*
D14*
X5080000Y1905000D03*
X2540000Y1905000D03*
D11*
X29210000Y14605000D03*
D12*
X29210000Y12065000D03*
X29210000Y9525000D03*
X29210000Y6985000D03*
X29210000Y4445000D03*
X29210000Y1905000D03*
D13*
X25400000Y1905000D03*
D14*
X22860000Y1905000D03*
X20320000Y1905000D03*
D17*
X12827000Y26162000D03*
X14097000Y24892000D03*
X14097000Y7112000D03*
X12827000Y8382000D03*
X3810000Y32385000D03*
X1270000Y32385000D03*
X14605000Y33020000D03*
X21590000Y33020000D03*
X21844000Y25908000D03*
X6985000Y28575000D03*
X5461000Y25146000D03*
X9779000Y26416000D03*
X8509000Y26924000D03*
X6985000Y25146000D03*
X8509000Y25146000D03*
X10287000Y20828000D03*
X10668000Y25527000D03*
X9144000Y24257000D03*
X12192000Y25527000D03*
X14097000Y23876000D03*
X14097000Y6096000D03*
X8509000Y9144000D03*
X9144000Y6477000D03*
X12192000Y7747000D03*
X10668000Y7747000D03*
X9779000Y8636000D03*
X8509000Y7366000D03*
X6985000Y7366000D03*
X5461000Y7366000D03*
X3810000Y14605000D03*
X1270000Y14605000D03*
X6985000Y10795000D03*
X10287000Y3048000D03*
X21844000Y8128000D03*
X21590000Y15240000D03*
X14605000Y15240000D03*
X9525000Y31750000D03*
X9525000Y13970000D03*
X4826000Y30353000D03*
X7112000Y32512000D03*
X7112000Y14732000D03*
X4826000Y12573000D03*
X23622000Y30353000D03*
X23622000Y12573000D03*
X18034000Y27178000D03*
X14224000Y27178000D03*
X14224000Y9398000D03*
X18034000Y9398000D03*
X13081000Y28194000D03*
X13081000Y10414000D03*
X15240000Y28194000D03*
X15240000Y10414000D03*
X19431000Y27178000D03*
X19431000Y9398000D03*
X23622000Y28829000D03*
X14224000Y28194000D03*
X14224000Y10414000D03*
X23622000Y11049000D03*
D18*
X13208000Y21282939D02*
X13208000Y21463000D01*
X13360855Y21130084D02*
X13208000Y21282939D01*
X13360855Y3350084D02*
X13208000Y3502939D01*
X13208000Y3502939D02*
X13208000Y3683000D01*
X16510000Y22479000D02*
X16510000Y22098000D01*
X14097000Y24892000D02*
X16510000Y22479000D01*
X16510000Y22098000D02*
X16510000Y19685000D01*
X12827000Y26162000D02*
X14097000Y24892000D01*
X16510000Y19685000D02*
X16510000Y19532600D01*
X25400000Y19532600D02*
X25400000Y19685000D01*
X24136400Y18269000D02*
X25400000Y19532600D01*
X17773600Y18269000D02*
X24136400Y18269000D01*
X16510000Y19532600D02*
X17773600Y18269000D01*
X12827000Y8382000D02*
X14097000Y7112000D01*
X14097000Y7112000D02*
X16510000Y4699000D01*
X16510000Y4699000D02*
X16510000Y4318000D01*
X16510000Y1905000D02*
X16510000Y1752600D01*
X16510000Y1752600D02*
X17773600Y489000D01*
X17773600Y489000D02*
X24136400Y489000D01*
X24136400Y489000D02*
X25400000Y1752600D01*
X25400000Y1752600D02*
X25400000Y1905000D01*
X16510000Y4318000D02*
X16510000Y1905000D01*
X21717000Y25781000D02*
X21717000Y25527000D01*
X21844000Y25908000D02*
X21717000Y25781000D01*
X21590000Y33020000D02*
X21590000Y32385000D01*
X10287000Y20828000D02*
X10493951Y20621049D01*
X1270000Y32385000D02*
X1905000Y32385000D01*
X10287000Y3048000D02*
X10493951Y2841049D01*
X21844000Y8128000D02*
X21717000Y8001000D01*
X21717000Y8001000D02*
X21717000Y7747000D01*
X21590000Y15240000D02*
X21590000Y14605000D01*
X1270000Y14605000D02*
X1905000Y14605000D01*
X11430000Y19685000D02*
X11430000Y29845000D01*
X9525000Y31750000D02*
X11430000Y29845000D01*
X9525000Y13970000D02*
X11430000Y12065000D01*
X11430000Y1905000D02*
X11430000Y12065000D01*
D19*
X6985000Y32512000D02*
X7112000Y32512000D01*
X4826000Y30353000D02*
X6985000Y32512000D01*
X4826000Y12573000D02*
X6985000Y14732000D01*
X6985000Y14732000D02*
X7112000Y14732000D01*
X24384000Y27559000D02*
X24384000Y29591000D01*
X29210000Y24765000D02*
X27178000Y24765000D01*
X27178000Y24765000D02*
X24384000Y27559000D01*
X24384000Y29591000D02*
X23622000Y30353000D01*
X29210000Y6985000D02*
X27178000Y6985000D01*
X27178000Y6985000D02*
X24384000Y9779000D01*
X24384000Y9779000D02*
X24384000Y11811000D01*
X24384000Y11811000D02*
X23622000Y12573000D01*
X17609736Y27178000D02*
X17355736Y27432000D01*
X18034000Y27178000D02*
X17609736Y27178000D01*
X17355736Y27432000D02*
X14478000Y27432000D01*
X14478000Y27432000D02*
X14224000Y27178000D01*
X14478000Y9652000D02*
X14224000Y9398000D01*
X17355736Y9652000D02*
X14478000Y9652000D01*
X18034000Y9398000D02*
X17609736Y9398000D01*
X17609736Y9398000D02*
X17355736Y9652000D01*
X16006127Y29251813D02*
X14533215Y29251813D01*
X14533215Y29251813D02*
X14138813Y29251813D01*
X22987000Y29083000D02*
X22479000Y28575000D01*
X22479000Y28575000D02*
X16682940Y28575000D01*
X16682940Y28575000D02*
X16006127Y29251813D01*
X25146000Y29845000D02*
X24003000Y30988000D01*
X29210000Y29845000D02*
X25146000Y29845000D01*
X24003000Y30988000D02*
X23241000Y30988000D01*
X22987000Y30734000D02*
X22987000Y29083000D01*
X23241000Y30988000D02*
X22987000Y30734000D01*
X14138813Y29251813D02*
X13081000Y28194000D01*
X14533215Y11471813D02*
X14138813Y11471813D01*
X14138813Y11471813D02*
X13081000Y10414000D01*
X16006127Y11471813D02*
X14533215Y11471813D01*
X22479000Y10795000D02*
X16682940Y10795000D01*
X16682940Y10795000D02*
X16006127Y11471813D01*
X29210000Y12065000D02*
X25146000Y12065000D01*
X23241000Y13208000D02*
X22987000Y12954000D01*
X22987000Y12954000D02*
X22987000Y11303000D01*
X22987000Y11303000D02*
X22479000Y10795000D01*
X25146000Y12065000D02*
X24003000Y13208000D01*
X24003000Y13208000D02*
X23241000Y13208000D01*
X15240000Y28194000D02*
X15621000Y27813000D01*
X23469600Y27813000D02*
X29057600Y22225000D01*
X15621000Y27813000D02*
X23469600Y27813000D01*
X29057600Y22225000D02*
X29210000Y22225000D01*
X15240000Y10414000D02*
X15621000Y10033000D01*
X15621000Y10033000D02*
X23469600Y10033000D01*
X23469600Y10033000D02*
X29057600Y4445000D01*
X29057600Y4445000D02*
X29210000Y4445000D01*
X20066000Y27178000D02*
X20320000Y27432000D01*
X19431000Y27178000D02*
X20066000Y27178000D01*
X23241000Y27432000D02*
X27940000Y22733000D01*
X20320000Y27432000D02*
X23241000Y27432000D01*
X29057600Y19685000D02*
X29210000Y19685000D01*
X27940000Y20802600D02*
X29057600Y19685000D01*
X27940000Y22733000D02*
X27940000Y20802600D01*
X19431000Y9398000D02*
X20066000Y9398000D01*
X20066000Y9398000D02*
X20320000Y9652000D01*
X20320000Y9652000D02*
X23241000Y9652000D01*
X23241000Y9652000D02*
X27940000Y4953000D01*
X27940000Y4953000D02*
X27940000Y3022600D01*
X27940000Y3022600D02*
X29057600Y1905000D01*
X29057600Y1905000D02*
X29210000Y1905000D01*
X15101846Y28873402D02*
X15043804Y28873402D01*
X15101846Y28873402D02*
X14903402Y28873402D01*
X15632154Y28873402D02*
X15101846Y28873402D01*
X16303987Y28201569D02*
X15632154Y28873402D01*
X14903402Y28873402D02*
X14224000Y28194000D01*
X22994569Y28201569D02*
X16303987Y28201569D01*
X23622000Y28829000D02*
X22994569Y28201569D01*
X15101846Y11093402D02*
X14903402Y11093402D01*
X14903402Y11093402D02*
X14224000Y10414000D01*
X15101846Y11093402D02*
X15043804Y11093402D01*
X15632154Y11093402D02*
X15101846Y11093402D01*
X16303987Y10421569D02*
X15632154Y11093402D01*
X22994569Y10421569D02*
X16303987Y10421569D01*
X23622000Y11049000D02*
X22994569Y10421569D01*
G36*
X30787600Y327400D02*
X24614590Y327400D01*
X24922569Y635379D01*
X26263600Y635379D01*
X26303794Y638584D01*
X26371967Y659696D01*
X26431559Y698965D01*
X26477852Y753281D01*
X26507180Y818343D01*
X26517221Y889000D01*
X26517221Y2921000D01*
X26514016Y2961194D01*
X26492904Y3029367D01*
X26453635Y3088959D01*
X26399319Y3135252D01*
X26334257Y3164580D01*
X26263600Y3174621D01*
X24536400Y3174621D01*
X24496206Y3171416D01*
X24428033Y3150304D01*
X24368441Y3111035D01*
X24322148Y3056719D01*
X24292820Y2991657D01*
X24282779Y2921000D01*
X24282779Y1275169D01*
X23949010Y941400D01*
X23631233Y941400D01*
X23640824Y949111D01*
X23780827Y1115960D01*
X23885755Y1306824D01*
X23951613Y1514434D01*
X23975891Y1730881D01*
X23976000Y1746463D01*
X23976000Y2063537D01*
X23954746Y2280303D01*
X23891793Y2488812D01*
X23789540Y2681122D01*
X23651881Y2849909D01*
X23484059Y2988743D01*
X23292467Y3092336D01*
X23084403Y3156743D01*
X22867791Y3179510D01*
X22650882Y3159770D01*
X22441939Y3098274D01*
X22248919Y2997366D01*
X22079176Y2860889D01*
X21939173Y2694040D01*
X21834245Y2503176D01*
X21768387Y2295566D01*
X21744109Y2079119D01*
X21744000Y2063537D01*
X21744000Y1746463D01*
X21765254Y1529697D01*
X21828207Y1321188D01*
X21930460Y1128878D01*
X22068119Y960091D01*
X22090713Y941400D01*
X21091233Y941400D01*
X21100824Y949111D01*
X21240827Y1115960D01*
X21345755Y1306824D01*
X21411613Y1514434D01*
X21435891Y1730881D01*
X21436000Y1746463D01*
X21436000Y2063537D01*
X21414746Y2280303D01*
X21351793Y2488812D01*
X21249540Y2681122D01*
X21111881Y2849909D01*
X20944059Y2988743D01*
X20752467Y3092336D01*
X20544403Y3156743D01*
X20327791Y3179510D01*
X20110882Y3159770D01*
X19901939Y3098274D01*
X19708919Y2997366D01*
X19539176Y2860889D01*
X19399173Y2694040D01*
X19294245Y2503176D01*
X19228387Y2295566D01*
X19204109Y2079119D01*
X19204000Y2063537D01*
X19204000Y1746463D01*
X19225254Y1529697D01*
X19288207Y1321188D01*
X19390460Y1128878D01*
X19528119Y960091D01*
X19550713Y941400D01*
X17960990Y941400D01*
X17627221Y1275169D01*
X17627221Y2921000D01*
X17624016Y2961194D01*
X17602904Y3029367D01*
X17563635Y3088959D01*
X17509319Y3135252D01*
X17444257Y3164580D01*
X17373600Y3174621D01*
X16962400Y3174621D01*
X16962400Y4699000D01*
X16958317Y4740639D01*
X16954679Y4782220D01*
X16954017Y4784500D01*
X16953784Y4786872D01*
X16941693Y4826921D01*
X16930047Y4867007D01*
X16928953Y4869118D01*
X16928265Y4871396D01*
X16908630Y4908325D01*
X16889414Y4945395D01*
X16887932Y4947252D01*
X16886814Y4949354D01*
X16860379Y4981767D01*
X16834330Y5014398D01*
X16831069Y5017704D01*
X16831010Y5017777D01*
X16830943Y5017833D01*
X16829895Y5018895D01*
X14647328Y7201462D01*
X14632999Y7273828D01*
X14591359Y7374855D01*
X14530888Y7465871D01*
X14453891Y7543407D01*
X14363300Y7604512D01*
X14262566Y7646857D01*
X14186272Y7662518D01*
X13377328Y8471462D01*
X13362999Y8543828D01*
X13321359Y8644855D01*
X13260888Y8735871D01*
X13183891Y8813407D01*
X13093300Y8874512D01*
X12992566Y8916857D01*
X12885525Y8938829D01*
X12776255Y8939592D01*
X12668918Y8919116D01*
X12567602Y8878182D01*
X12476167Y8818348D01*
X12398095Y8741894D01*
X12336359Y8651732D01*
X12293312Y8551296D01*
X12270593Y8444411D01*
X12269068Y8335149D01*
X12288793Y8227672D01*
X12329019Y8126073D01*
X12388213Y8034222D01*
X12464120Y7955618D01*
X12553849Y7893254D01*
X12653983Y7849507D01*
X12738224Y7830986D01*
X13546937Y7022273D01*
X13558793Y6957672D01*
X13599019Y6856073D01*
X13658213Y6764222D01*
X13734120Y6685618D01*
X13823849Y6623254D01*
X13923983Y6579507D01*
X14008224Y6560986D01*
X16057600Y4511610D01*
X16057600Y3174621D01*
X15646400Y3174621D01*
X15606206Y3171416D01*
X15538033Y3150304D01*
X15478441Y3111035D01*
X15432148Y3056719D01*
X15402820Y2991657D01*
X15392779Y2921000D01*
X15392779Y889000D01*
X15395984Y848806D01*
X15417096Y780633D01*
X15456365Y721041D01*
X15510681Y674748D01*
X15575743Y645420D01*
X15646400Y635379D01*
X16987431Y635379D01*
X17295410Y327400D01*
X327400Y327400D01*
X327400Y2063537D01*
X1424000Y2063537D01*
X1424000Y1746463D01*
X1445254Y1529697D01*
X1508207Y1321188D01*
X1610460Y1128878D01*
X1748119Y960091D01*
X1915941Y821257D01*
X2107533Y717664D01*
X2315597Y653257D01*
X2532209Y630490D01*
X2749118Y650230D01*
X2958061Y711726D01*
X3151081Y812634D01*
X3320824Y949111D01*
X3460827Y1115960D01*
X3565755Y1306824D01*
X3631613Y1514434D01*
X3655891Y1730881D01*
X3656000Y1746463D01*
X3656000Y2063537D01*
X3964000Y2063537D01*
X3964000Y1746463D01*
X3985254Y1529697D01*
X4048207Y1321188D01*
X4150460Y1128878D01*
X4288119Y960091D01*
X4455941Y821257D01*
X4647533Y717664D01*
X4855597Y653257D01*
X5072209Y630490D01*
X5289118Y650230D01*
X5498061Y711726D01*
X5691081Y812634D01*
X5860824Y949111D01*
X6000827Y1115960D01*
X6105755Y1306824D01*
X6171613Y1514434D01*
X6195891Y1730881D01*
X6196000Y1746463D01*
X6196000Y2063537D01*
X6174746Y2280303D01*
X6111793Y2488812D01*
X6009540Y2681122D01*
X5871881Y2849909D01*
X5785947Y2921000D01*
X6502779Y2921000D01*
X6502779Y889000D01*
X6505984Y848806D01*
X6527096Y780633D01*
X6566365Y721041D01*
X6620681Y674748D01*
X6685743Y645420D01*
X6756400Y635379D01*
X8483600Y635379D01*
X8523794Y638584D01*
X8591967Y659696D01*
X8651559Y698965D01*
X8697852Y753281D01*
X8727180Y818343D01*
X8737221Y889000D01*
X8737221Y2921000D01*
X8734016Y2961194D01*
X8712904Y3029367D01*
X8673635Y3088959D01*
X8619319Y3135252D01*
X8554257Y3164580D01*
X8483600Y3174621D01*
X6756400Y3174621D01*
X6716206Y3171416D01*
X6648033Y3150304D01*
X6588441Y3111035D01*
X6542148Y3056719D01*
X6512820Y2991657D01*
X6502779Y2921000D01*
X5785947Y2921000D01*
X5704059Y2988743D01*
X5512467Y3092336D01*
X5304403Y3156743D01*
X5087791Y3179510D01*
X4870882Y3159770D01*
X4661939Y3098274D01*
X4468919Y2997366D01*
X4299176Y2860889D01*
X4159173Y2694040D01*
X4054245Y2503176D01*
X3988387Y2295566D01*
X3964109Y2079119D01*
X3964000Y2063537D01*
X3656000Y2063537D01*
X3634746Y2280303D01*
X3571793Y2488812D01*
X3469540Y2681122D01*
X3331881Y2849909D01*
X3164059Y2988743D01*
X2972467Y3092336D01*
X2764403Y3156743D01*
X2547791Y3179510D01*
X2330882Y3159770D01*
X2121939Y3098274D01*
X1928919Y2997366D01*
X1759176Y2860889D01*
X1619173Y2694040D01*
X1514245Y2503176D01*
X1448387Y2295566D01*
X1424109Y2079119D01*
X1424000Y2063537D01*
X327400Y2063537D01*
X327400Y4638194D01*
X384404Y4638194D01*
X389596Y4609120D01*
X432411Y4467975D01*
X501939Y4337894D01*
X595509Y4223877D01*
X709524Y4130305D01*
X839604Y4060775D01*
X980749Y4017958D01*
X1127535Y4003500D01*
X1402535Y4003500D01*
X1402535Y4755895D01*
X1402545Y4755895D01*
X1402545Y4003500D01*
X1677545Y4003500D01*
X1824331Y4017958D01*
X1965476Y4060775D01*
X2095556Y4130305D01*
X2209571Y4223877D01*
X2303141Y4337894D01*
X2372669Y4467975D01*
X2415484Y4609120D01*
X2420676Y4638194D01*
X2366840Y4755895D01*
X1402545Y4755895D01*
X1402535Y4755895D01*
X438240Y4755895D01*
X384404Y4638194D01*
X327400Y4638194D01*
X327400Y4873606D01*
X384404Y4873606D01*
X438240Y4755905D01*
X1402535Y4755905D01*
X1402535Y5508300D01*
X1402545Y5508300D01*
X1402545Y4755905D01*
X2366840Y4755905D01*
X2420676Y4873606D01*
X2415484Y4902680D01*
X2372669Y5043825D01*
X2303141Y5173906D01*
X2209571Y5287923D01*
X2095556Y5381495D01*
X1965476Y5451025D01*
X1824331Y5493842D01*
X1677545Y5508300D01*
X1402545Y5508300D01*
X1402535Y5508300D01*
X1127535Y5508300D01*
X980749Y5493842D01*
X839604Y5451025D01*
X709524Y5381495D01*
X595509Y5287923D01*
X501939Y5173906D01*
X432411Y5043825D01*
X389596Y4902680D01*
X384404Y4873606D01*
X327400Y4873606D01*
X327400Y5755895D01*
X3375140Y5755895D01*
X3375140Y5605895D01*
X3389118Y5463986D01*
X3430512Y5327531D01*
X3497732Y5201774D01*
X3588194Y5091547D01*
X3698422Y5001086D01*
X3824180Y4933868D01*
X3960636Y4892476D01*
X3988745Y4887456D01*
X4102535Y4941600D01*
X4102535Y5755895D01*
X4102545Y5755895D01*
X4102545Y4941600D01*
X4216335Y4887456D01*
X4244444Y4892476D01*
X4380900Y4933868D01*
X4506658Y5001086D01*
X4616886Y5091547D01*
X4707348Y5201774D01*
X4774568Y5327531D01*
X4815962Y5463986D01*
X4829940Y5605895D01*
X4829940Y5755895D01*
X4102545Y5755895D01*
X4102535Y5755895D01*
X3375140Y5755895D01*
X327400Y5755895D01*
X327400Y5905905D01*
X3375140Y5905905D01*
X3375140Y5755905D01*
X4102535Y5755905D01*
X4102535Y6570200D01*
X4102545Y6570200D01*
X4102545Y5755905D01*
X4829940Y5755905D01*
X4829940Y5905905D01*
X4815962Y6047814D01*
X4774568Y6184269D01*
X4707348Y6310026D01*
X4616886Y6420253D01*
X4506658Y6510714D01*
X4380900Y6577932D01*
X4244444Y6619324D01*
X4216335Y6624344D01*
X4102545Y6570200D01*
X4102535Y6570200D01*
X3988745Y6624344D01*
X3960636Y6619324D01*
X3824180Y6577932D01*
X3698422Y6510714D01*
X3588194Y6420253D01*
X3497732Y6310026D01*
X3430512Y6184269D01*
X3389118Y6047814D01*
X3375140Y5905905D01*
X327400Y5905905D01*
X327400Y10755895D01*
X3375140Y10755895D01*
X3375140Y10605895D01*
X3389118Y10463986D01*
X3430512Y10327531D01*
X3497732Y10201774D01*
X3588194Y10091547D01*
X3698422Y10001086D01*
X3824180Y9933868D01*
X3960636Y9892476D01*
X3988745Y9887456D01*
X4102535Y9941600D01*
X4102535Y10755895D01*
X4102545Y10755895D01*
X4102545Y9941600D01*
X4216335Y9887456D01*
X4244444Y9892476D01*
X4380900Y9933868D01*
X4506658Y10001086D01*
X4616886Y10091547D01*
X4707348Y10201774D01*
X4774568Y10327531D01*
X4815962Y10463986D01*
X4829940Y10605895D01*
X4829940Y10755895D01*
X4102545Y10755895D01*
X4102535Y10755895D01*
X3375140Y10755895D01*
X327400Y10755895D01*
X327400Y10905905D01*
X3375140Y10905905D01*
X3375140Y10755905D01*
X4102535Y10755905D01*
X4102535Y11570200D01*
X4102545Y11570200D01*
X4102545Y10755905D01*
X4829940Y10755905D01*
X4829940Y10905905D01*
X4815962Y11047814D01*
X4774568Y11184269D01*
X4707348Y11310026D01*
X4616886Y11420253D01*
X4506658Y11510714D01*
X4380900Y11577932D01*
X4244444Y11619324D01*
X4216335Y11624344D01*
X4102545Y11570200D01*
X4102535Y11570200D01*
X3988745Y11624344D01*
X3960636Y11619324D01*
X3824180Y11577932D01*
X3698422Y11510714D01*
X3588194Y11420253D01*
X3497732Y11310026D01*
X3430512Y11184269D01*
X3389118Y11047814D01*
X3375140Y10905905D01*
X327400Y10905905D01*
X327400Y11638194D01*
X384404Y11638194D01*
X389596Y11609120D01*
X432411Y11467975D01*
X501939Y11337894D01*
X595509Y11223877D01*
X709524Y11130305D01*
X839604Y11060775D01*
X980749Y11017958D01*
X1127535Y11003500D01*
X1402535Y11003500D01*
X1402535Y11755895D01*
X1402545Y11755895D01*
X1402545Y11003500D01*
X1677545Y11003500D01*
X1824331Y11017958D01*
X1965476Y11060775D01*
X2095556Y11130305D01*
X2209571Y11223877D01*
X2303141Y11337894D01*
X2372669Y11467975D01*
X2415484Y11609120D01*
X2420676Y11638194D01*
X2366840Y11755895D01*
X1402545Y11755895D01*
X1402535Y11755895D01*
X438240Y11755895D01*
X384404Y11638194D01*
X327400Y11638194D01*
X327400Y11873606D01*
X384404Y11873606D01*
X438240Y11755905D01*
X1402535Y11755905D01*
X1402535Y12508300D01*
X1402545Y12508300D01*
X1402545Y11755905D01*
X2366840Y11755905D01*
X2420676Y11873606D01*
X2415484Y11902680D01*
X2372669Y12043825D01*
X2303141Y12173906D01*
X2209571Y12287923D01*
X2095556Y12381495D01*
X1965476Y12451025D01*
X1824331Y12493842D01*
X1677545Y12508300D01*
X1402545Y12508300D01*
X1402535Y12508300D01*
X1127535Y12508300D01*
X980749Y12493842D01*
X839604Y12451025D01*
X709524Y12381495D01*
X595509Y12287923D01*
X501939Y12173906D01*
X432411Y12043825D01*
X389596Y11902680D01*
X384404Y11873606D01*
X327400Y11873606D01*
X327400Y12526149D01*
X4268068Y12526149D01*
X4287793Y12418672D01*
X4328019Y12317073D01*
X4387213Y12225222D01*
X4463120Y12146618D01*
X4552849Y12084254D01*
X4652983Y12040507D01*
X4759706Y12017043D01*
X4868955Y12014754D01*
X4976567Y12033729D01*
X5078445Y12073245D01*
X5170706Y12131796D01*
X5249839Y12207152D01*
X5312827Y12296444D01*
X5357272Y12396269D01*
X5381481Y12502826D01*
X5383224Y12627636D01*
X5382527Y12631159D01*
X6674517Y13923149D01*
X8967068Y13923149D01*
X8986793Y13815672D01*
X9027019Y13714073D01*
X9086213Y13622222D01*
X9162120Y13543618D01*
X9251849Y13481254D01*
X9351983Y13437507D01*
X9436224Y13418986D01*
X10977600Y11877610D01*
X10977600Y3080322D01*
X10818919Y2997366D01*
X10649176Y2860889D01*
X10509173Y2694040D01*
X10404245Y2503176D01*
X10338387Y2295566D01*
X10314109Y2079119D01*
X10314000Y2063537D01*
X10314000Y1746463D01*
X10335254Y1529697D01*
X10398207Y1321188D01*
X10500460Y1128878D01*
X10638119Y960091D01*
X10805941Y821257D01*
X10997533Y717664D01*
X11205597Y653257D01*
X11422209Y630490D01*
X11639118Y650230D01*
X11848061Y711726D01*
X12041081Y812634D01*
X12210824Y949111D01*
X12350827Y1115960D01*
X12455755Y1306824D01*
X12521613Y1514434D01*
X12545891Y1730881D01*
X12546000Y1746463D01*
X12546000Y2063537D01*
X12524746Y2280303D01*
X12461793Y2488812D01*
X12359540Y2681122D01*
X12221881Y2849909D01*
X12054059Y2988743D01*
X11882400Y3081558D01*
X11882400Y3683000D01*
X12755600Y3683000D01*
X12755600Y3502939D01*
X12759678Y3461346D01*
X12763320Y3419720D01*
X12763984Y3417435D01*
X12764216Y3415067D01*
X12776299Y3375047D01*
X12787953Y3334932D01*
X12789047Y3332821D01*
X12789735Y3330543D01*
X12809370Y3293614D01*
X12828586Y3256544D01*
X12830068Y3254687D01*
X12831186Y3252585D01*
X12857621Y3220172D01*
X12883670Y3187541D01*
X12886931Y3184235D01*
X12886990Y3184162D01*
X12887057Y3184106D01*
X12888105Y3183044D01*
X13040960Y3030189D01*
X13109187Y2974146D01*
X13187000Y2932423D01*
X13253036Y2912234D01*
X13189176Y2860889D01*
X13049173Y2694040D01*
X12944245Y2503176D01*
X12878387Y2295566D01*
X12854109Y2079119D01*
X12854000Y2063537D01*
X12854000Y1746463D01*
X12875254Y1529697D01*
X12938207Y1321188D01*
X13040460Y1128878D01*
X13178119Y960091D01*
X13345941Y821257D01*
X13537533Y717664D01*
X13745597Y653257D01*
X13962209Y630490D01*
X14179118Y650230D01*
X14388061Y711726D01*
X14581081Y812634D01*
X14750824Y949111D01*
X14890827Y1115960D01*
X14995755Y1306824D01*
X15061613Y1514434D01*
X15085891Y1730881D01*
X15086000Y1746463D01*
X15086000Y2063537D01*
X15064746Y2280303D01*
X15001793Y2488812D01*
X14899540Y2681122D01*
X14761881Y2849909D01*
X14594059Y2988743D01*
X14402467Y3092336D01*
X14194403Y3156743D01*
X13977791Y3179510D01*
X13770377Y3160634D01*
X13777292Y3173317D01*
X13803695Y3257570D01*
X13813230Y3345347D01*
X13805535Y3433303D01*
X13780902Y3518091D01*
X13740270Y3596479D01*
X13685185Y3665482D01*
X13680750Y3669979D01*
X13659603Y3691126D01*
X13651784Y3770872D01*
X13626265Y3855396D01*
X13584814Y3933354D01*
X13529010Y4001777D01*
X13460979Y4058057D01*
X13383312Y4100051D01*
X13298968Y4126160D01*
X13211158Y4135389D01*
X13123229Y4127387D01*
X13038528Y4102458D01*
X12960282Y4061552D01*
X12891472Y4006227D01*
X12834719Y3938591D01*
X12792183Y3861219D01*
X12765486Y3777059D01*
X12755644Y3689316D01*
X12755600Y3683000D01*
X11882400Y3683000D01*
X11882400Y10367149D01*
X12523068Y10367149D01*
X12542793Y10259672D01*
X12583019Y10158073D01*
X12642213Y10066222D01*
X12718120Y9987618D01*
X12807849Y9925254D01*
X12907983Y9881507D01*
X13014706Y9858043D01*
X13123955Y9855754D01*
X13231567Y9874729D01*
X13333445Y9914245D01*
X13425706Y9972796D01*
X13504839Y10048152D01*
X13567827Y10137444D01*
X13612272Y10237269D01*
X13636481Y10343826D01*
X13638224Y10468636D01*
X13637527Y10472158D01*
X13674561Y10509193D01*
X13667593Y10476411D01*
X13666068Y10367149D01*
X13685793Y10259672D01*
X13726019Y10158073D01*
X13785213Y10066222D01*
X13861120Y9987618D01*
X13950849Y9925254D01*
X13994407Y9906224D01*
X13964602Y9894182D01*
X13873167Y9834348D01*
X13795095Y9757894D01*
X13733359Y9667732D01*
X13690312Y9567296D01*
X13667593Y9460411D01*
X13666068Y9351149D01*
X13685793Y9243672D01*
X13726019Y9142073D01*
X13785213Y9050222D01*
X13861120Y8971618D01*
X13950849Y8909254D01*
X14050983Y8865507D01*
X14157706Y8842043D01*
X14266955Y8839754D01*
X14374567Y8858729D01*
X14476445Y8898245D01*
X14568706Y8956796D01*
X14647839Y9032152D01*
X14710827Y9121444D01*
X14755272Y9221269D01*
X14773068Y9299600D01*
X17209768Y9299600D01*
X17360551Y9148816D01*
X17385741Y9128125D01*
X17410642Y9107230D01*
X17412263Y9106339D01*
X17413697Y9105161D01*
X17442415Y9089763D01*
X17470911Y9074097D01*
X17472676Y9073537D01*
X17474310Y9072661D01*
X17505428Y9063148D01*
X17536468Y9053301D01*
X17538312Y9053094D01*
X17540082Y9052553D01*
X17572441Y9049266D01*
X17599015Y9046285D01*
X17671120Y8971618D01*
X17760849Y8909254D01*
X17860983Y8865507D01*
X17967706Y8842043D01*
X18076955Y8839754D01*
X18184567Y8858729D01*
X18286445Y8898245D01*
X18378706Y8956796D01*
X18457839Y9032152D01*
X18520827Y9121444D01*
X18565272Y9221269D01*
X18589481Y9327826D01*
X18591224Y9452636D01*
X18569999Y9559828D01*
X18528359Y9660855D01*
X18515240Y9680600D01*
X18949170Y9680600D01*
X18940359Y9667732D01*
X18897312Y9567296D01*
X18874593Y9460411D01*
X18873068Y9351149D01*
X18892793Y9243672D01*
X18933019Y9142073D01*
X18992213Y9050222D01*
X19068120Y8971618D01*
X19157849Y8909254D01*
X19257983Y8865507D01*
X19364706Y8842043D01*
X19473955Y8839754D01*
X19581567Y8858729D01*
X19683445Y8898245D01*
X19775706Y8956796D01*
X19854839Y9032152D01*
X19864325Y9045600D01*
X20066000Y9045600D01*
X20098462Y9048783D01*
X20130825Y9051614D01*
X20132601Y9052130D01*
X20134448Y9052311D01*
X20165653Y9061733D01*
X20196870Y9070802D01*
X20198514Y9071654D01*
X20200289Y9072190D01*
X20229037Y9087476D01*
X20257931Y9102453D01*
X20259380Y9103609D01*
X20261015Y9104479D01*
X20286246Y9125057D01*
X20311681Y9145361D01*
X20314255Y9147900D01*
X20314313Y9147947D01*
X20314358Y9148001D01*
X20315184Y9148816D01*
X20465969Y9299600D01*
X23095032Y9299600D01*
X27587600Y4807031D01*
X27587600Y3022600D01*
X27590783Y2990138D01*
X27593614Y2957775D01*
X27594130Y2955999D01*
X27594311Y2954152D01*
X27603733Y2922947D01*
X27612802Y2891730D01*
X27613654Y2890086D01*
X27614190Y2888311D01*
X27629476Y2859563D01*
X27644453Y2830669D01*
X27645609Y2829220D01*
X27646479Y2827585D01*
X27667057Y2802354D01*
X27687361Y2776919D01*
X27689900Y2774345D01*
X27689947Y2774287D01*
X27690001Y2774242D01*
X27690816Y2773416D01*
X28059197Y2405035D01*
X28022664Y2337467D01*
X27958257Y2129403D01*
X27935490Y1912791D01*
X27955230Y1695882D01*
X28016726Y1486939D01*
X28117634Y1293919D01*
X28254111Y1124176D01*
X28420960Y984173D01*
X28611824Y879245D01*
X28819434Y813387D01*
X29035881Y789109D01*
X29051463Y789000D01*
X29368537Y789000D01*
X29585303Y810254D01*
X29793812Y873207D01*
X29986122Y975460D01*
X30154909Y1113119D01*
X30293743Y1280941D01*
X30397336Y1472533D01*
X30461743Y1680597D01*
X30484510Y1897209D01*
X30464770Y2114118D01*
X30403274Y2323061D01*
X30302366Y2516081D01*
X30165889Y2685824D01*
X29999040Y2825827D01*
X29808176Y2930755D01*
X29600566Y2996613D01*
X29384119Y3020891D01*
X29368537Y3021000D01*
X29051463Y3021000D01*
X28834697Y2999746D01*
X28626188Y2936793D01*
X28559587Y2901381D01*
X28292400Y3168568D01*
X28292400Y3632048D01*
X28420960Y3524173D01*
X28611824Y3419245D01*
X28819434Y3353387D01*
X29035881Y3329109D01*
X29051463Y3329000D01*
X29368537Y3329000D01*
X29585303Y3350254D01*
X29793812Y3413207D01*
X29986122Y3515460D01*
X30154909Y3653119D01*
X30293743Y3820941D01*
X30397336Y4012533D01*
X30461743Y4220597D01*
X30484510Y4437209D01*
X30464770Y4654118D01*
X30403274Y4863061D01*
X30302366Y5056081D01*
X30165889Y5225824D01*
X29999040Y5365827D01*
X29808176Y5470755D01*
X29600566Y5536613D01*
X29384119Y5560891D01*
X29368537Y5561000D01*
X29051463Y5561000D01*
X28834697Y5539746D01*
X28626188Y5476793D01*
X28559588Y5441381D01*
X27368369Y6632600D01*
X27997401Y6632600D01*
X28016726Y6566939D01*
X28117634Y6373919D01*
X28254111Y6204176D01*
X28420960Y6064173D01*
X28611824Y5959245D01*
X28819434Y5893387D01*
X29035881Y5869109D01*
X29051463Y5869000D01*
X29368537Y5869000D01*
X29585303Y5890254D01*
X29793812Y5953207D01*
X29986122Y6055460D01*
X30154909Y6193119D01*
X30293743Y6360941D01*
X30397336Y6552533D01*
X30461743Y6760597D01*
X30484510Y6977209D01*
X30464770Y7194118D01*
X30403274Y7403061D01*
X30302366Y7596081D01*
X30165889Y7765824D01*
X29999040Y7905827D01*
X29808176Y8010755D01*
X29600566Y8076613D01*
X29384119Y8100891D01*
X29368537Y8101000D01*
X29051463Y8101000D01*
X28834697Y8079746D01*
X28626188Y8016793D01*
X28433878Y7914540D01*
X28265091Y7776881D01*
X28126257Y7609059D01*
X28022664Y7417467D01*
X27997879Y7337400D01*
X27323969Y7337400D01*
X25128578Y9532791D01*
X27935490Y9532791D01*
X27955230Y9315882D01*
X28016726Y9106939D01*
X28117634Y8913919D01*
X28254111Y8744176D01*
X28420960Y8604173D01*
X28611824Y8499245D01*
X28819434Y8433387D01*
X29035881Y8409109D01*
X29051463Y8409000D01*
X29368537Y8409000D01*
X29585303Y8430254D01*
X29793812Y8493207D01*
X29986122Y8595460D01*
X30154909Y8733119D01*
X30293743Y8900941D01*
X30397336Y9092533D01*
X30461743Y9300597D01*
X30484510Y9517209D01*
X30464770Y9734118D01*
X30403274Y9943061D01*
X30302366Y10136081D01*
X30165889Y10305824D01*
X29999040Y10445827D01*
X29808176Y10550755D01*
X29600566Y10616613D01*
X29384119Y10640891D01*
X29368537Y10641000D01*
X29051463Y10641000D01*
X28834697Y10619746D01*
X28626188Y10556793D01*
X28433878Y10454540D01*
X28265091Y10316881D01*
X28126257Y10149059D01*
X28022664Y9957467D01*
X27958257Y9749403D01*
X27935490Y9532791D01*
X25128578Y9532791D01*
X24736400Y9924968D01*
X24736400Y11811000D01*
X24733217Y11843465D01*
X24730386Y11875825D01*
X24729870Y11877601D01*
X24729689Y11879448D01*
X24720267Y11910653D01*
X24711198Y11941870D01*
X24710346Y11943514D01*
X24709810Y11945289D01*
X24694524Y11974037D01*
X24679547Y12002931D01*
X24678390Y12004380D01*
X24677521Y12006015D01*
X24656968Y12031216D01*
X24636640Y12056681D01*
X24634096Y12059261D01*
X24634053Y12059313D01*
X24634004Y12059353D01*
X24633185Y12060184D01*
X24177661Y12515708D01*
X24177926Y12534705D01*
X24896815Y11815816D01*
X24922005Y11795125D01*
X24946906Y11774230D01*
X24948527Y11773339D01*
X24949961Y11772161D01*
X24978679Y11756763D01*
X25007175Y11741097D01*
X25008940Y11740537D01*
X25010574Y11739661D01*
X25041692Y11730148D01*
X25072732Y11720301D01*
X25074576Y11720094D01*
X25076346Y11719553D01*
X25108701Y11716266D01*
X25141080Y11712634D01*
X25144701Y11712609D01*
X25144770Y11712602D01*
X25144834Y11712608D01*
X25146000Y11712600D01*
X27997401Y11712600D01*
X28016726Y11646939D01*
X28117634Y11453919D01*
X28254111Y11284176D01*
X28420960Y11144173D01*
X28611824Y11039245D01*
X28819434Y10973387D01*
X29035881Y10949109D01*
X29051463Y10949000D01*
X29368537Y10949000D01*
X29585303Y10970254D01*
X29793812Y11033207D01*
X29986122Y11135460D01*
X30154909Y11273119D01*
X30293743Y11440941D01*
X30397336Y11632533D01*
X30461743Y11840597D01*
X30484510Y12057209D01*
X30464770Y12274118D01*
X30403274Y12483061D01*
X30302366Y12676081D01*
X30165889Y12845824D01*
X29999040Y12985827D01*
X29808176Y13090755D01*
X29600566Y13156613D01*
X29384119Y13180891D01*
X29368537Y13181000D01*
X29051463Y13181000D01*
X28834697Y13159746D01*
X28626188Y13096793D01*
X28433878Y12994540D01*
X28265091Y12856881D01*
X28126257Y12689059D01*
X28022664Y12497467D01*
X27997879Y12417400D01*
X25291969Y12417400D01*
X24252184Y13457184D01*
X24227020Y13477855D01*
X24202094Y13498770D01*
X24200473Y13499661D01*
X24199039Y13500839D01*
X24170321Y13516237D01*
X24141825Y13531903D01*
X24140060Y13532463D01*
X24138426Y13533339D01*
X24107308Y13542852D01*
X24076268Y13552699D01*
X24074424Y13552906D01*
X24072654Y13553447D01*
X24040299Y13556734D01*
X24007920Y13560366D01*
X24004299Y13560391D01*
X24004230Y13560398D01*
X24004166Y13560392D01*
X24003000Y13560400D01*
X23241000Y13560400D01*
X23208538Y13557217D01*
X23176175Y13554386D01*
X23174399Y13553870D01*
X23172552Y13553689D01*
X23141347Y13544267D01*
X23110130Y13535198D01*
X23108486Y13534346D01*
X23106711Y13533810D01*
X23077963Y13518524D01*
X23049069Y13503547D01*
X23047620Y13502390D01*
X23045985Y13501521D01*
X23020778Y13480963D01*
X22995318Y13460639D01*
X22992739Y13458096D01*
X22992687Y13458053D01*
X22992647Y13458004D01*
X22991815Y13457184D01*
X22737816Y13203184D01*
X22717145Y13178020D01*
X22696230Y13153094D01*
X22695339Y13151473D01*
X22694161Y13150039D01*
X22678763Y13121321D01*
X22663097Y13092825D01*
X22662537Y13091060D01*
X22661661Y13089426D01*
X22652148Y13058308D01*
X22642301Y13027268D01*
X22642094Y13025424D01*
X22641553Y13023654D01*
X22638266Y12991299D01*
X22634634Y12958920D01*
X22634609Y12955299D01*
X22634602Y12955230D01*
X22634608Y12955166D01*
X22634600Y12954000D01*
X22634600Y11448969D01*
X22333032Y11147400D01*
X16828909Y11147400D01*
X16255311Y11720997D01*
X16230147Y11741668D01*
X16205221Y11762583D01*
X16203600Y11763474D01*
X16202166Y11764652D01*
X16173448Y11780050D01*
X16144952Y11795716D01*
X16143187Y11796276D01*
X16141553Y11797152D01*
X16110435Y11806665D01*
X16079395Y11816512D01*
X16077551Y11816719D01*
X16075781Y11817260D01*
X16043426Y11820547D01*
X16011047Y11824179D01*
X16007426Y11824204D01*
X16007357Y11824211D01*
X16007293Y11824205D01*
X16006127Y11824213D01*
X14138813Y11824213D01*
X14106351Y11821030D01*
X14073988Y11818199D01*
X14072212Y11817683D01*
X14070365Y11817502D01*
X14039160Y11808080D01*
X14007943Y11799011D01*
X14006299Y11798159D01*
X14004524Y11797623D01*
X13975776Y11782337D01*
X13946882Y11767360D01*
X13945433Y11766203D01*
X13943798Y11765334D01*
X13918591Y11744776D01*
X13893131Y11724452D01*
X13890552Y11721909D01*
X13890500Y11721866D01*
X13890460Y11721817D01*
X13889628Y11720997D01*
X13139461Y10970829D01*
X13030255Y10971592D01*
X12922918Y10951116D01*
X12821602Y10910182D01*
X12730167Y10850348D01*
X12652095Y10773894D01*
X12590359Y10683732D01*
X12547312Y10583296D01*
X12524593Y10476411D01*
X12523068Y10367149D01*
X11882400Y10367149D01*
X11882400Y12065000D01*
X11878322Y12106593D01*
X11874680Y12148219D01*
X11874016Y12150504D01*
X11873784Y12152872D01*
X11861701Y12192892D01*
X11850047Y12233007D01*
X11848953Y12235118D01*
X11848265Y12237396D01*
X11828651Y12274285D01*
X11809415Y12311395D01*
X11807930Y12313255D01*
X11806814Y12315354D01*
X11780401Y12347740D01*
X11754330Y12380398D01*
X11751069Y12383704D01*
X11751010Y12383777D01*
X11750943Y12383833D01*
X11749895Y12384895D01*
X10075328Y14059462D01*
X10060999Y14131828D01*
X10019359Y14232855D01*
X9958888Y14323871D01*
X9881891Y14401407D01*
X9791300Y14462512D01*
X9690566Y14504857D01*
X9583525Y14526829D01*
X9474255Y14527592D01*
X9366918Y14507116D01*
X9265602Y14466182D01*
X9174167Y14406348D01*
X9096095Y14329894D01*
X9034359Y14239732D01*
X8991312Y14139296D01*
X8968593Y14032411D01*
X8967068Y13923149D01*
X6674517Y13923149D01*
X6948732Y14197364D01*
X7045706Y14176043D01*
X7154955Y14173754D01*
X7262567Y14192729D01*
X7364445Y14232245D01*
X7456706Y14290796D01*
X7535839Y14366152D01*
X7598827Y14455444D01*
X7637317Y14541895D01*
X27941600Y14541895D01*
X27941600Y13716541D01*
X27951300Y13667777D01*
X27970326Y13621844D01*
X27997948Y13580504D01*
X28033105Y13545348D01*
X28074444Y13517726D01*
X28120378Y13498700D01*
X28169141Y13489000D01*
X29146895Y13489000D01*
X29209995Y13552100D01*
X29209995Y14604995D01*
X29210005Y14604995D01*
X29210005Y13552100D01*
X29273105Y13489000D01*
X30250859Y13489000D01*
X30299622Y13498700D01*
X30345556Y13517726D01*
X30386895Y13545348D01*
X30422052Y13580504D01*
X30449674Y13621844D01*
X30468700Y13667777D01*
X30478400Y13716541D01*
X30478400Y14541895D01*
X30415300Y14604995D01*
X29210005Y14604995D01*
X29209995Y14604995D01*
X28004700Y14604995D01*
X27941600Y14541895D01*
X7637317Y14541895D01*
X7643272Y14555269D01*
X7667481Y14661826D01*
X7669224Y14786636D01*
X7647999Y14893828D01*
X7606359Y14994855D01*
X7545888Y15085871D01*
X7468891Y15163407D01*
X7378300Y15224512D01*
X7277566Y15266857D01*
X7170525Y15288829D01*
X7061255Y15289592D01*
X6953918Y15269116D01*
X6852602Y15228182D01*
X6761167Y15168348D01*
X6683095Y15091894D01*
X6621359Y15001732D01*
X6578312Y14901296D01*
X6557361Y14802729D01*
X4884461Y13129829D01*
X4775255Y13130592D01*
X4667918Y13110116D01*
X4566602Y13069182D01*
X4475167Y13009348D01*
X4397095Y12932894D01*
X4335359Y12842732D01*
X4292312Y12742296D01*
X4269593Y12635411D01*
X4268068Y12526149D01*
X327400Y12526149D01*
X327400Y15493459D01*
X27941600Y15493459D01*
X27941600Y14668105D01*
X28004700Y14605005D01*
X29209995Y14605005D01*
X29209995Y15657900D01*
X29210005Y15657900D01*
X29210005Y14605005D01*
X30415300Y14605005D01*
X30478400Y14668105D01*
X30478400Y15493459D01*
X30468700Y15542223D01*
X30449674Y15588156D01*
X30422052Y15629496D01*
X30386895Y15664652D01*
X30345556Y15692274D01*
X30299622Y15711300D01*
X30250859Y15721000D01*
X29273105Y15721000D01*
X29210005Y15657900D01*
X29209995Y15657900D01*
X29146895Y15721000D01*
X28169141Y15721000D01*
X28120378Y15711300D01*
X28074444Y15692274D01*
X28033105Y15664652D01*
X27997948Y15629496D01*
X27970326Y15588156D01*
X27951300Y15542223D01*
X27941600Y15493459D01*
X327400Y15493459D01*
X327400Y16182600D01*
X30787600Y16182600D01*
X30787600Y327400D01*
X30787600Y327400D01*
G37*
X30787600Y327400D02*
X24614590Y327400D01*
X24922569Y635379D01*
X26263600Y635379D01*
X26303794Y638584D01*
X26371967Y659696D01*
X26431559Y698965D01*
X26477852Y753281D01*
X26507180Y818343D01*
X26517221Y889000D01*
X26517221Y2921000D01*
X26514016Y2961194D01*
X26492904Y3029367D01*
X26453635Y3088959D01*
X26399319Y3135252D01*
X26334257Y3164580D01*
X26263600Y3174621D01*
X24536400Y3174621D01*
X24496206Y3171416D01*
X24428033Y3150304D01*
X24368441Y3111035D01*
X24322148Y3056719D01*
X24292820Y2991657D01*
X24282779Y2921000D01*
X24282779Y1275169D01*
X23949010Y941400D01*
X23631233Y941400D01*
X23640824Y949111D01*
X23780827Y1115960D01*
X23885755Y1306824D01*
X23951613Y1514434D01*
X23975891Y1730881D01*
X23976000Y1746463D01*
X23976000Y2063537D01*
X23954746Y2280303D01*
X23891793Y2488812D01*
X23789540Y2681122D01*
X23651881Y2849909D01*
X23484059Y2988743D01*
X23292467Y3092336D01*
X23084403Y3156743D01*
X22867791Y3179510D01*
X22650882Y3159770D01*
X22441939Y3098274D01*
X22248919Y2997366D01*
X22079176Y2860889D01*
X21939173Y2694040D01*
X21834245Y2503176D01*
X21768387Y2295566D01*
X21744109Y2079119D01*
X21744000Y2063537D01*
X21744000Y1746463D01*
X21765254Y1529697D01*
X21828207Y1321188D01*
X21930460Y1128878D01*
X22068119Y960091D01*
X22090713Y941400D01*
X21091233Y941400D01*
X21100824Y949111D01*
X21240827Y1115960D01*
X21345755Y1306824D01*
X21411613Y1514434D01*
X21435891Y1730881D01*
X21436000Y1746463D01*
X21436000Y2063537D01*
X21414746Y2280303D01*
X21351793Y2488812D01*
X21249540Y2681122D01*
X21111881Y2849909D01*
X20944059Y2988743D01*
X20752467Y3092336D01*
X20544403Y3156743D01*
X20327791Y3179510D01*
X20110882Y3159770D01*
X19901939Y3098274D01*
X19708919Y2997366D01*
X19539176Y2860889D01*
X19399173Y2694040D01*
X19294245Y2503176D01*
X19228387Y2295566D01*
X19204109Y2079119D01*
X19204000Y2063537D01*
X19204000Y1746463D01*
X19225254Y1529697D01*
X19288207Y1321188D01*
X19390460Y1128878D01*
X19528119Y960091D01*
X19550713Y941400D01*
X17960990Y941400D01*
X17627221Y1275169D01*
X17627221Y2921000D01*
X17624016Y2961194D01*
X17602904Y3029367D01*
X17563635Y3088959D01*
X17509319Y3135252D01*
X17444257Y3164580D01*
X17373600Y3174621D01*
X16962400Y3174621D01*
X16962400Y4699000D01*
X16958317Y4740639D01*
X16954679Y4782220D01*
X16954017Y4784500D01*
X16953784Y4786872D01*
X16941693Y4826921D01*
X16930047Y4867007D01*
X16928953Y4869118D01*
X16928265Y4871396D01*
X16908630Y4908325D01*
X16889414Y4945395D01*
X16887932Y4947252D01*
X16886814Y4949354D01*
X16860379Y4981767D01*
X16834330Y5014398D01*
X16831069Y5017704D01*
X16831010Y5017777D01*
X16830943Y5017833D01*
X16829895Y5018895D01*
X14647328Y7201462D01*
X14632999Y7273828D01*
X14591359Y7374855D01*
X14530888Y7465871D01*
X14453891Y7543407D01*
X14363300Y7604512D01*
X14262566Y7646857D01*
X14186272Y7662518D01*
X13377328Y8471462D01*
X13362999Y8543828D01*
X13321359Y8644855D01*
X13260888Y8735871D01*
X13183891Y8813407D01*
X13093300Y8874512D01*
X12992566Y8916857D01*
X12885525Y8938829D01*
X12776255Y8939592D01*
X12668918Y8919116D01*
X12567602Y8878182D01*
X12476167Y8818348D01*
X12398095Y8741894D01*
X12336359Y8651732D01*
X12293312Y8551296D01*
X12270593Y8444411D01*
X12269068Y8335149D01*
X12288793Y8227672D01*
X12329019Y8126073D01*
X12388213Y8034222D01*
X12464120Y7955618D01*
X12553849Y7893254D01*
X12653983Y7849507D01*
X12738224Y7830986D01*
X13546937Y7022273D01*
X13558793Y6957672D01*
X13599019Y6856073D01*
X13658213Y6764222D01*
X13734120Y6685618D01*
X13823849Y6623254D01*
X13923983Y6579507D01*
X14008224Y6560986D01*
X16057600Y4511610D01*
X16057600Y3174621D01*
X15646400Y3174621D01*
X15606206Y3171416D01*
X15538033Y3150304D01*
X15478441Y3111035D01*
X15432148Y3056719D01*
X15402820Y2991657D01*
X15392779Y2921000D01*
X15392779Y889000D01*
X15395984Y848806D01*
X15417096Y780633D01*
X15456365Y721041D01*
X15510681Y674748D01*
X15575743Y645420D01*
X15646400Y635379D01*
X16987431Y635379D01*
X17295410Y327400D01*
X327400Y327400D01*
X327400Y2063537D01*
X1424000Y2063537D01*
X1424000Y1746463D01*
X1445254Y1529697D01*
X1508207Y1321188D01*
X1610460Y1128878D01*
X1748119Y960091D01*
X1915941Y821257D01*
X2107533Y717664D01*
X2315597Y653257D01*
X2532209Y630490D01*
X2749118Y650230D01*
X2958061Y711726D01*
X3151081Y812634D01*
X3320824Y949111D01*
X3460827Y1115960D01*
X3565755Y1306824D01*
X3631613Y1514434D01*
X3655891Y1730881D01*
X3656000Y1746463D01*
X3656000Y2063537D01*
X3964000Y2063537D01*
X3964000Y1746463D01*
X3985254Y1529697D01*
X4048207Y1321188D01*
X4150460Y1128878D01*
X4288119Y960091D01*
X4455941Y821257D01*
X4647533Y717664D01*
X4855597Y653257D01*
X5072209Y630490D01*
X5289118Y650230D01*
X5498061Y711726D01*
X5691081Y812634D01*
X5860824Y949111D01*
X6000827Y1115960D01*
X6105755Y1306824D01*
X6171613Y1514434D01*
X6195891Y1730881D01*
X6196000Y1746463D01*
X6196000Y2063537D01*
X6174746Y2280303D01*
X6111793Y2488812D01*
X6009540Y2681122D01*
X5871881Y2849909D01*
X5785947Y2921000D01*
X6502779Y2921000D01*
X6502779Y889000D01*
X6505984Y848806D01*
X6527096Y780633D01*
X6566365Y721041D01*
X6620681Y674748D01*
X6685743Y645420D01*
X6756400Y635379D01*
X8483600Y635379D01*
X8523794Y638584D01*
X8591967Y659696D01*
X8651559Y698965D01*
X8697852Y753281D01*
X8727180Y818343D01*
X8737221Y889000D01*
X8737221Y2921000D01*
X8734016Y2961194D01*
X8712904Y3029367D01*
X8673635Y3088959D01*
X8619319Y3135252D01*
X8554257Y3164580D01*
X8483600Y3174621D01*
X6756400Y3174621D01*
X6716206Y3171416D01*
X6648033Y3150304D01*
X6588441Y3111035D01*
X6542148Y3056719D01*
X6512820Y2991657D01*
X6502779Y2921000D01*
X5785947Y2921000D01*
X5704059Y2988743D01*
X5512467Y3092336D01*
X5304403Y3156743D01*
X5087791Y3179510D01*
X4870882Y3159770D01*
X4661939Y3098274D01*
X4468919Y2997366D01*
X4299176Y2860889D01*
X4159173Y2694040D01*
X4054245Y2503176D01*
X3988387Y2295566D01*
X3964109Y2079119D01*
X3964000Y2063537D01*
X3656000Y2063537D01*
X3634746Y2280303D01*
X3571793Y2488812D01*
X3469540Y2681122D01*
X3331881Y2849909D01*
X3164059Y2988743D01*
X2972467Y3092336D01*
X2764403Y3156743D01*
X2547791Y3179510D01*
X2330882Y3159770D01*
X2121939Y3098274D01*
X1928919Y2997366D01*
X1759176Y2860889D01*
X1619173Y2694040D01*
X1514245Y2503176D01*
X1448387Y2295566D01*
X1424109Y2079119D01*
X1424000Y2063537D01*
X327400Y2063537D01*
X327400Y4638194D01*
X384404Y4638194D01*
X389596Y4609120D01*
X432411Y4467975D01*
X501939Y4337894D01*
X595509Y4223877D01*
X709524Y4130305D01*
X839604Y4060775D01*
X980749Y4017958D01*
X1127535Y4003500D01*
X1402535Y4003500D01*
X1402535Y4755895D01*
X1402545Y4755895D01*
X1402545Y4003500D01*
X1677545Y4003500D01*
X1824331Y4017958D01*
X1965476Y4060775D01*
X2095556Y4130305D01*
X2209571Y4223877D01*
X2303141Y4337894D01*
X2372669Y4467975D01*
X2415484Y4609120D01*
X2420676Y4638194D01*
X2366840Y4755895D01*
X1402545Y4755895D01*
X1402535Y4755895D01*
X438240Y4755895D01*
X384404Y4638194D01*
X327400Y4638194D01*
X327400Y4873606D01*
X384404Y4873606D01*
X438240Y4755905D01*
X1402535Y4755905D01*
X1402535Y5508300D01*
X1402545Y5508300D01*
X1402545Y4755905D01*
X2366840Y4755905D01*
X2420676Y4873606D01*
X2415484Y4902680D01*
X2372669Y5043825D01*
X2303141Y5173906D01*
X2209571Y5287923D01*
X2095556Y5381495D01*
X1965476Y5451025D01*
X1824331Y5493842D01*
X1677545Y5508300D01*
X1402545Y5508300D01*
X1402535Y5508300D01*
X1127535Y5508300D01*
X980749Y5493842D01*
X839604Y5451025D01*
X709524Y5381495D01*
X595509Y5287923D01*
X501939Y5173906D01*
X432411Y5043825D01*
X389596Y4902680D01*
X384404Y4873606D01*
X327400Y4873606D01*
X327400Y5755895D01*
X3375140Y5755895D01*
X3375140Y5605895D01*
X3389118Y5463986D01*
X3430512Y5327531D01*
X3497732Y5201774D01*
X3588194Y5091547D01*
X3698422Y5001086D01*
X3824180Y4933868D01*
X3960636Y4892476D01*
X3988745Y4887456D01*
X4102535Y4941600D01*
X4102535Y5755895D01*
X4102545Y5755895D01*
X4102545Y4941600D01*
X4216335Y4887456D01*
X4244444Y4892476D01*
X4380900Y4933868D01*
X4506658Y5001086D01*
X4616886Y5091547D01*
X4707348Y5201774D01*
X4774568Y5327531D01*
X4815962Y5463986D01*
X4829940Y5605895D01*
X4829940Y5755895D01*
X4102545Y5755895D01*
X4102535Y5755895D01*
X3375140Y5755895D01*
X327400Y5755895D01*
X327400Y5905905D01*
X3375140Y5905905D01*
X3375140Y5755905D01*
X4102535Y5755905D01*
X4102535Y6570200D01*
X4102545Y6570200D01*
X4102545Y5755905D01*
X4829940Y5755905D01*
X4829940Y5905905D01*
X4815962Y6047814D01*
X4774568Y6184269D01*
X4707348Y6310026D01*
X4616886Y6420253D01*
X4506658Y6510714D01*
X4380900Y6577932D01*
X4244444Y6619324D01*
X4216335Y6624344D01*
X4102545Y6570200D01*
X4102535Y6570200D01*
X3988745Y6624344D01*
X3960636Y6619324D01*
X3824180Y6577932D01*
X3698422Y6510714D01*
X3588194Y6420253D01*
X3497732Y6310026D01*
X3430512Y6184269D01*
X3389118Y6047814D01*
X3375140Y5905905D01*
X327400Y5905905D01*
X327400Y10755895D01*
X3375140Y10755895D01*
X3375140Y10605895D01*
X3389118Y10463986D01*
X3430512Y10327531D01*
X3497732Y10201774D01*
X3588194Y10091547D01*
X3698422Y10001086D01*
X3824180Y9933868D01*
X3960636Y9892476D01*
X3988745Y9887456D01*
X4102535Y9941600D01*
X4102535Y10755895D01*
X4102545Y10755895D01*
X4102545Y9941600D01*
X4216335Y9887456D01*
X4244444Y9892476D01*
X4380900Y9933868D01*
X4506658Y10001086D01*
X4616886Y10091547D01*
X4707348Y10201774D01*
X4774568Y10327531D01*
X4815962Y10463986D01*
X4829940Y10605895D01*
X4829940Y10755895D01*
X4102545Y10755895D01*
X4102535Y10755895D01*
X3375140Y10755895D01*
X327400Y10755895D01*
X327400Y10905905D01*
X3375140Y10905905D01*
X3375140Y10755905D01*
X4102535Y10755905D01*
X4102535Y11570200D01*
X4102545Y11570200D01*
X4102545Y10755905D01*
X4829940Y10755905D01*
X4829940Y10905905D01*
X4815962Y11047814D01*
X4774568Y11184269D01*
X4707348Y11310026D01*
X4616886Y11420253D01*
X4506658Y11510714D01*
X4380900Y11577932D01*
X4244444Y11619324D01*
X4216335Y11624344D01*
X4102545Y11570200D01*
X4102535Y11570200D01*
X3988745Y11624344D01*
X3960636Y11619324D01*
X3824180Y11577932D01*
X3698422Y11510714D01*
X3588194Y11420253D01*
X3497732Y11310026D01*
X3430512Y11184269D01*
X3389118Y11047814D01*
X3375140Y10905905D01*
X327400Y10905905D01*
X327400Y11638194D01*
X384404Y11638194D01*
X389596Y11609120D01*
X432411Y11467975D01*
X501939Y11337894D01*
X595509Y11223877D01*
X709524Y11130305D01*
X839604Y11060775D01*
X980749Y11017958D01*
X1127535Y11003500D01*
X1402535Y11003500D01*
X1402535Y11755895D01*
X1402545Y11755895D01*
X1402545Y11003500D01*
X1677545Y11003500D01*
X1824331Y11017958D01*
X1965476Y11060775D01*
X2095556Y11130305D01*
X2209571Y11223877D01*
X2303141Y11337894D01*
X2372669Y11467975D01*
X2415484Y11609120D01*
X2420676Y11638194D01*
X2366840Y11755895D01*
X1402545Y11755895D01*
X1402535Y11755895D01*
X438240Y11755895D01*
X384404Y11638194D01*
X327400Y11638194D01*
X327400Y11873606D01*
X384404Y11873606D01*
X438240Y11755905D01*
X1402535Y11755905D01*
X1402535Y12508300D01*
X1402545Y12508300D01*
X1402545Y11755905D01*
X2366840Y11755905D01*
X2420676Y11873606D01*
X2415484Y11902680D01*
X2372669Y12043825D01*
X2303141Y12173906D01*
X2209571Y12287923D01*
X2095556Y12381495D01*
X1965476Y12451025D01*
X1824331Y12493842D01*
X1677545Y12508300D01*
X1402545Y12508300D01*
X1402535Y12508300D01*
X1127535Y12508300D01*
X980749Y12493842D01*
X839604Y12451025D01*
X709524Y12381495D01*
X595509Y12287923D01*
X501939Y12173906D01*
X432411Y12043825D01*
X389596Y11902680D01*
X384404Y11873606D01*
X327400Y11873606D01*
X327400Y12526149D01*
X4268068Y12526149D01*
X4287793Y12418672D01*
X4328019Y12317073D01*
X4387213Y12225222D01*
X4463120Y12146618D01*
X4552849Y12084254D01*
X4652983Y12040507D01*
X4759706Y12017043D01*
X4868955Y12014754D01*
X4976567Y12033729D01*
X5078445Y12073245D01*
X5170706Y12131796D01*
X5249839Y12207152D01*
X5312827Y12296444D01*
X5357272Y12396269D01*
X5381481Y12502826D01*
X5383224Y12627636D01*
X5382527Y12631159D01*
X6674517Y13923149D01*
X8967068Y13923149D01*
X8986793Y13815672D01*
X9027019Y13714073D01*
X9086213Y13622222D01*
X9162120Y13543618D01*
X9251849Y13481254D01*
X9351983Y13437507D01*
X9436224Y13418986D01*
X10977600Y11877610D01*
X10977600Y3080322D01*
X10818919Y2997366D01*
X10649176Y2860889D01*
X10509173Y2694040D01*
X10404245Y2503176D01*
X10338387Y2295566D01*
X10314109Y2079119D01*
X10314000Y2063537D01*
X10314000Y1746463D01*
X10335254Y1529697D01*
X10398207Y1321188D01*
X10500460Y1128878D01*
X10638119Y960091D01*
X10805941Y821257D01*
X10997533Y717664D01*
X11205597Y653257D01*
X11422209Y630490D01*
X11639118Y650230D01*
X11848061Y711726D01*
X12041081Y812634D01*
X12210824Y949111D01*
X12350827Y1115960D01*
X12455755Y1306824D01*
X12521613Y1514434D01*
X12545891Y1730881D01*
X12546000Y1746463D01*
X12546000Y2063537D01*
X12524746Y2280303D01*
X12461793Y2488812D01*
X12359540Y2681122D01*
X12221881Y2849909D01*
X12054059Y2988743D01*
X11882400Y3081558D01*
X11882400Y3683000D01*
X12755600Y3683000D01*
X12755600Y3502939D01*
X12759678Y3461346D01*
X12763320Y3419720D01*
X12763984Y3417435D01*
X12764216Y3415067D01*
X12776299Y3375047D01*
X12787953Y3334932D01*
X12789047Y3332821D01*
X12789735Y3330543D01*
X12809370Y3293614D01*
X12828586Y3256544D01*
X12830068Y3254687D01*
X12831186Y3252585D01*
X12857621Y3220172D01*
X12883670Y3187541D01*
X12886931Y3184235D01*
X12886990Y3184162D01*
X12887057Y3184106D01*
X12888105Y3183044D01*
X13040960Y3030189D01*
X13109187Y2974146D01*
X13187000Y2932423D01*
X13253036Y2912234D01*
X13189176Y2860889D01*
X13049173Y2694040D01*
X12944245Y2503176D01*
X12878387Y2295566D01*
X12854109Y2079119D01*
X12854000Y2063537D01*
X12854000Y1746463D01*
X12875254Y1529697D01*
X12938207Y1321188D01*
X13040460Y1128878D01*
X13178119Y960091D01*
X13345941Y821257D01*
X13537533Y717664D01*
X13745597Y653257D01*
X13962209Y630490D01*
X14179118Y650230D01*
X14388061Y711726D01*
X14581081Y812634D01*
X14750824Y949111D01*
X14890827Y1115960D01*
X14995755Y1306824D01*
X15061613Y1514434D01*
X15085891Y1730881D01*
X15086000Y1746463D01*
X15086000Y2063537D01*
X15064746Y2280303D01*
X15001793Y2488812D01*
X14899540Y2681122D01*
X14761881Y2849909D01*
X14594059Y2988743D01*
X14402467Y3092336D01*
X14194403Y3156743D01*
X13977791Y3179510D01*
X13770377Y3160634D01*
X13777292Y3173317D01*
X13803695Y3257570D01*
X13813230Y3345347D01*
X13805535Y3433303D01*
X13780902Y3518091D01*
X13740270Y3596479D01*
X13685185Y3665482D01*
X13680750Y3669979D01*
X13659603Y3691126D01*
X13651784Y3770872D01*
X13626265Y3855396D01*
X13584814Y3933354D01*
X13529010Y4001777D01*
X13460979Y4058057D01*
X13383312Y4100051D01*
X13298968Y4126160D01*
X13211158Y4135389D01*
X13123229Y4127387D01*
X13038528Y4102458D01*
X12960282Y4061552D01*
X12891472Y4006227D01*
X12834719Y3938591D01*
X12792183Y3861219D01*
X12765486Y3777059D01*
X12755644Y3689316D01*
X12755600Y3683000D01*
X11882400Y3683000D01*
X11882400Y10367149D01*
X12523068Y10367149D01*
X12542793Y10259672D01*
X12583019Y10158073D01*
X12642213Y10066222D01*
X12718120Y9987618D01*
X12807849Y9925254D01*
X12907983Y9881507D01*
X13014706Y9858043D01*
X13123955Y9855754D01*
X13231567Y9874729D01*
X13333445Y9914245D01*
X13425706Y9972796D01*
X13504839Y10048152D01*
X13567827Y10137444D01*
X13612272Y10237269D01*
X13636481Y10343826D01*
X13638224Y10468636D01*
X13637527Y10472158D01*
X13674561Y10509193D01*
X13667593Y10476411D01*
X13666068Y10367149D01*
X13685793Y10259672D01*
X13726019Y10158073D01*
X13785213Y10066222D01*
X13861120Y9987618D01*
X13950849Y9925254D01*
X13994407Y9906224D01*
X13964602Y9894182D01*
X13873167Y9834348D01*
X13795095Y9757894D01*
X13733359Y9667732D01*
X13690312Y9567296D01*
X13667593Y9460411D01*
X13666068Y9351149D01*
X13685793Y9243672D01*
X13726019Y9142073D01*
X13785213Y9050222D01*
X13861120Y8971618D01*
X13950849Y8909254D01*
X14050983Y8865507D01*
X14157706Y8842043D01*
X14266955Y8839754D01*
X14374567Y8858729D01*
X14476445Y8898245D01*
X14568706Y8956796D01*
X14647839Y9032152D01*
X14710827Y9121444D01*
X14755272Y9221269D01*
X14773068Y9299600D01*
X17209768Y9299600D01*
X17360551Y9148816D01*
X17385741Y9128125D01*
X17410642Y9107230D01*
X17412263Y9106339D01*
X17413697Y9105161D01*
X17442415Y9089763D01*
X17470911Y9074097D01*
X17472676Y9073537D01*
X17474310Y9072661D01*
X17505428Y9063148D01*
X17536468Y9053301D01*
X17538312Y9053094D01*
X17540082Y9052553D01*
X17572441Y9049266D01*
X17599015Y9046285D01*
X17671120Y8971618D01*
X17760849Y8909254D01*
X17860983Y8865507D01*
X17967706Y8842043D01*
X18076955Y8839754D01*
X18184567Y8858729D01*
X18286445Y8898245D01*
X18378706Y8956796D01*
X18457839Y9032152D01*
X18520827Y9121444D01*
X18565272Y9221269D01*
X18589481Y9327826D01*
X18591224Y9452636D01*
X18569999Y9559828D01*
X18528359Y9660855D01*
X18515240Y9680600D01*
X18949170Y9680600D01*
X18940359Y9667732D01*
X18897312Y9567296D01*
X18874593Y9460411D01*
X18873068Y9351149D01*
X18892793Y9243672D01*
X18933019Y9142073D01*
X18992213Y9050222D01*
X19068120Y8971618D01*
X19157849Y8909254D01*
X19257983Y8865507D01*
X19364706Y8842043D01*
X19473955Y8839754D01*
X19581567Y8858729D01*
X19683445Y8898245D01*
X19775706Y8956796D01*
X19854839Y9032152D01*
X19864325Y9045600D01*
X20066000Y9045600D01*
X20098462Y9048783D01*
X20130825Y9051614D01*
X20132601Y9052130D01*
X20134448Y9052311D01*
X20165653Y9061733D01*
X20196870Y9070802D01*
X20198514Y9071654D01*
X20200289Y9072190D01*
X20229037Y9087476D01*
X20257931Y9102453D01*
X20259380Y9103609D01*
X20261015Y9104479D01*
X20286246Y9125057D01*
X20311681Y9145361D01*
X20314255Y9147900D01*
X20314313Y9147947D01*
X20314358Y9148001D01*
X20315184Y9148816D01*
X20465969Y9299600D01*
X23095032Y9299600D01*
X27587600Y4807031D01*
X27587600Y3022600D01*
X27590783Y2990138D01*
X27593614Y2957775D01*
X27594130Y2955999D01*
X27594311Y2954152D01*
X27603733Y2922947D01*
X27612802Y2891730D01*
X27613654Y2890086D01*
X27614190Y2888311D01*
X27629476Y2859563D01*
X27644453Y2830669D01*
X27645609Y2829220D01*
X27646479Y2827585D01*
X27667057Y2802354D01*
X27687361Y2776919D01*
X27689900Y2774345D01*
X27689947Y2774287D01*
X27690001Y2774242D01*
X27690816Y2773416D01*
X28059197Y2405035D01*
X28022664Y2337467D01*
X27958257Y2129403D01*
X27935490Y1912791D01*
X27955230Y1695882D01*
X28016726Y1486939D01*
X28117634Y1293919D01*
X28254111Y1124176D01*
X28420960Y984173D01*
X28611824Y879245D01*
X28819434Y813387D01*
X29035881Y789109D01*
X29051463Y789000D01*
X29368537Y789000D01*
X29585303Y810254D01*
X29793812Y873207D01*
X29986122Y975460D01*
X30154909Y1113119D01*
X30293743Y1280941D01*
X30397336Y1472533D01*
X30461743Y1680597D01*
X30484510Y1897209D01*
X30464770Y2114118D01*
X30403274Y2323061D01*
X30302366Y2516081D01*
X30165889Y2685824D01*
X29999040Y2825827D01*
X29808176Y2930755D01*
X29600566Y2996613D01*
X29384119Y3020891D01*
X29368537Y3021000D01*
X29051463Y3021000D01*
X28834697Y2999746D01*
X28626188Y2936793D01*
X28559587Y2901381D01*
X28292400Y3168568D01*
X28292400Y3632048D01*
X28420960Y3524173D01*
X28611824Y3419245D01*
X28819434Y3353387D01*
X29035881Y3329109D01*
X29051463Y3329000D01*
X29368537Y3329000D01*
X29585303Y3350254D01*
X29793812Y3413207D01*
X29986122Y3515460D01*
X30154909Y3653119D01*
X30293743Y3820941D01*
X30397336Y4012533D01*
X30461743Y4220597D01*
X30484510Y4437209D01*
X30464770Y4654118D01*
X30403274Y4863061D01*
X30302366Y5056081D01*
X30165889Y5225824D01*
X29999040Y5365827D01*
X29808176Y5470755D01*
X29600566Y5536613D01*
X29384119Y5560891D01*
X29368537Y5561000D01*
X29051463Y5561000D01*
X28834697Y5539746D01*
X28626188Y5476793D01*
X28559588Y5441381D01*
X27368369Y6632600D01*
X27997401Y6632600D01*
X28016726Y6566939D01*
X28117634Y6373919D01*
X28254111Y6204176D01*
X28420960Y6064173D01*
X28611824Y5959245D01*
X28819434Y5893387D01*
X29035881Y5869109D01*
X29051463Y5869000D01*
X29368537Y5869000D01*
X29585303Y5890254D01*
X29793812Y5953207D01*
X29986122Y6055460D01*
X30154909Y6193119D01*
X30293743Y6360941D01*
X30397336Y6552533D01*
X30461743Y6760597D01*
X30484510Y6977209D01*
X30464770Y7194118D01*
X30403274Y7403061D01*
X30302366Y7596081D01*
X30165889Y7765824D01*
X29999040Y7905827D01*
X29808176Y8010755D01*
X29600566Y8076613D01*
X29384119Y8100891D01*
X29368537Y8101000D01*
X29051463Y8101000D01*
X28834697Y8079746D01*
X28626188Y8016793D01*
X28433878Y7914540D01*
X28265091Y7776881D01*
X28126257Y7609059D01*
X28022664Y7417467D01*
X27997879Y7337400D01*
X27323969Y7337400D01*
X25128578Y9532791D01*
X27935490Y9532791D01*
X27955230Y9315882D01*
X28016726Y9106939D01*
X28117634Y8913919D01*
X28254111Y8744176D01*
X28420960Y8604173D01*
X28611824Y8499245D01*
X28819434Y8433387D01*
X29035881Y8409109D01*
X29051463Y8409000D01*
X29368537Y8409000D01*
X29585303Y8430254D01*
X29793812Y8493207D01*
X29986122Y8595460D01*
X30154909Y8733119D01*
X30293743Y8900941D01*
X30397336Y9092533D01*
X30461743Y9300597D01*
X30484510Y9517209D01*
X30464770Y9734118D01*
X30403274Y9943061D01*
X30302366Y10136081D01*
X30165889Y10305824D01*
X29999040Y10445827D01*
X29808176Y10550755D01*
X29600566Y10616613D01*
X29384119Y10640891D01*
X29368537Y10641000D01*
X29051463Y10641000D01*
X28834697Y10619746D01*
X28626188Y10556793D01*
X28433878Y10454540D01*
X28265091Y10316881D01*
X28126257Y10149059D01*
X28022664Y9957467D01*
X27958257Y9749403D01*
X27935490Y9532791D01*
X25128578Y9532791D01*
X24736400Y9924968D01*
X24736400Y11811000D01*
X24733217Y11843465D01*
X24730386Y11875825D01*
X24729870Y11877601D01*
X24729689Y11879448D01*
X24720267Y11910653D01*
X24711198Y11941870D01*
X24710346Y11943514D01*
X24709810Y11945289D01*
X24694524Y11974037D01*
X24679547Y12002931D01*
X24678390Y12004380D01*
X24677521Y12006015D01*
X24656968Y12031216D01*
X24636640Y12056681D01*
X24634096Y12059261D01*
X24634053Y12059313D01*
X24634004Y12059353D01*
X24633185Y12060184D01*
X24177661Y12515708D01*
X24177926Y12534705D01*
X24896815Y11815816D01*
X24922005Y11795125D01*
X24946906Y11774230D01*
X24948527Y11773339D01*
X24949961Y11772161D01*
X24978679Y11756763D01*
X25007175Y11741097D01*
X25008940Y11740537D01*
X25010574Y11739661D01*
X25041692Y11730148D01*
X25072732Y11720301D01*
X25074576Y11720094D01*
X25076346Y11719553D01*
X25108701Y11716266D01*
X25141080Y11712634D01*
X25144701Y11712609D01*
X25144770Y11712602D01*
X25144834Y11712608D01*
X25146000Y11712600D01*
X27997401Y11712600D01*
X28016726Y11646939D01*
X28117634Y11453919D01*
X28254111Y11284176D01*
X28420960Y11144173D01*
X28611824Y11039245D01*
X28819434Y10973387D01*
X29035881Y10949109D01*
X29051463Y10949000D01*
X29368537Y10949000D01*
X29585303Y10970254D01*
X29793812Y11033207D01*
X29986122Y11135460D01*
X30154909Y11273119D01*
X30293743Y11440941D01*
X30397336Y11632533D01*
X30461743Y11840597D01*
X30484510Y12057209D01*
X30464770Y12274118D01*
X30403274Y12483061D01*
X30302366Y12676081D01*
X30165889Y12845824D01*
X29999040Y12985827D01*
X29808176Y13090755D01*
X29600566Y13156613D01*
X29384119Y13180891D01*
X29368537Y13181000D01*
X29051463Y13181000D01*
X28834697Y13159746D01*
X28626188Y13096793D01*
X28433878Y12994540D01*
X28265091Y12856881D01*
X28126257Y12689059D01*
X28022664Y12497467D01*
X27997879Y12417400D01*
X25291969Y12417400D01*
X24252184Y13457184D01*
X24227020Y13477855D01*
X24202094Y13498770D01*
X24200473Y13499661D01*
X24199039Y13500839D01*
X24170321Y13516237D01*
X24141825Y13531903D01*
X24140060Y13532463D01*
X24138426Y13533339D01*
X24107308Y13542852D01*
X24076268Y13552699D01*
X24074424Y13552906D01*
X24072654Y13553447D01*
X24040299Y13556734D01*
X24007920Y13560366D01*
X24004299Y13560391D01*
X24004230Y13560398D01*
X24004166Y13560392D01*
X24003000Y13560400D01*
X23241000Y13560400D01*
X23208538Y13557217D01*
X23176175Y13554386D01*
X23174399Y13553870D01*
X23172552Y13553689D01*
X23141347Y13544267D01*
X23110130Y13535198D01*
X23108486Y13534346D01*
X23106711Y13533810D01*
X23077963Y13518524D01*
X23049069Y13503547D01*
X23047620Y13502390D01*
X23045985Y13501521D01*
X23020778Y13480963D01*
X22995318Y13460639D01*
X22992739Y13458096D01*
X22992687Y13458053D01*
X22992647Y13458004D01*
X22991815Y13457184D01*
X22737816Y13203184D01*
X22717145Y13178020D01*
X22696230Y13153094D01*
X22695339Y13151473D01*
X22694161Y13150039D01*
X22678763Y13121321D01*
X22663097Y13092825D01*
X22662537Y13091060D01*
X22661661Y13089426D01*
X22652148Y13058308D01*
X22642301Y13027268D01*
X22642094Y13025424D01*
X22641553Y13023654D01*
X22638266Y12991299D01*
X22634634Y12958920D01*
X22634609Y12955299D01*
X22634602Y12955230D01*
X22634608Y12955166D01*
X22634600Y12954000D01*
X22634600Y11448969D01*
X22333032Y11147400D01*
X16828909Y11147400D01*
X16255311Y11720997D01*
X16230147Y11741668D01*
X16205221Y11762583D01*
X16203600Y11763474D01*
X16202166Y11764652D01*
X16173448Y11780050D01*
X16144952Y11795716D01*
X16143187Y11796276D01*
X16141553Y11797152D01*
X16110435Y11806665D01*
X16079395Y11816512D01*
X16077551Y11816719D01*
X16075781Y11817260D01*
X16043426Y11820547D01*
X16011047Y11824179D01*
X16007426Y11824204D01*
X16007357Y11824211D01*
X16007293Y11824205D01*
X16006127Y11824213D01*
X14138813Y11824213D01*
X14106351Y11821030D01*
X14073988Y11818199D01*
X14072212Y11817683D01*
X14070365Y11817502D01*
X14039160Y11808080D01*
X14007943Y11799011D01*
X14006299Y11798159D01*
X14004524Y11797623D01*
X13975776Y11782337D01*
X13946882Y11767360D01*
X13945433Y11766203D01*
X13943798Y11765334D01*
X13918591Y11744776D01*
X13893131Y11724452D01*
X13890552Y11721909D01*
X13890500Y11721866D01*
X13890460Y11721817D01*
X13889628Y11720997D01*
X13139461Y10970829D01*
X13030255Y10971592D01*
X12922918Y10951116D01*
X12821602Y10910182D01*
X12730167Y10850348D01*
X12652095Y10773894D01*
X12590359Y10683732D01*
X12547312Y10583296D01*
X12524593Y10476411D01*
X12523068Y10367149D01*
X11882400Y10367149D01*
X11882400Y12065000D01*
X11878322Y12106593D01*
X11874680Y12148219D01*
X11874016Y12150504D01*
X11873784Y12152872D01*
X11861701Y12192892D01*
X11850047Y12233007D01*
X11848953Y12235118D01*
X11848265Y12237396D01*
X11828651Y12274285D01*
X11809415Y12311395D01*
X11807930Y12313255D01*
X11806814Y12315354D01*
X11780401Y12347740D01*
X11754330Y12380398D01*
X11751069Y12383704D01*
X11751010Y12383777D01*
X11750943Y12383833D01*
X11749895Y12384895D01*
X10075328Y14059462D01*
X10060999Y14131828D01*
X10019359Y14232855D01*
X9958888Y14323871D01*
X9881891Y14401407D01*
X9791300Y14462512D01*
X9690566Y14504857D01*
X9583525Y14526829D01*
X9474255Y14527592D01*
X9366918Y14507116D01*
X9265602Y14466182D01*
X9174167Y14406348D01*
X9096095Y14329894D01*
X9034359Y14239732D01*
X8991312Y14139296D01*
X8968593Y14032411D01*
X8967068Y13923149D01*
X6674517Y13923149D01*
X6948732Y14197364D01*
X7045706Y14176043D01*
X7154955Y14173754D01*
X7262567Y14192729D01*
X7364445Y14232245D01*
X7456706Y14290796D01*
X7535839Y14366152D01*
X7598827Y14455444D01*
X7637317Y14541895D01*
X27941600Y14541895D01*
X27941600Y13716541D01*
X27951300Y13667777D01*
X27970326Y13621844D01*
X27997948Y13580504D01*
X28033105Y13545348D01*
X28074444Y13517726D01*
X28120378Y13498700D01*
X28169141Y13489000D01*
X29146895Y13489000D01*
X29209995Y13552100D01*
X29209995Y14604995D01*
X29210005Y14604995D01*
X29210005Y13552100D01*
X29273105Y13489000D01*
X30250859Y13489000D01*
X30299622Y13498700D01*
X30345556Y13517726D01*
X30386895Y13545348D01*
X30422052Y13580504D01*
X30449674Y13621844D01*
X30468700Y13667777D01*
X30478400Y13716541D01*
X30478400Y14541895D01*
X30415300Y14604995D01*
X29210005Y14604995D01*
X29209995Y14604995D01*
X28004700Y14604995D01*
X27941600Y14541895D01*
X7637317Y14541895D01*
X7643272Y14555269D01*
X7667481Y14661826D01*
X7669224Y14786636D01*
X7647999Y14893828D01*
X7606359Y14994855D01*
X7545888Y15085871D01*
X7468891Y15163407D01*
X7378300Y15224512D01*
X7277566Y15266857D01*
X7170525Y15288829D01*
X7061255Y15289592D01*
X6953918Y15269116D01*
X6852602Y15228182D01*
X6761167Y15168348D01*
X6683095Y15091894D01*
X6621359Y15001732D01*
X6578312Y14901296D01*
X6557361Y14802729D01*
X4884461Y13129829D01*
X4775255Y13130592D01*
X4667918Y13110116D01*
X4566602Y13069182D01*
X4475167Y13009348D01*
X4397095Y12932894D01*
X4335359Y12842732D01*
X4292312Y12742296D01*
X4269593Y12635411D01*
X4268068Y12526149D01*
X327400Y12526149D01*
X327400Y15493459D01*
X27941600Y15493459D01*
X27941600Y14668105D01*
X28004700Y14605005D01*
X29209995Y14605005D01*
X29209995Y15657900D01*
X29210005Y15657900D01*
X29210005Y14605005D01*
X30415300Y14605005D01*
X30478400Y14668105D01*
X30478400Y15493459D01*
X30468700Y15542223D01*
X30449674Y15588156D01*
X30422052Y15629496D01*
X30386895Y15664652D01*
X30345556Y15692274D01*
X30299622Y15711300D01*
X30250859Y15721000D01*
X29273105Y15721000D01*
X29210005Y15657900D01*
X29209995Y15657900D01*
X29146895Y15721000D01*
X28169141Y15721000D01*
X28120378Y15711300D01*
X28074444Y15692274D01*
X28033105Y15664652D01*
X27997948Y15629496D01*
X27970326Y15588156D01*
X27951300Y15542223D01*
X27941600Y15493459D01*
X327400Y15493459D01*
X327400Y16182600D01*
X30787600Y16182600D01*
X30787600Y327400D01*
G36*
X30787600Y18107400D02*
X24614590Y18107400D01*
X24922569Y18415379D01*
X26263600Y18415379D01*
X26303794Y18418584D01*
X26371967Y18439696D01*
X26431559Y18478965D01*
X26477852Y18533281D01*
X26507180Y18598343D01*
X26517221Y18669000D01*
X26517221Y20701000D01*
X26514016Y20741194D01*
X26492904Y20809367D01*
X26453635Y20868959D01*
X26399319Y20915252D01*
X26334257Y20944580D01*
X26263600Y20954621D01*
X24536400Y20954621D01*
X24496206Y20951416D01*
X24428033Y20930304D01*
X24368441Y20891035D01*
X24322148Y20836719D01*
X24292820Y20771657D01*
X24282779Y20701000D01*
X24282779Y19055169D01*
X23949010Y18721400D01*
X23631233Y18721400D01*
X23640824Y18729111D01*
X23780827Y18895960D01*
X23885755Y19086824D01*
X23951613Y19294434D01*
X23975891Y19510881D01*
X23976000Y19526463D01*
X23976000Y19843537D01*
X23954746Y20060303D01*
X23891793Y20268812D01*
X23789540Y20461122D01*
X23651881Y20629909D01*
X23484059Y20768743D01*
X23292467Y20872336D01*
X23084403Y20936743D01*
X22867791Y20959510D01*
X22650882Y20939770D01*
X22441939Y20878274D01*
X22248919Y20777366D01*
X22079176Y20640889D01*
X21939173Y20474040D01*
X21834245Y20283176D01*
X21768387Y20075566D01*
X21744109Y19859119D01*
X21744000Y19843537D01*
X21744000Y19526463D01*
X21765254Y19309697D01*
X21828207Y19101188D01*
X21930460Y18908878D01*
X22068119Y18740091D01*
X22090713Y18721400D01*
X21091233Y18721400D01*
X21100824Y18729111D01*
X21240827Y18895960D01*
X21345755Y19086824D01*
X21411613Y19294434D01*
X21435891Y19510881D01*
X21436000Y19526463D01*
X21436000Y19843537D01*
X21414746Y20060303D01*
X21351793Y20268812D01*
X21249540Y20461122D01*
X21111881Y20629909D01*
X20944059Y20768743D01*
X20752467Y20872336D01*
X20544403Y20936743D01*
X20327791Y20959510D01*
X20110882Y20939770D01*
X19901939Y20878274D01*
X19708919Y20777366D01*
X19539176Y20640889D01*
X19399173Y20474040D01*
X19294245Y20283176D01*
X19228387Y20075566D01*
X19204109Y19859119D01*
X19204000Y19843537D01*
X19204000Y19526463D01*
X19225254Y19309697D01*
X19288207Y19101188D01*
X19390460Y18908878D01*
X19528119Y18740091D01*
X19550713Y18721400D01*
X17960990Y18721400D01*
X17627221Y19055169D01*
X17627221Y20701000D01*
X17624016Y20741194D01*
X17602904Y20809367D01*
X17563635Y20868959D01*
X17509319Y20915252D01*
X17444257Y20944580D01*
X17373600Y20954621D01*
X16962400Y20954621D01*
X16962400Y22479000D01*
X16958317Y22520639D01*
X16954679Y22562220D01*
X16954017Y22564500D01*
X16953784Y22566872D01*
X16941693Y22606921D01*
X16930047Y22647007D01*
X16928953Y22649118D01*
X16928265Y22651396D01*
X16908630Y22688325D01*
X16889414Y22725395D01*
X16887932Y22727252D01*
X16886814Y22729354D01*
X16860379Y22761767D01*
X16834330Y22794398D01*
X16831069Y22797704D01*
X16831010Y22797777D01*
X16830943Y22797833D01*
X16829895Y22798895D01*
X14647328Y24981462D01*
X14632999Y25053828D01*
X14591359Y25154855D01*
X14530888Y25245871D01*
X14453891Y25323407D01*
X14363300Y25384512D01*
X14262566Y25426857D01*
X14186272Y25442518D01*
X13377328Y26251462D01*
X13362999Y26323828D01*
X13321359Y26424855D01*
X13260888Y26515871D01*
X13183891Y26593407D01*
X13093300Y26654512D01*
X12992566Y26696857D01*
X12885525Y26718829D01*
X12776255Y26719592D01*
X12668918Y26699116D01*
X12567602Y26658182D01*
X12476167Y26598348D01*
X12398095Y26521894D01*
X12336359Y26431732D01*
X12293312Y26331296D01*
X12270593Y26224411D01*
X12269068Y26115149D01*
X12288793Y26007672D01*
X12329019Y25906073D01*
X12388213Y25814222D01*
X12464120Y25735618D01*
X12553849Y25673254D01*
X12653983Y25629507D01*
X12738224Y25610986D01*
X13546937Y24802273D01*
X13558793Y24737672D01*
X13599019Y24636073D01*
X13658213Y24544222D01*
X13734120Y24465618D01*
X13823849Y24403254D01*
X13923983Y24359507D01*
X14008224Y24340986D01*
X16057600Y22291610D01*
X16057600Y20954621D01*
X15646400Y20954621D01*
X15606206Y20951416D01*
X15538033Y20930304D01*
X15478441Y20891035D01*
X15432148Y20836719D01*
X15402820Y20771657D01*
X15392779Y20701000D01*
X15392779Y18669000D01*
X15395984Y18628806D01*
X15417096Y18560633D01*
X15456365Y18501041D01*
X15510681Y18454748D01*
X15575743Y18425420D01*
X15646400Y18415379D01*
X16987431Y18415379D01*
X17295410Y18107400D01*
X327400Y18107400D01*
X327400Y19843537D01*
X1424000Y19843537D01*
X1424000Y19526463D01*
X1445254Y19309697D01*
X1508207Y19101188D01*
X1610460Y18908878D01*
X1748119Y18740091D01*
X1915941Y18601257D01*
X2107533Y18497664D01*
X2315597Y18433257D01*
X2532209Y18410490D01*
X2749118Y18430230D01*
X2958061Y18491726D01*
X3151081Y18592634D01*
X3320824Y18729111D01*
X3460827Y18895960D01*
X3565755Y19086824D01*
X3631613Y19294434D01*
X3655891Y19510881D01*
X3656000Y19526463D01*
X3656000Y19843537D01*
X3964000Y19843537D01*
X3964000Y19526463D01*
X3985254Y19309697D01*
X4048207Y19101188D01*
X4150460Y18908878D01*
X4288119Y18740091D01*
X4455941Y18601257D01*
X4647533Y18497664D01*
X4855597Y18433257D01*
X5072209Y18410490D01*
X5289118Y18430230D01*
X5498061Y18491726D01*
X5691081Y18592634D01*
X5860824Y18729111D01*
X6000827Y18895960D01*
X6105755Y19086824D01*
X6171613Y19294434D01*
X6195891Y19510881D01*
X6196000Y19526463D01*
X6196000Y19843537D01*
X6174746Y20060303D01*
X6111793Y20268812D01*
X6009540Y20461122D01*
X5871881Y20629909D01*
X5785947Y20701000D01*
X6502779Y20701000D01*
X6502779Y18669000D01*
X6505984Y18628806D01*
X6527096Y18560633D01*
X6566365Y18501041D01*
X6620681Y18454748D01*
X6685743Y18425420D01*
X6756400Y18415379D01*
X8483600Y18415379D01*
X8523794Y18418584D01*
X8591967Y18439696D01*
X8651559Y18478965D01*
X8697852Y18533281D01*
X8727180Y18598343D01*
X8737221Y18669000D01*
X8737221Y20701000D01*
X8734016Y20741194D01*
X8712904Y20809367D01*
X8673635Y20868959D01*
X8619319Y20915252D01*
X8554257Y20944580D01*
X8483600Y20954621D01*
X6756400Y20954621D01*
X6716206Y20951416D01*
X6648033Y20930304D01*
X6588441Y20891035D01*
X6542148Y20836719D01*
X6512820Y20771657D01*
X6502779Y20701000D01*
X5785947Y20701000D01*
X5704059Y20768743D01*
X5512467Y20872336D01*
X5304403Y20936743D01*
X5087791Y20959510D01*
X4870882Y20939770D01*
X4661939Y20878274D01*
X4468919Y20777366D01*
X4299176Y20640889D01*
X4159173Y20474040D01*
X4054245Y20283176D01*
X3988387Y20075566D01*
X3964109Y19859119D01*
X3964000Y19843537D01*
X3656000Y19843537D01*
X3634746Y20060303D01*
X3571793Y20268812D01*
X3469540Y20461122D01*
X3331881Y20629909D01*
X3164059Y20768743D01*
X2972467Y20872336D01*
X2764403Y20936743D01*
X2547791Y20959510D01*
X2330882Y20939770D01*
X2121939Y20878274D01*
X1928919Y20777366D01*
X1759176Y20640889D01*
X1619173Y20474040D01*
X1514245Y20283176D01*
X1448387Y20075566D01*
X1424109Y19859119D01*
X1424000Y19843537D01*
X327400Y19843537D01*
X327400Y22418194D01*
X384404Y22418194D01*
X389596Y22389120D01*
X432411Y22247975D01*
X501939Y22117894D01*
X595509Y22003877D01*
X709524Y21910305D01*
X839604Y21840775D01*
X980749Y21797958D01*
X1127535Y21783500D01*
X1402535Y21783500D01*
X1402535Y22535895D01*
X1402545Y22535895D01*
X1402545Y21783500D01*
X1677545Y21783500D01*
X1824331Y21797958D01*
X1965476Y21840775D01*
X2095556Y21910305D01*
X2209571Y22003877D01*
X2303141Y22117894D01*
X2372669Y22247975D01*
X2415484Y22389120D01*
X2420676Y22418194D01*
X2366840Y22535895D01*
X1402545Y22535895D01*
X1402535Y22535895D01*
X438240Y22535895D01*
X384404Y22418194D01*
X327400Y22418194D01*
X327400Y22653606D01*
X384404Y22653606D01*
X438240Y22535905D01*
X1402535Y22535905D01*
X1402535Y23288300D01*
X1402545Y23288300D01*
X1402545Y22535905D01*
X2366840Y22535905D01*
X2420676Y22653606D01*
X2415484Y22682680D01*
X2372669Y22823825D01*
X2303141Y22953906D01*
X2209571Y23067923D01*
X2095556Y23161495D01*
X1965476Y23231025D01*
X1824331Y23273842D01*
X1677545Y23288300D01*
X1402545Y23288300D01*
X1402535Y23288300D01*
X1127535Y23288300D01*
X980749Y23273842D01*
X839604Y23231025D01*
X709524Y23161495D01*
X595509Y23067923D01*
X501939Y22953906D01*
X432411Y22823825D01*
X389596Y22682680D01*
X384404Y22653606D01*
X327400Y22653606D01*
X327400Y23535895D01*
X3375140Y23535895D01*
X3375140Y23385895D01*
X3389118Y23243986D01*
X3430512Y23107531D01*
X3497732Y22981774D01*
X3588194Y22871547D01*
X3698422Y22781086D01*
X3824180Y22713868D01*
X3960636Y22672476D01*
X3988745Y22667456D01*
X4102535Y22721600D01*
X4102535Y23535895D01*
X4102545Y23535895D01*
X4102545Y22721600D01*
X4216335Y22667456D01*
X4244444Y22672476D01*
X4380900Y22713868D01*
X4506658Y22781086D01*
X4616886Y22871547D01*
X4707348Y22981774D01*
X4774568Y23107531D01*
X4815962Y23243986D01*
X4829940Y23385895D01*
X4829940Y23535895D01*
X4102545Y23535895D01*
X4102535Y23535895D01*
X3375140Y23535895D01*
X327400Y23535895D01*
X327400Y23685905D01*
X3375140Y23685905D01*
X3375140Y23535905D01*
X4102535Y23535905D01*
X4102535Y24350200D01*
X4102545Y24350200D01*
X4102545Y23535905D01*
X4829940Y23535905D01*
X4829940Y23685905D01*
X4815962Y23827814D01*
X4774568Y23964269D01*
X4707348Y24090026D01*
X4616886Y24200253D01*
X4506658Y24290714D01*
X4380900Y24357932D01*
X4244444Y24399324D01*
X4216335Y24404344D01*
X4102545Y24350200D01*
X4102535Y24350200D01*
X3988745Y24404344D01*
X3960636Y24399324D01*
X3824180Y24357932D01*
X3698422Y24290714D01*
X3588194Y24200253D01*
X3497732Y24090026D01*
X3430512Y23964269D01*
X3389118Y23827814D01*
X3375140Y23685905D01*
X327400Y23685905D01*
X327400Y28535895D01*
X3375140Y28535895D01*
X3375140Y28385895D01*
X3389118Y28243986D01*
X3430512Y28107531D01*
X3497732Y27981774D01*
X3588194Y27871547D01*
X3698422Y27781086D01*
X3824180Y27713868D01*
X3960636Y27672476D01*
X3988745Y27667456D01*
X4102535Y27721600D01*
X4102535Y28535895D01*
X4102545Y28535895D01*
X4102545Y27721600D01*
X4216335Y27667456D01*
X4244444Y27672476D01*
X4380900Y27713868D01*
X4506658Y27781086D01*
X4616886Y27871547D01*
X4707348Y27981774D01*
X4774568Y28107531D01*
X4815962Y28243986D01*
X4829940Y28385895D01*
X4829940Y28535895D01*
X4102545Y28535895D01*
X4102535Y28535895D01*
X3375140Y28535895D01*
X327400Y28535895D01*
X327400Y28685905D01*
X3375140Y28685905D01*
X3375140Y28535905D01*
X4102535Y28535905D01*
X4102535Y29350200D01*
X4102545Y29350200D01*
X4102545Y28535905D01*
X4829940Y28535905D01*
X4829940Y28685905D01*
X4815962Y28827814D01*
X4774568Y28964269D01*
X4707348Y29090026D01*
X4616886Y29200253D01*
X4506658Y29290714D01*
X4380900Y29357932D01*
X4244444Y29399324D01*
X4216335Y29404344D01*
X4102545Y29350200D01*
X4102535Y29350200D01*
X3988745Y29404344D01*
X3960636Y29399324D01*
X3824180Y29357932D01*
X3698422Y29290714D01*
X3588194Y29200253D01*
X3497732Y29090026D01*
X3430512Y28964269D01*
X3389118Y28827814D01*
X3375140Y28685905D01*
X327400Y28685905D01*
X327400Y29418194D01*
X384404Y29418194D01*
X389596Y29389120D01*
X432411Y29247975D01*
X501939Y29117894D01*
X595509Y29003877D01*
X709524Y28910305D01*
X839604Y28840775D01*
X980749Y28797958D01*
X1127535Y28783500D01*
X1402535Y28783500D01*
X1402535Y29535895D01*
X1402545Y29535895D01*
X1402545Y28783500D01*
X1677545Y28783500D01*
X1824331Y28797958D01*
X1965476Y28840775D01*
X2095556Y28910305D01*
X2209571Y29003877D01*
X2303141Y29117894D01*
X2372669Y29247975D01*
X2415484Y29389120D01*
X2420676Y29418194D01*
X2366840Y29535895D01*
X1402545Y29535895D01*
X1402535Y29535895D01*
X438240Y29535895D01*
X384404Y29418194D01*
X327400Y29418194D01*
X327400Y29653606D01*
X384404Y29653606D01*
X438240Y29535905D01*
X1402535Y29535905D01*
X1402535Y30288300D01*
X1402545Y30288300D01*
X1402545Y29535905D01*
X2366840Y29535905D01*
X2420676Y29653606D01*
X2415484Y29682680D01*
X2372669Y29823825D01*
X2303141Y29953906D01*
X2209571Y30067923D01*
X2095556Y30161495D01*
X1965476Y30231025D01*
X1824331Y30273842D01*
X1677545Y30288300D01*
X1402545Y30288300D01*
X1402535Y30288300D01*
X1127535Y30288300D01*
X980749Y30273842D01*
X839604Y30231025D01*
X709524Y30161495D01*
X595509Y30067923D01*
X501939Y29953906D01*
X432411Y29823825D01*
X389596Y29682680D01*
X384404Y29653606D01*
X327400Y29653606D01*
X327400Y30306149D01*
X4268068Y30306149D01*
X4287793Y30198672D01*
X4328019Y30097073D01*
X4387213Y30005222D01*
X4463120Y29926618D01*
X4552849Y29864254D01*
X4652983Y29820507D01*
X4759706Y29797043D01*
X4868955Y29794754D01*
X4976567Y29813729D01*
X5078445Y29853245D01*
X5170706Y29911796D01*
X5249839Y29987152D01*
X5312827Y30076444D01*
X5357272Y30176269D01*
X5381481Y30282826D01*
X5383224Y30407636D01*
X5382527Y30411159D01*
X6674517Y31703149D01*
X8967068Y31703149D01*
X8986793Y31595672D01*
X9027019Y31494073D01*
X9086213Y31402222D01*
X9162120Y31323618D01*
X9251849Y31261254D01*
X9351983Y31217507D01*
X9436224Y31198986D01*
X10977600Y29657610D01*
X10977600Y20860322D01*
X10818919Y20777366D01*
X10649176Y20640889D01*
X10509173Y20474040D01*
X10404245Y20283176D01*
X10338387Y20075566D01*
X10314109Y19859119D01*
X10314000Y19843537D01*
X10314000Y19526463D01*
X10335254Y19309697D01*
X10398207Y19101188D01*
X10500460Y18908878D01*
X10638119Y18740091D01*
X10805941Y18601257D01*
X10997533Y18497664D01*
X11205597Y18433257D01*
X11422209Y18410490D01*
X11639118Y18430230D01*
X11848061Y18491726D01*
X12041081Y18592634D01*
X12210824Y18729111D01*
X12350827Y18895960D01*
X12455755Y19086824D01*
X12521613Y19294434D01*
X12545891Y19510881D01*
X12546000Y19526463D01*
X12546000Y19843537D01*
X12524746Y20060303D01*
X12461793Y20268812D01*
X12359540Y20461122D01*
X12221881Y20629909D01*
X12054059Y20768743D01*
X11882400Y20861558D01*
X11882400Y21463000D01*
X12755600Y21463000D01*
X12755600Y21282939D01*
X12759678Y21241346D01*
X12763320Y21199720D01*
X12763984Y21197435D01*
X12764216Y21195067D01*
X12776299Y21155047D01*
X12787953Y21114932D01*
X12789047Y21112821D01*
X12789735Y21110543D01*
X12809370Y21073614D01*
X12828586Y21036544D01*
X12830068Y21034687D01*
X12831186Y21032585D01*
X12857621Y21000172D01*
X12883670Y20967541D01*
X12886931Y20964235D01*
X12886990Y20964162D01*
X12887057Y20964106D01*
X12888105Y20963044D01*
X13040960Y20810189D01*
X13109187Y20754146D01*
X13187000Y20712423D01*
X13253036Y20692234D01*
X13189176Y20640889D01*
X13049173Y20474040D01*
X12944245Y20283176D01*
X12878387Y20075566D01*
X12854109Y19859119D01*
X12854000Y19843537D01*
X12854000Y19526463D01*
X12875254Y19309697D01*
X12938207Y19101188D01*
X13040460Y18908878D01*
X13178119Y18740091D01*
X13345941Y18601257D01*
X13537533Y18497664D01*
X13745597Y18433257D01*
X13962209Y18410490D01*
X14179118Y18430230D01*
X14388061Y18491726D01*
X14581081Y18592634D01*
X14750824Y18729111D01*
X14890827Y18895960D01*
X14995755Y19086824D01*
X15061613Y19294434D01*
X15085891Y19510881D01*
X15086000Y19526463D01*
X15086000Y19843537D01*
X15064746Y20060303D01*
X15001793Y20268812D01*
X14899540Y20461122D01*
X14761881Y20629909D01*
X14594059Y20768743D01*
X14402467Y20872336D01*
X14194403Y20936743D01*
X13977791Y20959510D01*
X13770377Y20940634D01*
X13777292Y20953317D01*
X13803695Y21037570D01*
X13813230Y21125347D01*
X13805535Y21213303D01*
X13780902Y21298091D01*
X13740270Y21376479D01*
X13685185Y21445482D01*
X13680750Y21449979D01*
X13659603Y21471126D01*
X13651784Y21550872D01*
X13626265Y21635396D01*
X13584814Y21713354D01*
X13529010Y21781777D01*
X13460979Y21838057D01*
X13383312Y21880051D01*
X13298968Y21906160D01*
X13211158Y21915389D01*
X13123229Y21907387D01*
X13038528Y21882458D01*
X12960282Y21841552D01*
X12891472Y21786227D01*
X12834719Y21718591D01*
X12792183Y21641219D01*
X12765486Y21557059D01*
X12755644Y21469316D01*
X12755600Y21463000D01*
X11882400Y21463000D01*
X11882400Y28147149D01*
X12523068Y28147149D01*
X12542793Y28039672D01*
X12583019Y27938073D01*
X12642213Y27846222D01*
X12718120Y27767618D01*
X12807849Y27705254D01*
X12907983Y27661507D01*
X13014706Y27638043D01*
X13123955Y27635754D01*
X13231567Y27654729D01*
X13333445Y27694245D01*
X13425706Y27752796D01*
X13504839Y27828152D01*
X13567827Y27917444D01*
X13612272Y28017269D01*
X13636481Y28123826D01*
X13638224Y28248636D01*
X13637527Y28252158D01*
X13674561Y28289193D01*
X13667593Y28256411D01*
X13666068Y28147149D01*
X13685793Y28039672D01*
X13726019Y27938073D01*
X13785213Y27846222D01*
X13861120Y27767618D01*
X13950849Y27705254D01*
X13994407Y27686224D01*
X13964602Y27674182D01*
X13873167Y27614348D01*
X13795095Y27537894D01*
X13733359Y27447732D01*
X13690312Y27347296D01*
X13667593Y27240411D01*
X13666068Y27131149D01*
X13685793Y27023672D01*
X13726019Y26922073D01*
X13785213Y26830222D01*
X13861120Y26751618D01*
X13950849Y26689254D01*
X14050983Y26645507D01*
X14157706Y26622043D01*
X14266955Y26619754D01*
X14374567Y26638729D01*
X14476445Y26678245D01*
X14568706Y26736796D01*
X14647839Y26812152D01*
X14710827Y26901444D01*
X14755272Y27001269D01*
X14773068Y27079600D01*
X17209768Y27079600D01*
X17360551Y26928816D01*
X17385741Y26908125D01*
X17410642Y26887230D01*
X17412263Y26886339D01*
X17413697Y26885161D01*
X17442415Y26869763D01*
X17470911Y26854097D01*
X17472676Y26853537D01*
X17474310Y26852661D01*
X17505428Y26843148D01*
X17536468Y26833301D01*
X17538312Y26833094D01*
X17540082Y26832553D01*
X17572441Y26829266D01*
X17599015Y26826285D01*
X17671120Y26751618D01*
X17760849Y26689254D01*
X17860983Y26645507D01*
X17967706Y26622043D01*
X18076955Y26619754D01*
X18184567Y26638729D01*
X18286445Y26678245D01*
X18378706Y26736796D01*
X18457839Y26812152D01*
X18520827Y26901444D01*
X18565272Y27001269D01*
X18589481Y27107826D01*
X18591224Y27232636D01*
X18569999Y27339828D01*
X18528359Y27440855D01*
X18515240Y27460600D01*
X18949170Y27460600D01*
X18940359Y27447732D01*
X18897312Y27347296D01*
X18874593Y27240411D01*
X18873068Y27131149D01*
X18892793Y27023672D01*
X18933019Y26922073D01*
X18992213Y26830222D01*
X19068120Y26751618D01*
X19157849Y26689254D01*
X19257983Y26645507D01*
X19364706Y26622043D01*
X19473955Y26619754D01*
X19581567Y26638729D01*
X19683445Y26678245D01*
X19775706Y26736796D01*
X19854839Y26812152D01*
X19864325Y26825600D01*
X20066000Y26825600D01*
X20098462Y26828783D01*
X20130825Y26831614D01*
X20132601Y26832130D01*
X20134448Y26832311D01*
X20165653Y26841733D01*
X20196870Y26850802D01*
X20198514Y26851654D01*
X20200289Y26852190D01*
X20229037Y26867476D01*
X20257931Y26882453D01*
X20259380Y26883609D01*
X20261015Y26884479D01*
X20286246Y26905057D01*
X20311681Y26925361D01*
X20314255Y26927900D01*
X20314313Y26927947D01*
X20314358Y26928001D01*
X20315184Y26928816D01*
X20465969Y27079600D01*
X23095032Y27079600D01*
X27587600Y22587031D01*
X27587600Y20802600D01*
X27590783Y20770138D01*
X27593614Y20737775D01*
X27594130Y20735999D01*
X27594311Y20734152D01*
X27603733Y20702947D01*
X27612802Y20671730D01*
X27613654Y20670086D01*
X27614190Y20668311D01*
X27629476Y20639563D01*
X27644453Y20610669D01*
X27645609Y20609220D01*
X27646479Y20607585D01*
X27667057Y20582354D01*
X27687361Y20556919D01*
X27689900Y20554345D01*
X27689947Y20554287D01*
X27690001Y20554242D01*
X27690816Y20553416D01*
X28059197Y20185035D01*
X28022664Y20117467D01*
X27958257Y19909403D01*
X27935490Y19692791D01*
X27955230Y19475882D01*
X28016726Y19266939D01*
X28117634Y19073919D01*
X28254111Y18904176D01*
X28420960Y18764173D01*
X28611824Y18659245D01*
X28819434Y18593387D01*
X29035881Y18569109D01*
X29051463Y18569000D01*
X29368537Y18569000D01*
X29585303Y18590254D01*
X29793812Y18653207D01*
X29986122Y18755460D01*
X30154909Y18893119D01*
X30293743Y19060941D01*
X30397336Y19252533D01*
X30461743Y19460597D01*
X30484510Y19677209D01*
X30464770Y19894118D01*
X30403274Y20103061D01*
X30302366Y20296081D01*
X30165889Y20465824D01*
X29999040Y20605827D01*
X29808176Y20710755D01*
X29600566Y20776613D01*
X29384119Y20800891D01*
X29368537Y20801000D01*
X29051463Y20801000D01*
X28834697Y20779746D01*
X28626188Y20716793D01*
X28559587Y20681381D01*
X28292400Y20948568D01*
X28292400Y21412048D01*
X28420960Y21304173D01*
X28611824Y21199245D01*
X28819434Y21133387D01*
X29035881Y21109109D01*
X29051463Y21109000D01*
X29368537Y21109000D01*
X29585303Y21130254D01*
X29793812Y21193207D01*
X29986122Y21295460D01*
X30154909Y21433119D01*
X30293743Y21600941D01*
X30397336Y21792533D01*
X30461743Y22000597D01*
X30484510Y22217209D01*
X30464770Y22434118D01*
X30403274Y22643061D01*
X30302366Y22836081D01*
X30165889Y23005824D01*
X29999040Y23145827D01*
X29808176Y23250755D01*
X29600566Y23316613D01*
X29384119Y23340891D01*
X29368537Y23341000D01*
X29051463Y23341000D01*
X28834697Y23319746D01*
X28626188Y23256793D01*
X28559588Y23221381D01*
X27368369Y24412600D01*
X27997401Y24412600D01*
X28016726Y24346939D01*
X28117634Y24153919D01*
X28254111Y23984176D01*
X28420960Y23844173D01*
X28611824Y23739245D01*
X28819434Y23673387D01*
X29035881Y23649109D01*
X29051463Y23649000D01*
X29368537Y23649000D01*
X29585303Y23670254D01*
X29793812Y23733207D01*
X29986122Y23835460D01*
X30154909Y23973119D01*
X30293743Y24140941D01*
X30397336Y24332533D01*
X30461743Y24540597D01*
X30484510Y24757209D01*
X30464770Y24974118D01*
X30403274Y25183061D01*
X30302366Y25376081D01*
X30165889Y25545824D01*
X29999040Y25685827D01*
X29808176Y25790755D01*
X29600566Y25856613D01*
X29384119Y25880891D01*
X29368537Y25881000D01*
X29051463Y25881000D01*
X28834697Y25859746D01*
X28626188Y25796793D01*
X28433878Y25694540D01*
X28265091Y25556881D01*
X28126257Y25389059D01*
X28022664Y25197467D01*
X27997879Y25117400D01*
X27323969Y25117400D01*
X25128578Y27312791D01*
X27935490Y27312791D01*
X27955230Y27095882D01*
X28016726Y26886939D01*
X28117634Y26693919D01*
X28254111Y26524176D01*
X28420960Y26384173D01*
X28611824Y26279245D01*
X28819434Y26213387D01*
X29035881Y26189109D01*
X29051463Y26189000D01*
X29368537Y26189000D01*
X29585303Y26210254D01*
X29793812Y26273207D01*
X29986122Y26375460D01*
X30154909Y26513119D01*
X30293743Y26680941D01*
X30397336Y26872533D01*
X30461743Y27080597D01*
X30484510Y27297209D01*
X30464770Y27514118D01*
X30403274Y27723061D01*
X30302366Y27916081D01*
X30165889Y28085824D01*
X29999040Y28225827D01*
X29808176Y28330755D01*
X29600566Y28396613D01*
X29384119Y28420891D01*
X29368537Y28421000D01*
X29051463Y28421000D01*
X28834697Y28399746D01*
X28626188Y28336793D01*
X28433878Y28234540D01*
X28265091Y28096881D01*
X28126257Y27929059D01*
X28022664Y27737467D01*
X27958257Y27529403D01*
X27935490Y27312791D01*
X25128578Y27312791D01*
X24736400Y27704968D01*
X24736400Y29591000D01*
X24733217Y29623465D01*
X24730386Y29655825D01*
X24729870Y29657601D01*
X24729689Y29659448D01*
X24720267Y29690653D01*
X24711198Y29721870D01*
X24710346Y29723514D01*
X24709810Y29725289D01*
X24694524Y29754037D01*
X24679547Y29782931D01*
X24678390Y29784380D01*
X24677521Y29786015D01*
X24656968Y29811216D01*
X24636640Y29836681D01*
X24634096Y29839261D01*
X24634053Y29839313D01*
X24634004Y29839353D01*
X24633185Y29840184D01*
X24177661Y30295708D01*
X24177926Y30314705D01*
X24896815Y29595816D01*
X24922005Y29575125D01*
X24946906Y29554230D01*
X24948527Y29553339D01*
X24949961Y29552161D01*
X24978679Y29536763D01*
X25007175Y29521097D01*
X25008940Y29520537D01*
X25010574Y29519661D01*
X25041692Y29510148D01*
X25072732Y29500301D01*
X25074576Y29500094D01*
X25076346Y29499553D01*
X25108701Y29496266D01*
X25141080Y29492634D01*
X25144701Y29492609D01*
X25144770Y29492602D01*
X25144834Y29492608D01*
X25146000Y29492600D01*
X27997401Y29492600D01*
X28016726Y29426939D01*
X28117634Y29233919D01*
X28254111Y29064176D01*
X28420960Y28924173D01*
X28611824Y28819245D01*
X28819434Y28753387D01*
X29035881Y28729109D01*
X29051463Y28729000D01*
X29368537Y28729000D01*
X29585303Y28750254D01*
X29793812Y28813207D01*
X29986122Y28915460D01*
X30154909Y29053119D01*
X30293743Y29220941D01*
X30397336Y29412533D01*
X30461743Y29620597D01*
X30484510Y29837209D01*
X30464770Y30054118D01*
X30403274Y30263061D01*
X30302366Y30456081D01*
X30165889Y30625824D01*
X29999040Y30765827D01*
X29808176Y30870755D01*
X29600566Y30936613D01*
X29384119Y30960891D01*
X29368537Y30961000D01*
X29051463Y30961000D01*
X28834697Y30939746D01*
X28626188Y30876793D01*
X28433878Y30774540D01*
X28265091Y30636881D01*
X28126257Y30469059D01*
X28022664Y30277467D01*
X27997879Y30197400D01*
X25291969Y30197400D01*
X24252184Y31237184D01*
X24227020Y31257855D01*
X24202094Y31278770D01*
X24200473Y31279661D01*
X24199039Y31280839D01*
X24170321Y31296237D01*
X24141825Y31311903D01*
X24140060Y31312463D01*
X24138426Y31313339D01*
X24107308Y31322852D01*
X24076268Y31332699D01*
X24074424Y31332906D01*
X24072654Y31333447D01*
X24040299Y31336734D01*
X24007920Y31340366D01*
X24004299Y31340391D01*
X24004230Y31340398D01*
X24004166Y31340392D01*
X24003000Y31340400D01*
X23241000Y31340400D01*
X23208538Y31337217D01*
X23176175Y31334386D01*
X23174399Y31333870D01*
X23172552Y31333689D01*
X23141347Y31324267D01*
X23110130Y31315198D01*
X23108486Y31314346D01*
X23106711Y31313810D01*
X23077963Y31298524D01*
X23049069Y31283547D01*
X23047620Y31282390D01*
X23045985Y31281521D01*
X23020778Y31260963D01*
X22995318Y31240639D01*
X22992739Y31238096D01*
X22992687Y31238053D01*
X22992647Y31238004D01*
X22991815Y31237184D01*
X22737816Y30983184D01*
X22717145Y30958020D01*
X22696230Y30933094D01*
X22695339Y30931473D01*
X22694161Y30930039D01*
X22678763Y30901321D01*
X22663097Y30872825D01*
X22662537Y30871060D01*
X22661661Y30869426D01*
X22652148Y30838308D01*
X22642301Y30807268D01*
X22642094Y30805424D01*
X22641553Y30803654D01*
X22638266Y30771299D01*
X22634634Y30738920D01*
X22634609Y30735299D01*
X22634602Y30735230D01*
X22634608Y30735166D01*
X22634600Y30734000D01*
X22634600Y29228969D01*
X22333032Y28927400D01*
X16828909Y28927400D01*
X16255311Y29500997D01*
X16230147Y29521668D01*
X16205221Y29542583D01*
X16203600Y29543474D01*
X16202166Y29544652D01*
X16173448Y29560050D01*
X16144952Y29575716D01*
X16143187Y29576276D01*
X16141553Y29577152D01*
X16110435Y29586665D01*
X16079395Y29596512D01*
X16077551Y29596719D01*
X16075781Y29597260D01*
X16043426Y29600547D01*
X16011047Y29604179D01*
X16007426Y29604204D01*
X16007357Y29604211D01*
X16007293Y29604205D01*
X16006127Y29604213D01*
X14138813Y29604213D01*
X14106351Y29601030D01*
X14073988Y29598199D01*
X14072212Y29597683D01*
X14070365Y29597502D01*
X14039160Y29588080D01*
X14007943Y29579011D01*
X14006299Y29578159D01*
X14004524Y29577623D01*
X13975776Y29562337D01*
X13946882Y29547360D01*
X13945433Y29546203D01*
X13943798Y29545334D01*
X13918591Y29524776D01*
X13893131Y29504452D01*
X13890552Y29501909D01*
X13890500Y29501866D01*
X13890460Y29501817D01*
X13889628Y29500997D01*
X13139461Y28750829D01*
X13030255Y28751592D01*
X12922918Y28731116D01*
X12821602Y28690182D01*
X12730167Y28630348D01*
X12652095Y28553894D01*
X12590359Y28463732D01*
X12547312Y28363296D01*
X12524593Y28256411D01*
X12523068Y28147149D01*
X11882400Y28147149D01*
X11882400Y29845000D01*
X11878322Y29886593D01*
X11874680Y29928219D01*
X11874016Y29930504D01*
X11873784Y29932872D01*
X11861701Y29972892D01*
X11850047Y30013007D01*
X11848953Y30015118D01*
X11848265Y30017396D01*
X11828651Y30054285D01*
X11809415Y30091395D01*
X11807930Y30093255D01*
X11806814Y30095354D01*
X11780401Y30127740D01*
X11754330Y30160398D01*
X11751069Y30163704D01*
X11751010Y30163777D01*
X11750943Y30163833D01*
X11749895Y30164895D01*
X10075328Y31839462D01*
X10060999Y31911828D01*
X10019359Y32012855D01*
X9958888Y32103871D01*
X9881891Y32181407D01*
X9791300Y32242512D01*
X9690566Y32284857D01*
X9583525Y32306829D01*
X9474255Y32307592D01*
X9366918Y32287116D01*
X9265602Y32246182D01*
X9174167Y32186348D01*
X9096095Y32109894D01*
X9034359Y32019732D01*
X8991312Y31919296D01*
X8968593Y31812411D01*
X8967068Y31703149D01*
X6674517Y31703149D01*
X6948732Y31977364D01*
X7045706Y31956043D01*
X7154955Y31953754D01*
X7262567Y31972729D01*
X7364445Y32012245D01*
X7456706Y32070796D01*
X7535839Y32146152D01*
X7598827Y32235444D01*
X7637317Y32321895D01*
X27941600Y32321895D01*
X27941600Y31496541D01*
X27951300Y31447777D01*
X27970326Y31401844D01*
X27997948Y31360504D01*
X28033105Y31325348D01*
X28074444Y31297726D01*
X28120378Y31278700D01*
X28169141Y31269000D01*
X29146895Y31269000D01*
X29209995Y31332100D01*
X29209995Y32384995D01*
X29210005Y32384995D01*
X29210005Y31332100D01*
X29273105Y31269000D01*
X30250859Y31269000D01*
X30299622Y31278700D01*
X30345556Y31297726D01*
X30386895Y31325348D01*
X30422052Y31360504D01*
X30449674Y31401844D01*
X30468700Y31447777D01*
X30478400Y31496541D01*
X30478400Y32321895D01*
X30415300Y32384995D01*
X29210005Y32384995D01*
X29209995Y32384995D01*
X28004700Y32384995D01*
X27941600Y32321895D01*
X7637317Y32321895D01*
X7643272Y32335269D01*
X7667481Y32441826D01*
X7669224Y32566636D01*
X7647999Y32673828D01*
X7606359Y32774855D01*
X7545888Y32865871D01*
X7468891Y32943407D01*
X7378300Y33004512D01*
X7277566Y33046857D01*
X7170525Y33068829D01*
X7061255Y33069592D01*
X6953918Y33049116D01*
X6852602Y33008182D01*
X6761167Y32948348D01*
X6683095Y32871894D01*
X6621359Y32781732D01*
X6578312Y32681296D01*
X6557361Y32582729D01*
X4884461Y30909829D01*
X4775255Y30910592D01*
X4667918Y30890116D01*
X4566602Y30849182D01*
X4475167Y30789348D01*
X4397095Y30712894D01*
X4335359Y30622732D01*
X4292312Y30522296D01*
X4269593Y30415411D01*
X4268068Y30306149D01*
X327400Y30306149D01*
X327400Y33273459D01*
X27941600Y33273459D01*
X27941600Y32448105D01*
X28004700Y32385005D01*
X29209995Y32385005D01*
X29209995Y33437900D01*
X29210005Y33437900D01*
X29210005Y32385005D01*
X30415300Y32385005D01*
X30478400Y32448105D01*
X30478400Y33273459D01*
X30468700Y33322223D01*
X30449674Y33368156D01*
X30422052Y33409496D01*
X30386895Y33444652D01*
X30345556Y33472274D01*
X30299622Y33491300D01*
X30250859Y33501000D01*
X29273105Y33501000D01*
X29210005Y33437900D01*
X29209995Y33437900D01*
X29146895Y33501000D01*
X28169141Y33501000D01*
X28120378Y33491300D01*
X28074444Y33472274D01*
X28033105Y33444652D01*
X27997948Y33409496D01*
X27970326Y33368156D01*
X27951300Y33322223D01*
X27941600Y33273459D01*
X327400Y33273459D01*
X327400Y33962600D01*
X30787600Y33962600D01*
X30787600Y18107400D01*
X30787600Y18107400D01*
G37*
X30787600Y18107400D02*
X24614590Y18107400D01*
X24922569Y18415379D01*
X26263600Y18415379D01*
X26303794Y18418584D01*
X26371967Y18439696D01*
X26431559Y18478965D01*
X26477852Y18533281D01*
X26507180Y18598343D01*
X26517221Y18669000D01*
X26517221Y20701000D01*
X26514016Y20741194D01*
X26492904Y20809367D01*
X26453635Y20868959D01*
X26399319Y20915252D01*
X26334257Y20944580D01*
X26263600Y20954621D01*
X24536400Y20954621D01*
X24496206Y20951416D01*
X24428033Y20930304D01*
X24368441Y20891035D01*
X24322148Y20836719D01*
X24292820Y20771657D01*
X24282779Y20701000D01*
X24282779Y19055169D01*
X23949010Y18721400D01*
X23631233Y18721400D01*
X23640824Y18729111D01*
X23780827Y18895960D01*
X23885755Y19086824D01*
X23951613Y19294434D01*
X23975891Y19510881D01*
X23976000Y19526463D01*
X23976000Y19843537D01*
X23954746Y20060303D01*
X23891793Y20268812D01*
X23789540Y20461122D01*
X23651881Y20629909D01*
X23484059Y20768743D01*
X23292467Y20872336D01*
X23084403Y20936743D01*
X22867791Y20959510D01*
X22650882Y20939770D01*
X22441939Y20878274D01*
X22248919Y20777366D01*
X22079176Y20640889D01*
X21939173Y20474040D01*
X21834245Y20283176D01*
X21768387Y20075566D01*
X21744109Y19859119D01*
X21744000Y19843537D01*
X21744000Y19526463D01*
X21765254Y19309697D01*
X21828207Y19101188D01*
X21930460Y18908878D01*
X22068119Y18740091D01*
X22090713Y18721400D01*
X21091233Y18721400D01*
X21100824Y18729111D01*
X21240827Y18895960D01*
X21345755Y19086824D01*
X21411613Y19294434D01*
X21435891Y19510881D01*
X21436000Y19526463D01*
X21436000Y19843537D01*
X21414746Y20060303D01*
X21351793Y20268812D01*
X21249540Y20461122D01*
X21111881Y20629909D01*
X20944059Y20768743D01*
X20752467Y20872336D01*
X20544403Y20936743D01*
X20327791Y20959510D01*
X20110882Y20939770D01*
X19901939Y20878274D01*
X19708919Y20777366D01*
X19539176Y20640889D01*
X19399173Y20474040D01*
X19294245Y20283176D01*
X19228387Y20075566D01*
X19204109Y19859119D01*
X19204000Y19843537D01*
X19204000Y19526463D01*
X19225254Y19309697D01*
X19288207Y19101188D01*
X19390460Y18908878D01*
X19528119Y18740091D01*
X19550713Y18721400D01*
X17960990Y18721400D01*
X17627221Y19055169D01*
X17627221Y20701000D01*
X17624016Y20741194D01*
X17602904Y20809367D01*
X17563635Y20868959D01*
X17509319Y20915252D01*
X17444257Y20944580D01*
X17373600Y20954621D01*
X16962400Y20954621D01*
X16962400Y22479000D01*
X16958317Y22520639D01*
X16954679Y22562220D01*
X16954017Y22564500D01*
X16953784Y22566872D01*
X16941693Y22606921D01*
X16930047Y22647007D01*
X16928953Y22649118D01*
X16928265Y22651396D01*
X16908630Y22688325D01*
X16889414Y22725395D01*
X16887932Y22727252D01*
X16886814Y22729354D01*
X16860379Y22761767D01*
X16834330Y22794398D01*
X16831069Y22797704D01*
X16831010Y22797777D01*
X16830943Y22797833D01*
X16829895Y22798895D01*
X14647328Y24981462D01*
X14632999Y25053828D01*
X14591359Y25154855D01*
X14530888Y25245871D01*
X14453891Y25323407D01*
X14363300Y25384512D01*
X14262566Y25426857D01*
X14186272Y25442518D01*
X13377328Y26251462D01*
X13362999Y26323828D01*
X13321359Y26424855D01*
X13260888Y26515871D01*
X13183891Y26593407D01*
X13093300Y26654512D01*
X12992566Y26696857D01*
X12885525Y26718829D01*
X12776255Y26719592D01*
X12668918Y26699116D01*
X12567602Y26658182D01*
X12476167Y26598348D01*
X12398095Y26521894D01*
X12336359Y26431732D01*
X12293312Y26331296D01*
X12270593Y26224411D01*
X12269068Y26115149D01*
X12288793Y26007672D01*
X12329019Y25906073D01*
X12388213Y25814222D01*
X12464120Y25735618D01*
X12553849Y25673254D01*
X12653983Y25629507D01*
X12738224Y25610986D01*
X13546937Y24802273D01*
X13558793Y24737672D01*
X13599019Y24636073D01*
X13658213Y24544222D01*
X13734120Y24465618D01*
X13823849Y24403254D01*
X13923983Y24359507D01*
X14008224Y24340986D01*
X16057600Y22291610D01*
X16057600Y20954621D01*
X15646400Y20954621D01*
X15606206Y20951416D01*
X15538033Y20930304D01*
X15478441Y20891035D01*
X15432148Y20836719D01*
X15402820Y20771657D01*
X15392779Y20701000D01*
X15392779Y18669000D01*
X15395984Y18628806D01*
X15417096Y18560633D01*
X15456365Y18501041D01*
X15510681Y18454748D01*
X15575743Y18425420D01*
X15646400Y18415379D01*
X16987431Y18415379D01*
X17295410Y18107400D01*
X327400Y18107400D01*
X327400Y19843537D01*
X1424000Y19843537D01*
X1424000Y19526463D01*
X1445254Y19309697D01*
X1508207Y19101188D01*
X1610460Y18908878D01*
X1748119Y18740091D01*
X1915941Y18601257D01*
X2107533Y18497664D01*
X2315597Y18433257D01*
X2532209Y18410490D01*
X2749118Y18430230D01*
X2958061Y18491726D01*
X3151081Y18592634D01*
X3320824Y18729111D01*
X3460827Y18895960D01*
X3565755Y19086824D01*
X3631613Y19294434D01*
X3655891Y19510881D01*
X3656000Y19526463D01*
X3656000Y19843537D01*
X3964000Y19843537D01*
X3964000Y19526463D01*
X3985254Y19309697D01*
X4048207Y19101188D01*
X4150460Y18908878D01*
X4288119Y18740091D01*
X4455941Y18601257D01*
X4647533Y18497664D01*
X4855597Y18433257D01*
X5072209Y18410490D01*
X5289118Y18430230D01*
X5498061Y18491726D01*
X5691081Y18592634D01*
X5860824Y18729111D01*
X6000827Y18895960D01*
X6105755Y19086824D01*
X6171613Y19294434D01*
X6195891Y19510881D01*
X6196000Y19526463D01*
X6196000Y19843537D01*
X6174746Y20060303D01*
X6111793Y20268812D01*
X6009540Y20461122D01*
X5871881Y20629909D01*
X5785947Y20701000D01*
X6502779Y20701000D01*
X6502779Y18669000D01*
X6505984Y18628806D01*
X6527096Y18560633D01*
X6566365Y18501041D01*
X6620681Y18454748D01*
X6685743Y18425420D01*
X6756400Y18415379D01*
X8483600Y18415379D01*
X8523794Y18418584D01*
X8591967Y18439696D01*
X8651559Y18478965D01*
X8697852Y18533281D01*
X8727180Y18598343D01*
X8737221Y18669000D01*
X8737221Y20701000D01*
X8734016Y20741194D01*
X8712904Y20809367D01*
X8673635Y20868959D01*
X8619319Y20915252D01*
X8554257Y20944580D01*
X8483600Y20954621D01*
X6756400Y20954621D01*
X6716206Y20951416D01*
X6648033Y20930304D01*
X6588441Y20891035D01*
X6542148Y20836719D01*
X6512820Y20771657D01*
X6502779Y20701000D01*
X5785947Y20701000D01*
X5704059Y20768743D01*
X5512467Y20872336D01*
X5304403Y20936743D01*
X5087791Y20959510D01*
X4870882Y20939770D01*
X4661939Y20878274D01*
X4468919Y20777366D01*
X4299176Y20640889D01*
X4159173Y20474040D01*
X4054245Y20283176D01*
X3988387Y20075566D01*
X3964109Y19859119D01*
X3964000Y19843537D01*
X3656000Y19843537D01*
X3634746Y20060303D01*
X3571793Y20268812D01*
X3469540Y20461122D01*
X3331881Y20629909D01*
X3164059Y20768743D01*
X2972467Y20872336D01*
X2764403Y20936743D01*
X2547791Y20959510D01*
X2330882Y20939770D01*
X2121939Y20878274D01*
X1928919Y20777366D01*
X1759176Y20640889D01*
X1619173Y20474040D01*
X1514245Y20283176D01*
X1448387Y20075566D01*
X1424109Y19859119D01*
X1424000Y19843537D01*
X327400Y19843537D01*
X327400Y22418194D01*
X384404Y22418194D01*
X389596Y22389120D01*
X432411Y22247975D01*
X501939Y22117894D01*
X595509Y22003877D01*
X709524Y21910305D01*
X839604Y21840775D01*
X980749Y21797958D01*
X1127535Y21783500D01*
X1402535Y21783500D01*
X1402535Y22535895D01*
X1402545Y22535895D01*
X1402545Y21783500D01*
X1677545Y21783500D01*
X1824331Y21797958D01*
X1965476Y21840775D01*
X2095556Y21910305D01*
X2209571Y22003877D01*
X2303141Y22117894D01*
X2372669Y22247975D01*
X2415484Y22389120D01*
X2420676Y22418194D01*
X2366840Y22535895D01*
X1402545Y22535895D01*
X1402535Y22535895D01*
X438240Y22535895D01*
X384404Y22418194D01*
X327400Y22418194D01*
X327400Y22653606D01*
X384404Y22653606D01*
X438240Y22535905D01*
X1402535Y22535905D01*
X1402535Y23288300D01*
X1402545Y23288300D01*
X1402545Y22535905D01*
X2366840Y22535905D01*
X2420676Y22653606D01*
X2415484Y22682680D01*
X2372669Y22823825D01*
X2303141Y22953906D01*
X2209571Y23067923D01*
X2095556Y23161495D01*
X1965476Y23231025D01*
X1824331Y23273842D01*
X1677545Y23288300D01*
X1402545Y23288300D01*
X1402535Y23288300D01*
X1127535Y23288300D01*
X980749Y23273842D01*
X839604Y23231025D01*
X709524Y23161495D01*
X595509Y23067923D01*
X501939Y22953906D01*
X432411Y22823825D01*
X389596Y22682680D01*
X384404Y22653606D01*
X327400Y22653606D01*
X327400Y23535895D01*
X3375140Y23535895D01*
X3375140Y23385895D01*
X3389118Y23243986D01*
X3430512Y23107531D01*
X3497732Y22981774D01*
X3588194Y22871547D01*
X3698422Y22781086D01*
X3824180Y22713868D01*
X3960636Y22672476D01*
X3988745Y22667456D01*
X4102535Y22721600D01*
X4102535Y23535895D01*
X4102545Y23535895D01*
X4102545Y22721600D01*
X4216335Y22667456D01*
X4244444Y22672476D01*
X4380900Y22713868D01*
X4506658Y22781086D01*
X4616886Y22871547D01*
X4707348Y22981774D01*
X4774568Y23107531D01*
X4815962Y23243986D01*
X4829940Y23385895D01*
X4829940Y23535895D01*
X4102545Y23535895D01*
X4102535Y23535895D01*
X3375140Y23535895D01*
X327400Y23535895D01*
X327400Y23685905D01*
X3375140Y23685905D01*
X3375140Y23535905D01*
X4102535Y23535905D01*
X4102535Y24350200D01*
X4102545Y24350200D01*
X4102545Y23535905D01*
X4829940Y23535905D01*
X4829940Y23685905D01*
X4815962Y23827814D01*
X4774568Y23964269D01*
X4707348Y24090026D01*
X4616886Y24200253D01*
X4506658Y24290714D01*
X4380900Y24357932D01*
X4244444Y24399324D01*
X4216335Y24404344D01*
X4102545Y24350200D01*
X4102535Y24350200D01*
X3988745Y24404344D01*
X3960636Y24399324D01*
X3824180Y24357932D01*
X3698422Y24290714D01*
X3588194Y24200253D01*
X3497732Y24090026D01*
X3430512Y23964269D01*
X3389118Y23827814D01*
X3375140Y23685905D01*
X327400Y23685905D01*
X327400Y28535895D01*
X3375140Y28535895D01*
X3375140Y28385895D01*
X3389118Y28243986D01*
X3430512Y28107531D01*
X3497732Y27981774D01*
X3588194Y27871547D01*
X3698422Y27781086D01*
X3824180Y27713868D01*
X3960636Y27672476D01*
X3988745Y27667456D01*
X4102535Y27721600D01*
X4102535Y28535895D01*
X4102545Y28535895D01*
X4102545Y27721600D01*
X4216335Y27667456D01*
X4244444Y27672476D01*
X4380900Y27713868D01*
X4506658Y27781086D01*
X4616886Y27871547D01*
X4707348Y27981774D01*
X4774568Y28107531D01*
X4815962Y28243986D01*
X4829940Y28385895D01*
X4829940Y28535895D01*
X4102545Y28535895D01*
X4102535Y28535895D01*
X3375140Y28535895D01*
X327400Y28535895D01*
X327400Y28685905D01*
X3375140Y28685905D01*
X3375140Y28535905D01*
X4102535Y28535905D01*
X4102535Y29350200D01*
X4102545Y29350200D01*
X4102545Y28535905D01*
X4829940Y28535905D01*
X4829940Y28685905D01*
X4815962Y28827814D01*
X4774568Y28964269D01*
X4707348Y29090026D01*
X4616886Y29200253D01*
X4506658Y29290714D01*
X4380900Y29357932D01*
X4244444Y29399324D01*
X4216335Y29404344D01*
X4102545Y29350200D01*
X4102535Y29350200D01*
X3988745Y29404344D01*
X3960636Y29399324D01*
X3824180Y29357932D01*
X3698422Y29290714D01*
X3588194Y29200253D01*
X3497732Y29090026D01*
X3430512Y28964269D01*
X3389118Y28827814D01*
X3375140Y28685905D01*
X327400Y28685905D01*
X327400Y29418194D01*
X384404Y29418194D01*
X389596Y29389120D01*
X432411Y29247975D01*
X501939Y29117894D01*
X595509Y29003877D01*
X709524Y28910305D01*
X839604Y28840775D01*
X980749Y28797958D01*
X1127535Y28783500D01*
X1402535Y28783500D01*
X1402535Y29535895D01*
X1402545Y29535895D01*
X1402545Y28783500D01*
X1677545Y28783500D01*
X1824331Y28797958D01*
X1965476Y28840775D01*
X2095556Y28910305D01*
X2209571Y29003877D01*
X2303141Y29117894D01*
X2372669Y29247975D01*
X2415484Y29389120D01*
X2420676Y29418194D01*
X2366840Y29535895D01*
X1402545Y29535895D01*
X1402535Y29535895D01*
X438240Y29535895D01*
X384404Y29418194D01*
X327400Y29418194D01*
X327400Y29653606D01*
X384404Y29653606D01*
X438240Y29535905D01*
X1402535Y29535905D01*
X1402535Y30288300D01*
X1402545Y30288300D01*
X1402545Y29535905D01*
X2366840Y29535905D01*
X2420676Y29653606D01*
X2415484Y29682680D01*
X2372669Y29823825D01*
X2303141Y29953906D01*
X2209571Y30067923D01*
X2095556Y30161495D01*
X1965476Y30231025D01*
X1824331Y30273842D01*
X1677545Y30288300D01*
X1402545Y30288300D01*
X1402535Y30288300D01*
X1127535Y30288300D01*
X980749Y30273842D01*
X839604Y30231025D01*
X709524Y30161495D01*
X595509Y30067923D01*
X501939Y29953906D01*
X432411Y29823825D01*
X389596Y29682680D01*
X384404Y29653606D01*
X327400Y29653606D01*
X327400Y30306149D01*
X4268068Y30306149D01*
X4287793Y30198672D01*
X4328019Y30097073D01*
X4387213Y30005222D01*
X4463120Y29926618D01*
X4552849Y29864254D01*
X4652983Y29820507D01*
X4759706Y29797043D01*
X4868955Y29794754D01*
X4976567Y29813729D01*
X5078445Y29853245D01*
X5170706Y29911796D01*
X5249839Y29987152D01*
X5312827Y30076444D01*
X5357272Y30176269D01*
X5381481Y30282826D01*
X5383224Y30407636D01*
X5382527Y30411159D01*
X6674517Y31703149D01*
X8967068Y31703149D01*
X8986793Y31595672D01*
X9027019Y31494073D01*
X9086213Y31402222D01*
X9162120Y31323618D01*
X9251849Y31261254D01*
X9351983Y31217507D01*
X9436224Y31198986D01*
X10977600Y29657610D01*
X10977600Y20860322D01*
X10818919Y20777366D01*
X10649176Y20640889D01*
X10509173Y20474040D01*
X10404245Y20283176D01*
X10338387Y20075566D01*
X10314109Y19859119D01*
X10314000Y19843537D01*
X10314000Y19526463D01*
X10335254Y19309697D01*
X10398207Y19101188D01*
X10500460Y18908878D01*
X10638119Y18740091D01*
X10805941Y18601257D01*
X10997533Y18497664D01*
X11205597Y18433257D01*
X11422209Y18410490D01*
X11639118Y18430230D01*
X11848061Y18491726D01*
X12041081Y18592634D01*
X12210824Y18729111D01*
X12350827Y18895960D01*
X12455755Y19086824D01*
X12521613Y19294434D01*
X12545891Y19510881D01*
X12546000Y19526463D01*
X12546000Y19843537D01*
X12524746Y20060303D01*
X12461793Y20268812D01*
X12359540Y20461122D01*
X12221881Y20629909D01*
X12054059Y20768743D01*
X11882400Y20861558D01*
X11882400Y21463000D01*
X12755600Y21463000D01*
X12755600Y21282939D01*
X12759678Y21241346D01*
X12763320Y21199720D01*
X12763984Y21197435D01*
X12764216Y21195067D01*
X12776299Y21155047D01*
X12787953Y21114932D01*
X12789047Y21112821D01*
X12789735Y21110543D01*
X12809370Y21073614D01*
X12828586Y21036544D01*
X12830068Y21034687D01*
X12831186Y21032585D01*
X12857621Y21000172D01*
X12883670Y20967541D01*
X12886931Y20964235D01*
X12886990Y20964162D01*
X12887057Y20964106D01*
X12888105Y20963044D01*
X13040960Y20810189D01*
X13109187Y20754146D01*
X13187000Y20712423D01*
X13253036Y20692234D01*
X13189176Y20640889D01*
X13049173Y20474040D01*
X12944245Y20283176D01*
X12878387Y20075566D01*
X12854109Y19859119D01*
X12854000Y19843537D01*
X12854000Y19526463D01*
X12875254Y19309697D01*
X12938207Y19101188D01*
X13040460Y18908878D01*
X13178119Y18740091D01*
X13345941Y18601257D01*
X13537533Y18497664D01*
X13745597Y18433257D01*
X13962209Y18410490D01*
X14179118Y18430230D01*
X14388061Y18491726D01*
X14581081Y18592634D01*
X14750824Y18729111D01*
X14890827Y18895960D01*
X14995755Y19086824D01*
X15061613Y19294434D01*
X15085891Y19510881D01*
X15086000Y19526463D01*
X15086000Y19843537D01*
X15064746Y20060303D01*
X15001793Y20268812D01*
X14899540Y20461122D01*
X14761881Y20629909D01*
X14594059Y20768743D01*
X14402467Y20872336D01*
X14194403Y20936743D01*
X13977791Y20959510D01*
X13770377Y20940634D01*
X13777292Y20953317D01*
X13803695Y21037570D01*
X13813230Y21125347D01*
X13805535Y21213303D01*
X13780902Y21298091D01*
X13740270Y21376479D01*
X13685185Y21445482D01*
X13680750Y21449979D01*
X13659603Y21471126D01*
X13651784Y21550872D01*
X13626265Y21635396D01*
X13584814Y21713354D01*
X13529010Y21781777D01*
X13460979Y21838057D01*
X13383312Y21880051D01*
X13298968Y21906160D01*
X13211158Y21915389D01*
X13123229Y21907387D01*
X13038528Y21882458D01*
X12960282Y21841552D01*
X12891472Y21786227D01*
X12834719Y21718591D01*
X12792183Y21641219D01*
X12765486Y21557059D01*
X12755644Y21469316D01*
X12755600Y21463000D01*
X11882400Y21463000D01*
X11882400Y28147149D01*
X12523068Y28147149D01*
X12542793Y28039672D01*
X12583019Y27938073D01*
X12642213Y27846222D01*
X12718120Y27767618D01*
X12807849Y27705254D01*
X12907983Y27661507D01*
X13014706Y27638043D01*
X13123955Y27635754D01*
X13231567Y27654729D01*
X13333445Y27694245D01*
X13425706Y27752796D01*
X13504839Y27828152D01*
X13567827Y27917444D01*
X13612272Y28017269D01*
X13636481Y28123826D01*
X13638224Y28248636D01*
X13637527Y28252158D01*
X13674561Y28289193D01*
X13667593Y28256411D01*
X13666068Y28147149D01*
X13685793Y28039672D01*
X13726019Y27938073D01*
X13785213Y27846222D01*
X13861120Y27767618D01*
X13950849Y27705254D01*
X13994407Y27686224D01*
X13964602Y27674182D01*
X13873167Y27614348D01*
X13795095Y27537894D01*
X13733359Y27447732D01*
X13690312Y27347296D01*
X13667593Y27240411D01*
X13666068Y27131149D01*
X13685793Y27023672D01*
X13726019Y26922073D01*
X13785213Y26830222D01*
X13861120Y26751618D01*
X13950849Y26689254D01*
X14050983Y26645507D01*
X14157706Y26622043D01*
X14266955Y26619754D01*
X14374567Y26638729D01*
X14476445Y26678245D01*
X14568706Y26736796D01*
X14647839Y26812152D01*
X14710827Y26901444D01*
X14755272Y27001269D01*
X14773068Y27079600D01*
X17209768Y27079600D01*
X17360551Y26928816D01*
X17385741Y26908125D01*
X17410642Y26887230D01*
X17412263Y26886339D01*
X17413697Y26885161D01*
X17442415Y26869763D01*
X17470911Y26854097D01*
X17472676Y26853537D01*
X17474310Y26852661D01*
X17505428Y26843148D01*
X17536468Y26833301D01*
X17538312Y26833094D01*
X17540082Y26832553D01*
X17572441Y26829266D01*
X17599015Y26826285D01*
X17671120Y26751618D01*
X17760849Y26689254D01*
X17860983Y26645507D01*
X17967706Y26622043D01*
X18076955Y26619754D01*
X18184567Y26638729D01*
X18286445Y26678245D01*
X18378706Y26736796D01*
X18457839Y26812152D01*
X18520827Y26901444D01*
X18565272Y27001269D01*
X18589481Y27107826D01*
X18591224Y27232636D01*
X18569999Y27339828D01*
X18528359Y27440855D01*
X18515240Y27460600D01*
X18949170Y27460600D01*
X18940359Y27447732D01*
X18897312Y27347296D01*
X18874593Y27240411D01*
X18873068Y27131149D01*
X18892793Y27023672D01*
X18933019Y26922073D01*
X18992213Y26830222D01*
X19068120Y26751618D01*
X19157849Y26689254D01*
X19257983Y26645507D01*
X19364706Y26622043D01*
X19473955Y26619754D01*
X19581567Y26638729D01*
X19683445Y26678245D01*
X19775706Y26736796D01*
X19854839Y26812152D01*
X19864325Y26825600D01*
X20066000Y26825600D01*
X20098462Y26828783D01*
X20130825Y26831614D01*
X20132601Y26832130D01*
X20134448Y26832311D01*
X20165653Y26841733D01*
X20196870Y26850802D01*
X20198514Y26851654D01*
X20200289Y26852190D01*
X20229037Y26867476D01*
X20257931Y26882453D01*
X20259380Y26883609D01*
X20261015Y26884479D01*
X20286246Y26905057D01*
X20311681Y26925361D01*
X20314255Y26927900D01*
X20314313Y26927947D01*
X20314358Y26928001D01*
X20315184Y26928816D01*
X20465969Y27079600D01*
X23095032Y27079600D01*
X27587600Y22587031D01*
X27587600Y20802600D01*
X27590783Y20770138D01*
X27593614Y20737775D01*
X27594130Y20735999D01*
X27594311Y20734152D01*
X27603733Y20702947D01*
X27612802Y20671730D01*
X27613654Y20670086D01*
X27614190Y20668311D01*
X27629476Y20639563D01*
X27644453Y20610669D01*
X27645609Y20609220D01*
X27646479Y20607585D01*
X27667057Y20582354D01*
X27687361Y20556919D01*
X27689900Y20554345D01*
X27689947Y20554287D01*
X27690001Y20554242D01*
X27690816Y20553416D01*
X28059197Y20185035D01*
X28022664Y20117467D01*
X27958257Y19909403D01*
X27935490Y19692791D01*
X27955230Y19475882D01*
X28016726Y19266939D01*
X28117634Y19073919D01*
X28254111Y18904176D01*
X28420960Y18764173D01*
X28611824Y18659245D01*
X28819434Y18593387D01*
X29035881Y18569109D01*
X29051463Y18569000D01*
X29368537Y18569000D01*
X29585303Y18590254D01*
X29793812Y18653207D01*
X29986122Y18755460D01*
X30154909Y18893119D01*
X30293743Y19060941D01*
X30397336Y19252533D01*
X30461743Y19460597D01*
X30484510Y19677209D01*
X30464770Y19894118D01*
X30403274Y20103061D01*
X30302366Y20296081D01*
X30165889Y20465824D01*
X29999040Y20605827D01*
X29808176Y20710755D01*
X29600566Y20776613D01*
X29384119Y20800891D01*
X29368537Y20801000D01*
X29051463Y20801000D01*
X28834697Y20779746D01*
X28626188Y20716793D01*
X28559587Y20681381D01*
X28292400Y20948568D01*
X28292400Y21412048D01*
X28420960Y21304173D01*
X28611824Y21199245D01*
X28819434Y21133387D01*
X29035881Y21109109D01*
X29051463Y21109000D01*
X29368537Y21109000D01*
X29585303Y21130254D01*
X29793812Y21193207D01*
X29986122Y21295460D01*
X30154909Y21433119D01*
X30293743Y21600941D01*
X30397336Y21792533D01*
X30461743Y22000597D01*
X30484510Y22217209D01*
X30464770Y22434118D01*
X30403274Y22643061D01*
X30302366Y22836081D01*
X30165889Y23005824D01*
X29999040Y23145827D01*
X29808176Y23250755D01*
X29600566Y23316613D01*
X29384119Y23340891D01*
X29368537Y23341000D01*
X29051463Y23341000D01*
X28834697Y23319746D01*
X28626188Y23256793D01*
X28559588Y23221381D01*
X27368369Y24412600D01*
X27997401Y24412600D01*
X28016726Y24346939D01*
X28117634Y24153919D01*
X28254111Y23984176D01*
X28420960Y23844173D01*
X28611824Y23739245D01*
X28819434Y23673387D01*
X29035881Y23649109D01*
X29051463Y23649000D01*
X29368537Y23649000D01*
X29585303Y23670254D01*
X29793812Y23733207D01*
X29986122Y23835460D01*
X30154909Y23973119D01*
X30293743Y24140941D01*
X30397336Y24332533D01*
X30461743Y24540597D01*
X30484510Y24757209D01*
X30464770Y24974118D01*
X30403274Y25183061D01*
X30302366Y25376081D01*
X30165889Y25545824D01*
X29999040Y25685827D01*
X29808176Y25790755D01*
X29600566Y25856613D01*
X29384119Y25880891D01*
X29368537Y25881000D01*
X29051463Y25881000D01*
X28834697Y25859746D01*
X28626188Y25796793D01*
X28433878Y25694540D01*
X28265091Y25556881D01*
X28126257Y25389059D01*
X28022664Y25197467D01*
X27997879Y25117400D01*
X27323969Y25117400D01*
X25128578Y27312791D01*
X27935490Y27312791D01*
X27955230Y27095882D01*
X28016726Y26886939D01*
X28117634Y26693919D01*
X28254111Y26524176D01*
X28420960Y26384173D01*
X28611824Y26279245D01*
X28819434Y26213387D01*
X29035881Y26189109D01*
X29051463Y26189000D01*
X29368537Y26189000D01*
X29585303Y26210254D01*
X29793812Y26273207D01*
X29986122Y26375460D01*
X30154909Y26513119D01*
X30293743Y26680941D01*
X30397336Y26872533D01*
X30461743Y27080597D01*
X30484510Y27297209D01*
X30464770Y27514118D01*
X30403274Y27723061D01*
X30302366Y27916081D01*
X30165889Y28085824D01*
X29999040Y28225827D01*
X29808176Y28330755D01*
X29600566Y28396613D01*
X29384119Y28420891D01*
X29368537Y28421000D01*
X29051463Y28421000D01*
X28834697Y28399746D01*
X28626188Y28336793D01*
X28433878Y28234540D01*
X28265091Y28096881D01*
X28126257Y27929059D01*
X28022664Y27737467D01*
X27958257Y27529403D01*
X27935490Y27312791D01*
X25128578Y27312791D01*
X24736400Y27704968D01*
X24736400Y29591000D01*
X24733217Y29623465D01*
X24730386Y29655825D01*
X24729870Y29657601D01*
X24729689Y29659448D01*
X24720267Y29690653D01*
X24711198Y29721870D01*
X24710346Y29723514D01*
X24709810Y29725289D01*
X24694524Y29754037D01*
X24679547Y29782931D01*
X24678390Y29784380D01*
X24677521Y29786015D01*
X24656968Y29811216D01*
X24636640Y29836681D01*
X24634096Y29839261D01*
X24634053Y29839313D01*
X24634004Y29839353D01*
X24633185Y29840184D01*
X24177661Y30295708D01*
X24177926Y30314705D01*
X24896815Y29595816D01*
X24922005Y29575125D01*
X24946906Y29554230D01*
X24948527Y29553339D01*
X24949961Y29552161D01*
X24978679Y29536763D01*
X25007175Y29521097D01*
X25008940Y29520537D01*
X25010574Y29519661D01*
X25041692Y29510148D01*
X25072732Y29500301D01*
X25074576Y29500094D01*
X25076346Y29499553D01*
X25108701Y29496266D01*
X25141080Y29492634D01*
X25144701Y29492609D01*
X25144770Y29492602D01*
X25144834Y29492608D01*
X25146000Y29492600D01*
X27997401Y29492600D01*
X28016726Y29426939D01*
X28117634Y29233919D01*
X28254111Y29064176D01*
X28420960Y28924173D01*
X28611824Y28819245D01*
X28819434Y28753387D01*
X29035881Y28729109D01*
X29051463Y28729000D01*
X29368537Y28729000D01*
X29585303Y28750254D01*
X29793812Y28813207D01*
X29986122Y28915460D01*
X30154909Y29053119D01*
X30293743Y29220941D01*
X30397336Y29412533D01*
X30461743Y29620597D01*
X30484510Y29837209D01*
X30464770Y30054118D01*
X30403274Y30263061D01*
X30302366Y30456081D01*
X30165889Y30625824D01*
X29999040Y30765827D01*
X29808176Y30870755D01*
X29600566Y30936613D01*
X29384119Y30960891D01*
X29368537Y30961000D01*
X29051463Y30961000D01*
X28834697Y30939746D01*
X28626188Y30876793D01*
X28433878Y30774540D01*
X28265091Y30636881D01*
X28126257Y30469059D01*
X28022664Y30277467D01*
X27997879Y30197400D01*
X25291969Y30197400D01*
X24252184Y31237184D01*
X24227020Y31257855D01*
X24202094Y31278770D01*
X24200473Y31279661D01*
X24199039Y31280839D01*
X24170321Y31296237D01*
X24141825Y31311903D01*
X24140060Y31312463D01*
X24138426Y31313339D01*
X24107308Y31322852D01*
X24076268Y31332699D01*
X24074424Y31332906D01*
X24072654Y31333447D01*
X24040299Y31336734D01*
X24007920Y31340366D01*
X24004299Y31340391D01*
X24004230Y31340398D01*
X24004166Y31340392D01*
X24003000Y31340400D01*
X23241000Y31340400D01*
X23208538Y31337217D01*
X23176175Y31334386D01*
X23174399Y31333870D01*
X23172552Y31333689D01*
X23141347Y31324267D01*
X23110130Y31315198D01*
X23108486Y31314346D01*
X23106711Y31313810D01*
X23077963Y31298524D01*
X23049069Y31283547D01*
X23047620Y31282390D01*
X23045985Y31281521D01*
X23020778Y31260963D01*
X22995318Y31240639D01*
X22992739Y31238096D01*
X22992687Y31238053D01*
X22992647Y31238004D01*
X22991815Y31237184D01*
X22737816Y30983184D01*
X22717145Y30958020D01*
X22696230Y30933094D01*
X22695339Y30931473D01*
X22694161Y30930039D01*
X22678763Y30901321D01*
X22663097Y30872825D01*
X22662537Y30871060D01*
X22661661Y30869426D01*
X22652148Y30838308D01*
X22642301Y30807268D01*
X22642094Y30805424D01*
X22641553Y30803654D01*
X22638266Y30771299D01*
X22634634Y30738920D01*
X22634609Y30735299D01*
X22634602Y30735230D01*
X22634608Y30735166D01*
X22634600Y30734000D01*
X22634600Y29228969D01*
X22333032Y28927400D01*
X16828909Y28927400D01*
X16255311Y29500997D01*
X16230147Y29521668D01*
X16205221Y29542583D01*
X16203600Y29543474D01*
X16202166Y29544652D01*
X16173448Y29560050D01*
X16144952Y29575716D01*
X16143187Y29576276D01*
X16141553Y29577152D01*
X16110435Y29586665D01*
X16079395Y29596512D01*
X16077551Y29596719D01*
X16075781Y29597260D01*
X16043426Y29600547D01*
X16011047Y29604179D01*
X16007426Y29604204D01*
X16007357Y29604211D01*
X16007293Y29604205D01*
X16006127Y29604213D01*
X14138813Y29604213D01*
X14106351Y29601030D01*
X14073988Y29598199D01*
X14072212Y29597683D01*
X14070365Y29597502D01*
X14039160Y29588080D01*
X14007943Y29579011D01*
X14006299Y29578159D01*
X14004524Y29577623D01*
X13975776Y29562337D01*
X13946882Y29547360D01*
X13945433Y29546203D01*
X13943798Y29545334D01*
X13918591Y29524776D01*
X13893131Y29504452D01*
X13890552Y29501909D01*
X13890500Y29501866D01*
X13890460Y29501817D01*
X13889628Y29500997D01*
X13139461Y28750829D01*
X13030255Y28751592D01*
X12922918Y28731116D01*
X12821602Y28690182D01*
X12730167Y28630348D01*
X12652095Y28553894D01*
X12590359Y28463732D01*
X12547312Y28363296D01*
X12524593Y28256411D01*
X12523068Y28147149D01*
X11882400Y28147149D01*
X11882400Y29845000D01*
X11878322Y29886593D01*
X11874680Y29928219D01*
X11874016Y29930504D01*
X11873784Y29932872D01*
X11861701Y29972892D01*
X11850047Y30013007D01*
X11848953Y30015118D01*
X11848265Y30017396D01*
X11828651Y30054285D01*
X11809415Y30091395D01*
X11807930Y30093255D01*
X11806814Y30095354D01*
X11780401Y30127740D01*
X11754330Y30160398D01*
X11751069Y30163704D01*
X11751010Y30163777D01*
X11750943Y30163833D01*
X11749895Y30164895D01*
X10075328Y31839462D01*
X10060999Y31911828D01*
X10019359Y32012855D01*
X9958888Y32103871D01*
X9881891Y32181407D01*
X9791300Y32242512D01*
X9690566Y32284857D01*
X9583525Y32306829D01*
X9474255Y32307592D01*
X9366918Y32287116D01*
X9265602Y32246182D01*
X9174167Y32186348D01*
X9096095Y32109894D01*
X9034359Y32019732D01*
X8991312Y31919296D01*
X8968593Y31812411D01*
X8967068Y31703149D01*
X6674517Y31703149D01*
X6948732Y31977364D01*
X7045706Y31956043D01*
X7154955Y31953754D01*
X7262567Y31972729D01*
X7364445Y32012245D01*
X7456706Y32070796D01*
X7535839Y32146152D01*
X7598827Y32235444D01*
X7637317Y32321895D01*
X27941600Y32321895D01*
X27941600Y31496541D01*
X27951300Y31447777D01*
X27970326Y31401844D01*
X27997948Y31360504D01*
X28033105Y31325348D01*
X28074444Y31297726D01*
X28120378Y31278700D01*
X28169141Y31269000D01*
X29146895Y31269000D01*
X29209995Y31332100D01*
X29209995Y32384995D01*
X29210005Y32384995D01*
X29210005Y31332100D01*
X29273105Y31269000D01*
X30250859Y31269000D01*
X30299622Y31278700D01*
X30345556Y31297726D01*
X30386895Y31325348D01*
X30422052Y31360504D01*
X30449674Y31401844D01*
X30468700Y31447777D01*
X30478400Y31496541D01*
X30478400Y32321895D01*
X30415300Y32384995D01*
X29210005Y32384995D01*
X29209995Y32384995D01*
X28004700Y32384995D01*
X27941600Y32321895D01*
X7637317Y32321895D01*
X7643272Y32335269D01*
X7667481Y32441826D01*
X7669224Y32566636D01*
X7647999Y32673828D01*
X7606359Y32774855D01*
X7545888Y32865871D01*
X7468891Y32943407D01*
X7378300Y33004512D01*
X7277566Y33046857D01*
X7170525Y33068829D01*
X7061255Y33069592D01*
X6953918Y33049116D01*
X6852602Y33008182D01*
X6761167Y32948348D01*
X6683095Y32871894D01*
X6621359Y32781732D01*
X6578312Y32681296D01*
X6557361Y32582729D01*
X4884461Y30909829D01*
X4775255Y30910592D01*
X4667918Y30890116D01*
X4566602Y30849182D01*
X4475167Y30789348D01*
X4397095Y30712894D01*
X4335359Y30622732D01*
X4292312Y30522296D01*
X4269593Y30415411D01*
X4268068Y30306149D01*
X327400Y30306149D01*
X327400Y33273459D01*
X27941600Y33273459D01*
X27941600Y32448105D01*
X28004700Y32385005D01*
X29209995Y32385005D01*
X29209995Y33437900D01*
X29210005Y33437900D01*
X29210005Y32385005D01*
X30415300Y32385005D01*
X30478400Y32448105D01*
X30478400Y33273459D01*
X30468700Y33322223D01*
X30449674Y33368156D01*
X30422052Y33409496D01*
X30386895Y33444652D01*
X30345556Y33472274D01*
X30299622Y33491300D01*
X30250859Y33501000D01*
X29273105Y33501000D01*
X29210005Y33437900D01*
X29209995Y33437900D01*
X29146895Y33501000D01*
X28169141Y33501000D01*
X28120378Y33491300D01*
X28074444Y33472274D01*
X28033105Y33444652D01*
X27997948Y33409496D01*
X27970326Y33368156D01*
X27951300Y33322223D01*
X27941600Y33273459D01*
X327400Y33273459D01*
X327400Y33962600D01*
X30787600Y33962600D01*
X30787600Y18107400D01*
M02*
