%TF.GenerationSoftware,KiCad,Pcbnew,7.0.2-0*%
%TF.CreationDate,2023-12-30T15:56:12-08:00*%
%TF.ProjectId,uart-friend2-usb,75617274-2d66-4726-9965-6e64322d7573,rev?*%
%TF.SameCoordinates,PX7735940PY6e263e0*%
%TF.FileFunction,Legend,Bot*%
%TF.FilePolarity,Positive*%
%FSLAX46Y46*%
G04 Gerber Fmt 4.6, Leading zero omitted, Abs format (unit mm)*
G04 Created by KiCad (PCBNEW 7.0.2-0) date 2023-12-30 15:56:12*
%MOMM*%
%LPD*%
G01*
G04 APERTURE LIST*
%ADD10C,0.150000*%
%ADD11C,0.125000*%
%ADD12C,0.120000*%
%ADD13C,0.127000*%
%ADD14C,0.988060*%
%ADD15C,0.985520*%
G04 APERTURE END LIST*
D10*
X41169047Y4035667D02*
X40885714Y3335667D01*
X40885714Y3335667D02*
X40602380Y4035667D01*
X39873809Y4002334D02*
X39954762Y4035667D01*
X39954762Y4035667D02*
X40076190Y4035667D01*
X40076190Y4035667D02*
X40197619Y4002334D01*
X40197619Y4002334D02*
X40278571Y3935667D01*
X40278571Y3935667D02*
X40319048Y3869000D01*
X40319048Y3869000D02*
X40359524Y3735667D01*
X40359524Y3735667D02*
X40359524Y3635667D01*
X40359524Y3635667D02*
X40319048Y3502334D01*
X40319048Y3502334D02*
X40278571Y3435667D01*
X40278571Y3435667D02*
X40197619Y3369000D01*
X40197619Y3369000D02*
X40076190Y3335667D01*
X40076190Y3335667D02*
X39995238Y3335667D01*
X39995238Y3335667D02*
X39873809Y3369000D01*
X39873809Y3369000D02*
X39833333Y3402334D01*
X39833333Y3402334D02*
X39833333Y3635667D01*
X39833333Y3635667D02*
X39995238Y3635667D01*
X39469048Y3602334D02*
X38821429Y3602334D01*
X39145238Y3335667D02*
X39145238Y3869000D01*
X38416667Y3602334D02*
X37769048Y3602334D01*
X36919047Y4002334D02*
X37000000Y4035667D01*
X37000000Y4035667D02*
X37121428Y4035667D01*
X37121428Y4035667D02*
X37242857Y4002334D01*
X37242857Y4002334D02*
X37323809Y3935667D01*
X37323809Y3935667D02*
X37364286Y3869000D01*
X37364286Y3869000D02*
X37404762Y3735667D01*
X37404762Y3735667D02*
X37404762Y3635667D01*
X37404762Y3635667D02*
X37364286Y3502334D01*
X37364286Y3502334D02*
X37323809Y3435667D01*
X37323809Y3435667D02*
X37242857Y3369000D01*
X37242857Y3369000D02*
X37121428Y3335667D01*
X37121428Y3335667D02*
X37040476Y3335667D01*
X37040476Y3335667D02*
X36919047Y3369000D01*
X36919047Y3369000D02*
X36878571Y3402334D01*
X36878571Y3402334D02*
X36878571Y3635667D01*
X36878571Y3635667D02*
X37040476Y3635667D01*
D11*
X50450000Y13085667D02*
X50683333Y13419000D01*
X50850000Y13085667D02*
X50850000Y13785667D01*
X50850000Y13785667D02*
X50583333Y13785667D01*
X50583333Y13785667D02*
X50516667Y13752334D01*
X50516667Y13752334D02*
X50483333Y13719000D01*
X50483333Y13719000D02*
X50450000Y13652334D01*
X50450000Y13652334D02*
X50450000Y13552334D01*
X50450000Y13552334D02*
X50483333Y13485667D01*
X50483333Y13485667D02*
X50516667Y13452334D01*
X50516667Y13452334D02*
X50583333Y13419000D01*
X50583333Y13419000D02*
X50850000Y13419000D01*
X50216667Y13785667D02*
X49750000Y13085667D01*
X49750000Y13785667D02*
X50216667Y13085667D01*
X49116666Y13085667D02*
X49516666Y13085667D01*
X49316666Y13085667D02*
X49316666Y13785667D01*
X49316666Y13785667D02*
X49383333Y13685667D01*
X49383333Y13685667D02*
X49450000Y13619000D01*
X49450000Y13619000D02*
X49516666Y13585667D01*
X48816666Y13085667D02*
X48816666Y13785667D01*
X48816666Y13785667D02*
X48416666Y13085667D01*
X48416666Y13085667D02*
X48416666Y13785667D01*
D10*
X45433333Y3402334D02*
X45466666Y3369000D01*
X45466666Y3369000D02*
X45566666Y3335667D01*
X45566666Y3335667D02*
X45633333Y3335667D01*
X45633333Y3335667D02*
X45733333Y3369000D01*
X45733333Y3369000D02*
X45800000Y3435667D01*
X45800000Y3435667D02*
X45833333Y3502334D01*
X45833333Y3502334D02*
X45866666Y3635667D01*
X45866666Y3635667D02*
X45866666Y3735667D01*
X45866666Y3735667D02*
X45833333Y3869000D01*
X45833333Y3869000D02*
X45800000Y3935667D01*
X45800000Y3935667D02*
X45733333Y4002334D01*
X45733333Y4002334D02*
X45633333Y4035667D01*
X45633333Y4035667D02*
X45566666Y4035667D01*
X45566666Y4035667D02*
X45466666Y4002334D01*
X45466666Y4002334D02*
X45433333Y3969000D01*
X44733333Y3402334D02*
X44766666Y3369000D01*
X44766666Y3369000D02*
X44866666Y3335667D01*
X44866666Y3335667D02*
X44933333Y3335667D01*
X44933333Y3335667D02*
X45033333Y3369000D01*
X45033333Y3369000D02*
X45100000Y3435667D01*
X45100000Y3435667D02*
X45133333Y3502334D01*
X45133333Y3502334D02*
X45166666Y3635667D01*
X45166666Y3635667D02*
X45166666Y3735667D01*
X45166666Y3735667D02*
X45133333Y3869000D01*
X45133333Y3869000D02*
X45100000Y3935667D01*
X45100000Y3935667D02*
X45033333Y4002334D01*
X45033333Y4002334D02*
X44933333Y4035667D01*
X44933333Y4035667D02*
X44866666Y4035667D01*
X44866666Y4035667D02*
X44766666Y4002334D01*
X44766666Y4002334D02*
X44733333Y3969000D01*
X32559523Y2540000D02*
X32416666Y2492381D01*
X32416666Y2492381D02*
X32178571Y2492381D01*
X32178571Y2492381D02*
X32083333Y2540000D01*
X32083333Y2540000D02*
X32035714Y2587620D01*
X32035714Y2587620D02*
X31988095Y2682858D01*
X31988095Y2682858D02*
X31988095Y2778096D01*
X31988095Y2778096D02*
X32035714Y2873334D01*
X32035714Y2873334D02*
X32083333Y2920953D01*
X32083333Y2920953D02*
X32178571Y2968572D01*
X32178571Y2968572D02*
X32369047Y3016191D01*
X32369047Y3016191D02*
X32464285Y3063810D01*
X32464285Y3063810D02*
X32511904Y3111429D01*
X32511904Y3111429D02*
X32559523Y3206667D01*
X32559523Y3206667D02*
X32559523Y3301905D01*
X32559523Y3301905D02*
X32511904Y3397143D01*
X32511904Y3397143D02*
X32464285Y3444762D01*
X32464285Y3444762D02*
X32369047Y3492381D01*
X32369047Y3492381D02*
X32130952Y3492381D01*
X32130952Y3492381D02*
X31988095Y3444762D01*
X31654761Y3492381D02*
X31416666Y2492381D01*
X31416666Y2492381D02*
X31226190Y3206667D01*
X31226190Y3206667D02*
X31035714Y2492381D01*
X31035714Y2492381D02*
X30797619Y3492381D01*
X30416666Y2492381D02*
X30416666Y3492381D01*
X30416666Y3492381D02*
X30178571Y3492381D01*
X30178571Y3492381D02*
X30035714Y3444762D01*
X30035714Y3444762D02*
X29940476Y3349524D01*
X29940476Y3349524D02*
X29892857Y3254286D01*
X29892857Y3254286D02*
X29845238Y3063810D01*
X29845238Y3063810D02*
X29845238Y2920953D01*
X29845238Y2920953D02*
X29892857Y2730477D01*
X29892857Y2730477D02*
X29940476Y2635239D01*
X29940476Y2635239D02*
X30035714Y2540000D01*
X30035714Y2540000D02*
X30178571Y2492381D01*
X30178571Y2492381D02*
X30416666Y2492381D01*
X32511904Y872381D02*
X32511904Y1872381D01*
X32511904Y1872381D02*
X32273809Y1872381D01*
X32273809Y1872381D02*
X32130952Y1824762D01*
X32130952Y1824762D02*
X32035714Y1729524D01*
X32035714Y1729524D02*
X31988095Y1634286D01*
X31988095Y1634286D02*
X31940476Y1443810D01*
X31940476Y1443810D02*
X31940476Y1300953D01*
X31940476Y1300953D02*
X31988095Y1110477D01*
X31988095Y1110477D02*
X32035714Y1015239D01*
X32035714Y1015239D02*
X32130952Y920000D01*
X32130952Y920000D02*
X32273809Y872381D01*
X32273809Y872381D02*
X32511904Y872381D01*
X31511904Y872381D02*
X31511904Y1872381D01*
X31511904Y1491429D02*
X31416666Y1539048D01*
X31416666Y1539048D02*
X31226190Y1539048D01*
X31226190Y1539048D02*
X31130952Y1491429D01*
X31130952Y1491429D02*
X31083333Y1443810D01*
X31083333Y1443810D02*
X31035714Y1348572D01*
X31035714Y1348572D02*
X31035714Y1062858D01*
X31035714Y1062858D02*
X31083333Y967620D01*
X31083333Y967620D02*
X31130952Y920000D01*
X31130952Y920000D02*
X31226190Y872381D01*
X31226190Y872381D02*
X31416666Y872381D01*
X31416666Y872381D02*
X31511904Y920000D01*
X30178571Y1539048D02*
X30178571Y729524D01*
X30178571Y729524D02*
X30226190Y634286D01*
X30226190Y634286D02*
X30273809Y586667D01*
X30273809Y586667D02*
X30369047Y539048D01*
X30369047Y539048D02*
X30511904Y539048D01*
X30511904Y539048D02*
X30607142Y586667D01*
X30178571Y920000D02*
X30273809Y872381D01*
X30273809Y872381D02*
X30464285Y872381D01*
X30464285Y872381D02*
X30559523Y920000D01*
X30559523Y920000D02*
X30607142Y967620D01*
X30607142Y967620D02*
X30654761Y1062858D01*
X30654761Y1062858D02*
X30654761Y1348572D01*
X30654761Y1348572D02*
X30607142Y1443810D01*
X30607142Y1443810D02*
X30559523Y1491429D01*
X30559523Y1491429D02*
X30464285Y1539048D01*
X30464285Y1539048D02*
X30273809Y1539048D01*
X30273809Y1539048D02*
X30178571Y1491429D01*
X10464333Y10669048D02*
X11164333Y10385715D01*
X11164333Y10385715D02*
X10464333Y10102381D01*
X10497666Y9373810D02*
X10464333Y9454763D01*
X10464333Y9454763D02*
X10464333Y9576191D01*
X10464333Y9576191D02*
X10497666Y9697620D01*
X10497666Y9697620D02*
X10564333Y9778572D01*
X10564333Y9778572D02*
X10631000Y9819049D01*
X10631000Y9819049D02*
X10764333Y9859525D01*
X10764333Y9859525D02*
X10864333Y9859525D01*
X10864333Y9859525D02*
X10997666Y9819049D01*
X10997666Y9819049D02*
X11064333Y9778572D01*
X11064333Y9778572D02*
X11131000Y9697620D01*
X11131000Y9697620D02*
X11164333Y9576191D01*
X11164333Y9576191D02*
X11164333Y9495239D01*
X11164333Y9495239D02*
X11131000Y9373810D01*
X11131000Y9373810D02*
X11097666Y9333334D01*
X11097666Y9333334D02*
X10864333Y9333334D01*
X10864333Y9333334D02*
X10864333Y9495239D01*
X10897666Y8969049D02*
X10897666Y8321429D01*
X11164333Y8645239D02*
X10631000Y8645239D01*
X10897666Y7916668D02*
X10897666Y7269048D01*
X10497666Y6419048D02*
X10464333Y6500001D01*
X10464333Y6500001D02*
X10464333Y6621429D01*
X10464333Y6621429D02*
X10497666Y6742858D01*
X10497666Y6742858D02*
X10564333Y6823810D01*
X10564333Y6823810D02*
X10631000Y6864287D01*
X10631000Y6864287D02*
X10764333Y6904763D01*
X10764333Y6904763D02*
X10864333Y6904763D01*
X10864333Y6904763D02*
X10997666Y6864287D01*
X10997666Y6864287D02*
X11064333Y6823810D01*
X11064333Y6823810D02*
X11131000Y6742858D01*
X11131000Y6742858D02*
X11164333Y6621429D01*
X11164333Y6621429D02*
X11164333Y6540477D01*
X11164333Y6540477D02*
X11131000Y6419048D01*
X11131000Y6419048D02*
X11097666Y6378572D01*
X11097666Y6378572D02*
X10864333Y6378572D01*
X10864333Y6378572D02*
X10864333Y6540477D01*
D11*
X50750000Y3285667D02*
X50350000Y3285667D01*
X50550000Y2585667D02*
X50550000Y3285667D01*
X50183334Y3285667D02*
X49716667Y2585667D01*
X49716667Y3285667D02*
X50183334Y2585667D01*
X49083333Y2585667D02*
X49483333Y2585667D01*
X49283333Y2585667D02*
X49283333Y3285667D01*
X49283333Y3285667D02*
X49350000Y3185667D01*
X49350000Y3185667D02*
X49416667Y3119000D01*
X49416667Y3119000D02*
X49483333Y3085667D01*
X48783333Y2585667D02*
X48783333Y3285667D01*
X48783333Y3285667D02*
X48516666Y3285667D01*
X48516666Y3285667D02*
X48450000Y3252334D01*
X48450000Y3252334D02*
X48416666Y3219000D01*
X48416666Y3219000D02*
X48383333Y3152334D01*
X48383333Y3152334D02*
X48383333Y3052334D01*
X48383333Y3052334D02*
X48416666Y2985667D01*
X48416666Y2985667D02*
X48450000Y2952334D01*
X48450000Y2952334D02*
X48516666Y2919000D01*
X48516666Y2919000D02*
X48783333Y2919000D01*
D10*
%TO.C,TP6*%
X47883333Y6626167D02*
X47483333Y6626167D01*
X47683333Y5926167D02*
X47683333Y6626167D01*
X47250000Y5926167D02*
X47250000Y6626167D01*
X47250000Y6626167D02*
X46983333Y6626167D01*
X46983333Y6626167D02*
X46916667Y6592834D01*
X46916667Y6592834D02*
X46883333Y6559500D01*
X46883333Y6559500D02*
X46850000Y6492834D01*
X46850000Y6492834D02*
X46850000Y6392834D01*
X46850000Y6392834D02*
X46883333Y6326167D01*
X46883333Y6326167D02*
X46916667Y6292834D01*
X46916667Y6292834D02*
X46983333Y6259500D01*
X46983333Y6259500D02*
X47250000Y6259500D01*
X46250000Y6626167D02*
X46383333Y6626167D01*
X46383333Y6626167D02*
X46450000Y6592834D01*
X46450000Y6592834D02*
X46483333Y6559500D01*
X46483333Y6559500D02*
X46550000Y6459500D01*
X46550000Y6459500D02*
X46583333Y6326167D01*
X46583333Y6326167D02*
X46583333Y6059500D01*
X46583333Y6059500D02*
X46550000Y5992834D01*
X46550000Y5992834D02*
X46516667Y5959500D01*
X46516667Y5959500D02*
X46450000Y5926167D01*
X46450000Y5926167D02*
X46316667Y5926167D01*
X46316667Y5926167D02*
X46250000Y5959500D01*
X46250000Y5959500D02*
X46216667Y5992834D01*
X46216667Y5992834D02*
X46183333Y6059500D01*
X46183333Y6059500D02*
X46183333Y6226167D01*
X46183333Y6226167D02*
X46216667Y6292834D01*
X46216667Y6292834D02*
X46250000Y6326167D01*
X46250000Y6326167D02*
X46316667Y6359500D01*
X46316667Y6359500D02*
X46450000Y6359500D01*
X46450000Y6359500D02*
X46516667Y6326167D01*
X46516667Y6326167D02*
X46550000Y6292834D01*
X46550000Y6292834D02*
X46583333Y6226167D01*
%TO.C,TP4*%
X48133333Y12376167D02*
X47733333Y12376167D01*
X47933333Y11676167D02*
X47933333Y12376167D01*
X47500000Y11676167D02*
X47500000Y12376167D01*
X47500000Y12376167D02*
X47233333Y12376167D01*
X47233333Y12376167D02*
X47166667Y12342834D01*
X47166667Y12342834D02*
X47133333Y12309500D01*
X47133333Y12309500D02*
X47100000Y12242834D01*
X47100000Y12242834D02*
X47100000Y12142834D01*
X47100000Y12142834D02*
X47133333Y12076167D01*
X47133333Y12076167D02*
X47166667Y12042834D01*
X47166667Y12042834D02*
X47233333Y12009500D01*
X47233333Y12009500D02*
X47500000Y12009500D01*
X46500000Y12142834D02*
X46500000Y11676167D01*
X46666667Y12409500D02*
X46833333Y11909500D01*
X46833333Y11909500D02*
X46400000Y11909500D01*
%TO.C,P2*%
X43326666Y4676167D02*
X43326666Y5376167D01*
X43326666Y5376167D02*
X43059999Y5376167D01*
X43059999Y5376167D02*
X42993333Y5342834D01*
X42993333Y5342834D02*
X42959999Y5309500D01*
X42959999Y5309500D02*
X42926666Y5242834D01*
X42926666Y5242834D02*
X42926666Y5142834D01*
X42926666Y5142834D02*
X42959999Y5076167D01*
X42959999Y5076167D02*
X42993333Y5042834D01*
X42993333Y5042834D02*
X43059999Y5009500D01*
X43059999Y5009500D02*
X43326666Y5009500D01*
X42659999Y5309500D02*
X42626666Y5342834D01*
X42626666Y5342834D02*
X42559999Y5376167D01*
X42559999Y5376167D02*
X42393333Y5376167D01*
X42393333Y5376167D02*
X42326666Y5342834D01*
X42326666Y5342834D02*
X42293333Y5309500D01*
X42293333Y5309500D02*
X42259999Y5242834D01*
X42259999Y5242834D02*
X42259999Y5176167D01*
X42259999Y5176167D02*
X42293333Y5076167D01*
X42293333Y5076167D02*
X42693333Y4676167D01*
X42693333Y4676167D02*
X42259999Y4676167D01*
%TO.C,TP1*%
X33883333Y8376167D02*
X33483333Y8376167D01*
X33683333Y7676167D02*
X33683333Y8376167D01*
X33250000Y7676167D02*
X33250000Y8376167D01*
X33250000Y8376167D02*
X32983333Y8376167D01*
X32983333Y8376167D02*
X32916667Y8342834D01*
X32916667Y8342834D02*
X32883333Y8309500D01*
X32883333Y8309500D02*
X32850000Y8242834D01*
X32850000Y8242834D02*
X32850000Y8142834D01*
X32850000Y8142834D02*
X32883333Y8076167D01*
X32883333Y8076167D02*
X32916667Y8042834D01*
X32916667Y8042834D02*
X32983333Y8009500D01*
X32983333Y8009500D02*
X33250000Y8009500D01*
X32183333Y7676167D02*
X32583333Y7676167D01*
X32383333Y7676167D02*
X32383333Y8376167D01*
X32383333Y8376167D02*
X32450000Y8276167D01*
X32450000Y8276167D02*
X32516667Y8209500D01*
X32516667Y8209500D02*
X32583333Y8176167D01*
%TO.C,TP7*%
X47883333Y4626167D02*
X47483333Y4626167D01*
X47683333Y3926167D02*
X47683333Y4626167D01*
X47250000Y3926167D02*
X47250000Y4626167D01*
X47250000Y4626167D02*
X46983333Y4626167D01*
X46983333Y4626167D02*
X46916667Y4592834D01*
X46916667Y4592834D02*
X46883333Y4559500D01*
X46883333Y4559500D02*
X46850000Y4492834D01*
X46850000Y4492834D02*
X46850000Y4392834D01*
X46850000Y4392834D02*
X46883333Y4326167D01*
X46883333Y4326167D02*
X46916667Y4292834D01*
X46916667Y4292834D02*
X46983333Y4259500D01*
X46983333Y4259500D02*
X47250000Y4259500D01*
X46616667Y4626167D02*
X46150000Y4626167D01*
X46150000Y4626167D02*
X46450000Y3926167D01*
%TO.C,P3*%
X10016666Y11736167D02*
X10016666Y12436167D01*
X10016666Y12436167D02*
X9749999Y12436167D01*
X9749999Y12436167D02*
X9683333Y12402834D01*
X9683333Y12402834D02*
X9649999Y12369500D01*
X9649999Y12369500D02*
X9616666Y12302834D01*
X9616666Y12302834D02*
X9616666Y12202834D01*
X9616666Y12202834D02*
X9649999Y12136167D01*
X9649999Y12136167D02*
X9683333Y12102834D01*
X9683333Y12102834D02*
X9749999Y12069500D01*
X9749999Y12069500D02*
X10016666Y12069500D01*
X9383333Y12436167D02*
X8949999Y12436167D01*
X8949999Y12436167D02*
X9183333Y12169500D01*
X9183333Y12169500D02*
X9083333Y12169500D01*
X9083333Y12169500D02*
X9016666Y12136167D01*
X9016666Y12136167D02*
X8983333Y12102834D01*
X8983333Y12102834D02*
X8949999Y12036167D01*
X8949999Y12036167D02*
X8949999Y11869500D01*
X8949999Y11869500D02*
X8983333Y11802834D01*
X8983333Y11802834D02*
X9016666Y11769500D01*
X9016666Y11769500D02*
X9083333Y11736167D01*
X9083333Y11736167D02*
X9283333Y11736167D01*
X9283333Y11736167D02*
X9349999Y11769500D01*
X9349999Y11769500D02*
X9383333Y11802834D01*
%TO.C,TP3*%
X24383333Y5126167D02*
X23983333Y5126167D01*
X24183333Y4426167D02*
X24183333Y5126167D01*
X23750000Y4426167D02*
X23750000Y5126167D01*
X23750000Y5126167D02*
X23483333Y5126167D01*
X23483333Y5126167D02*
X23416667Y5092834D01*
X23416667Y5092834D02*
X23383333Y5059500D01*
X23383333Y5059500D02*
X23350000Y4992834D01*
X23350000Y4992834D02*
X23350000Y4892834D01*
X23350000Y4892834D02*
X23383333Y4826167D01*
X23383333Y4826167D02*
X23416667Y4792834D01*
X23416667Y4792834D02*
X23483333Y4759500D01*
X23483333Y4759500D02*
X23750000Y4759500D01*
X23116667Y5126167D02*
X22683333Y5126167D01*
X22683333Y5126167D02*
X22916667Y4859500D01*
X22916667Y4859500D02*
X22816667Y4859500D01*
X22816667Y4859500D02*
X22750000Y4826167D01*
X22750000Y4826167D02*
X22716667Y4792834D01*
X22716667Y4792834D02*
X22683333Y4726167D01*
X22683333Y4726167D02*
X22683333Y4559500D01*
X22683333Y4559500D02*
X22716667Y4492834D01*
X22716667Y4492834D02*
X22750000Y4459500D01*
X22750000Y4459500D02*
X22816667Y4426167D01*
X22816667Y4426167D02*
X23016667Y4426167D01*
X23016667Y4426167D02*
X23083333Y4459500D01*
X23083333Y4459500D02*
X23116667Y4492834D01*
%TO.C,TP2*%
X33883333Y10876167D02*
X33483333Y10876167D01*
X33683333Y10176167D02*
X33683333Y10876167D01*
X33250000Y10176167D02*
X33250000Y10876167D01*
X33250000Y10876167D02*
X32983333Y10876167D01*
X32983333Y10876167D02*
X32916667Y10842834D01*
X32916667Y10842834D02*
X32883333Y10809500D01*
X32883333Y10809500D02*
X32850000Y10742834D01*
X32850000Y10742834D02*
X32850000Y10642834D01*
X32850000Y10642834D02*
X32883333Y10576167D01*
X32883333Y10576167D02*
X32916667Y10542834D01*
X32916667Y10542834D02*
X32983333Y10509500D01*
X32983333Y10509500D02*
X33250000Y10509500D01*
X32583333Y10809500D02*
X32550000Y10842834D01*
X32550000Y10842834D02*
X32483333Y10876167D01*
X32483333Y10876167D02*
X32316667Y10876167D01*
X32316667Y10876167D02*
X32250000Y10842834D01*
X32250000Y10842834D02*
X32216667Y10809500D01*
X32216667Y10809500D02*
X32183333Y10742834D01*
X32183333Y10742834D02*
X32183333Y10676167D01*
X32183333Y10676167D02*
X32216667Y10576167D01*
X32216667Y10576167D02*
X32616667Y10176167D01*
X32616667Y10176167D02*
X32183333Y10176167D01*
%TO.C,TP5*%
X47883333Y10376167D02*
X47483333Y10376167D01*
X47683333Y9676167D02*
X47683333Y10376167D01*
X47250000Y9676167D02*
X47250000Y10376167D01*
X47250000Y10376167D02*
X46983333Y10376167D01*
X46983333Y10376167D02*
X46916667Y10342834D01*
X46916667Y10342834D02*
X46883333Y10309500D01*
X46883333Y10309500D02*
X46850000Y10242834D01*
X46850000Y10242834D02*
X46850000Y10142834D01*
X46850000Y10142834D02*
X46883333Y10076167D01*
X46883333Y10076167D02*
X46916667Y10042834D01*
X46916667Y10042834D02*
X46983333Y10009500D01*
X46983333Y10009500D02*
X47250000Y10009500D01*
X46216667Y10376167D02*
X46550000Y10376167D01*
X46550000Y10376167D02*
X46583333Y10042834D01*
X46583333Y10042834D02*
X46550000Y10076167D01*
X46550000Y10076167D02*
X46483333Y10109500D01*
X46483333Y10109500D02*
X46316667Y10109500D01*
X46316667Y10109500D02*
X46250000Y10076167D01*
X46250000Y10076167D02*
X46216667Y10042834D01*
X46216667Y10042834D02*
X46183333Y9976167D01*
X46183333Y9976167D02*
X46183333Y9809500D01*
X46183333Y9809500D02*
X46216667Y9742834D01*
X46216667Y9742834D02*
X46250000Y9709500D01*
X46250000Y9709500D02*
X46316667Y9676167D01*
X46316667Y9676167D02*
X46483333Y9676167D01*
X46483333Y9676167D02*
X46550000Y9709500D01*
X46550000Y9709500D02*
X46583333Y9742834D01*
%TO.C,P4*%
X51766666Y7676167D02*
X51766666Y8376167D01*
X51766666Y8376167D02*
X51499999Y8376167D01*
X51499999Y8376167D02*
X51433333Y8342834D01*
X51433333Y8342834D02*
X51399999Y8309500D01*
X51399999Y8309500D02*
X51366666Y8242834D01*
X51366666Y8242834D02*
X51366666Y8142834D01*
X51366666Y8142834D02*
X51399999Y8076167D01*
X51399999Y8076167D02*
X51433333Y8042834D01*
X51433333Y8042834D02*
X51499999Y8009500D01*
X51499999Y8009500D02*
X51766666Y8009500D01*
X50766666Y8142834D02*
X50766666Y7676167D01*
X50933333Y8409500D02*
X51099999Y7909500D01*
X51099999Y7909500D02*
X50666666Y7909500D01*
D12*
%TO.C,TP6*%
X49700000Y5550000D02*
X49700000Y6950000D01*
X49700000Y6950000D02*
X48300000Y6950000D01*
X48300000Y5550000D02*
X49700000Y5550000D01*
X48300000Y6950000D02*
X48300000Y5550000D01*
%TO.C,TP4*%
X49700000Y11300000D02*
X49700000Y12700000D01*
X49700000Y12700000D02*
X48300000Y12700000D01*
X48300000Y11300000D02*
X49700000Y11300000D01*
X48300000Y12700000D02*
X48300000Y11300000D01*
%TO.C,P2*%
X36690000Y4305000D02*
X36690000Y4605507D01*
X40565000Y4305000D02*
X36690000Y4305000D01*
X40565000Y4305000D02*
X40565000Y4391724D01*
X41250000Y4305000D02*
X41935000Y4305000D01*
X41935000Y4305000D02*
X41935000Y5000000D01*
X36690000Y5394493D02*
X36690000Y5695000D01*
X40565000Y5608276D02*
X40565000Y5695000D01*
X40565000Y5695000D02*
X36690000Y5695000D01*
%TO.C,TP1*%
X31950000Y7300000D02*
X31950000Y8700000D01*
X31950000Y8700000D02*
X30550000Y8700000D01*
X30550000Y7300000D02*
X31950000Y7300000D01*
X30550000Y8700000D02*
X30550000Y7300000D01*
%TO.C,TP7*%
X49700000Y3550000D02*
X49700000Y4950000D01*
X49700000Y4950000D02*
X48300000Y4950000D01*
X48300000Y3550000D02*
X49700000Y3550000D01*
X48300000Y4950000D02*
X48300000Y3550000D01*
%TO.C,P3*%
X10195000Y5940000D02*
X9894493Y5940000D01*
X10195000Y9815000D02*
X10195000Y5940000D01*
X10195000Y9815000D02*
X10108276Y9815000D01*
X10195000Y10500000D02*
X10195000Y11185000D01*
X10195000Y11185000D02*
X9500000Y11185000D01*
X9105507Y5940000D02*
X8805000Y5940000D01*
X8891724Y9815000D02*
X8805000Y9815000D01*
X8805000Y9815000D02*
X8805000Y5940000D01*
%TO.C,TP3*%
X25950000Y4050000D02*
X25950000Y5450000D01*
X25950000Y5450000D02*
X24550000Y5450000D01*
X24550000Y4050000D02*
X25950000Y4050000D01*
X24550000Y5450000D02*
X24550000Y4050000D01*
%TO.C,TP2*%
X31950000Y9800000D02*
X31950000Y11200000D01*
X31950000Y11200000D02*
X30550000Y11200000D01*
X30550000Y9800000D02*
X31950000Y9800000D01*
X30550000Y11200000D02*
X30550000Y9800000D01*
D13*
%TO.C,J2*%
X29513900Y1461100D02*
X28332800Y280000D01*
X29513900Y2908900D02*
X28332800Y4090000D01*
X23646500Y280000D02*
X28332800Y280000D01*
X23646500Y4090000D02*
X28332800Y4090000D01*
X22694000Y3137500D02*
X22694000Y1232500D01*
X29513899Y1461101D02*
G75*
G03*
X29513899Y2908899I-723900J723899D01*
G01*
X22694000Y1232500D02*
G75*
G03*
X23646500Y280000I952500J0D01*
G01*
X23646500Y4090000D02*
G75*
G03*
X22694000Y3137500I0J-952500D01*
G01*
D12*
%TO.C,TP5*%
X49700000Y9300000D02*
X49700000Y10700000D01*
X49700000Y10700000D02*
X48300000Y10700000D01*
X48300000Y9300000D02*
X49700000Y9300000D01*
X48300000Y10700000D02*
X48300000Y9300000D01*
%TO.C,P4*%
X52000000Y13250000D02*
X53500000Y13250000D01*
X52000000Y11750000D02*
X52000000Y13250000D01*
X53500000Y2750000D02*
X52000000Y2750000D01*
X52000000Y2750000D02*
X52000000Y4250000D01*
X52000000Y4750000D02*
X51750000Y4500000D01*
X51750000Y5000000D01*
X52000000Y4750000D01*
G36*
X52000000Y4750000D02*
G01*
X51750000Y4500000D01*
X51750000Y5000000D01*
X52000000Y4750000D01*
G37*
%TD*%
D14*
%TO.C,J2*%
X28790000Y2185000D03*
D15*
X23710000Y1169000D03*
X23710000Y3201000D03*
%TD*%
M02*
