%TF.GenerationSoftware,KiCad,Pcbnew,7.0.2-0*%
%TF.CreationDate,2023-12-30T15:56:12-08:00*%
%TF.ProjectId,uart-friend2-usb,75617274-2d66-4726-9965-6e64322d7573,rev?*%
%TF.SameCoordinates,PX7735940PY6e263e0*%
%TF.FileFunction,Copper,L4,Bot*%
%TF.FilePolarity,Positive*%
%FSLAX46Y46*%
G04 Gerber Fmt 4.6, Leading zero omitted, Abs format (unit mm)*
G04 Created by KiCad (PCBNEW 7.0.2-0) date 2023-12-30 15:56:12*
%MOMM*%
%LPD*%
G01*
G04 APERTURE LIST*
G04 Aperture macros list*
%AMRoundRect*
0 Rectangle with rounded corners*
0 $1 Rounding radius*
0 $2 $3 $4 $5 $6 $7 $8 $9 X,Y pos of 4 corners*
0 Add a 4 corners polygon primitive as box body*
4,1,4,$2,$3,$4,$5,$6,$7,$8,$9,$2,$3,0*
0 Add four circle primitives for the rounded corners*
1,1,$1+$1,$2,$3*
1,1,$1+$1,$4,$5*
1,1,$1+$1,$6,$7*
1,1,$1+$1,$8,$9*
0 Add four rect primitives between the rounded corners*
20,1,$1+$1,$2,$3,$4,$5,0*
20,1,$1+$1,$4,$5,$6,$7,0*
20,1,$1+$1,$6,$7,$8,$9,0*
20,1,$1+$1,$8,$9,$2,$3,0*%
G04 Aperture macros list end*
%ADD10C,0.152400*%
%TA.AperFunction,NonConductor*%
%ADD11C,0.152400*%
%TD*%
%TA.AperFunction,ComponentPad*%
%ADD12O,2.100000X1.000000*%
%TD*%
%TA.AperFunction,ComponentPad*%
%ADD13O,1.800000X1.000000*%
%TD*%
%TA.AperFunction,SMDPad,CuDef*%
%ADD14R,1.000000X1.000000*%
%TD*%
%TA.AperFunction,ComponentPad*%
%ADD15R,0.850000X0.850000*%
%TD*%
%TA.AperFunction,ComponentPad*%
%ADD16O,0.850000X0.850000*%
%TD*%
%TA.AperFunction,ConnectorPad*%
%ADD17C,0.784860*%
%TD*%
%TA.AperFunction,SMDPad,CuDef*%
%ADD18RoundRect,0.095000X-0.575000X0.095000X-0.575000X-0.095000X0.575000X-0.095000X0.575000X0.095000X0*%
%TD*%
%TA.AperFunction,ComponentPad*%
%ADD19O,2.030000X1.000000*%
%TD*%
%TA.AperFunction,SMDPad,CuDef*%
%ADD20RoundRect,0.095000X-0.575000X0.305000X-0.575000X-0.305000X0.575000X-0.305000X0.575000X0.305000X0*%
%TD*%
%TA.AperFunction,ViaPad*%
%ADD21C,0.812800*%
%TD*%
%TA.AperFunction,Conductor*%
%ADD22C,0.203200*%
%TD*%
%TA.AperFunction,Conductor*%
%ADD23C,0.304800*%
%TD*%
%TA.AperFunction,Conductor*%
%ADD24C,0.457200*%
%TD*%
%TA.AperFunction,Conductor*%
%ADD25C,0.266700*%
%TD*%
%TA.AperFunction,Conductor*%
%ADD26C,0.254000*%
%TD*%
G04 APERTURE END LIST*
D10*
D11*
X42683333Y1802334D02*
X42683333Y1335667D01*
X43047619Y1802334D02*
X43047619Y1435667D01*
X43047619Y1435667D02*
X43007142Y1369000D01*
X43007142Y1369000D02*
X42926190Y1335667D01*
X42926190Y1335667D02*
X42804761Y1335667D01*
X42804761Y1335667D02*
X42723809Y1369000D01*
X42723809Y1369000D02*
X42683333Y1402334D01*
X41914285Y1335667D02*
X41914285Y1702334D01*
X41914285Y1702334D02*
X41954761Y1769000D01*
X41954761Y1769000D02*
X42035713Y1802334D01*
X42035713Y1802334D02*
X42197618Y1802334D01*
X42197618Y1802334D02*
X42278571Y1769000D01*
X41914285Y1369000D02*
X41995237Y1335667D01*
X41995237Y1335667D02*
X42197618Y1335667D01*
X42197618Y1335667D02*
X42278571Y1369000D01*
X42278571Y1369000D02*
X42319047Y1435667D01*
X42319047Y1435667D02*
X42319047Y1502334D01*
X42319047Y1502334D02*
X42278571Y1569000D01*
X42278571Y1569000D02*
X42197618Y1602334D01*
X42197618Y1602334D02*
X41995237Y1602334D01*
X41995237Y1602334D02*
X41914285Y1635667D01*
X41509523Y1335667D02*
X41509523Y1802334D01*
X41509523Y1669000D02*
X41469046Y1735667D01*
X41469046Y1735667D02*
X41428570Y1769000D01*
X41428570Y1769000D02*
X41347618Y1802334D01*
X41347618Y1802334D02*
X41266665Y1802334D01*
X41104761Y1802334D02*
X40780952Y1802334D01*
X40983333Y2035667D02*
X40983333Y1435667D01*
X40983333Y1435667D02*
X40942856Y1369000D01*
X40942856Y1369000D02*
X40861904Y1335667D01*
X40861904Y1335667D02*
X40780952Y1335667D01*
X40497619Y1602334D02*
X39850000Y1602334D01*
X39566666Y1802334D02*
X39242857Y1802334D01*
X39445238Y1335667D02*
X39445238Y1935667D01*
X39445238Y1935667D02*
X39404761Y2002334D01*
X39404761Y2002334D02*
X39323809Y2035667D01*
X39323809Y2035667D02*
X39242857Y2035667D01*
X38959524Y1335667D02*
X38959524Y1802334D01*
X38959524Y1669000D02*
X38919047Y1735667D01*
X38919047Y1735667D02*
X38878571Y1769000D01*
X38878571Y1769000D02*
X38797619Y1802334D01*
X38797619Y1802334D02*
X38716666Y1802334D01*
X38433334Y1335667D02*
X38433334Y1802334D01*
X38433334Y2035667D02*
X38473810Y2002334D01*
X38473810Y2002334D02*
X38433334Y1969000D01*
X38433334Y1969000D02*
X38392857Y2002334D01*
X38392857Y2002334D02*
X38433334Y2035667D01*
X38433334Y2035667D02*
X38433334Y1969000D01*
X37704762Y1369000D02*
X37785714Y1335667D01*
X37785714Y1335667D02*
X37947619Y1335667D01*
X37947619Y1335667D02*
X38028572Y1369000D01*
X38028572Y1369000D02*
X38069048Y1435667D01*
X38069048Y1435667D02*
X38069048Y1702334D01*
X38069048Y1702334D02*
X38028572Y1769000D01*
X38028572Y1769000D02*
X37947619Y1802334D01*
X37947619Y1802334D02*
X37785714Y1802334D01*
X37785714Y1802334D02*
X37704762Y1769000D01*
X37704762Y1769000D02*
X37664286Y1702334D01*
X37664286Y1702334D02*
X37664286Y1635667D01*
X37664286Y1635667D02*
X38069048Y1569000D01*
X37300001Y1802334D02*
X37300001Y1335667D01*
X37300001Y1735667D02*
X37259524Y1769000D01*
X37259524Y1769000D02*
X37178572Y1802334D01*
X37178572Y1802334D02*
X37057143Y1802334D01*
X37057143Y1802334D02*
X36976191Y1769000D01*
X36976191Y1769000D02*
X36935715Y1702334D01*
X36935715Y1702334D02*
X36935715Y1335667D01*
X36166667Y1335667D02*
X36166667Y2035667D01*
X36166667Y1369000D02*
X36247619Y1335667D01*
X36247619Y1335667D02*
X36409524Y1335667D01*
X36409524Y1335667D02*
X36490476Y1369000D01*
X36490476Y1369000D02*
X36530953Y1402334D01*
X36530953Y1402334D02*
X36571429Y1469000D01*
X36571429Y1469000D02*
X36571429Y1669000D01*
X36571429Y1669000D02*
X36530953Y1735667D01*
X36530953Y1735667D02*
X36490476Y1769000D01*
X36490476Y1769000D02*
X36409524Y1802334D01*
X36409524Y1802334D02*
X36247619Y1802334D01*
X36247619Y1802334D02*
X36166667Y1769000D01*
X35802381Y1969000D02*
X35761905Y2002334D01*
X35761905Y2002334D02*
X35680952Y2035667D01*
X35680952Y2035667D02*
X35478571Y2035667D01*
X35478571Y2035667D02*
X35397619Y2002334D01*
X35397619Y2002334D02*
X35357143Y1969000D01*
X35357143Y1969000D02*
X35316666Y1902334D01*
X35316666Y1902334D02*
X35316666Y1835667D01*
X35316666Y1835667D02*
X35357143Y1735667D01*
X35357143Y1735667D02*
X35842857Y1335667D01*
X35842857Y1335667D02*
X35316666Y1335667D01*
X34952381Y1602334D02*
X34304762Y1602334D01*
X33535714Y1802334D02*
X33535714Y1335667D01*
X33900000Y1802334D02*
X33900000Y1435667D01*
X33900000Y1435667D02*
X33859523Y1369000D01*
X33859523Y1369000D02*
X33778571Y1335667D01*
X33778571Y1335667D02*
X33657142Y1335667D01*
X33657142Y1335667D02*
X33576190Y1369000D01*
X33576190Y1369000D02*
X33535714Y1402334D01*
X33171428Y1369000D02*
X33090475Y1335667D01*
X33090475Y1335667D02*
X32928571Y1335667D01*
X32928571Y1335667D02*
X32847618Y1369000D01*
X32847618Y1369000D02*
X32807142Y1435667D01*
X32807142Y1435667D02*
X32807142Y1469000D01*
X32807142Y1469000D02*
X32847618Y1535667D01*
X32847618Y1535667D02*
X32928571Y1569000D01*
X32928571Y1569000D02*
X33049999Y1569000D01*
X33049999Y1569000D02*
X33130952Y1602334D01*
X33130952Y1602334D02*
X33171428Y1669000D01*
X33171428Y1669000D02*
X33171428Y1702334D01*
X33171428Y1702334D02*
X33130952Y1769000D01*
X33130952Y1769000D02*
X33049999Y1802334D01*
X33049999Y1802334D02*
X32928571Y1802334D01*
X32928571Y1802334D02*
X32847618Y1769000D01*
X32442857Y1335667D02*
X32442857Y2035667D01*
X32442857Y1769000D02*
X32361904Y1802334D01*
X32361904Y1802334D02*
X32199999Y1802334D01*
X32199999Y1802334D02*
X32119047Y1769000D01*
X32119047Y1769000D02*
X32078571Y1735667D01*
X32078571Y1735667D02*
X32038095Y1669000D01*
X32038095Y1669000D02*
X32038095Y1469000D01*
X32038095Y1469000D02*
X32078571Y1402334D01*
X32078571Y1402334D02*
X32119047Y1369000D01*
X32119047Y1369000D02*
X32199999Y1335667D01*
X32199999Y1335667D02*
X32361904Y1335667D01*
X32361904Y1335667D02*
X32442857Y1369000D01*
D10*
D11*
X12047619Y1354023D02*
X12047619Y1920690D01*
X12047619Y2204023D02*
X12088095Y2163547D01*
X12088095Y2163547D02*
X12047619Y2123071D01*
X12047619Y2123071D02*
X12007142Y2163547D01*
X12007142Y2163547D02*
X12047619Y2204023D01*
X12047619Y2204023D02*
X12047619Y2123071D01*
X11642857Y1354023D02*
X11642857Y2204023D01*
X11278571Y1354023D02*
X11278571Y1799261D01*
X11278571Y1799261D02*
X11319047Y1880214D01*
X11319047Y1880214D02*
X11399999Y1920690D01*
X11399999Y1920690D02*
X11521428Y1920690D01*
X11521428Y1920690D02*
X11602380Y1880214D01*
X11602380Y1880214D02*
X11642857Y1839738D01*
X10509523Y1354023D02*
X10509523Y1799261D01*
X10509523Y1799261D02*
X10549999Y1880214D01*
X10549999Y1880214D02*
X10630951Y1920690D01*
X10630951Y1920690D02*
X10792856Y1920690D01*
X10792856Y1920690D02*
X10873809Y1880214D01*
X10509523Y1394499D02*
X10590475Y1354023D01*
X10590475Y1354023D02*
X10792856Y1354023D01*
X10792856Y1354023D02*
X10873809Y1394499D01*
X10873809Y1394499D02*
X10914285Y1475452D01*
X10914285Y1475452D02*
X10914285Y1556404D01*
X10914285Y1556404D02*
X10873809Y1637357D01*
X10873809Y1637357D02*
X10792856Y1677833D01*
X10792856Y1677833D02*
X10590475Y1677833D01*
X10590475Y1677833D02*
X10509523Y1718309D01*
X10104761Y1354023D02*
X10104761Y1920690D01*
X10104761Y1758785D02*
X10064284Y1839738D01*
X10064284Y1839738D02*
X10023808Y1880214D01*
X10023808Y1880214D02*
X9942856Y1920690D01*
X9942856Y1920690D02*
X9861903Y1920690D01*
X9699999Y1920690D02*
X9376190Y1920690D01*
X9578571Y2204023D02*
X9578571Y1475452D01*
X9578571Y1475452D02*
X9538094Y1394499D01*
X9538094Y1394499D02*
X9457142Y1354023D01*
X9457142Y1354023D02*
X9376190Y1354023D01*
X9173809Y1920690D02*
X9011904Y1354023D01*
X9011904Y1354023D02*
X8849999Y1758785D01*
X8849999Y1758785D02*
X8688095Y1354023D01*
X8688095Y1354023D02*
X8526190Y1920690D01*
X8202381Y1354023D02*
X8202381Y1920690D01*
X8202381Y2204023D02*
X8242857Y2163547D01*
X8242857Y2163547D02*
X8202381Y2123071D01*
X8202381Y2123071D02*
X8161904Y2163547D01*
X8161904Y2163547D02*
X8202381Y2204023D01*
X8202381Y2204023D02*
X8202381Y2123071D01*
X7433333Y1920690D02*
X7433333Y1232595D01*
X7433333Y1232595D02*
X7473809Y1151642D01*
X7473809Y1151642D02*
X7514285Y1111166D01*
X7514285Y1111166D02*
X7595238Y1070690D01*
X7595238Y1070690D02*
X7716666Y1070690D01*
X7716666Y1070690D02*
X7797619Y1111166D01*
X7433333Y1394499D02*
X7514285Y1354023D01*
X7514285Y1354023D02*
X7676190Y1354023D01*
X7676190Y1354023D02*
X7757142Y1394499D01*
X7757142Y1394499D02*
X7797619Y1434976D01*
X7797619Y1434976D02*
X7838095Y1515928D01*
X7838095Y1515928D02*
X7838095Y1758785D01*
X7838095Y1758785D02*
X7797619Y1839738D01*
X7797619Y1839738D02*
X7757142Y1880214D01*
X7757142Y1880214D02*
X7676190Y1920690D01*
X7676190Y1920690D02*
X7514285Y1920690D01*
X7514285Y1920690D02*
X7433333Y1880214D01*
X6421428Y2123071D02*
X6380952Y2163547D01*
X6380952Y2163547D02*
X6299999Y2204023D01*
X6299999Y2204023D02*
X6097618Y2204023D01*
X6097618Y2204023D02*
X6016666Y2163547D01*
X6016666Y2163547D02*
X5976190Y2123071D01*
X5976190Y2123071D02*
X5935713Y2042119D01*
X5935713Y2042119D02*
X5935713Y1961166D01*
X5935713Y1961166D02*
X5976190Y1839738D01*
X5976190Y1839738D02*
X6461904Y1354023D01*
X6461904Y1354023D02*
X5935713Y1354023D01*
X5409523Y2204023D02*
X5328570Y2204023D01*
X5328570Y2204023D02*
X5247618Y2163547D01*
X5247618Y2163547D02*
X5207142Y2123071D01*
X5207142Y2123071D02*
X5166666Y2042119D01*
X5166666Y2042119D02*
X5126189Y1880214D01*
X5126189Y1880214D02*
X5126189Y1677833D01*
X5126189Y1677833D02*
X5166666Y1515928D01*
X5166666Y1515928D02*
X5207142Y1434976D01*
X5207142Y1434976D02*
X5247618Y1394499D01*
X5247618Y1394499D02*
X5328570Y1354023D01*
X5328570Y1354023D02*
X5409523Y1354023D01*
X5409523Y1354023D02*
X5490475Y1394499D01*
X5490475Y1394499D02*
X5530951Y1434976D01*
X5530951Y1434976D02*
X5571428Y1515928D01*
X5571428Y1515928D02*
X5611904Y1677833D01*
X5611904Y1677833D02*
X5611904Y1880214D01*
X5611904Y1880214D02*
X5571428Y2042119D01*
X5571428Y2042119D02*
X5530951Y2123071D01*
X5530951Y2123071D02*
X5490475Y2163547D01*
X5490475Y2163547D02*
X5409523Y2204023D01*
X4802380Y2123071D02*
X4761904Y2163547D01*
X4761904Y2163547D02*
X4680951Y2204023D01*
X4680951Y2204023D02*
X4478570Y2204023D01*
X4478570Y2204023D02*
X4397618Y2163547D01*
X4397618Y2163547D02*
X4357142Y2123071D01*
X4357142Y2123071D02*
X4316665Y2042119D01*
X4316665Y2042119D02*
X4316665Y1961166D01*
X4316665Y1961166D02*
X4357142Y1839738D01*
X4357142Y1839738D02*
X4842856Y1354023D01*
X4842856Y1354023D02*
X4316665Y1354023D01*
X4033332Y2204023D02*
X3507141Y2204023D01*
X3507141Y2204023D02*
X3790475Y1880214D01*
X3790475Y1880214D02*
X3669046Y1880214D01*
X3669046Y1880214D02*
X3588094Y1839738D01*
X3588094Y1839738D02*
X3547618Y1799261D01*
X3547618Y1799261D02*
X3507141Y1718309D01*
X3507141Y1718309D02*
X3507141Y1515928D01*
X3507141Y1515928D02*
X3547618Y1434976D01*
X3547618Y1434976D02*
X3588094Y1394499D01*
X3588094Y1394499D02*
X3669046Y1354023D01*
X3669046Y1354023D02*
X3911903Y1354023D01*
X3911903Y1354023D02*
X3992856Y1394499D01*
X3992856Y1394499D02*
X4033332Y1434976D01*
X2009522Y1354023D02*
X2292856Y1758785D01*
X2495237Y1354023D02*
X2495237Y2204023D01*
X2495237Y2204023D02*
X2171427Y2204023D01*
X2171427Y2204023D02*
X2090475Y2163547D01*
X2090475Y2163547D02*
X2049998Y2123071D01*
X2049998Y2123071D02*
X2009522Y2042119D01*
X2009522Y2042119D02*
X2009522Y1920690D01*
X2009522Y1920690D02*
X2049998Y1839738D01*
X2049998Y1839738D02*
X2090475Y1799261D01*
X2090475Y1799261D02*
X2171427Y1758785D01*
X2171427Y1758785D02*
X2495237Y1758785D01*
X1199998Y1354023D02*
X1685713Y1354023D01*
X1442856Y1354023D02*
X1442856Y2204023D01*
X1442856Y2204023D02*
X1523808Y2082595D01*
X1523808Y2082595D02*
X1604760Y2001642D01*
X1604760Y2001642D02*
X1685713Y1961166D01*
D12*
%TO.P,J1,S1,SHIELD*%
%TO.N,GND*%
X6875000Y12320000D03*
D13*
X2675000Y12320000D03*
D12*
X6875000Y3680000D03*
D13*
X2675000Y3680000D03*
%TD*%
D14*
%TO.P,TP6,1,1*%
%TO.N,/USB0_SSTX1_N*%
X49000000Y6250000D03*
%TD*%
%TO.P,TP4,1,1*%
%TO.N,/USB0_SSRX1_N*%
X49000000Y12000000D03*
%TD*%
D15*
%TO.P,P2,1,VBUS*%
%TO.N,/VBUS0*%
X41250000Y5000000D03*
D16*
%TO.P,P2,2,GND*%
%TO.N,GND*%
X40250000Y5000000D03*
%TO.P,P2,3,D+*%
%TO.N,/USB0_D_P*%
X39250000Y5000000D03*
%TO.P,P2,4,D-*%
%TO.N,/USB0_D_N*%
X38250000Y5000000D03*
%TO.P,P2,5,GND*%
%TO.N,GND*%
X37250000Y5000000D03*
%TD*%
D14*
%TO.P,TP1,1,1*%
%TO.N,/ADC1*%
X31250000Y8000000D03*
%TD*%
%TO.P,TP7,1,1*%
%TO.N,/USB0_SSTX1_P*%
X49000000Y4250000D03*
%TD*%
D15*
%TO.P,P3,1,VBUS*%
%TO.N,/VBUS1*%
X9500000Y10500000D03*
D16*
%TO.P,P3,2,GND*%
%TO.N,GND*%
X9500000Y9500000D03*
%TO.P,P3,3,D+*%
%TO.N,/USB1_D_P*%
X9500000Y8500000D03*
%TO.P,P3,4,D-*%
%TO.N,/USB1_D_N*%
X9500000Y7500000D03*
%TO.P,P3,5,GND*%
%TO.N,GND*%
X9500000Y6500000D03*
%TD*%
D14*
%TO.P,TP3,1,1*%
%TO.N,/SWD_OUT*%
X25250000Y4750000D03*
%TD*%
%TO.P,TP2,1,1*%
%TO.N,/ADC2*%
X31250000Y10500000D03*
%TD*%
D17*
%TO.P,J2,1,Pin_1*%
%TO.N,+3V3*%
X27520000Y1550000D03*
%TO.P,J2,2,Pin_2*%
%TO.N,/SWD*%
X27520000Y2820000D03*
%TO.P,J2,3,Pin_3*%
%TO.N,/SWD_RST*%
X26250000Y1550000D03*
%TO.P,J2,4,Pin_4*%
%TO.N,/SWD_CLK*%
X26250000Y2820000D03*
%TO.P,J2,5,Pin_5*%
%TO.N,GND*%
X24980000Y1550000D03*
%TO.P,J2,6,Pin_6*%
%TO.N,/SWD_OUT*%
X24980000Y2820000D03*
%TD*%
D14*
%TO.P,TP5,1,1*%
%TO.N,/USB0_SSRX1_P*%
X49000000Y10000000D03*
%TD*%
D18*
%TO.P,P4,A1,GND*%
%TO.N,GND*%
X52890000Y4810000D03*
%TO.P,P4,A2,TX1+*%
%TO.N,/USB0_SSTX1_P*%
X52890000Y5460000D03*
%TO.P,P4,A3,TX1-*%
%TO.N,/USB0_SSTX1_N*%
X52890000Y6110000D03*
%TO.P,P4,A5,CC*%
%TO.N,/P4_CC*%
X52890000Y7410000D03*
%TO.P,P4,A6,D+*%
%TO.N,/USB0_D_P*%
X52890000Y8060000D03*
%TO.P,P4,A7,D-*%
%TO.N,/USB0_D_N*%
X52890000Y8710000D03*
%TO.P,P4,A9,VBUS*%
%TO.N,/VBUS0*%
X52890000Y9360000D03*
%TO.P,P4,B10,RX1-*%
%TO.N,/USB0_SSRX1_N*%
X52890000Y10660000D03*
%TO.P,P4,B11,RX1+*%
%TO.N,/USB0_SSRX1_P*%
X52890000Y10010000D03*
D19*
%TO.P,P4,SH1*%
%TO.N,N/C*%
X54750000Y13225000D03*
D20*
X52890000Y12100000D03*
X52890000Y3900000D03*
D19*
X54750000Y2775000D03*
%TD*%
D21*
%TO.N,GND*%
X8289775Y710700D03*
X4750000Y719523D03*
X750000Y710700D03*
%TO.N,+3V3*%
X26750000Y10250000D03*
X32300000Y6191698D03*
X43500000Y12500000D03*
X24200000Y7000000D03*
X19800000Y9400000D03*
X44500000Y12500000D03*
X30818415Y12125976D03*
X28000000Y1100000D03*
X44500000Y11250000D03*
%TO.N,GND*%
X11898606Y727274D03*
X30750000Y1750000D03*
X27000000Y14789300D03*
X43634605Y1194755D03*
X41500000Y4000000D03*
X30200000Y13000000D03*
X33500000Y13250000D03*
X33250000Y11250000D03*
X8750000Y4500000D03*
X24250000Y8050000D03*
X15250000Y10000000D03*
X28750000Y6900000D03*
X20727578Y5236856D03*
X7000000Y14250000D03*
X18227959Y5080100D03*
X20000000Y3750000D03*
X28750000Y10300000D03*
X11750000Y6500000D03*
X13500000Y4500000D03*
X42090100Y10539791D03*
X25500000Y750000D03*
X19500000Y710700D03*
X41500000Y6250000D03*
X32300000Y4400000D03*
X13750000Y10000000D03*
X22250000Y3250000D03*
X20733568Y9793145D03*
X28750000Y8050000D03*
X43100000Y10539791D03*
X47000000Y7250000D03*
X47500000Y3250000D03*
X24250000Y5800000D03*
X22500000Y750000D03*
X28400000Y3300000D03*
X8750000Y11500000D03*
X46500000Y13750000D03*
X15727959Y5080100D03*
X18500000Y10000000D03*
X12750000Y2750000D03*
X16500000Y710700D03*
X2250000Y14250000D03*
X25800000Y14789300D03*
X46250000Y9500000D03*
X47000000Y9500000D03*
X33250000Y10000000D03*
%TO.N,VDD*%
X27750000Y10250000D03*
X24900000Y13500000D03*
X26700000Y5891698D03*
%TO.N,VBUS*%
X10600000Y13800000D03*
X41875000Y13125000D03*
X12900000Y13800000D03*
X42500000Y13750000D03*
X42100000Y9500000D03*
%TO.N,/VBUS1*%
X11750000Y9600000D03*
X6250000Y9750000D03*
X8600000Y5600000D03*
X10700000Y6100000D03*
%TO.N,/VBUS0*%
X47000000Y12750000D03*
X35975988Y13035217D03*
%TO.N,/U1_EEPROM_SS_L*%
X20800000Y13500000D03*
X23250000Y11550000D03*
%TO.N,/U1_BOOT*%
X32000000Y9000000D03*
X23600000Y13500000D03*
%TO.N,/SWD_CLK*%
X27671646Y5767037D03*
%TO.N,/SWD*%
X28636147Y5747319D03*
%TO.N,/SWD_RST*%
X26750000Y750000D03*
%TO.N,Net-(U1-QSPI_SD2)*%
X13750000Y11250000D03*
X25250000Y10300000D03*
%TO.N,/U1_EEPROM_SD1*%
X24250000Y10300000D03*
X13750000Y12500000D03*
%TO.N,/P4_CC*%
X45750000Y2750000D03*
%TO.N,/ADC1*%
X28963133Y9260055D03*
%TO.N,/ADC2*%
X30997313Y9495899D03*
%TO.N,/USB1_D_N*%
X5000000Y7504700D03*
%TO.N,/USB1_D_P*%
X5997783Y6977498D03*
X5000000Y8495300D03*
%TO.N,/USB0_D_N*%
X47854649Y8880300D03*
%TO.N,/USB0_D_P*%
X47854649Y7889700D03*
%TD*%
D22*
%TO.N,+3V3*%
X27970000Y1100000D02*
X27520000Y1550000D01*
X28000000Y1100000D02*
X27970000Y1100000D01*
%TO.N,GND*%
X25500000Y750000D02*
X25500000Y1030000D01*
D23*
X52890000Y4810000D02*
X51310000Y4810000D01*
X51310000Y4810000D02*
X49750000Y3250000D01*
D22*
X25500000Y1030000D02*
X24980000Y1550000D01*
D23*
X49750000Y3250000D02*
X47500000Y3250000D01*
D24*
%TO.N,VDD*%
X27750000Y7750000D02*
X26700000Y6700000D01*
X27750000Y10650000D02*
X27750000Y10250000D01*
X26700000Y6700000D02*
X26700000Y5891698D01*
X24900000Y13500000D02*
X27750000Y10650000D01*
X27750000Y10250000D02*
X27750000Y7750000D01*
D22*
%TO.N,VBUS*%
X41100000Y10000000D02*
X41100000Y12350000D01*
X41600000Y9500000D02*
X41100000Y10000000D01*
X41100000Y12350000D02*
X41875000Y13125000D01*
X42100000Y9500000D02*
X41600000Y9500000D01*
%TO.N,/VBUS1*%
X10700000Y6100000D02*
X10700000Y7100000D01*
X10700000Y7100000D02*
X11800000Y8200000D01*
X11800000Y9550000D02*
X11750000Y9600000D01*
D24*
X7889763Y6325000D02*
X6263851Y7950912D01*
X6263851Y7950912D02*
X6263851Y9736149D01*
X6263851Y9736149D02*
X6250000Y9750000D01*
X7889763Y6310237D02*
X8600000Y5600000D01*
X7889763Y6325000D02*
X7889763Y6310237D01*
D22*
X11800000Y8200000D02*
X11800000Y9550000D01*
%TO.N,/VBUS0*%
X53463561Y11250000D02*
X52250000Y11250000D01*
X52250000Y11250000D02*
X51750000Y11750000D01*
D24*
X36216600Y14966600D02*
X43533400Y14966600D01*
D22*
X53403561Y9360000D02*
X54000000Y9956439D01*
D24*
X47000000Y12750000D02*
X47500000Y13250000D01*
X45750000Y12750000D02*
X47000000Y12750000D01*
D22*
X52890000Y9360000D02*
X53403561Y9360000D01*
D24*
X50250000Y13250000D02*
X51750000Y11750000D01*
X47500000Y13250000D02*
X50250000Y13250000D01*
X35975988Y14725988D02*
X36216600Y14966600D01*
D22*
X54000000Y10713561D02*
X53463561Y11250000D01*
X54000000Y9956439D02*
X54000000Y10713561D01*
D24*
X43533400Y14966600D02*
X45750000Y12750000D01*
X35975988Y13035217D02*
X35975988Y14725988D01*
D25*
%TO.N,/USB0_SSTX1_P*%
X51884999Y5460000D02*
X52890000Y5460000D01*
X50877060Y5562750D02*
X51782249Y5562750D01*
X51782249Y5562750D02*
X51884999Y5460000D01*
X49777750Y5027750D02*
X50342060Y5027750D01*
X50342060Y5027750D02*
X50877060Y5562750D01*
X49000000Y4250000D02*
X49777750Y5027750D01*
%TO.N,/USB0_SSTX1_N*%
X49000000Y6250000D02*
X49777750Y5472250D01*
X51884999Y6110000D02*
X52890000Y6110000D01*
X50157940Y5472250D02*
X50692940Y6007250D01*
X49777750Y5472250D02*
X50157940Y5472250D01*
X51782249Y6007250D02*
X51884999Y6110000D01*
X50692940Y6007250D02*
X51782249Y6007250D01*
%TO.N,/USB0_SSRX1_P*%
X50822940Y10112750D02*
X51782249Y10112750D01*
X49000000Y10000000D02*
X49777750Y10777750D01*
X49777750Y10777750D02*
X50157940Y10777750D01*
X51782249Y10112750D02*
X51884999Y10010000D01*
X51884999Y10010000D02*
X52890000Y10010000D01*
X50157940Y10777750D02*
X50822940Y10112750D01*
D22*
%TO.N,/U1_EEPROM_SS_L*%
X20800000Y13500000D02*
X21300000Y13500000D01*
X21300000Y13500000D02*
X23250000Y11550000D01*
%TO.N,/U1_BOOT*%
X25405353Y14250000D02*
X28401353Y11254000D01*
X32004000Y11254000D02*
X32250000Y11008000D01*
X24000000Y14000000D02*
X24250000Y14250000D01*
X32250000Y11008000D02*
X32250000Y9750000D01*
X24250000Y14250000D02*
X25405353Y14250000D01*
X23600000Y13500000D02*
X23600000Y13600000D01*
X23600000Y13600000D02*
X24000000Y14000000D01*
X28401353Y11254000D02*
X32004000Y11254000D01*
X32000000Y9500000D02*
X32250000Y9750000D01*
X32000000Y9000000D02*
X32000000Y9500000D01*
%TO.N,/SWD_CLK*%
X26250000Y4345391D02*
X27671646Y5767037D01*
X26250000Y2820000D02*
X26250000Y4345391D01*
%TO.N,/SWD*%
X27520000Y2820000D02*
X27520000Y4631172D01*
X27520000Y4631172D02*
X28636147Y5747319D01*
D25*
%TO.N,/USB0_SSRX1_N*%
X51007060Y10557250D02*
X51782249Y10557250D01*
X51782249Y10557250D02*
X51884999Y10660000D01*
X51884999Y10660000D02*
X52890000Y10660000D01*
X50342060Y11222250D02*
X51007060Y10557250D01*
X49000000Y12000000D02*
X49777750Y11222250D01*
X49777750Y11222250D02*
X50342060Y11222250D01*
D22*
%TO.N,/SWD_RST*%
X26250000Y1250000D02*
X26750000Y750000D01*
X26250000Y1550000D02*
X26250000Y1250000D01*
%TO.N,/SWD_OUT*%
X24980000Y2820000D02*
X24980000Y4480000D01*
X24980000Y4480000D02*
X25250000Y4750000D01*
%TO.N,Net-(U1-QSPI_SD2)*%
X20750000Y12000000D02*
X23250000Y9500000D01*
X13750000Y11250000D02*
X14500000Y12000000D01*
X14500000Y12000000D02*
X20750000Y12000000D01*
X24450000Y9500000D02*
X25250000Y10300000D01*
X23250000Y9500000D02*
X24450000Y9500000D01*
%TO.N,/U1_EEPROM_SD1*%
X21250000Y12500000D02*
X23450000Y10300000D01*
X23450000Y10300000D02*
X24250000Y10300000D01*
X13750000Y12500000D02*
X21250000Y12500000D01*
%TO.N,/P4_CC*%
X45750000Y2750000D02*
X46250000Y2750000D01*
X46750000Y5750000D02*
X48410000Y7410000D01*
X48410000Y7410000D02*
X52890000Y7410000D01*
X46750000Y3250000D02*
X46750000Y5750000D01*
X46250000Y2750000D02*
X46750000Y3250000D01*
%TO.N,/ADC1*%
X31250000Y8000000D02*
X30223188Y8000000D01*
X30223188Y8000000D02*
X28963133Y9260055D01*
%TO.N,/ADC2*%
X31250000Y10500000D02*
X31250000Y9748586D01*
X31250000Y9748586D02*
X30997313Y9495899D01*
D26*
%TO.N,/USB1_D_P*%
X5997783Y7497517D02*
X5997783Y6977498D01*
X5000000Y8495300D02*
X5997783Y7497517D01*
D25*
%TO.N,/USB0_D_N*%
X39792940Y8607250D02*
X38527750Y7342060D01*
X51884999Y8710000D02*
X51782249Y8607250D01*
X51782249Y8607250D02*
X48127699Y8607250D01*
X47581599Y8607250D02*
X39792940Y8607250D01*
X47854649Y8880300D02*
X47581599Y8607250D01*
X38527750Y7342060D02*
X38527750Y5277750D01*
X38527750Y5277750D02*
X38250000Y5000000D01*
X48127699Y8607250D02*
X47854649Y8880300D01*
X52890000Y8710000D02*
X51884999Y8710000D01*
%TO.N,/USB0_D_P*%
X38972250Y7157940D02*
X38972250Y5277750D01*
X48127699Y8162750D02*
X47854649Y7889700D01*
X39977060Y8162750D02*
X38972250Y7157940D01*
X52890000Y8060000D02*
X51884999Y8060000D01*
X38972250Y5277750D02*
X39250000Y5000000D01*
X47854649Y7889700D02*
X47581599Y8162750D01*
X51782249Y8162750D02*
X48127699Y8162750D01*
X47581599Y8162750D02*
X39977060Y8162750D01*
X51884999Y8060000D02*
X51782249Y8162750D01*
%TD*%
M02*
