%TF.GenerationSoftware,KiCad,Pcbnew,7.0.2-0*%
%TF.CreationDate,2023-12-30T15:56:12-08:00*%
%TF.ProjectId,uart-friend2-usb,75617274-2d66-4726-9965-6e64322d7573,rev?*%
%TF.SameCoordinates,PX7735940PY6e263e0*%
%TF.FileFunction,Soldermask,Bot*%
%TF.FilePolarity,Negative*%
%FSLAX46Y46*%
G04 Gerber Fmt 4.6, Leading zero omitted, Abs format (unit mm)*
G04 Created by KiCad (PCBNEW 7.0.2-0) date 2023-12-30 15:56:12*
%MOMM*%
%LPD*%
G01*
G04 APERTURE LIST*
G04 Aperture macros list*
%AMRoundRect*
0 Rectangle with rounded corners*
0 $1 Rounding radius*
0 $2 $3 $4 $5 $6 $7 $8 $9 X,Y pos of 4 corners*
0 Add a 4 corners polygon primitive as box body*
4,1,4,$2,$3,$4,$5,$6,$7,$8,$9,$2,$3,0*
0 Add four circle primitives for the rounded corners*
1,1,$1+$1,$2,$3*
1,1,$1+$1,$4,$5*
1,1,$1+$1,$6,$7*
1,1,$1+$1,$8,$9*
0 Add four rect primitives between the rounded corners*
20,1,$1+$1,$2,$3,$4,$5,0*
20,1,$1+$1,$4,$5,$6,$7,0*
20,1,$1+$1,$6,$7,$8,$9,0*
20,1,$1+$1,$8,$9,$2,$3,0*%
G04 Aperture macros list end*
%ADD10C,0.650000*%
%ADD11O,2.100000X1.000000*%
%ADD12O,1.800000X1.000000*%
%ADD13C,1.152000*%
%ADD14R,1.000000X1.000000*%
%ADD15R,0.850000X0.850000*%
%ADD16O,0.850000X0.850000*%
%ADD17C,0.988060*%
%ADD18C,0.985520*%
%ADD19C,0.784860*%
%ADD20RoundRect,0.095000X-0.575000X0.095000X-0.575000X-0.095000X0.575000X-0.095000X0.575000X0.095000X0*%
%ADD21O,2.030000X1.000000*%
%ADD22RoundRect,0.095000X-0.575000X0.305000X-0.575000X-0.305000X0.575000X-0.305000X0.575000X0.305000X0*%
G04 APERTURE END LIST*
D10*
%TO.C,J1*%
X6355000Y10890000D03*
X6355000Y5110000D03*
D11*
X6875000Y12320000D03*
D12*
X2675000Y12320000D03*
D11*
X6875000Y3680000D03*
D12*
X2675000Y3680000D03*
%TD*%
D13*
%TO.C,REF\u002A\u002A*%
X46000000Y1000000D03*
%TD*%
%TO.C,REF\u002A\u002A*%
X1000000Y14500000D03*
%TD*%
D14*
%TO.C,TP6*%
X49000000Y6250000D03*
%TD*%
%TO.C,TP4*%
X49000000Y12000000D03*
%TD*%
D15*
%TO.C,P2*%
X41250000Y5000000D03*
D16*
X40250000Y5000000D03*
X39250000Y5000000D03*
X38250000Y5000000D03*
X37250000Y5000000D03*
%TD*%
D14*
%TO.C,TP1*%
X31250000Y8000000D03*
%TD*%
%TO.C,TP7*%
X49000000Y4250000D03*
%TD*%
D15*
%TO.C,P3*%
X9500000Y10500000D03*
D16*
X9500000Y9500000D03*
X9500000Y8500000D03*
X9500000Y7500000D03*
X9500000Y6500000D03*
%TD*%
D14*
%TO.C,TP3*%
X25250000Y4750000D03*
%TD*%
%TO.C,TP2*%
X31250000Y10500000D03*
%TD*%
D17*
%TO.C,J2*%
X28790000Y2185000D03*
D18*
X23710000Y1169000D03*
X23710000Y3201000D03*
D19*
X27520000Y1550000D03*
X27520000Y2820000D03*
X26250000Y1550000D03*
X26250000Y2820000D03*
X24980000Y1550000D03*
X24980000Y2820000D03*
%TD*%
D14*
%TO.C,TP5*%
X49000000Y10000000D03*
%TD*%
D20*
%TO.C,P4*%
X52890000Y4810000D03*
X52890000Y5460000D03*
X52890000Y6110000D03*
X52890000Y7410000D03*
X52890000Y8060000D03*
X52890000Y8710000D03*
X52890000Y9360000D03*
X52890000Y10660000D03*
X52890000Y10010000D03*
D21*
X54750000Y13225000D03*
D22*
X52890000Y12100000D03*
X52890000Y3900000D03*
D21*
X54750000Y2775000D03*
%TD*%
M02*
