%TF.GenerationSoftware,KiCad,Pcbnew,7.0.2-0*%
%TF.CreationDate,2023-12-30T15:56:12-08:00*%
%TF.ProjectId,uart-friend2-usb,75617274-2d66-4726-9965-6e64322d7573,rev?*%
%TF.SameCoordinates,PX7735940PY6e263e0*%
%TF.FileFunction,Copper,L2,Inr*%
%TF.FilePolarity,Positive*%
%FSLAX46Y46*%
G04 Gerber Fmt 4.6, Leading zero omitted, Abs format (unit mm)*
G04 Created by KiCad (PCBNEW 7.0.2-0) date 2023-12-30 15:56:12*
%MOMM*%
%LPD*%
G01*
G04 APERTURE LIST*
%TA.AperFunction,ComponentPad*%
%ADD10O,2.100000X1.000000*%
%TD*%
%TA.AperFunction,ComponentPad*%
%ADD11O,1.800000X1.000000*%
%TD*%
%TA.AperFunction,ComponentPad*%
%ADD12R,0.850000X0.850000*%
%TD*%
%TA.AperFunction,ComponentPad*%
%ADD13O,0.850000X0.850000*%
%TD*%
%TA.AperFunction,ComponentPad*%
%ADD14O,2.030000X1.000000*%
%TD*%
%TA.AperFunction,ViaPad*%
%ADD15C,0.812800*%
%TD*%
%TA.AperFunction,Conductor*%
%ADD16C,0.152400*%
%TD*%
G04 APERTURE END LIST*
D10*
%TO.N,GND*%
%TO.C,J1*%
X6875000Y12320000D03*
D11*
X2675000Y12320000D03*
D10*
X6875000Y3680000D03*
D11*
X2675000Y3680000D03*
%TD*%
D12*
%TO.N,/VBUS0*%
%TO.C,P2*%
X41250000Y5000000D03*
D13*
%TO.N,GND*%
X40250000Y5000000D03*
%TO.N,/USB0_D_P*%
X39250000Y5000000D03*
%TO.N,/USB0_D_N*%
X38250000Y5000000D03*
%TO.N,GND*%
X37250000Y5000000D03*
%TD*%
D12*
%TO.N,/VBUS1*%
%TO.C,P3*%
X9500000Y10500000D03*
D13*
%TO.N,GND*%
X9500000Y9500000D03*
%TO.N,/USB1_D_P*%
X9500000Y8500000D03*
%TO.N,/USB1_D_N*%
X9500000Y7500000D03*
%TO.N,GND*%
X9500000Y6500000D03*
%TD*%
D14*
%TO.N,N/C*%
%TO.C,P4*%
X54750000Y13225000D03*
X54750000Y2775000D03*
%TD*%
D15*
%TO.N,GND*%
X8289775Y710700D03*
X4750000Y719523D03*
X750000Y710700D03*
%TO.N,+3V3*%
X26750000Y10250000D03*
X32300000Y6191698D03*
X43500000Y12500000D03*
X24200000Y7000000D03*
X19800000Y9400000D03*
X44500000Y12500000D03*
X30818415Y12125976D03*
X28000000Y1100000D03*
X44500000Y11250000D03*
%TO.N,GND*%
X11898606Y727274D03*
X30750000Y1750000D03*
X27000000Y14789300D03*
X43634605Y1194755D03*
X41500000Y4000000D03*
X30200000Y13000000D03*
X33500000Y13250000D03*
X33250000Y11250000D03*
X8750000Y4500000D03*
X24250000Y8050000D03*
X15250000Y10000000D03*
X28750000Y6900000D03*
X20727578Y5236856D03*
X7000000Y14250000D03*
X18227959Y5080100D03*
X20000000Y3750000D03*
X28750000Y10300000D03*
X11750000Y6500000D03*
X13500000Y4500000D03*
X42090100Y10539791D03*
X25500000Y750000D03*
X19500000Y710700D03*
X41500000Y6250000D03*
X32300000Y4400000D03*
X13750000Y10000000D03*
X22250000Y3250000D03*
X20733568Y9793145D03*
X28750000Y8050000D03*
X43100000Y10539791D03*
X47000000Y7250000D03*
X47500000Y3250000D03*
X24250000Y5800000D03*
X22500000Y750000D03*
X28400000Y3300000D03*
X8750000Y11500000D03*
X46500000Y13750000D03*
X15727959Y5080100D03*
X18500000Y10000000D03*
X12750000Y2750000D03*
X16500000Y710700D03*
X2250000Y14250000D03*
X25800000Y14789300D03*
X46250000Y9500000D03*
X47000000Y9500000D03*
X33250000Y10000000D03*
%TO.N,VDD*%
X27750000Y10250000D03*
X24900000Y13500000D03*
X26700000Y5891698D03*
%TO.N,VBUS*%
X10600000Y13800000D03*
X41875000Y13125000D03*
X12900000Y13800000D03*
X42500000Y13750000D03*
X42100000Y9500000D03*
%TO.N,/VBUS1*%
X11750000Y9600000D03*
X6250000Y9750000D03*
X8600000Y5600000D03*
X10700000Y6100000D03*
%TO.N,/VBUS0*%
X47000000Y12750000D03*
X35975988Y13035217D03*
%TO.N,/U1_EEPROM_SS_L*%
X20800000Y13500000D03*
X23250000Y11550000D03*
%TO.N,/U1_BOOT*%
X32000000Y9000000D03*
X23600000Y13500000D03*
%TO.N,/SWD_CLK*%
X27671646Y5767037D03*
%TO.N,/SWD*%
X28636147Y5747319D03*
%TO.N,/SWD_RST*%
X26750000Y750000D03*
%TO.N,Net-(U1-QSPI_SD2)*%
X13750000Y11250000D03*
X25250000Y10300000D03*
%TO.N,/U1_EEPROM_SD1*%
X24250000Y10300000D03*
X13750000Y12500000D03*
%TO.N,/P4_CC*%
X45750000Y2750000D03*
%TO.N,/ADC1*%
X28963133Y9260055D03*
%TO.N,/ADC2*%
X30997313Y9495899D03*
%TO.N,/USB1_D_N*%
X5000000Y7504700D03*
%TO.N,/USB1_D_P*%
X5997783Y6977498D03*
X5000000Y8495300D03*
%TO.N,/USB0_D_N*%
X47854649Y8880300D03*
%TO.N,/USB0_D_P*%
X47854649Y7889700D03*
%TD*%
D16*
%TO.N,GND*%
X47000000Y3750000D02*
X47000000Y7250000D01*
X47500000Y3250000D02*
X47000000Y3750000D01*
%TD*%
%TA.AperFunction,Conductor*%
%TO.N,GND*%
G36*
X46511979Y15192317D02*
G01*
X46550317Y15184691D01*
X46595017Y15166176D01*
X46617165Y15151377D01*
X46651376Y15117166D01*
X46666175Y15095018D01*
X46684690Y15050321D01*
X46692317Y15011982D01*
X46694700Y14987788D01*
X46694700Y14420683D01*
X46725645Y14265106D01*
X46770199Y14157543D01*
X46786352Y14118547D01*
X46874482Y13986651D01*
X46986651Y13874482D01*
X47118547Y13786352D01*
X47217258Y13745465D01*
X47265105Y13725646D01*
X47420683Y13694700D01*
X47420685Y13694700D01*
X47442930Y13694700D01*
X53481666Y13694700D01*
X53548705Y13675015D01*
X53594460Y13622211D01*
X53604404Y13553053D01*
X53591465Y13513081D01*
X53572197Y13476368D01*
X53531300Y13310445D01*
X53531300Y13139555D01*
X53572197Y12973632D01*
X53651613Y12822317D01*
X53764934Y12694405D01*
X53905573Y12597329D01*
X54065357Y12536730D01*
X54174904Y12523429D01*
X54239080Y12495809D01*
X54278137Y12437875D01*
X54279672Y12368022D01*
X54274517Y12352882D01*
X54225646Y12234897D01*
X54194700Y12079318D01*
X54194700Y3920683D01*
X54225645Y3765106D01*
X54274517Y3647120D01*
X54281986Y3577650D01*
X54250711Y3515171D01*
X54190622Y3479519D01*
X54174902Y3476571D01*
X54065357Y3463270D01*
X53905573Y3402672D01*
X53764934Y3305596D01*
X53651613Y3177683D01*
X53572197Y3026368D01*
X53531300Y2860445D01*
X53531300Y2689555D01*
X53572197Y2523632D01*
X53591463Y2486923D01*
X53605188Y2418417D01*
X53579695Y2353364D01*
X53523080Y2312420D01*
X53481666Y2305300D01*
X47420683Y2305300D01*
X47265105Y2274355D01*
X47118546Y2213648D01*
X46986650Y2125518D01*
X46874482Y2013350D01*
X46786352Y1881454D01*
X46725646Y1734896D01*
X46721447Y1713785D01*
X46689061Y1651875D01*
X46628345Y1617301D01*
X46558576Y1621042D01*
X46524788Y1639263D01*
X46428617Y1712370D01*
X46265461Y1787854D01*
X46089887Y1826500D01*
X45955184Y1826500D01*
X45951847Y1826138D01*
X45951845Y1826137D01*
X45821279Y1811938D01*
X45650915Y1754536D01*
X45496873Y1661852D01*
X45366358Y1538221D01*
X45265469Y1389422D01*
X45198929Y1222415D01*
X45169845Y1045012D01*
X45179577Y865500D01*
X45193768Y814390D01*
X45227673Y692277D01*
X45247186Y655472D01*
X45311881Y533443D01*
X45332154Y509576D01*
X45360552Y445738D01*
X45349928Y376680D01*
X45303655Y324330D01*
X45237646Y305300D01*
X28301738Y305300D01*
X28234699Y324985D01*
X28188944Y377789D01*
X28179000Y446947D01*
X28208025Y510503D01*
X28244112Y539097D01*
X28349122Y594210D01*
X28460020Y692457D01*
X28544184Y814390D01*
X28596722Y952921D01*
X28614581Y1100000D01*
X28596722Y1247079D01*
X28587080Y1272501D01*
X28581714Y1342161D01*
X28614861Y1403668D01*
X28675999Y1437489D01*
X28703023Y1440470D01*
X28829769Y1440470D01*
X28833367Y1440470D01*
X28836950Y1440889D01*
X28836953Y1440889D01*
X28886959Y1446735D01*
X28962869Y1455607D01*
X29126419Y1515134D01*
X29271833Y1610774D01*
X29391271Y1737371D01*
X29478294Y1888099D01*
X29528211Y2054833D01*
X29538331Y2228585D01*
X29508108Y2399987D01*
X29439172Y2559799D01*
X29335239Y2699406D01*
X29335238Y2699407D01*
X29274943Y2750001D01*
X45135418Y2750001D01*
X45153278Y2602921D01*
X45205815Y2464390D01*
X45289980Y2342456D01*
X45400875Y2244212D01*
X45400876Y2244212D01*
X45400878Y2244210D01*
X45532067Y2175357D01*
X45675920Y2139900D01*
X45675921Y2139900D01*
X45824079Y2139900D01*
X45824080Y2139900D01*
X45967933Y2175357D01*
X46099122Y2244210D01*
X46210020Y2342457D01*
X46294184Y2464390D01*
X46346722Y2602921D01*
X46364581Y2750000D01*
X46346722Y2897079D01*
X46297689Y3026368D01*
X46294184Y3035611D01*
X46210019Y3157545D01*
X46099124Y3255789D01*
X45967931Y3324644D01*
X45871133Y3348503D01*
X45824080Y3360100D01*
X45675920Y3360100D01*
X45640463Y3351361D01*
X45532068Y3324644D01*
X45400875Y3255789D01*
X45289980Y3157545D01*
X45205815Y3035611D01*
X45153278Y2897080D01*
X45135418Y2750001D01*
X29274943Y2750001D01*
X29201910Y2811283D01*
X29046381Y2889392D01*
X29046379Y2889393D01*
X29046378Y2889393D01*
X28877023Y2929530D01*
X28746633Y2929530D01*
X28743067Y2929114D01*
X28743046Y2929112D01*
X28617132Y2914394D01*
X28453579Y2854866D01*
X28308167Y2759227D01*
X28188729Y2632630D01*
X28101706Y2481902D01*
X28076747Y2398535D01*
X28063225Y2353364D01*
X28051789Y2315166D01*
X28041668Y2141416D01*
X28045701Y2118547D01*
X28071892Y1970013D01*
X28109334Y1883212D01*
X28117812Y1813861D01*
X28087449Y1750933D01*
X28027885Y1714411D01*
X27995475Y1710100D01*
X27925920Y1710100D01*
X27890463Y1701361D01*
X27782068Y1674644D01*
X27650875Y1605789D01*
X27539980Y1507545D01*
X27455815Y1385611D01*
X27403276Y1247076D01*
X27403169Y1246189D01*
X27401248Y1241728D01*
X27397939Y1233001D01*
X27397554Y1233147D01*
X27375544Y1182012D01*
X27317607Y1142959D01*
X27247755Y1141428D01*
X27197849Y1168326D01*
X27099122Y1255790D01*
X26967933Y1324643D01*
X26967932Y1324644D01*
X26967931Y1324644D01*
X26871133Y1348503D01*
X26824080Y1360100D01*
X26675920Y1360100D01*
X26640463Y1351361D01*
X26532068Y1324644D01*
X26400875Y1255789D01*
X26289980Y1157545D01*
X26205815Y1035611D01*
X26153278Y897080D01*
X26135418Y750000D01*
X26153278Y602921D01*
X26202448Y473271D01*
X26207815Y403608D01*
X26174668Y342102D01*
X26113529Y308280D01*
X26086506Y305300D01*
X24163586Y305300D01*
X24096547Y324985D01*
X24050792Y377789D01*
X24040848Y446947D01*
X24069873Y510503D01*
X24095447Y532900D01*
X24188663Y594210D01*
X24191011Y595754D01*
X24310245Y722134D01*
X24397119Y872606D01*
X24446951Y1039056D01*
X24457054Y1212511D01*
X24455307Y1222416D01*
X24426883Y1383620D01*
X24426025Y1385610D01*
X24358064Y1543160D01*
X24254308Y1682528D01*
X24191899Y1734896D01*
X24121207Y1794214D01*
X23965944Y1872190D01*
X23965942Y1872191D01*
X23965941Y1872191D01*
X23796875Y1912260D01*
X23666709Y1912260D01*
X23663143Y1911844D01*
X23663139Y1911843D01*
X23537425Y1897149D01*
X23374152Y1837722D01*
X23228992Y1742249D01*
X23109754Y1615866D01*
X23047215Y1507543D01*
X23022881Y1465394D01*
X22985988Y1342161D01*
X22973049Y1298943D01*
X22962945Y1125489D01*
X22993116Y954381D01*
X23061936Y794840D01*
X23165692Y655472D01*
X23298792Y543787D01*
X23306113Y540110D01*
X23357187Y492432D01*
X23374377Y424710D01*
X23352225Y358445D01*
X23297763Y314676D01*
X23250462Y305300D01*
X512212Y305300D01*
X488022Y307683D01*
X457028Y313848D01*
X449679Y315310D01*
X404982Y333825D01*
X382834Y348624D01*
X348623Y382835D01*
X333824Y404983D01*
X315309Y449683D01*
X307683Y488022D01*
X305300Y512213D01*
X305300Y3807001D01*
X1582056Y3807001D01*
X1582057Y3807000D01*
X1999227Y3807000D01*
X1971105Y3708160D01*
X1981454Y3596479D01*
X2003104Y3553000D01*
X1582057Y3553000D01*
X1612667Y3428809D01*
X1692025Y3277606D01*
X1805268Y3149780D01*
X1945805Y3052775D01*
X2105476Y2992220D01*
X2228742Y2977252D01*
X2236212Y2976800D01*
X2548000Y2976800D01*
X2548000Y3380000D01*
X2802000Y3380000D01*
X2802000Y2976800D01*
X3113788Y2976800D01*
X3121257Y2977252D01*
X3244523Y2992220D01*
X3404194Y3052775D01*
X3544731Y3149780D01*
X3657974Y3277606D01*
X3737332Y3428809D01*
X3767943Y3553000D01*
X3350773Y3553000D01*
X3378895Y3651840D01*
X3368546Y3763521D01*
X3346896Y3807000D01*
X3767943Y3807000D01*
X3767943Y3807001D01*
X5632056Y3807001D01*
X5632057Y3807000D01*
X6049227Y3807000D01*
X6021105Y3708160D01*
X6031454Y3596479D01*
X6053104Y3553000D01*
X5632057Y3553000D01*
X5662667Y3428809D01*
X5742025Y3277606D01*
X5855268Y3149780D01*
X5995805Y3052775D01*
X6155476Y2992220D01*
X6278742Y2977252D01*
X6286212Y2976800D01*
X6748000Y2976800D01*
X6748000Y3380000D01*
X7002000Y3380000D01*
X7002000Y2976800D01*
X7463788Y2976800D01*
X7471257Y2977252D01*
X7594523Y2992220D01*
X7754194Y3052775D01*
X7894731Y3149780D01*
X7901561Y3157489D01*
X22962945Y3157489D01*
X22993116Y2986381D01*
X23061936Y2826840D01*
X23165692Y2687472D01*
X23298792Y2575787D01*
X23402641Y2523632D01*
X23454059Y2497809D01*
X23623125Y2457740D01*
X23623127Y2457740D01*
X23749693Y2457740D01*
X23753291Y2457740D01*
X23882574Y2472851D01*
X24045845Y2532277D01*
X24191011Y2627754D01*
X24310245Y2754134D01*
X24397119Y2904606D01*
X24446951Y3071056D01*
X24457054Y3244511D01*
X24455065Y3255789D01*
X24426883Y3415620D01*
X24421194Y3428809D01*
X24358064Y3575160D01*
X24254308Y3714528D01*
X24195921Y3763521D01*
X24121207Y3826214D01*
X23965944Y3904190D01*
X23965942Y3904191D01*
X23965941Y3904191D01*
X23796875Y3944260D01*
X23666709Y3944260D01*
X23663143Y3943844D01*
X23663139Y3943843D01*
X23537425Y3929149D01*
X23374152Y3869722D01*
X23228992Y3774249D01*
X23228989Y3774247D01*
X23228989Y3774246D01*
X23211698Y3755920D01*
X23109754Y3647866D01*
X23022881Y3497394D01*
X22987736Y3380000D01*
X22973049Y3330943D01*
X22962945Y3157489D01*
X7901561Y3157489D01*
X8007974Y3277606D01*
X8087332Y3428809D01*
X8117943Y3553000D01*
X7700773Y3553000D01*
X7728895Y3651840D01*
X7718546Y3763521D01*
X7696896Y3807000D01*
X8117943Y3807000D01*
X8117943Y3807001D01*
X8087332Y3931192D01*
X8007974Y4082395D01*
X7894731Y4210221D01*
X7754194Y4307226D01*
X7594523Y4367781D01*
X7471257Y4382749D01*
X7463788Y4383200D01*
X7002000Y4383200D01*
X7002000Y3980000D01*
X6748000Y3980000D01*
X6748000Y4383200D01*
X6718470Y4383200D01*
X6651431Y4402885D01*
X6605676Y4455689D01*
X6595732Y4524847D01*
X6624757Y4588403D01*
X6642983Y4605576D01*
X6645231Y4607302D01*
X6645233Y4607302D01*
X6765451Y4699549D01*
X6857698Y4819767D01*
X6879748Y4873000D01*
X36632606Y4873000D01*
X36635574Y4848557D01*
X36689670Y4705918D01*
X36776332Y4580366D01*
X36890519Y4479205D01*
X37025601Y4408309D01*
X37123000Y4384304D01*
X37123000Y4784187D01*
X37152455Y4764505D01*
X37225376Y4750000D01*
X37274624Y4750000D01*
X37347545Y4764505D01*
X37377000Y4784187D01*
X37377000Y4384305D01*
X37474398Y4408309D01*
X37609480Y4479205D01*
X37667394Y4530513D01*
X37730626Y4560235D01*
X37799890Y4551053D01*
X37831849Y4530514D01*
X37838246Y4524847D01*
X37890234Y4478790D01*
X37899717Y4473813D01*
X38025420Y4407837D01*
X38173662Y4371300D01*
X38326338Y4371300D01*
X38474579Y4407837D01*
X38565751Y4455689D01*
X38609766Y4478790D01*
X38667773Y4530181D01*
X38731004Y4559901D01*
X38800268Y4550718D01*
X38832225Y4530180D01*
X38885576Y4482917D01*
X38890234Y4478790D01*
X38899717Y4473813D01*
X39025420Y4407837D01*
X39173662Y4371300D01*
X39326338Y4371300D01*
X39474579Y4407837D01*
X39565751Y4455689D01*
X39609766Y4478790D01*
X39668152Y4530516D01*
X39731382Y4560235D01*
X39800646Y4551053D01*
X39832605Y4530514D01*
X39890522Y4479204D01*
X40025601Y4408309D01*
X40123000Y4384304D01*
X40123000Y4784187D01*
X40152455Y4764505D01*
X40225376Y4750000D01*
X40274624Y4750000D01*
X40347545Y4764505D01*
X40377000Y4784187D01*
X40377000Y4384305D01*
X40474399Y4408310D01*
X40539884Y4442678D01*
X40608393Y4456404D01*
X40666400Y4435985D01*
X40678139Y4428142D01*
X40678140Y4428140D01*
X40745520Y4383119D01*
X40775228Y4377210D01*
X40804935Y4371300D01*
X40804936Y4371300D01*
X41695065Y4371300D01*
X41714869Y4375240D01*
X41754480Y4383119D01*
X41821860Y4428140D01*
X41866881Y4495520D01*
X41878700Y4554936D01*
X41878700Y5445064D01*
X41866881Y5504480D01*
X41821860Y5571860D01*
X41754480Y5616881D01*
X41754479Y5616882D01*
X41754478Y5616882D01*
X41695065Y5628700D01*
X41695064Y5628700D01*
X40804936Y5628700D01*
X40804935Y5628700D01*
X40745519Y5616881D01*
X40666399Y5564016D01*
X40599721Y5543139D01*
X40539885Y5557322D01*
X40474399Y5591692D01*
X40377000Y5615699D01*
X40377000Y5215814D01*
X40347545Y5235495D01*
X40274624Y5250000D01*
X40225376Y5250000D01*
X40152455Y5235495D01*
X40123000Y5215814D01*
X40123000Y5615698D01*
X40122999Y5615699D01*
X40025602Y5591692D01*
X39890520Y5520796D01*
X39832604Y5469486D01*
X39769371Y5439765D01*
X39700107Y5448949D01*
X39668150Y5469487D01*
X39609766Y5521210D01*
X39474579Y5592164D01*
X39326338Y5628700D01*
X39173662Y5628700D01*
X39025420Y5592164D01*
X38890233Y5521210D01*
X38832227Y5469821D01*
X38768994Y5440099D01*
X38699730Y5449283D01*
X38667773Y5469821D01*
X38609766Y5521210D01*
X38474579Y5592164D01*
X38326338Y5628700D01*
X38173662Y5628700D01*
X38025420Y5592164D01*
X37890233Y5521210D01*
X37831848Y5469486D01*
X37768615Y5439765D01*
X37699352Y5448949D01*
X37667394Y5469487D01*
X37609479Y5520796D01*
X37474397Y5591692D01*
X37377000Y5615699D01*
X37377000Y5215814D01*
X37347545Y5235495D01*
X37274624Y5250000D01*
X37225376Y5250000D01*
X37152455Y5235495D01*
X37123000Y5215814D01*
X37123000Y5615698D01*
X37122999Y5615699D01*
X37025602Y5591692D01*
X36890518Y5520795D01*
X36776332Y5419635D01*
X36689670Y5294083D01*
X36635574Y5151444D01*
X36632606Y5127000D01*
X37034186Y5127000D01*
X37014505Y5097545D01*
X36995102Y5000000D01*
X37014505Y4902455D01*
X37034186Y4873000D01*
X36632606Y4873000D01*
X6879748Y4873000D01*
X6915687Y4959764D01*
X6935466Y5110000D01*
X6915687Y5260236D01*
X6857698Y5400233D01*
X6765451Y5520451D01*
X6661781Y5600000D01*
X7985418Y5600000D01*
X8003278Y5452921D01*
X8055815Y5314390D01*
X8139980Y5192456D01*
X8250875Y5094212D01*
X8250876Y5094212D01*
X8250878Y5094210D01*
X8382067Y5025357D01*
X8525920Y4989900D01*
X8525921Y4989900D01*
X8674079Y4989900D01*
X8674080Y4989900D01*
X8817933Y5025357D01*
X8949122Y5094210D01*
X9060020Y5192457D01*
X9144184Y5314390D01*
X9196722Y5452921D01*
X9214581Y5600000D01*
X9196722Y5747079D01*
X9196721Y5747081D01*
X9195761Y5754990D01*
X9207221Y5823913D01*
X9254125Y5875700D01*
X9321580Y5893907D01*
X9348531Y5890334D01*
X9373000Y5884304D01*
X9373000Y6284187D01*
X9402455Y6264505D01*
X9475376Y6250000D01*
X9524624Y6250000D01*
X9597545Y6264505D01*
X9627000Y6284187D01*
X9627000Y5884305D01*
X9724398Y5908309D01*
X9859477Y5979204D01*
X9900037Y6015136D01*
X9963270Y6044858D01*
X10032534Y6035675D01*
X10085837Y5990503D01*
X10098207Y5966292D01*
X10155815Y5814390D01*
X10239980Y5692456D01*
X10350875Y5594212D01*
X10350876Y5594212D01*
X10350878Y5594210D01*
X10482067Y5525357D01*
X10625920Y5489900D01*
X10625921Y5489900D01*
X10774079Y5489900D01*
X10774080Y5489900D01*
X10917933Y5525357D01*
X11049122Y5594210D01*
X11160020Y5692457D01*
X11244184Y5814390D01*
X11273504Y5891699D01*
X26085418Y5891699D01*
X26103278Y5744619D01*
X26155815Y5606088D01*
X26239980Y5484154D01*
X26350875Y5385910D01*
X26350876Y5385910D01*
X26350878Y5385908D01*
X26482067Y5317055D01*
X26625920Y5281598D01*
X26625921Y5281598D01*
X26774079Y5281598D01*
X26774080Y5281598D01*
X26917933Y5317055D01*
X27049122Y5385908D01*
X27049126Y5385912D01*
X27057754Y5390440D01*
X27126263Y5404166D01*
X27191316Y5378674D01*
X27200193Y5369296D01*
X27200356Y5369478D01*
X27322521Y5261249D01*
X27322522Y5261249D01*
X27322524Y5261247D01*
X27453713Y5192394D01*
X27597566Y5156937D01*
X27597567Y5156937D01*
X27745725Y5156937D01*
X27745726Y5156937D01*
X27889579Y5192394D01*
X28020768Y5261247D01*
X28060542Y5296485D01*
X28123770Y5326204D01*
X28193034Y5317022D01*
X28224994Y5296483D01*
X28287022Y5241531D01*
X28287023Y5241531D01*
X28287025Y5241529D01*
X28418214Y5172676D01*
X28562067Y5137219D01*
X28562068Y5137219D01*
X28710226Y5137219D01*
X28710227Y5137219D01*
X28854080Y5172676D01*
X28985269Y5241529D01*
X29096167Y5339776D01*
X29180331Y5461709D01*
X29232869Y5600240D01*
X29250728Y5747319D01*
X29232869Y5894398D01*
X29180331Y6032929D01*
X29180331Y6032930D01*
X29096166Y6154864D01*
X29054588Y6191699D01*
X31685418Y6191699D01*
X31703278Y6044619D01*
X31755815Y5906088D01*
X31839980Y5784154D01*
X31950875Y5685910D01*
X31950876Y5685910D01*
X31950878Y5685908D01*
X32082067Y5617055D01*
X32225920Y5581598D01*
X32225921Y5581598D01*
X32374079Y5581598D01*
X32374080Y5581598D01*
X32517933Y5617055D01*
X32649122Y5685908D01*
X32760020Y5784155D01*
X32844184Y5906088D01*
X32896722Y6044619D01*
X32914581Y6191698D01*
X32896722Y6338777D01*
X32863886Y6425357D01*
X32844184Y6477309D01*
X32760019Y6599243D01*
X32649124Y6697487D01*
X32517931Y6766342D01*
X32421133Y6790201D01*
X32374080Y6801798D01*
X32225920Y6801798D01*
X32190463Y6793059D01*
X32082068Y6766342D01*
X31950875Y6697487D01*
X31839980Y6599243D01*
X31755815Y6477309D01*
X31703278Y6338778D01*
X31685418Y6191699D01*
X29054588Y6191699D01*
X28985271Y6253108D01*
X28897368Y6299243D01*
X28854080Y6321962D01*
X28854079Y6321963D01*
X28854078Y6321963D01*
X28757280Y6345822D01*
X28710227Y6357419D01*
X28562067Y6357419D01*
X28526611Y6348680D01*
X28418215Y6321963D01*
X28287021Y6253107D01*
X28247250Y6217873D01*
X28184017Y6188152D01*
X28114753Y6197336D01*
X28082798Y6217873D01*
X28020768Y6272827D01*
X27889579Y6341680D01*
X27889578Y6341681D01*
X27889577Y6341681D01*
X27762510Y6373000D01*
X27745726Y6377137D01*
X27597566Y6377137D01*
X27580782Y6373000D01*
X27453712Y6341681D01*
X27313889Y6268296D01*
X27245381Y6254572D01*
X27180328Y6280064D01*
X27171452Y6289441D01*
X27171290Y6289257D01*
X27049124Y6397487D01*
X26917931Y6466342D01*
X26804857Y6494212D01*
X26774080Y6501798D01*
X26625920Y6501798D01*
X26595143Y6494212D01*
X26482068Y6466342D01*
X26350875Y6397487D01*
X26239980Y6299243D01*
X26155815Y6177309D01*
X26103278Y6038778D01*
X26085418Y5891699D01*
X11273504Y5891699D01*
X11296722Y5952921D01*
X11314581Y6100000D01*
X11296722Y6247079D01*
X11261945Y6338778D01*
X11244184Y6385611D01*
X11160019Y6507545D01*
X11049124Y6605789D01*
X10917931Y6674644D01*
X10821133Y6698503D01*
X10774080Y6710100D01*
X10625920Y6710100D01*
X10590464Y6701361D01*
X10482068Y6674644D01*
X10350877Y6605790D01*
X10319240Y6577761D01*
X10256007Y6548040D01*
X10186743Y6557224D01*
X10133440Y6602396D01*
X10120512Y6637648D01*
X10119765Y6637364D01*
X10060329Y6794083D01*
X9967120Y6929119D01*
X9945237Y6995473D01*
X9946406Y7000000D01*
X23585418Y7000000D01*
X23603278Y6852921D01*
X23655815Y6714390D01*
X23739980Y6592456D01*
X23850875Y6494212D01*
X23850876Y6494212D01*
X23850878Y6494210D01*
X23982067Y6425357D01*
X24125920Y6389900D01*
X24125921Y6389900D01*
X24274079Y6389900D01*
X24274080Y6389900D01*
X24417933Y6425357D01*
X24549122Y6494210D01*
X24634619Y6569954D01*
X24660019Y6592456D01*
X24664703Y6599241D01*
X24744184Y6714390D01*
X24796722Y6852921D01*
X24814581Y7000000D01*
X24796722Y7147079D01*
X24752718Y7263109D01*
X24744184Y7285611D01*
X24660019Y7407545D01*
X24549124Y7505789D01*
X24417931Y7574644D01*
X24298463Y7604090D01*
X24274080Y7610100D01*
X24125920Y7610100D01*
X24101537Y7604090D01*
X23982068Y7574644D01*
X23850875Y7505789D01*
X23739980Y7407545D01*
X23655815Y7285611D01*
X23603278Y7147080D01*
X23585418Y7000000D01*
X9946406Y7000000D01*
X9962702Y7063125D01*
X9967120Y7069999D01*
X10060775Y7205682D01*
X10065860Y7219090D01*
X10114915Y7348437D01*
X10133318Y7500000D01*
X10114915Y7651563D01*
X10060775Y7794318D01*
X10060775Y7794319D01*
X9994938Y7889700D01*
X47240067Y7889700D01*
X47257927Y7742621D01*
X47310464Y7604090D01*
X47394629Y7482156D01*
X47505524Y7383912D01*
X47505525Y7383912D01*
X47505527Y7383910D01*
X47636716Y7315057D01*
X47780569Y7279600D01*
X47780570Y7279600D01*
X47928728Y7279600D01*
X47928729Y7279600D01*
X48072582Y7315057D01*
X48203771Y7383910D01*
X48314669Y7482157D01*
X48398833Y7604090D01*
X48451371Y7742621D01*
X48469230Y7889700D01*
X48451371Y8036779D01*
X48398833Y8175310D01*
X48398833Y8175311D01*
X48306116Y8309634D01*
X48308431Y8311233D01*
X48283253Y8351367D01*
X48284017Y8421232D01*
X48308229Y8458908D01*
X48306116Y8460366D01*
X48398833Y8594690D01*
X48420402Y8651563D01*
X48451371Y8733221D01*
X48469230Y8880300D01*
X48451371Y9027379D01*
X48412945Y9128700D01*
X48398833Y9165911D01*
X48314668Y9287845D01*
X48203773Y9386089D01*
X48072580Y9454944D01*
X47975782Y9478803D01*
X47928729Y9490400D01*
X47780569Y9490400D01*
X47745113Y9481661D01*
X47636717Y9454944D01*
X47505524Y9386089D01*
X47394629Y9287845D01*
X47310464Y9165911D01*
X47257927Y9027380D01*
X47240067Y8880301D01*
X47257927Y8733221D01*
X47310464Y8594690D01*
X47403182Y8460366D01*
X47400866Y8458768D01*
X47426043Y8418636D01*
X47425281Y8348770D01*
X47401071Y8311091D01*
X47403182Y8309634D01*
X47310464Y8175311D01*
X47257927Y8036780D01*
X47240067Y7889700D01*
X9994938Y7889700D01*
X9967424Y7929560D01*
X9945541Y7995914D01*
X9963006Y8063566D01*
X9967424Y8070440D01*
X10060775Y8205682D01*
X10062295Y8209690D01*
X10114915Y8348437D01*
X10133318Y8500000D01*
X10114915Y8651563D01*
X10060775Y8794318D01*
X10060775Y8794319D01*
X9967120Y8930001D01*
X9945237Y8996356D01*
X9962702Y9064007D01*
X9967120Y9070881D01*
X10060329Y9205918D01*
X10114425Y9348557D01*
X10117394Y9373000D01*
X9715814Y9373000D01*
X9735495Y9402455D01*
X9754898Y9500000D01*
X9735495Y9597545D01*
X9733855Y9600000D01*
X11135418Y9600000D01*
X11153278Y9452921D01*
X11205815Y9314390D01*
X11289980Y9192456D01*
X11400875Y9094212D01*
X11400876Y9094212D01*
X11400878Y9094210D01*
X11532067Y9025357D01*
X11675920Y8989900D01*
X11675921Y8989900D01*
X11824079Y8989900D01*
X11824080Y8989900D01*
X11967933Y9025357D01*
X12099122Y9094210D01*
X12210020Y9192457D01*
X12294184Y9314390D01*
X12326652Y9400000D01*
X19185418Y9400000D01*
X19203278Y9252921D01*
X19255815Y9114390D01*
X19339980Y8992456D01*
X19450875Y8894212D01*
X19450876Y8894212D01*
X19450878Y8894210D01*
X19582067Y8825357D01*
X19725920Y8789900D01*
X19725921Y8789900D01*
X19874079Y8789900D01*
X19874080Y8789900D01*
X20017933Y8825357D01*
X20149122Y8894210D01*
X20260020Y8992457D01*
X20344184Y9114390D01*
X20396722Y9252921D01*
X20397588Y9260056D01*
X28348551Y9260056D01*
X28366411Y9112976D01*
X28418948Y8974445D01*
X28503113Y8852511D01*
X28614008Y8754267D01*
X28614009Y8754267D01*
X28614011Y8754265D01*
X28745200Y8685412D01*
X28889053Y8649955D01*
X28889054Y8649955D01*
X29037212Y8649955D01*
X29037213Y8649955D01*
X29181066Y8685412D01*
X29312255Y8754265D01*
X29423153Y8852512D01*
X29507317Y8974445D01*
X29559855Y9112976D01*
X29577714Y9260055D01*
X29559855Y9407134D01*
X29526191Y9495899D01*
X30382731Y9495899D01*
X30400591Y9348820D01*
X30453128Y9210289D01*
X30537293Y9088355D01*
X30648188Y8990111D01*
X30648189Y8990111D01*
X30648191Y8990109D01*
X30779380Y8921256D01*
X30923233Y8885799D01*
X30923234Y8885799D01*
X31071392Y8885799D01*
X31071393Y8885799D01*
X31215246Y8921256D01*
X31226514Y8927171D01*
X31295022Y8940896D01*
X31360076Y8915404D01*
X31400083Y8861345D01*
X31455815Y8714390D01*
X31539980Y8592456D01*
X31650875Y8494212D01*
X31650876Y8494212D01*
X31650878Y8494210D01*
X31782067Y8425357D01*
X31925920Y8389900D01*
X31925921Y8389900D01*
X32074079Y8389900D01*
X32074080Y8389900D01*
X32217933Y8425357D01*
X32349122Y8494210D01*
X32460020Y8592457D01*
X32544184Y8714390D01*
X32596722Y8852921D01*
X32614581Y9000000D01*
X32596722Y9147079D01*
X32553876Y9260055D01*
X32544184Y9285611D01*
X32460019Y9407545D01*
X32355658Y9500000D01*
X41485418Y9500000D01*
X41503278Y9352921D01*
X41555815Y9214390D01*
X41639980Y9092456D01*
X41750875Y8994212D01*
X41750876Y8994212D01*
X41750878Y8994210D01*
X41882067Y8925357D01*
X42025920Y8889900D01*
X42025921Y8889900D01*
X42174079Y8889900D01*
X42174080Y8889900D01*
X42317933Y8925357D01*
X42449122Y8994210D01*
X42560020Y9092457D01*
X42644184Y9214390D01*
X42696722Y9352921D01*
X42714581Y9500000D01*
X42696722Y9647079D01*
X42657689Y9750001D01*
X42644184Y9785611D01*
X42560019Y9907545D01*
X42449124Y10005789D01*
X42317931Y10074644D01*
X42190718Y10105999D01*
X42174080Y10110100D01*
X42025920Y10110100D01*
X42009282Y10105999D01*
X41882068Y10074644D01*
X41750875Y10005789D01*
X41639980Y9907545D01*
X41555815Y9785611D01*
X41503278Y9647080D01*
X41485418Y9500000D01*
X32355658Y9500000D01*
X32349124Y9505789D01*
X32217931Y9574644D01*
X32103206Y9602921D01*
X32074080Y9610100D01*
X31925920Y9610100D01*
X31896794Y9602921D01*
X31782065Y9574643D01*
X31770793Y9568727D01*
X31702284Y9555005D01*
X31637232Y9580499D01*
X31597229Y9634555D01*
X31594035Y9642978D01*
X31541497Y9781509D01*
X31479519Y9871300D01*
X31457332Y9903444D01*
X31346437Y10001688D01*
X31215244Y10070543D01*
X31118446Y10094402D01*
X31071393Y10105999D01*
X30923233Y10105999D01*
X30887776Y10097260D01*
X30779381Y10070543D01*
X30648188Y10001688D01*
X30537293Y9903444D01*
X30453128Y9781510D01*
X30400591Y9642979D01*
X30382731Y9495899D01*
X29526191Y9495899D01*
X29507317Y9545666D01*
X29423152Y9667600D01*
X29312257Y9765844D01*
X29181064Y9834699D01*
X29084266Y9858558D01*
X29037213Y9870155D01*
X28889053Y9870155D01*
X28853596Y9861416D01*
X28745201Y9834699D01*
X28614008Y9765844D01*
X28503113Y9667600D01*
X28418948Y9545666D01*
X28366411Y9407135D01*
X28348551Y9260056D01*
X20397588Y9260056D01*
X20414581Y9400000D01*
X20396722Y9547079D01*
X20358797Y9647080D01*
X20344184Y9685611D01*
X20260019Y9807545D01*
X20149124Y9905789D01*
X20064164Y9950379D01*
X20017933Y9974643D01*
X20017932Y9974644D01*
X20017931Y9974644D01*
X19891566Y10005790D01*
X19874080Y10010100D01*
X19725920Y10010100D01*
X19708434Y10005790D01*
X19582068Y9974644D01*
X19450875Y9905789D01*
X19339980Y9807545D01*
X19255815Y9685611D01*
X19203278Y9547080D01*
X19185418Y9400000D01*
X12326652Y9400000D01*
X12346722Y9452921D01*
X12364581Y9600000D01*
X12346722Y9747079D01*
X12305782Y9855029D01*
X12294184Y9885611D01*
X12210019Y10007545D01*
X12099124Y10105789D01*
X11967931Y10174644D01*
X11871133Y10198503D01*
X11824080Y10210100D01*
X11675920Y10210100D01*
X11640463Y10201361D01*
X11532068Y10174644D01*
X11400875Y10105789D01*
X11289980Y10007545D01*
X11205815Y9885611D01*
X11153278Y9747080D01*
X11135418Y9600000D01*
X9733855Y9600000D01*
X9715814Y9627000D01*
X10117394Y9627000D01*
X10114425Y9651444D01*
X10054990Y9808161D01*
X10059406Y9809836D01*
X10046629Y9848626D01*
X10064118Y9916271D01*
X10067461Y9921557D01*
X10071859Y9928140D01*
X10071860Y9928140D01*
X10116881Y9995520D01*
X10128700Y10054936D01*
X10128700Y10300000D01*
X23635418Y10300000D01*
X23653278Y10152921D01*
X23705815Y10014390D01*
X23789980Y9892456D01*
X23900875Y9794212D01*
X23900876Y9794212D01*
X23900878Y9794210D01*
X24032067Y9725357D01*
X24175920Y9689900D01*
X24175921Y9689900D01*
X24324079Y9689900D01*
X24324080Y9689900D01*
X24467933Y9725357D01*
X24599122Y9794210D01*
X24667775Y9855032D01*
X24731003Y9884751D01*
X24800267Y9875569D01*
X24832226Y9855030D01*
X24900875Y9794212D01*
X24900876Y9794212D01*
X24900878Y9794210D01*
X25032067Y9725357D01*
X25175920Y9689900D01*
X25175921Y9689900D01*
X25324079Y9689900D01*
X25324080Y9689900D01*
X25467933Y9725357D01*
X25599122Y9794210D01*
X25702291Y9885610D01*
X25710019Y9892456D01*
X25717604Y9903444D01*
X25794184Y10014390D01*
X25846722Y10152921D01*
X25858510Y10250000D01*
X26135418Y10250000D01*
X26153278Y10102921D01*
X26205815Y9964390D01*
X26289980Y9842456D01*
X26400875Y9744212D01*
X26400876Y9744212D01*
X26400878Y9744210D01*
X26532067Y9675357D01*
X26675920Y9639900D01*
X26675921Y9639900D01*
X26824079Y9639900D01*
X26824080Y9639900D01*
X26967933Y9675357D01*
X27099122Y9744210D01*
X27145854Y9785611D01*
X27167773Y9805029D01*
X27231006Y9834751D01*
X27300269Y9825567D01*
X27332227Y9805029D01*
X27400875Y9744212D01*
X27400876Y9744212D01*
X27400878Y9744210D01*
X27532067Y9675357D01*
X27675920Y9639900D01*
X27675921Y9639900D01*
X27824079Y9639900D01*
X27824080Y9639900D01*
X27967933Y9675357D01*
X28099122Y9744210D01*
X28210020Y9842457D01*
X28294184Y9964390D01*
X28346722Y10102921D01*
X28364581Y10250000D01*
X28346722Y10397079D01*
X28294184Y10535610D01*
X28294184Y10535611D01*
X28210019Y10657545D01*
X28099124Y10755789D01*
X27967931Y10824644D01*
X27871133Y10848503D01*
X27824080Y10860100D01*
X27675920Y10860100D01*
X27640464Y10851361D01*
X27532068Y10824644D01*
X27400874Y10755788D01*
X27332225Y10694971D01*
X27268992Y10665250D01*
X27199728Y10674434D01*
X27167772Y10694972D01*
X27099124Y10755789D01*
X26967931Y10824644D01*
X26871133Y10848503D01*
X26824080Y10860100D01*
X26675920Y10860100D01*
X26640463Y10851361D01*
X26532068Y10824644D01*
X26400875Y10755789D01*
X26289980Y10657545D01*
X26205815Y10535611D01*
X26153278Y10397080D01*
X26135418Y10250000D01*
X25858510Y10250000D01*
X25864581Y10300000D01*
X25846722Y10447079D01*
X25794184Y10585610D01*
X25794184Y10585611D01*
X25710019Y10707545D01*
X25599124Y10805789D01*
X25467931Y10874644D01*
X25371133Y10898503D01*
X25324080Y10910100D01*
X25175920Y10910100D01*
X25140463Y10901361D01*
X25032068Y10874644D01*
X24900877Y10805790D01*
X24832227Y10744971D01*
X24768993Y10715250D01*
X24699730Y10724434D01*
X24667773Y10744971D01*
X24599122Y10805790D01*
X24467931Y10874644D01*
X24371133Y10898503D01*
X24324080Y10910100D01*
X24175920Y10910100D01*
X24140463Y10901361D01*
X24032068Y10874644D01*
X23900875Y10805789D01*
X23789980Y10707545D01*
X23705815Y10585611D01*
X23653278Y10447080D01*
X23635418Y10300000D01*
X10128700Y10300000D01*
X10128700Y10945064D01*
X10116881Y11004480D01*
X10071860Y11071860D01*
X10004480Y11116881D01*
X10004479Y11116882D01*
X10004478Y11116882D01*
X9945065Y11128700D01*
X9945064Y11128700D01*
X9054936Y11128700D01*
X9054935Y11128700D01*
X8995521Y11116882D01*
X8928140Y11071860D01*
X8883118Y11004479D01*
X8871300Y10945065D01*
X8871300Y10054936D01*
X8883118Y9995522D01*
X8883118Y9995521D01*
X8883119Y9995520D01*
X8897068Y9974643D01*
X8932539Y9921557D01*
X8953416Y9854879D01*
X8941015Y9809677D01*
X8945010Y9808161D01*
X8885574Y9651444D01*
X8882606Y9627000D01*
X9284186Y9627000D01*
X9264505Y9597545D01*
X9245102Y9500000D01*
X9264505Y9402455D01*
X9284186Y9373000D01*
X8882606Y9373000D01*
X8885574Y9348557D01*
X8939670Y9205918D01*
X9032880Y9070881D01*
X9054763Y9004527D01*
X9037298Y8936875D01*
X9032880Y8930001D01*
X8939224Y8794319D01*
X8885085Y8651564D01*
X8866681Y8500000D01*
X8885085Y8348437D01*
X8939224Y8205682D01*
X9032575Y8070441D01*
X9054458Y8004087D01*
X9036993Y7936435D01*
X9032575Y7929562D01*
X8939225Y7794321D01*
X8885085Y7651564D01*
X8866681Y7500000D01*
X8885085Y7348437D01*
X8939224Y7205683D01*
X8939225Y7205682D01*
X9014134Y7097157D01*
X9032880Y7070000D01*
X9054763Y7003646D01*
X9037298Y6935994D01*
X9032880Y6929120D01*
X8939670Y6794083D01*
X8885574Y6651444D01*
X8882606Y6627000D01*
X9284186Y6627000D01*
X9264505Y6597545D01*
X9245102Y6500000D01*
X9264505Y6402455D01*
X9284186Y6373000D01*
X8882606Y6373000D01*
X8887389Y6333611D01*
X8883536Y6333144D01*
X8886896Y6289574D01*
X8853753Y6228066D01*
X8792617Y6194240D01*
X8735911Y6194861D01*
X8674081Y6210100D01*
X8674080Y6210100D01*
X8525920Y6210100D01*
X8490463Y6201361D01*
X8382068Y6174644D01*
X8250875Y6105789D01*
X8139980Y6007545D01*
X8055815Y5885611D01*
X8003278Y5747080D01*
X7985418Y5600000D01*
X6661781Y5600000D01*
X6645233Y5612698D01*
X6637990Y5615698D01*
X6604228Y5629683D01*
X6505236Y5670687D01*
X6446356Y5678439D01*
X6396739Y5684971D01*
X6396737Y5684972D01*
X6392720Y5685500D01*
X6317280Y5685500D01*
X6313263Y5684972D01*
X6313260Y5684971D01*
X6204764Y5670687D01*
X6064768Y5612699D01*
X5944549Y5520451D01*
X5852301Y5400232D01*
X5794312Y5260236D01*
X5774533Y5110001D01*
X5794312Y4959765D01*
X5840426Y4848437D01*
X5852302Y4819767D01*
X5944549Y4699549D01*
X6064767Y4607302D01*
X6064768Y4607302D01*
X6064769Y4607301D01*
X6121151Y4583947D01*
X6175555Y4540107D01*
X6197620Y4473813D01*
X6180341Y4406113D01*
X6129204Y4358502D01*
X6117671Y4353444D01*
X5995805Y4307226D01*
X5855268Y4210221D01*
X5742025Y4082395D01*
X5662667Y3931192D01*
X5632056Y3807001D01*
X3767943Y3807001D01*
X3737332Y3931192D01*
X3657974Y4082395D01*
X3544731Y4210221D01*
X3404194Y4307226D01*
X3244523Y4367781D01*
X3121257Y4382749D01*
X3113788Y4383200D01*
X2802000Y4383200D01*
X2802000Y3980000D01*
X2548000Y3980000D01*
X2548000Y4383200D01*
X2236212Y4383200D01*
X2228742Y4382749D01*
X2105476Y4367781D01*
X1945805Y4307226D01*
X1805268Y4210221D01*
X1692025Y4082395D01*
X1612667Y3931192D01*
X1582056Y3807001D01*
X305300Y3807001D01*
X305300Y7504700D01*
X4385418Y7504700D01*
X4403278Y7357621D01*
X4455815Y7219090D01*
X4539980Y7097156D01*
X4650875Y6998912D01*
X4650876Y6998912D01*
X4650878Y6998910D01*
X4782067Y6930057D01*
X4925920Y6894600D01*
X4925921Y6894600D01*
X5074079Y6894600D01*
X5074080Y6894600D01*
X5217933Y6930057D01*
X5219644Y6930956D01*
X5229982Y6933027D01*
X5232552Y6933660D01*
X5232579Y6933548D01*
X5288152Y6944683D01*
X5353206Y6919193D01*
X5394152Y6862579D01*
X5400370Y6836110D01*
X5401061Y6830419D01*
X5453598Y6691888D01*
X5537763Y6569954D01*
X5648658Y6471710D01*
X5648659Y6471710D01*
X5648661Y6471708D01*
X5779850Y6402855D01*
X5923703Y6367398D01*
X5923704Y6367398D01*
X6071862Y6367398D01*
X6071863Y6367398D01*
X6215716Y6402855D01*
X6346905Y6471708D01*
X6457803Y6569955D01*
X6541967Y6691888D01*
X6594505Y6830419D01*
X6612364Y6977498D01*
X6594505Y7124577D01*
X6541967Y7263108D01*
X6541967Y7263109D01*
X6457802Y7385043D01*
X6346907Y7483287D01*
X6215714Y7552142D01*
X6118916Y7576001D01*
X6071863Y7587598D01*
X5923703Y7587598D01*
X5894932Y7580507D01*
X5779846Y7552141D01*
X5778129Y7551239D01*
X5767777Y7549166D01*
X5765231Y7548538D01*
X5765203Y7548651D01*
X5709620Y7537517D01*
X5644568Y7563012D01*
X5603626Y7619629D01*
X5597412Y7646094D01*
X5596722Y7651779D01*
X5544184Y7790310D01*
X5544184Y7790311D01*
X5451467Y7924634D01*
X5453782Y7926233D01*
X5428604Y7966367D01*
X5429368Y8036232D01*
X5453580Y8073908D01*
X5451467Y8075366D01*
X5544184Y8209690D01*
X5596722Y8348221D01*
X5614581Y8495300D01*
X5596722Y8642379D01*
X5554289Y8754265D01*
X5544184Y8780911D01*
X5460019Y8902845D01*
X5349124Y9001089D01*
X5217931Y9069944D01*
X5119471Y9094212D01*
X5074080Y9105400D01*
X4925920Y9105400D01*
X4890463Y9096661D01*
X4782068Y9069944D01*
X4650875Y9001089D01*
X4539980Y8902845D01*
X4455815Y8780911D01*
X4403278Y8642380D01*
X4385418Y8495301D01*
X4403278Y8348221D01*
X4455815Y8209690D01*
X4548533Y8075366D01*
X4546218Y8073769D01*
X4571398Y8033623D01*
X4570628Y7963757D01*
X4546421Y7926092D01*
X4548533Y7924634D01*
X4455815Y7790311D01*
X4403278Y7651780D01*
X4385418Y7504700D01*
X305300Y7504700D01*
X305300Y12447001D01*
X1582056Y12447001D01*
X1582057Y12447000D01*
X1999227Y12447000D01*
X1971105Y12348160D01*
X1981454Y12236479D01*
X2003104Y12193000D01*
X1582057Y12193000D01*
X1612667Y12068809D01*
X1692025Y11917606D01*
X1805268Y11789780D01*
X1945805Y11692775D01*
X2105476Y11632220D01*
X2228742Y11617252D01*
X2236212Y11616800D01*
X2548000Y11616800D01*
X2548000Y12020000D01*
X2802000Y12020000D01*
X2802000Y11616800D01*
X3113788Y11616800D01*
X3121257Y11617252D01*
X3244523Y11632220D01*
X3404194Y11692775D01*
X3544731Y11789780D01*
X3657974Y11917606D01*
X3737332Y12068809D01*
X3767943Y12193000D01*
X3350773Y12193000D01*
X3378895Y12291840D01*
X3368546Y12403521D01*
X3346896Y12447000D01*
X3767943Y12447000D01*
X3767943Y12447001D01*
X5632056Y12447001D01*
X5632057Y12447000D01*
X6049227Y12447000D01*
X6021105Y12348160D01*
X6031454Y12236479D01*
X6053104Y12193000D01*
X5632057Y12193000D01*
X5662667Y12068809D01*
X5742025Y11917606D01*
X5855268Y11789780D01*
X5995805Y11692774D01*
X6117670Y11646557D01*
X6173373Y11604379D01*
X6197430Y11538782D01*
X6182203Y11470591D01*
X6132527Y11421458D01*
X6121152Y11416054D01*
X6064769Y11392700D01*
X5944549Y11300451D01*
X5852301Y11180232D01*
X5794312Y11040236D01*
X5774533Y10890001D01*
X5794312Y10739765D01*
X5825178Y10665250D01*
X5852302Y10599767D01*
X5901531Y10535611D01*
X5944549Y10479549D01*
X5946126Y10478339D01*
X5987330Y10421911D01*
X5991485Y10352165D01*
X5957274Y10291245D01*
X5928268Y10270166D01*
X5900877Y10255790D01*
X5789980Y10157545D01*
X5705815Y10035611D01*
X5653278Y9897080D01*
X5635418Y9750001D01*
X5653278Y9602921D01*
X5705815Y9464390D01*
X5789980Y9342456D01*
X5900875Y9244212D01*
X5900876Y9244212D01*
X5900878Y9244210D01*
X6032067Y9175357D01*
X6175920Y9139900D01*
X6175921Y9139900D01*
X6324079Y9139900D01*
X6324080Y9139900D01*
X6467933Y9175357D01*
X6599122Y9244210D01*
X6710020Y9342457D01*
X6794184Y9464390D01*
X6846722Y9602921D01*
X6864581Y9750000D01*
X6846722Y9897079D01*
X6805493Y10005790D01*
X6794184Y10035611D01*
X6710019Y10157545D01*
X6653493Y10207622D01*
X6616366Y10266811D01*
X6617134Y10336677D01*
X6655552Y10395036D01*
X6660234Y10398813D01*
X6723135Y10447079D01*
X6765451Y10479549D01*
X6857698Y10599767D01*
X6915687Y10739764D01*
X6935466Y10890000D01*
X6915687Y11040236D01*
X6857698Y11180233D01*
X6804164Y11250000D01*
X13135418Y11250000D01*
X13153278Y11102921D01*
X13205815Y10964390D01*
X13289980Y10842456D01*
X13400875Y10744212D01*
X13400876Y10744212D01*
X13400878Y10744210D01*
X13532067Y10675357D01*
X13675920Y10639900D01*
X13675921Y10639900D01*
X13824079Y10639900D01*
X13824080Y10639900D01*
X13967933Y10675357D01*
X14099122Y10744210D01*
X14210020Y10842457D01*
X14294184Y10964390D01*
X14346722Y11102921D01*
X14364581Y11250000D01*
X14346722Y11397079D01*
X14301668Y11515876D01*
X14294184Y11535611D01*
X14284252Y11550000D01*
X22635418Y11550000D01*
X22653278Y11402921D01*
X22705815Y11264390D01*
X22789980Y11142456D01*
X22900875Y11044212D01*
X22900876Y11044212D01*
X22900878Y11044210D01*
X23032067Y10975357D01*
X23175920Y10939900D01*
X23175921Y10939900D01*
X23324079Y10939900D01*
X23324080Y10939900D01*
X23467933Y10975357D01*
X23599122Y11044210D01*
X23710020Y11142457D01*
X23794184Y11264390D01*
X23846722Y11402921D01*
X23864581Y11550000D01*
X23846722Y11697079D01*
X23802459Y11813791D01*
X23794184Y11835611D01*
X23710019Y11957545D01*
X23599124Y12055789D01*
X23467931Y12124644D01*
X23462527Y12125976D01*
X30203833Y12125976D01*
X30221693Y11978897D01*
X30274230Y11840366D01*
X30358395Y11718432D01*
X30469290Y11620188D01*
X30469291Y11620188D01*
X30469293Y11620186D01*
X30600482Y11551333D01*
X30744335Y11515876D01*
X30744336Y11515876D01*
X30892494Y11515876D01*
X30892495Y11515876D01*
X31036348Y11551333D01*
X31167537Y11620186D01*
X31278435Y11718433D01*
X31362599Y11840366D01*
X31415137Y11978897D01*
X31432996Y12125976D01*
X31415137Y12273055D01*
X31362599Y12411586D01*
X31362599Y12411587D01*
X31278434Y12533521D01*
X31167539Y12631765D01*
X31036346Y12700620D01*
X30939548Y12724479D01*
X30892495Y12736076D01*
X30744335Y12736076D01*
X30708879Y12727337D01*
X30600483Y12700620D01*
X30469290Y12631765D01*
X30358395Y12533521D01*
X30274230Y12411587D01*
X30221693Y12273056D01*
X30203833Y12125976D01*
X23462527Y12125976D01*
X23363519Y12150379D01*
X23324080Y12160100D01*
X23175920Y12160100D01*
X23140464Y12151361D01*
X23032068Y12124644D01*
X22900875Y12055789D01*
X22789980Y11957545D01*
X22705815Y11835611D01*
X22653278Y11697080D01*
X22635418Y11550000D01*
X14284252Y11550000D01*
X14210019Y11657545D01*
X14099121Y11755792D01*
X14081184Y11765206D01*
X14030972Y11813791D01*
X14014999Y11881811D01*
X14038335Y11947668D01*
X14081188Y11984798D01*
X14099122Y11994210D01*
X14154570Y12043334D01*
X14210019Y12092456D01*
X14250001Y12150379D01*
X14294184Y12214390D01*
X14346722Y12352921D01*
X14364581Y12500000D01*
X14346722Y12647079D01*
X14307689Y12750001D01*
X14294184Y12785611D01*
X14210019Y12907545D01*
X14099124Y13005789D01*
X13967931Y13074644D01*
X13871133Y13098503D01*
X13824080Y13110100D01*
X13675920Y13110100D01*
X13640463Y13101361D01*
X13532068Y13074644D01*
X13400875Y13005789D01*
X13289980Y12907545D01*
X13205815Y12785611D01*
X13153278Y12647080D01*
X13135418Y12500001D01*
X13153278Y12352921D01*
X13205815Y12214390D01*
X13289980Y12092456D01*
X13400876Y11994211D01*
X13418814Y11984796D01*
X13469026Y11936211D01*
X13485000Y11868192D01*
X13461664Y11802334D01*
X13418814Y11765204D01*
X13400876Y11755790D01*
X13289980Y11657545D01*
X13205815Y11535611D01*
X13153278Y11397080D01*
X13135418Y11250000D01*
X6804164Y11250000D01*
X6765451Y11300451D01*
X6645233Y11392698D01*
X6645231Y11392699D01*
X6642983Y11394424D01*
X6601781Y11450852D01*
X6597626Y11520598D01*
X6631838Y11581519D01*
X6693556Y11614271D01*
X6718470Y11616800D01*
X6748000Y11616800D01*
X6748000Y12020000D01*
X7002000Y12020000D01*
X7002000Y11616800D01*
X7463788Y11616800D01*
X7471257Y11617252D01*
X7594523Y11632220D01*
X7754194Y11692775D01*
X7894731Y11789780D01*
X8007974Y11917606D01*
X8087332Y12068809D01*
X8117943Y12193000D01*
X7700773Y12193000D01*
X7728895Y12291840D01*
X7718546Y12403521D01*
X7696896Y12447000D01*
X8117943Y12447000D01*
X8117943Y12447001D01*
X8087332Y12571192D01*
X8007974Y12722395D01*
X7894731Y12850221D01*
X7754194Y12947226D01*
X7594523Y13007781D01*
X7471257Y13022749D01*
X7463788Y13023200D01*
X7002000Y13023200D01*
X7002000Y12620000D01*
X6748000Y12620000D01*
X6748000Y13023200D01*
X6286212Y13023200D01*
X6278742Y13022749D01*
X6155476Y13007781D01*
X5995805Y12947226D01*
X5855268Y12850221D01*
X5742025Y12722395D01*
X5662667Y12571192D01*
X5632056Y12447001D01*
X3767943Y12447001D01*
X3737332Y12571192D01*
X3657974Y12722395D01*
X3544731Y12850221D01*
X3404194Y12947226D01*
X3244523Y13007781D01*
X3121257Y13022749D01*
X3113788Y13023200D01*
X2802000Y13023200D01*
X2802000Y12620000D01*
X2548000Y12620000D01*
X2548000Y13023200D01*
X2236212Y13023200D01*
X2228742Y13022749D01*
X2105476Y13007781D01*
X1945805Y12947226D01*
X1805268Y12850221D01*
X1692025Y12722395D01*
X1612667Y12571192D01*
X1582056Y12447001D01*
X305300Y12447001D01*
X305300Y13739879D01*
X324985Y13806918D01*
X377789Y13852673D01*
X446947Y13862617D01*
X504339Y13838596D01*
X571382Y13787631D01*
X571385Y13787629D01*
X734538Y13712147D01*
X734539Y13712147D01*
X734541Y13712146D01*
X910113Y13673500D01*
X1041458Y13673500D01*
X1044816Y13673500D01*
X1178721Y13688063D01*
X1349085Y13745465D01*
X1439724Y13800001D01*
X9985418Y13800001D01*
X10003278Y13652921D01*
X10055815Y13514390D01*
X10139980Y13392456D01*
X10250875Y13294212D01*
X10250876Y13294212D01*
X10250878Y13294210D01*
X10382067Y13225357D01*
X10525920Y13189900D01*
X10525921Y13189900D01*
X10674079Y13189900D01*
X10674080Y13189900D01*
X10817933Y13225357D01*
X10949122Y13294210D01*
X11060020Y13392457D01*
X11144184Y13514390D01*
X11196722Y13652921D01*
X11214581Y13800000D01*
X12285418Y13800000D01*
X12303278Y13652921D01*
X12355815Y13514390D01*
X12439980Y13392456D01*
X12550875Y13294212D01*
X12550876Y13294212D01*
X12550878Y13294210D01*
X12682067Y13225357D01*
X12825920Y13189900D01*
X12825921Y13189900D01*
X12974079Y13189900D01*
X12974080Y13189900D01*
X13117933Y13225357D01*
X13249122Y13294210D01*
X13360020Y13392457D01*
X13434251Y13500000D01*
X20185418Y13500000D01*
X20203278Y13352921D01*
X20255815Y13214390D01*
X20339980Y13092456D01*
X20450875Y12994212D01*
X20450876Y12994212D01*
X20450878Y12994210D01*
X20582067Y12925357D01*
X20725920Y12889900D01*
X20725921Y12889900D01*
X20874079Y12889900D01*
X20874080Y12889900D01*
X21017933Y12925357D01*
X21149122Y12994210D01*
X21260020Y13092457D01*
X21344184Y13214390D01*
X21396722Y13352921D01*
X21414581Y13500000D01*
X22985418Y13500000D01*
X23003278Y13352921D01*
X23055815Y13214390D01*
X23139980Y13092456D01*
X23250875Y12994212D01*
X23250876Y12994212D01*
X23250878Y12994210D01*
X23382067Y12925357D01*
X23525920Y12889900D01*
X23525921Y12889900D01*
X23674079Y12889900D01*
X23674080Y12889900D01*
X23817933Y12925357D01*
X23949122Y12994210D01*
X24060020Y13092457D01*
X24144184Y13214390D01*
X24144184Y13214391D01*
X24147950Y13219846D01*
X24202233Y13263836D01*
X24271681Y13271496D01*
X24334246Y13240393D01*
X24352050Y13219846D01*
X24439980Y13092456D01*
X24550875Y12994212D01*
X24550876Y12994212D01*
X24550878Y12994210D01*
X24682067Y12925357D01*
X24825920Y12889900D01*
X24825921Y12889900D01*
X24974079Y12889900D01*
X24974080Y12889900D01*
X25117933Y12925357D01*
X25249122Y12994210D01*
X25295410Y13035218D01*
X35361406Y13035218D01*
X35379266Y12888138D01*
X35431803Y12749607D01*
X35515968Y12627673D01*
X35626863Y12529429D01*
X35626864Y12529429D01*
X35626866Y12529427D01*
X35758055Y12460574D01*
X35901908Y12425117D01*
X35901909Y12425117D01*
X36050067Y12425117D01*
X36050068Y12425117D01*
X36193921Y12460574D01*
X36269043Y12500001D01*
X42885418Y12500001D01*
X42903278Y12352921D01*
X42955815Y12214390D01*
X43039980Y12092456D01*
X43150875Y11994212D01*
X43150876Y11994212D01*
X43150878Y11994210D01*
X43282067Y11925357D01*
X43425920Y11889900D01*
X43425921Y11889900D01*
X43574079Y11889900D01*
X43574080Y11889900D01*
X43717933Y11925357D01*
X43849122Y11994210D01*
X43878233Y12020000D01*
X43917773Y12055029D01*
X43981006Y12084751D01*
X44050269Y12075567D01*
X44082227Y12055029D01*
X44121767Y12020000D01*
X44150878Y11994210D01*
X44159600Y11989633D01*
X44168814Y11984796D01*
X44219026Y11936211D01*
X44235000Y11868192D01*
X44211664Y11802334D01*
X44168814Y11765204D01*
X44150876Y11755790D01*
X44039980Y11657545D01*
X43955815Y11535611D01*
X43903278Y11397080D01*
X43885418Y11250000D01*
X43903278Y11102921D01*
X43955815Y10964390D01*
X44039980Y10842456D01*
X44150875Y10744212D01*
X44150876Y10744212D01*
X44150878Y10744210D01*
X44282067Y10675357D01*
X44425920Y10639900D01*
X44425921Y10639900D01*
X44574079Y10639900D01*
X44574080Y10639900D01*
X44717933Y10675357D01*
X44849122Y10744210D01*
X44960020Y10842457D01*
X45044184Y10964390D01*
X45096722Y11102921D01*
X45114581Y11250000D01*
X45096722Y11397079D01*
X45051668Y11515876D01*
X45044184Y11535611D01*
X44960019Y11657545D01*
X44849123Y11755790D01*
X44831187Y11765203D01*
X44780974Y11813788D01*
X44764999Y11881806D01*
X44788334Y11947664D01*
X44831187Y11984797D01*
X44832141Y11985298D01*
X44849122Y11994210D01*
X44904570Y12043334D01*
X44960019Y12092456D01*
X45000001Y12150379D01*
X45044184Y12214390D01*
X45096722Y12352921D01*
X45114581Y12500000D01*
X45096722Y12647079D01*
X45057689Y12750001D01*
X46385418Y12750001D01*
X46403278Y12602921D01*
X46455815Y12464390D01*
X46539980Y12342456D01*
X46650875Y12244212D01*
X46650876Y12244212D01*
X46650878Y12244210D01*
X46782067Y12175357D01*
X46925920Y12139900D01*
X46925921Y12139900D01*
X47074079Y12139900D01*
X47074080Y12139900D01*
X47217933Y12175357D01*
X47349122Y12244210D01*
X47460020Y12342457D01*
X47544184Y12464390D01*
X47596722Y12602921D01*
X47614581Y12750000D01*
X47596722Y12897079D01*
X47548891Y13023200D01*
X47544184Y13035611D01*
X47460019Y13157545D01*
X47349124Y13255789D01*
X47217931Y13324644D01*
X47103206Y13352921D01*
X47074080Y13360100D01*
X46925920Y13360100D01*
X46896794Y13352921D01*
X46782068Y13324644D01*
X46650875Y13255789D01*
X46539980Y13157545D01*
X46455815Y13035611D01*
X46403278Y12897080D01*
X46385418Y12750001D01*
X45057689Y12750001D01*
X45044184Y12785611D01*
X44960019Y12907545D01*
X44849124Y13005789D01*
X44717931Y13074644D01*
X44621133Y13098503D01*
X44574080Y13110100D01*
X44425920Y13110100D01*
X44390464Y13101361D01*
X44282068Y13074644D01*
X44150877Y13005790D01*
X44082227Y12944971D01*
X44018993Y12915250D01*
X43949730Y12924434D01*
X43917773Y12944971D01*
X43849122Y13005790D01*
X43717931Y13074644D01*
X43621133Y13098503D01*
X43574080Y13110100D01*
X43425920Y13110100D01*
X43390463Y13101361D01*
X43282068Y13074644D01*
X43150875Y13005789D01*
X43039980Y12907545D01*
X42955815Y12785611D01*
X42903278Y12647080D01*
X42885418Y12500001D01*
X36269043Y12500001D01*
X36325110Y12529427D01*
X36436008Y12627674D01*
X36520172Y12749607D01*
X36572710Y12888138D01*
X36590569Y13035217D01*
X36579667Y13125001D01*
X41260418Y13125001D01*
X41278278Y12977921D01*
X41330815Y12839390D01*
X41414980Y12717456D01*
X41525875Y12619212D01*
X41525876Y12619212D01*
X41525878Y12619210D01*
X41657067Y12550357D01*
X41800920Y12514900D01*
X41800921Y12514900D01*
X41949079Y12514900D01*
X41949080Y12514900D01*
X42092933Y12550357D01*
X42224122Y12619210D01*
X42335020Y12717457D01*
X42419184Y12839390D01*
X42471722Y12977921D01*
X42478522Y13033925D01*
X42506144Y13098102D01*
X42564078Y13137158D01*
X42571943Y13139374D01*
X42574077Y13139900D01*
X42574080Y13139900D01*
X42717933Y13175357D01*
X42849122Y13244210D01*
X42960020Y13342457D01*
X43044184Y13464390D01*
X43096722Y13602921D01*
X43114581Y13750000D01*
X43096722Y13897079D01*
X43052627Y14013349D01*
X43044184Y14035611D01*
X42960019Y14157545D01*
X42849124Y14255789D01*
X42717931Y14324644D01*
X42621133Y14348503D01*
X42574080Y14360100D01*
X42425920Y14360100D01*
X42390464Y14351361D01*
X42282068Y14324644D01*
X42150875Y14255789D01*
X42039980Y14157545D01*
X41955815Y14035611D01*
X41903278Y13897080D01*
X41896477Y13841075D01*
X41868854Y13776898D01*
X41810919Y13737842D01*
X41803057Y13735627D01*
X41657067Y13699644D01*
X41525875Y13630789D01*
X41414980Y13532545D01*
X41330815Y13410611D01*
X41278278Y13272080D01*
X41260418Y13125001D01*
X36579667Y13125001D01*
X36572710Y13182296D01*
X36524110Y13310444D01*
X36520172Y13320828D01*
X36436007Y13442762D01*
X36325112Y13541006D01*
X36193919Y13609861D01*
X36097121Y13633720D01*
X36050068Y13645317D01*
X35901908Y13645317D01*
X35866452Y13636578D01*
X35758056Y13609861D01*
X35626863Y13541006D01*
X35515968Y13442762D01*
X35431803Y13320828D01*
X35379266Y13182297D01*
X35361406Y13035218D01*
X25295410Y13035218D01*
X25360020Y13092457D01*
X25444184Y13214390D01*
X25496722Y13352921D01*
X25514581Y13500000D01*
X25496722Y13647079D01*
X25444184Y13785610D01*
X25444184Y13785611D01*
X25360019Y13907545D01*
X25249124Y14005789D01*
X25117931Y14074644D01*
X25021133Y14098503D01*
X24974080Y14110100D01*
X24825920Y14110100D01*
X24790463Y14101361D01*
X24682068Y14074644D01*
X24550875Y14005789D01*
X24439980Y13907545D01*
X24352050Y13780155D01*
X24297767Y13736165D01*
X24228318Y13728505D01*
X24165753Y13759609D01*
X24147950Y13780155D01*
X24060019Y13907545D01*
X23949124Y14005789D01*
X23817931Y14074644D01*
X23721133Y14098503D01*
X23674080Y14110100D01*
X23525920Y14110100D01*
X23490464Y14101361D01*
X23382068Y14074644D01*
X23250875Y14005789D01*
X23139980Y13907545D01*
X23055815Y13785611D01*
X23003278Y13647080D01*
X22985418Y13500000D01*
X21414581Y13500000D01*
X21396722Y13647079D01*
X21344184Y13785610D01*
X21344184Y13785611D01*
X21260019Y13907545D01*
X21149124Y14005789D01*
X21017931Y14074644D01*
X20921133Y14098503D01*
X20874080Y14110100D01*
X20725920Y14110100D01*
X20690464Y14101361D01*
X20582068Y14074644D01*
X20450875Y14005789D01*
X20339980Y13907545D01*
X20255815Y13785611D01*
X20203278Y13647080D01*
X20185418Y13500000D01*
X13434251Y13500000D01*
X13444184Y13514390D01*
X13496722Y13652921D01*
X13514581Y13800000D01*
X13496722Y13947079D01*
X13459260Y14045858D01*
X13444184Y14085611D01*
X13360019Y14207545D01*
X13249124Y14305789D01*
X13117931Y14374644D01*
X13021133Y14398503D01*
X12974080Y14410100D01*
X12825920Y14410100D01*
X12790464Y14401361D01*
X12682068Y14374644D01*
X12550875Y14305789D01*
X12439980Y14207545D01*
X12355815Y14085611D01*
X12303278Y13947080D01*
X12285418Y13800000D01*
X11214581Y13800000D01*
X11196722Y13947079D01*
X11159260Y14045858D01*
X11144184Y14085611D01*
X11060019Y14207545D01*
X10949124Y14305789D01*
X10817931Y14374644D01*
X10721133Y14398503D01*
X10674080Y14410100D01*
X10525920Y14410100D01*
X10490464Y14401361D01*
X10382068Y14374644D01*
X10250875Y14305789D01*
X10139980Y14207545D01*
X10055815Y14085611D01*
X10003278Y13947080D01*
X9985418Y13800001D01*
X1439724Y13800001D01*
X1503126Y13838149D01*
X1633642Y13961780D01*
X1734529Y14110577D01*
X1801070Y14277584D01*
X1830155Y14454990D01*
X1820422Y14634501D01*
X1772327Y14807723D01*
X1688119Y14966556D01*
X1688118Y14966558D01*
X1667846Y14990424D01*
X1639448Y15054262D01*
X1650072Y15123320D01*
X1696345Y15175670D01*
X1762354Y15194700D01*
X46451645Y15194700D01*
X46487788Y15194700D01*
X46511979Y15192317D01*
G37*
%TD.AperFunction*%
%TD*%
M02*
