M48
; DRILL file {KiCad 7.0.2-0} date 2023 December 30, Saturday 15:55:51
; FORMAT={-:-/ absolute / metric / decimal}
; #@! TF.CreationDate,2023-12-30T15:55:51-08:00
; #@! TF.GenerationSoftware,Kicad,Pcbnew,7.0.2-0
; #@! TF.FileFunction,Plated,1,4,PTH
FMAT,2
METRIC
; #@! TA.AperFunction,Plated,PTH,ViaDrill
T1C0.406
; #@! TA.AperFunction,Plated,PTH,ComponentDrill
T2C0.500
; #@! TA.AperFunction,Plated,PTH,ComponentDrill
T3C0.600
%
G90
G05
T1
X125.75Y-114.789
X127.25Y-101.25
X129.75Y-114.78
X130.0Y-107.005
X130.0Y-107.995
X130.998Y-108.523
X131.25Y-105.75
X132.0Y-101.25
X133.29Y-114.789
X133.6Y-109.9
X133.75Y-104.0
X133.75Y-111.0
X135.6Y-101.7
X135.7Y-109.4
X136.75Y-105.9
X136.75Y-109.0
X136.899Y-114.773
X137.75Y-112.75
X137.9Y-101.7
X138.5Y-111.0
X138.75Y-103.0
X138.75Y-104.25
X138.75Y-105.5
X140.25Y-105.5
X140.728Y-110.42
X141.5Y-114.789
X143.228Y-110.42
X143.5Y-105.5
X144.5Y-114.789
X144.8Y-106.1
X145.0Y-111.75
X145.728Y-110.263
X145.734Y-105.707
X145.8Y-102.0
X147.25Y-112.25
X147.5Y-114.75
X148.25Y-103.95
X148.6Y-102.0
X149.2Y-108.5
X149.25Y-105.2
X149.25Y-107.45
X149.25Y-109.7
X149.9Y-102.0
X150.25Y-105.2
X150.5Y-114.75
X150.8Y-100.711
X151.7Y-109.608
X151.75Y-105.25
X151.75Y-114.75
X152.0Y-100.711
X152.672Y-109.733
X152.75Y-105.25
X153.0Y-114.4
X153.4Y-112.2
X153.636Y-109.753
X153.75Y-105.2
X153.75Y-107.45
X153.75Y-108.6
X153.963Y-106.24
X155.2Y-102.5
X155.75Y-113.75
X155.818Y-103.374
X155.997Y-106.004
X157.0Y-106.5
X157.3Y-109.308
X157.3Y-111.1
X158.25Y-104.25
X158.25Y-105.5
X158.5Y-102.25
X160.976Y-102.465
X166.5Y-109.25
X166.5Y-111.5
X166.875Y-102.375
X167.09Y-104.96
X167.1Y-106.0
X167.5Y-101.75
X168.1Y-104.96
X168.5Y-103.0
X168.635Y-114.305
X169.5Y-103.0
X169.5Y-104.25
X170.75Y-112.75
X171.25Y-106.0
X171.5Y-101.75
X172.0Y-102.75
X172.0Y-106.0
X172.0Y-108.25
X172.5Y-112.25
X172.855Y-106.62
X172.855Y-107.61
T2
X134.5Y-105.0
X134.5Y-106.0
X134.5Y-107.0
X134.5Y-108.0
X134.5Y-109.0
X162.25Y-110.5
X163.25Y-110.5
X164.25Y-110.5
X165.25Y-110.5
X166.25Y-110.5
T2
G00X180.265Y-102.275
M15
G01X179.235Y-102.275
M16
G05
G00X180.265Y-112.725
M15
G01X179.235Y-112.725
M16
G05
T3
G00X128.075Y-103.18
M15
G01X127.275Y-103.18
M16
G05
G00X128.075Y-111.82
M15
G01X127.275Y-111.82
M16
G05
G00X132.425Y-103.18
M15
G01X131.325Y-103.18
M16
G05
G00X132.425Y-111.82
M15
G01X131.325Y-111.82
M16
G05
T0
M30
