<?xml version="1.0" standalone="no"?>
 <!DOCTYPE svg PUBLIC "-//W3C//DTD SVG 1.1//EN" 
 "http://www.w3.org/Graphics/SVG/1.1/DTD/svg11.dtd"> 
<svg xmlns="http://www.w3.org/2000/svg" version="1.1" 
    width="29.7002cm" height="21.0007cm" viewBox="0 0 116930 82680 ">
<title>SVG Picture created as uart-friend-F.SilkS.svg date 2016/07/24 12:31:50 </title>
  <desc>Picture generated by PCBNEW </desc>
<g style="fill:#000000; fill-opacity:1;stroke:#000000; stroke-opacity:1;
stroke-linecap:round; stroke-linejoin:round; "
 transform="translate(0 0) scale(1 1)">
</g>
<g style="fill:#000000; fill-opacity:0.0; 
stroke:#000000; stroke-width:-0.000393701; stroke-opacity:1; 
stroke-linecap:round; stroke-linejoin:round;">
</g>
<g style="fill:#000000; fill-opacity:0.0; 
stroke:#000000; stroke-width:39.3701; stroke-opacity:1; 
stroke-linecap:round; stroke-linejoin:round;">
</g>
<g style="fill:#000000; fill-opacity:0.0; 
stroke:#000000; stroke-width:59.0551; stroke-opacity:1; 
stroke-linecap:round; stroke-linejoin:round;">
<rect x="69685.9" y="65357.2" width="42519.7" height="12598.4" rx="0" />
</g>
<g style="fill:#000000; fill-opacity:0.0; 
stroke:#000000; stroke-width:39.3701; stroke-opacity:1; 
stroke-linecap:round; stroke-linejoin:round;">
</g>
<g style="fill:#000000; fill-opacity:0.0; 
stroke:#000000; stroke-width:59.0551; stroke-opacity:1; 
stroke-linecap:round; stroke-linejoin:round;">
<rect x="3937.01" y="3937.01" width="109056" height="74806" rx="0" />
</g>
<g style="fill:#000000; fill-opacity:0.0; 
stroke:#000000; stroke-width:39.3701; stroke-opacity:1; 
stroke-linecap:round; stroke-linejoin:round;">
</g>
<g style="fill:#000000; fill-opacity:0.0; 
stroke:#000000; stroke-width:59.0551; stroke-opacity:1; 
stroke-linecap:round; stroke-linejoin:round;">
<rect x="4724.41" y="4724.41" width="107481" height="73231.2" rx="0" />
</g>
<g style="fill:#000000; fill-opacity:0.0; 
stroke:#000000; stroke-width:39.3701; stroke-opacity:1; 
stroke-linecap:round; stroke-linejoin:round;">
</g>
<g style="fill:#000000; fill-opacity:0.0; 
stroke:#000000; stroke-width:59.0551; stroke-opacity:1; 
stroke-linecap:round; stroke-linejoin:round;">
<path d="M23622 4724
L23622 3937
" />
</g>
<g style="fill:#000000; fill-opacity:0.0; 
stroke:#000000; stroke-width:39.3701; stroke-opacity:1; 
stroke-linecap:round; stroke-linejoin:round;">
</g>
<g style="fill:#000000; fill-opacity:0.0; 
stroke:#000000; stroke-width:59.0551; stroke-opacity:1; 
stroke-linecap:round; stroke-linejoin:round;">
<path d="M43307 4724
L43307 3937
" />
</g>
<g style="fill:#000000; fill-opacity:0.0; 
stroke:#000000; stroke-width:39.3701; stroke-opacity:1; 
stroke-linecap:round; stroke-linejoin:round;">
</g>
<g style="fill:#000000; fill-opacity:0.0; 
stroke:#000000; stroke-width:59.0551; stroke-opacity:1; 
stroke-linecap:round; stroke-linejoin:round;">
<path d="M62992 4724
L62992 3937
" />
</g>
<g style="fill:#000000; fill-opacity:0.0; 
stroke:#000000; stroke-width:39.3701; stroke-opacity:1; 
stroke-linecap:round; stroke-linejoin:round;">
</g>
<g style="fill:#000000; fill-opacity:0.0; 
stroke:#000000; stroke-width:59.0551; stroke-opacity:1; 
stroke-linecap:round; stroke-linejoin:round;">
<path d="M82677 4724
L82677 3937
" />
</g>
<g style="fill:#000000; fill-opacity:0.0; 
stroke:#000000; stroke-width:39.3701; stroke-opacity:1; 
stroke-linecap:round; stroke-linejoin:round;">
</g>
<g style="fill:#000000; fill-opacity:0.0; 
stroke:#000000; stroke-width:59.0551; stroke-opacity:1; 
stroke-linecap:round; stroke-linejoin:round;">
<path d="M102362 4724
L102362 3937
" />
</g>
<g style="fill:#000000; fill-opacity:0.0; 
stroke:#000000; stroke-width:39.3701; stroke-opacity:1; 
stroke-linecap:round; stroke-linejoin:round;">
</g>
<g style="fill:#000000; fill-opacity:0.0; 
stroke:#000000; stroke-width:59.0551; stroke-opacity:1; 
stroke-linecap:round; stroke-linejoin:round;">
<path d="M14169 4562
L13877 4562
" />
<path d="M14023 4562
L14023 4050
L13974 4123
L13925 4172
L13877 4196
" />
</g>
<g style="fill:#000000; fill-opacity:0.0; 
stroke:#000000; stroke-width:39.3701; stroke-opacity:1; 
stroke-linecap:round; stroke-linejoin:round;">
</g>
<g style="fill:#000000; fill-opacity:0.0; 
stroke:#000000; stroke-width:59.0551; stroke-opacity:1; 
stroke-linecap:round; stroke-linejoin:round;">
<path d="M33562 4099
L33586 4074
L33635 4050
L33757 4050
L33805 4074
L33830 4099
L33854 4147
L33854 4196
L33830 4269
L33537 4562
L33854 4562
" />
</g>
<g style="fill:#000000; fill-opacity:0.0; 
stroke:#000000; stroke-width:39.3701; stroke-opacity:1; 
stroke-linecap:round; stroke-linejoin:round;">
</g>
<g style="fill:#000000; fill-opacity:0.0; 
stroke:#000000; stroke-width:59.0551; stroke-opacity:1; 
stroke-linecap:round; stroke-linejoin:round;">
<path d="M53222 4050
L53539 4050
L53368 4245
L53442 4245
L53490 4269
L53515 4294
L53539 4342
L53539 4464
L53515 4513
L53490 4537
L53442 4562
L53295 4562
L53247 4537
L53222 4513
" />
</g>
<g style="fill:#000000; fill-opacity:0.0; 
stroke:#000000; stroke-width:39.3701; stroke-opacity:1; 
stroke-linecap:round; stroke-linejoin:round;">
</g>
<g style="fill:#000000; fill-opacity:0.0; 
stroke:#000000; stroke-width:59.0551; stroke-opacity:1; 
stroke-linecap:round; stroke-linejoin:round;">
<path d="M73175 4221
L73175 4562
" />
<path d="M73053 4026
L72932 4391
L73248 4391
" />
</g>
<g style="fill:#000000; fill-opacity:0.0; 
stroke:#000000; stroke-width:39.3701; stroke-opacity:1; 
stroke-linecap:round; stroke-linejoin:round;">
</g>
<g style="fill:#000000; fill-opacity:0.0; 
stroke:#000000; stroke-width:59.0551; stroke-opacity:1; 
stroke-linecap:round; stroke-linejoin:round;">
<path d="M92885 4050
L92641 4050
L92617 4294
L92641 4269
L92690 4245
L92812 4245
L92860 4269
L92885 4294
L92909 4342
L92909 4464
L92885 4513
L92860 4537
L92812 4562
L92690 4562
L92641 4537
L92617 4513
" />
</g>
<g style="fill:#000000; fill-opacity:0.0; 
stroke:#000000; stroke-width:39.3701; stroke-opacity:1; 
stroke-linecap:round; stroke-linejoin:round;">
</g>
<g style="fill:#000000; fill-opacity:0.0; 
stroke:#000000; stroke-width:59.0551; stroke-opacity:1; 
stroke-linecap:round; stroke-linejoin:round;">
<path d="M112545 4050
L112448 4050
L112399 4074
L112375 4099
L112326 4172
L112302 4269
L112302 4464
L112326 4513
L112350 4537
L112399 4562
L112497 4562
L112545 4537
L112570 4513
L112594 4464
L112594 4342
L112570 4294
L112545 4269
L112497 4245
L112399 4245
L112350 4269
L112326 4294
L112302 4342
" />
</g>
<g style="fill:#000000; fill-opacity:0.0; 
stroke:#000000; stroke-width:39.3701; stroke-opacity:1; 
stroke-linecap:round; stroke-linejoin:round;">
</g>
<g style="fill:#000000; fill-opacity:0.0; 
stroke:#000000; stroke-width:59.0551; stroke-opacity:1; 
stroke-linecap:round; stroke-linejoin:round;">
<path d="M23622 77955
L23622 78742
" />
</g>
<g style="fill:#000000; fill-opacity:0.0; 
stroke:#000000; stroke-width:39.3701; stroke-opacity:1; 
stroke-linecap:round; stroke-linejoin:round;">
</g>
<g style="fill:#000000; fill-opacity:0.0; 
stroke:#000000; stroke-width:59.0551; stroke-opacity:1; 
stroke-linecap:round; stroke-linejoin:round;">
<path d="M43307 77955
L43307 78742
" />
</g>
<g style="fill:#000000; fill-opacity:0.0; 
stroke:#000000; stroke-width:39.3701; stroke-opacity:1; 
stroke-linecap:round; stroke-linejoin:round;">
</g>
<g style="fill:#000000; fill-opacity:0.0; 
stroke:#000000; stroke-width:59.0551; stroke-opacity:1; 
stroke-linecap:round; stroke-linejoin:round;">
<path d="M62992 77955
L62992 78742
" />
</g>
<g style="fill:#000000; fill-opacity:0.0; 
stroke:#000000; stroke-width:39.3701; stroke-opacity:1; 
stroke-linecap:round; stroke-linejoin:round;">
</g>
<g style="fill:#000000; fill-opacity:0.0; 
stroke:#000000; stroke-width:59.0551; stroke-opacity:1; 
stroke-linecap:round; stroke-linejoin:round;">
<path d="M82677 77955
L82677 78742
" />
</g>
<g style="fill:#000000; fill-opacity:0.0; 
stroke:#000000; stroke-width:39.3701; stroke-opacity:1; 
stroke-linecap:round; stroke-linejoin:round;">
</g>
<g style="fill:#000000; fill-opacity:0.0; 
stroke:#000000; stroke-width:59.0551; stroke-opacity:1; 
stroke-linecap:round; stroke-linejoin:round;">
<path d="M102362 77955
L102362 78742
" />
</g>
<g style="fill:#000000; fill-opacity:0.0; 
stroke:#000000; stroke-width:39.3701; stroke-opacity:1; 
stroke-linecap:round; stroke-linejoin:round;">
</g>
<g style="fill:#000000; fill-opacity:0.0; 
stroke:#000000; stroke-width:59.0551; stroke-opacity:1; 
stroke-linecap:round; stroke-linejoin:round;">
<path d="M14169 78580
L13877 78580
" />
<path d="M14023 78580
L14023 78069
L13974 78142
L13925 78190
L13877 78215
" />
</g>
<g style="fill:#000000; fill-opacity:0.0; 
stroke:#000000; stroke-width:39.3701; stroke-opacity:1; 
stroke-linecap:round; stroke-linejoin:round;">
</g>
<g style="fill:#000000; fill-opacity:0.0; 
stroke:#000000; stroke-width:59.0551; stroke-opacity:1; 
stroke-linecap:round; stroke-linejoin:round;">
<path d="M33562 78117
L33586 78093
L33635 78069
L33757 78069
L33805 78093
L33830 78117
L33854 78166
L33854 78215
L33830 78288
L33537 78580
L33854 78580
" />
</g>
<g style="fill:#000000; fill-opacity:0.0; 
stroke:#000000; stroke-width:39.3701; stroke-opacity:1; 
stroke-linecap:round; stroke-linejoin:round;">
</g>
<g style="fill:#000000; fill-opacity:0.0; 
stroke:#000000; stroke-width:59.0551; stroke-opacity:1; 
stroke-linecap:round; stroke-linejoin:round;">
<path d="M53222 78069
L53539 78069
L53368 78263
L53442 78263
L53490 78288
L53515 78312
L53539 78361
L53539 78483
L53515 78532
L53490 78556
L53442 78580
L53295 78580
L53247 78556
L53222 78532
" />
</g>
<g style="fill:#000000; fill-opacity:0.0; 
stroke:#000000; stroke-width:39.3701; stroke-opacity:1; 
stroke-linecap:round; stroke-linejoin:round;">
</g>
<g style="fill:#000000; fill-opacity:0.0; 
stroke:#000000; stroke-width:59.0551; stroke-opacity:1; 
stroke-linecap:round; stroke-linejoin:round;">
<path d="M73175 78239
L73175 78580
" />
<path d="M73053 78044
L72932 78410
L73248 78410
" />
</g>
<g style="fill:#000000; fill-opacity:0.0; 
stroke:#000000; stroke-width:39.3701; stroke-opacity:1; 
stroke-linecap:round; stroke-linejoin:round;">
</g>
<g style="fill:#000000; fill-opacity:0.0; 
stroke:#000000; stroke-width:59.0551; stroke-opacity:1; 
stroke-linecap:round; stroke-linejoin:round;">
<path d="M92885 78069
L92641 78069
L92617 78312
L92641 78288
L92690 78263
L92812 78263
L92860 78288
L92885 78312
L92909 78361
L92909 78483
L92885 78532
L92860 78556
L92812 78580
L92690 78580
L92641 78556
L92617 78532
" />
</g>
<g style="fill:#000000; fill-opacity:0.0; 
stroke:#000000; stroke-width:39.3701; stroke-opacity:1; 
stroke-linecap:round; stroke-linejoin:round;">
</g>
<g style="fill:#000000; fill-opacity:0.0; 
stroke:#000000; stroke-width:59.0551; stroke-opacity:1; 
stroke-linecap:round; stroke-linejoin:round;">
<path d="M112545 78069
L112448 78069
L112399 78093
L112375 78117
L112326 78190
L112302 78288
L112302 78483
L112326 78532
L112350 78556
L112399 78580
L112497 78580
L112545 78556
L112570 78532
L112594 78483
L112594 78361
L112570 78312
L112545 78288
L112497 78263
L112399 78263
L112350 78288
L112326 78312
L112302 78361
" />
</g>
<g style="fill:#000000; fill-opacity:0.0; 
stroke:#000000; stroke-width:39.3701; stroke-opacity:1; 
stroke-linecap:round; stroke-linejoin:round;">
</g>
<g style="fill:#000000; fill-opacity:0.0; 
stroke:#000000; stroke-width:59.0551; stroke-opacity:1; 
stroke-linecap:round; stroke-linejoin:round;">
<path d="M3937 23622
L4724 23622
" />
</g>
<g style="fill:#000000; fill-opacity:0.0; 
stroke:#000000; stroke-width:39.3701; stroke-opacity:1; 
stroke-linecap:round; stroke-linejoin:round;">
</g>
<g style="fill:#000000; fill-opacity:0.0; 
stroke:#000000; stroke-width:59.0551; stroke-opacity:1; 
stroke-linecap:round; stroke-linejoin:round;">
<path d="M3937 43307
L4724 43307
" />
</g>
<g style="fill:#000000; fill-opacity:0.0; 
stroke:#000000; stroke-width:39.3701; stroke-opacity:1; 
stroke-linecap:round; stroke-linejoin:round;">
</g>
<g style="fill:#000000; fill-opacity:0.0; 
stroke:#000000; stroke-width:59.0551; stroke-opacity:1; 
stroke-linecap:round; stroke-linejoin:round;">
<path d="M3937 62992
L4724 62992
" />
</g>
<g style="fill:#000000; fill-opacity:0.0; 
stroke:#000000; stroke-width:39.3701; stroke-opacity:1; 
stroke-linecap:round; stroke-linejoin:round;">
</g>
<g style="fill:#000000; fill-opacity:0.0; 
stroke:#000000; stroke-width:59.0551; stroke-opacity:1; 
stroke-linecap:round; stroke-linejoin:round;">
<path d="M4208 13864
L4452 13864
" />
<path d="M4160 14011
L4330 13499
L4501 14011
" />
</g>
<g style="fill:#000000; fill-opacity:0.0; 
stroke:#000000; stroke-width:39.3701; stroke-opacity:1; 
stroke-linecap:round; stroke-linejoin:round;">
</g>
<g style="fill:#000000; fill-opacity:0.0; 
stroke:#000000; stroke-width:59.0551; stroke-opacity:1; 
stroke-linecap:round; stroke-linejoin:round;">
<path d="M4367 33428
L4440 33452
L4464 33476
L4489 33525
L4489 33598
L4464 33647
L4440 33671
L4391 33696
L4196 33696
L4196 33184
L4367 33184
L4416 33208
L4440 33233
L4464 33281
L4464 33330
L4440 33379
L4416 33403
L4367 33428
L4196 33428
" />
</g>
<g style="fill:#000000; fill-opacity:0.0; 
stroke:#000000; stroke-width:39.3701; stroke-opacity:1; 
stroke-linecap:round; stroke-linejoin:round;">
</g>
<g style="fill:#000000; fill-opacity:0.0; 
stroke:#000000; stroke-width:59.0551; stroke-opacity:1; 
stroke-linecap:round; stroke-linejoin:round;">
<path d="M4489 53332
L4464 53356
L4391 53381
L4342 53381
L4269 53356
L4221 53308
L4196 53259
L4172 53161
L4172 53088
L4196 52991
L4221 52942
L4269 52893
L4342 52869
L4391 52869
L4464 52893
L4489 52918
" />
</g>
<g style="fill:#000000; fill-opacity:0.0; 
stroke:#000000; stroke-width:39.3701; stroke-opacity:1; 
stroke-linecap:round; stroke-linejoin:round;">
</g>
<g style="fill:#000000; fill-opacity:0.0; 
stroke:#000000; stroke-width:59.0551; stroke-opacity:1; 
stroke-linecap:round; stroke-linejoin:round;">
<path d="M4196 73066
L4196 72554
L4318 72554
L4391 72578
L4440 72627
L4464 72676
L4489 72773
L4489 72846
L4464 72944
L4440 72993
L4391 73041
L4318 73066
L4196 73066
" />
</g>
<g style="fill:#000000; fill-opacity:0.0; 
stroke:#000000; stroke-width:39.3701; stroke-opacity:1; 
stroke-linecap:round; stroke-linejoin:round;">
</g>
<g style="fill:#000000; fill-opacity:0.0; 
stroke:#000000; stroke-width:59.0551; stroke-opacity:1; 
stroke-linecap:round; stroke-linejoin:round;">
<path d="M112992 23622
L112205 23622
" />
</g>
<g style="fill:#000000; fill-opacity:0.0; 
stroke:#000000; stroke-width:39.3701; stroke-opacity:1; 
stroke-linecap:round; stroke-linejoin:round;">
</g>
<g style="fill:#000000; fill-opacity:0.0; 
stroke:#000000; stroke-width:59.0551; stroke-opacity:1; 
stroke-linecap:round; stroke-linejoin:round;">
<path d="M112992 43307
L112205 43307
" />
</g>
<g style="fill:#000000; fill-opacity:0.0; 
stroke:#000000; stroke-width:39.3701; stroke-opacity:1; 
stroke-linecap:round; stroke-linejoin:round;">
</g>
<g style="fill:#000000; fill-opacity:0.0; 
stroke:#000000; stroke-width:59.0551; stroke-opacity:1; 
stroke-linecap:round; stroke-linejoin:round;">
<path d="M112992 62992
L112205 62992
" />
</g>
<g style="fill:#000000; fill-opacity:0.0; 
stroke:#000000; stroke-width:39.3701; stroke-opacity:1; 
stroke-linecap:round; stroke-linejoin:round;">
</g>
<g style="fill:#000000; fill-opacity:0.0; 
stroke:#000000; stroke-width:59.0551; stroke-opacity:1; 
stroke-linecap:round; stroke-linejoin:round;">
<path d="M112477 13864
L112721 13864
" />
<path d="M112428 14011
L112599 13499
L112769 14011
" />
</g>
<g style="fill:#000000; fill-opacity:0.0; 
stroke:#000000; stroke-width:39.3701; stroke-opacity:1; 
stroke-linecap:round; stroke-linejoin:round;">
</g>
<g style="fill:#000000; fill-opacity:0.0; 
stroke:#000000; stroke-width:59.0551; stroke-opacity:1; 
stroke-linecap:round; stroke-linejoin:round;">
<path d="M112635 33428
L112708 33452
L112733 33476
L112757 33525
L112757 33598
L112733 33647
L112708 33671
L112660 33696
L112465 33696
L112465 33184
L112635 33184
L112684 33208
L112708 33233
L112733 33281
L112733 33330
L112708 33379
L112684 33403
L112635 33428
L112465 33428
" />
</g>
<g style="fill:#000000; fill-opacity:0.0; 
stroke:#000000; stroke-width:39.3701; stroke-opacity:1; 
stroke-linecap:round; stroke-linejoin:round;">
</g>
<g style="fill:#000000; fill-opacity:0.0; 
stroke:#000000; stroke-width:59.0551; stroke-opacity:1; 
stroke-linecap:round; stroke-linejoin:round;">
<path d="M112757 53332
L112733 53356
L112660 53381
L112611 53381
L112538 53356
L112489 53308
L112465 53259
L112440 53161
L112440 53088
L112465 52991
L112489 52942
L112538 52893
L112611 52869
L112660 52869
L112733 52893
L112757 52918
" />
</g>
<g style="fill:#000000; fill-opacity:0.0; 
stroke:#000000; stroke-width:39.3701; stroke-opacity:1; 
stroke-linecap:round; stroke-linejoin:round;">
</g>
<g style="fill:#000000; fill-opacity:0.0; 
stroke:#000000; stroke-width:59.0551; stroke-opacity:1; 
stroke-linecap:round; stroke-linejoin:round;">
<path d="M112465 73066
L112465 72554
L112587 72554
L112660 72578
L112708 72627
L112733 72676
L112757 72773
L112757 72846
L112733 72944
L112708 72993
L112660 73041
L112587 73066
L112465 73066
" />
</g>
<g style="fill:#000000; fill-opacity:0.0; 
stroke:#000000; stroke-width:39.3701; stroke-opacity:1; 
stroke-linecap:round; stroke-linejoin:round;">
</g>
<g style="fill:#000000; fill-opacity:0.0; 
stroke:#000000; stroke-width:59.0551; stroke-opacity:1; 
stroke-linecap:round; stroke-linejoin:round;">
<path d="M78881 76293
L78881 75703
L79022 75703
L79106 75731
L79162 75787
L79190 75843
L79219 75956
L79219 76040
L79190 76153
L79162 76209
L79106 76265
L79022 76293
L78881 76293
" />
<path d="M79725 76293
L79725 75984
L79697 75928
L79640 75899
L79528 75899
L79472 75928
" />
<path d="M79725 76265
L79669 76293
L79528 76293
L79472 76265
L79444 76209
L79444 76153
L79472 76096
L79528 76068
L79669 76068
L79725 76040
" />
<path d="M79922 75899
L80147 75899
" />
<path d="M80006 75703
L80006 76209
L80034 76265
L80090 76293
L80147 76293
" />
<path d="M80568 76265
L80512 76293
L80400 76293
L80343 76265
L80315 76209
L80315 75984
L80343 75928
L80400 75899
L80512 75899
L80568 75928
L80597 75984
L80597 76040
L80315 76096
" />
<path d="M80850 76237
L80878 76265
L80850 76293
L80822 76265
L80850 76237
L80850 76293
" />
<path d="M80850 75928
L80878 75956
L80850 75984
L80822 75956
L80850 75928
L80850 75984
" />
</g>
<g style="fill:#000000; fill-opacity:0.0; 
stroke:#000000; stroke-width:39.3701; stroke-opacity:1; 
stroke-linecap:round; stroke-linejoin:round;">
</g>
<g style="fill:#000000; fill-opacity:0.0; 
stroke:#000000; stroke-width:59.0551; stroke-opacity:1; 
stroke-linecap:round; stroke-linejoin:round;">
<path d="M69685 76577
L112205 76577
" />
</g>
<g style="fill:#000000; fill-opacity:0.0; 
stroke:#000000; stroke-width:39.3701; stroke-opacity:1; 
stroke-linecap:round; stroke-linejoin:round;">
</g>
<g style="fill:#000000; fill-opacity:0.0; 
stroke:#000000; stroke-width:59.0551; stroke-opacity:1; 
stroke-linecap:round; stroke-linejoin:round;">
<path d="M70220 77395
L70220 76805
" />
<path d="M70557 77395
L70304 77058
" />
<path d="M70557 76805
L70220 77142
" />
<path d="M70810 77395
L70810 77002
" />
<path d="M70810 76805
L70782 76833
L70810 76861
L70838 76833
L70810 76805
L70810 76861
" />
<path d="M71429 77339
L71401 77367
L71316 77395
L71260 77395
L71176 77367
L71120 77311
L71091 77255
L71063 77142
L71063 77058
L71091 76946
L71120 76889
L71176 76833
L71260 76805
L71316 76805
L71401 76833
L71429 76861
" />
<path d="M71935 77395
L71935 77086
L71907 77030
L71851 77002
L71738 77002
L71682 77030
" />
<path d="M71935 77367
L71879 77395
L71738 77395
L71682 77367
L71654 77311
L71654 77255
L71682 77199
L71738 77171
L71879 77171
L71935 77142
" />
<path d="M72469 77395
L72469 76805
" />
<path d="M72469 77367
L72413 77395
L72301 77395
L72244 77367
L72216 77339
L72188 77283
L72188 77114
L72216 77058
L72244 77030
L72301 77002
L72413 77002
L72469 77030
" />
<path d="M73201 77086
L73397 77086
" />
<path d="M73482 77395
L73201 77395
L73201 76805
L73482 76805
" />
<path d="M73735 77339
L73763 77367
L73735 77395
L73707 77367
L73735 77339
L73735 77395
" />
<path d="M74016 77395
L74016 76805
L74157 76805
L74241 76833
L74297 76889
L74325 76946
L74354 77058
L74354 77142
L74325 77255
L74297 77311
L74241 77367
L74157 77395
L74016 77395
" />
<path d="M74607 77339
L74635 77367
L74607 77395
L74579 77367
L74607 77339
L74607 77395
" />
<path d="M74860 77227
L75141 77227
" />
<path d="M74804 77395
L75000 76805
L75197 77395
" />
<path d="M75394 77339
L75422 77367
L75394 77395
L75366 77367
L75394 77339
L75394 77395
" />
<path d="M76575 77395
L76575 76805
" />
<path d="M76631 77171
L76800 77395
" />
<path d="M76800 77002
L76575 77227
" />
<path d="M77053 77395
L77053 77002
" />
<path d="M77053 76805
L77025 76833
L77053 76861
L77081 76833
L77053 76805
L77053 76861
" />
<path d="M77588 77367
L77531 77395
L77419 77395
L77363 77367
L77334 77339
L77306 77283
L77306 77114
L77334 77058
L77363 77030
L77419 77002
L77531 77002
L77588 77030
" />
<path d="M78094 77395
L78094 77086
L78066 77030
L78009 77002
L77897 77002
L77841 77030
" />
<path d="M78094 77367
L78037 77395
L77897 77395
L77841 77367
L77813 77311
L77813 77255
L77841 77199
L77897 77171
L78037 77171
L78094 77142
" />
<path d="M78628 77395
L78628 76805
" />
<path d="M78628 77367
L78572 77395
L78459 77395
L78403 77367
L78375 77339
L78347 77283
L78347 77114
L78375 77058
L78403 77030
L78459 77002
L78572 77002
L78628 77030
" />
<path d="M79612 77002
L79612 77395
" />
<path d="M79472 76777
L79331 77199
L79697 77199
" />
<path d="M79922 77339
L79950 77367
L79922 77395
L79894 77367
L79922 77339
L79922 77395
" />
<path d="M80315 76805
L80372 76805
L80428 76833
L80456 76861
L80484 76917
L80512 77030
L80512 77171
L80484 77283
L80456 77339
L80428 77367
L80372 77395
L80315 77395
L80259 77367
L80231 77339
L80203 77283
L80175 77171
L80175 77030
L80203 76917
L80231 76861
L80259 76833
L80315 76805
" />
<path d="M80765 77339
L80793 77367
L80765 77395
L80737 77367
L80765 77339
L80765 77395
" />
<path d="M81159 76805
L81215 76805
L81271 76833
L81300 76861
L81328 76917
L81356 77030
L81356 77171
L81328 77283
L81300 77339
L81271 77367
L81215 77395
L81159 77395
L81103 77367
L81075 77339
L81046 77283
L81018 77171
L81018 77030
L81046 76917
L81075 76861
L81103 76833
L81159 76805
" />
<path d="M81609 77171
L82059 77171
" />
<path d="M82312 77367
L82368 77395
L82481 77395
L82537 77367
L82565 77311
L82565 77283
L82537 77227
L82481 77199
L82396 77199
L82340 77171
L82312 77114
L82312 77086
L82340 77030
L82396 77002
L82481 77002
L82537 77030
" />
<path d="M82734 77002
L82959 77002
" />
<path d="M82818 76805
L82818 77311
L82846 77367
L82903 77395
L82959 77395
" />
<path d="M83409 77395
L83409 77086
L83381 77030
L83324 77002
L83212 77002
L83156 77030
" />
<path d="M83409 77367
L83352 77395
L83212 77395
L83156 77367
L83127 77311
L83127 77255
L83156 77199
L83212 77171
L83352 77171
L83409 77142
" />
<path d="M83690 77395
L83690 76805
" />
<path d="M83690 77030
L83746 77002
L83859 77002
L83915 77030
L83943 77058
L83971 77114
L83971 77283
L83943 77339
L83915 77367
L83859 77395
L83746 77395
L83690 77367
" />
<path d="M84309 77395
L84252 77367
L84224 77311
L84224 76805
" />
<path d="M84759 77367
L84702 77395
L84590 77395
L84534 77367
L84505 77311
L84505 77086
L84534 77030
L84590 77002
L84702 77002
L84759 77030
L84787 77086
L84787 77142
L84505 77199
" />
</g>
<g style="fill:#000000; fill-opacity:0.0; 
stroke:#000000; stroke-width:39.3701; stroke-opacity:1; 
stroke-linecap:round; stroke-linejoin:round;">
</g>
<g style="fill:#000000; fill-opacity:0.0; 
stroke:#000000; stroke-width:59.0551; stroke-opacity:1; 
stroke-linecap:round; stroke-linejoin:round;">
<path d="M69685 75396
L112205 75396
" />
</g>
<g style="fill:#000000; fill-opacity:0.0; 
stroke:#000000; stroke-width:39.3701; stroke-opacity:1; 
stroke-linecap:round; stroke-linejoin:round;">
</g>
<g style="fill:#000000; fill-opacity:0.0; 
stroke:#000000; stroke-width:118.11; stroke-opacity:1; 
stroke-linecap:round; stroke-linejoin:round;">
<path d="M104022 76293
L103825 76012
" />
<path d="M103684 76293
L103684 75703
L103909 75703
L103965 75731
L103994 75759
L104022 75815
L104022 75899
L103994 75956
L103965 75984
L103909 76012
L103684 76012
" />
<path d="M104500 76265
L104444 76293
L104331 76293
L104275 76265
L104247 76209
L104247 75984
L104275 75928
L104331 75899
L104444 75899
L104500 75928
L104528 75984
L104528 76040
L104247 76096
" />
<path d="M104725 75899
L104865 76293
L105006 75899
" />
<path d="M105231 76237
L105259 76265
L105231 76293
L105203 76265
L105231 76237
L105231 76293
" />
<path d="M105231 75928
L105259 75956
L105231 75984
L105203 75956
L105231 75928
L105231 75984
" />
</g>
<g style="fill:#000000; fill-opacity:0.0; 
stroke:#000000; stroke-width:39.3701; stroke-opacity:1; 
stroke-linecap:round; stroke-linejoin:round;">
</g>
<g style="fill:#000000; fill-opacity:0.0; 
stroke:#000000; stroke-width:59.0551; stroke-opacity:1; 
stroke-linecap:round; stroke-linejoin:round;">
<path d="M70192 76265
L70276 76293
L70417 76293
L70473 76265
L70501 76237
L70529 76181
L70529 76124
L70501 76068
L70473 76040
L70417 76012
L70304 75984
L70248 75956
L70220 75928
L70192 75871
L70192 75815
L70220 75759
L70248 75731
L70304 75703
L70445 75703
L70529 75731
" />
<path d="M70782 76293
L70782 75899
" />
<path d="M70782 75703
L70754 75731
L70782 75759
L70810 75731
L70782 75703
L70782 75759
" />
<path d="M71007 75899
L71316 75899
L71007 76293
L71316 76293
" />
<path d="M71766 76265
L71710 76293
L71598 76293
L71541 76265
L71513 76209
L71513 75984
L71541 75928
L71598 75899
L71710 75899
L71766 75928
L71795 75984
L71795 76040
L71513 76096
" />
<path d="M72048 76237
L72076 76265
L72048 76293
L72019 76265
L72048 76237
L72048 76293
" />
<path d="M72048 75928
L72076 75956
L72048 75984
L72019 75956
L72048 75928
L72048 75984
" />
<path d="M72751 76124
L73032 76124
" />
<path d="M72694 76293
L72891 75703
L73088 76293
" />
<path d="M73538 75899
L73538 76293
" />
<path d="M73397 75674
L73257 76096
L73622 76096
" />
</g>
<g style="fill:#000000; fill-opacity:0.0; 
stroke:#000000; stroke-width:39.3701; stroke-opacity:1; 
stroke-linecap:round; stroke-linejoin:round;">
</g>
<g style="fill:#000000; fill-opacity:0.0; 
stroke:#000000; stroke-width:59.0551; stroke-opacity:1; 
stroke-linecap:round; stroke-linejoin:round;">
<path d="M103684 77395
L103684 76805
" />
<path d="M104219 77395
L104219 76805
" />
<path d="M104219 77367
L104162 77395
L104050 77395
L103994 77367
L103965 77339
L103937 77283
L103937 77114
L103965 77058
L103994 77030
L104050 77002
L104162 77002
L104219 77030
" />
<path d="M104500 77339
L104528 77367
L104500 77395
L104472 77367
L104500 77339
L104500 77395
" />
<path d="M104500 77030
L104528 77058
L104500 77086
L104472 77058
L104500 77030
L104500 77086
" />
<path d="M105540 77395
L105203 77395
" />
<path d="M105372 77395
L105372 76805
L105315 76889
L105259 76946
L105203 76974
" />
<path d="M106215 76777
L105709 77536
" />
<path d="M106721 77395
L106384 77395
" />
<path d="M106553 77395
L106553 76805
L106496 76889
L106440 76946
L106384 76974
" />
</g>
<g style="fill:#000000; fill-opacity:0.0; 
stroke:#000000; stroke-width:39.3701; stroke-opacity:1; 
stroke-linecap:round; stroke-linejoin:round;">
</g>
<g style="fill:#000000; fill-opacity:0.0; 
stroke:#000000; stroke-width:59.0551; stroke-opacity:1; 
stroke-linecap:round; stroke-linejoin:round;">
<path d="M69685 73821
L112205 73821
" />
</g>
<g style="fill:#000000; fill-opacity:0.0; 
stroke:#000000; stroke-width:39.3701; stroke-opacity:1; 
stroke-linecap:round; stroke-linejoin:round;">
</g>
<g style="fill:#000000; fill-opacity:0.0; 
stroke:#000000; stroke-width:157.48; stroke-opacity:1; 
stroke-linecap:round; stroke-linejoin:round;">
<path d="M70257 74099
L70707 74099
" />
<path d="M70384 74886
L70482 74099
" />
<path d="M70871 74886
L70937 74361
" />
<path d="M70970 74099
L70927 74136
L70960 74174
L71002 74136
L70970 74099
L70960 74174
" />
<path d="M71199 74361
L71499 74361
" />
<path d="M71345 74099
L71260 74774
L71288 74849
L71359 74886
L71434 74886
" />
<path d="M71809 74886
L71738 74849
L71710 74774
L71795 74099
" />
<path d="M72413 74849
L72334 74886
L72184 74886
L72113 74849
L72085 74774
L72123 74474
L72169 74399
L72249 74361
L72399 74361
L72469 74399
L72498 74474
L72488 74549
L72104 74624
" />
<path d="M72793 74811
L72826 74849
L72783 74886
L72751 74849
L72793 74811
L72783 74886
" />
<path d="M72844 74399
L72877 74436
L72835 74474
L72802 74436
L72844 74399
L72835 74474
" />
</g>
<g style="fill:#000000; fill-opacity:0.0; 
stroke:#000000; stroke-width:39.3701; stroke-opacity:1; 
stroke-linecap:round; stroke-linejoin:round;">
</g>
<g style="fill:#000000; fill-opacity:0.0; 
stroke:#000000; stroke-width:59.0551; stroke-opacity:1; 
stroke-linecap:round; stroke-linejoin:round;">
<path d="M70417 73070
L70220 73070
" />
<path d="M70220 73380
L70220 72789
L70501 72789
" />
<path d="M70726 73380
L70726 72986
" />
<path d="M70726 72789
L70698 72817
L70726 72845
L70754 72817
L70726 72789
L70726 72845
" />
<path d="M71091 73380
L71035 73352
L71007 73295
L71007 72789
" />
<path d="M71541 73352
L71485 73380
L71373 73380
L71316 73352
L71288 73295
L71288 73070
L71316 73014
L71373 72986
L71485 72986
L71541 73014
L71570 73070
L71570 73127
L71288 73183
" />
<path d="M71823 73323
L71851 73352
L71823 73380
L71795 73352
L71823 73323
L71823 73380
" />
<path d="M71823 73014
L71851 73042
L71823 73070
L71795 73042
L71823 73014
L71823 73070
" />
<path d="M72807 72986
L72807 73380
" />
<path d="M72554 72986
L72554 73295
L72582 73352
L72638 73380
L72723 73380
L72779 73352
L72807 73323
" />
<path d="M73341 73380
L73341 73070
L73313 73014
L73257 72986
L73144 72986
L73088 73014
" />
<path d="M73341 73352
L73285 73380
L73144 73380
L73088 73352
L73060 73295
L73060 73239
L73088 73183
L73144 73155
L73285 73155
L73341 73127
" />
<path d="M73622 73380
L73622 72986
" />
<path d="M73622 73099
L73651 73042
L73679 73014
L73735 72986
L73791 72986
" />
<path d="M73904 72986
L74129 72986
" />
<path d="M73988 72789
L73988 73295
L74016 73352
L74072 73380
L74129 73380
" />
<path d="M74325 73155
L74775 73155
" />
<path d="M74972 72986
L75197 72986
" />
<path d="M75057 73380
L75057 72874
L75085 72817
L75141 72789
L75197 72789
" />
<path d="M75394 73380
L75394 72986
" />
<path d="M75394 73099
L75422 73042
L75450 73014
L75507 72986
L75563 72986
" />
<path d="M75760 73380
L75760 72986
" />
<path d="M75760 72789
L75732 72817
L75760 72845
L75788 72817
L75760 72789
L75760 72845
" />
<path d="M76266 73352
L76210 73380
L76097 73380
L76041 73352
L76013 73295
L76013 73070
L76041 73014
L76097 72986
L76210 72986
L76266 73014
L76294 73070
L76294 73127
L76013 73183
" />
<path d="M76547 72986
L76547 73380
" />
<path d="M76547 73042
L76575 73014
L76631 72986
L76716 72986
L76772 73014
L76800 73070
L76800 73380
" />
<path d="M77334 73380
L77334 72789
" />
<path d="M77334 73352
L77278 73380
L77166 73380
L77109 73352
L77081 73323
L77053 73267
L77053 73099
L77081 73042
L77109 73014
L77166 72986
L77278 72986
L77334 73014
" />
<path d="M77616 73323
L77644 73352
L77616 73380
L77588 73352
L77616 73323
L77616 73380
" />
<path d="M77897 73380
L77897 72789
" />
<path d="M77953 73155
L78122 73380
" />
<path d="M78122 72986
L77897 73211
" />
<path d="M78375 73380
L78375 72986
" />
<path d="M78375 72789
L78347 72817
L78375 72845
L78403 72817
L78375 72789
L78375 72845
" />
<path d="M78909 73352
L78853 73380
L78741 73380
L78684 73352
L78656 73323
L78628 73267
L78628 73099
L78656 73042
L78684 73014
L78741 72986
L78853 72986
L78909 73014
" />
<path d="M79415 73380
L79415 73070
L79387 73014
L79331 72986
L79219 72986
L79162 73014
" />
<path d="M79415 73352
L79359 73380
L79219 73380
L79162 73352
L79134 73295
L79134 73239
L79162 73183
L79219 73155
L79359 73155
L79415 73127
" />
<path d="M79950 73380
L79950 72789
" />
<path d="M79950 73352
L79894 73380
L79781 73380
L79725 73352
L79697 73323
L79669 73267
L79669 73099
L79697 73042
L79725 73014
L79781 72986
L79894 72986
L79950 73014
" />
<path d="M80090 73436
L80540 73436
" />
<path d="M80681 72986
L80681 73577
" />
<path d="M80681 73014
L80737 72986
L80850 72986
L80906 73014
L80934 73042
L80962 73099
L80962 73267
L80934 73323
L80906 73352
L80850 73380
L80737 73380
L80681 73352
" />
<path d="M81468 73352
L81412 73380
L81300 73380
L81243 73352
L81215 73323
L81187 73267
L81187 73099
L81215 73042
L81243 73014
L81300 72986
L81412 72986
L81468 73014
" />
<path d="M81721 73380
L81721 72789
" />
<path d="M81721 73014
L81778 72986
L81890 72986
L81946 73014
L81974 73042
L82003 73099
L82003 73267
L81974 73323
L81946 73352
L81890 73380
L81778 73380
L81721 73352
" />
</g>
<g style="fill:#000000; fill-opacity:0.0; 
stroke:#000000; stroke-width:39.3701; stroke-opacity:1; 
stroke-linecap:round; stroke-linejoin:round;">
</g>
<g style="fill:#000000; fill-opacity:0.0; 
stroke:#000000; stroke-width:59.0551; stroke-opacity:1; 
stroke-linecap:round; stroke-linejoin:round;">
<path d="M69685 71459
L112205 71459
" />
</g>
<g style="fill:#000000; fill-opacity:0.0; 
stroke:#000000; stroke-width:39.3701; stroke-opacity:1; 
stroke-linecap:round; stroke-linejoin:round;">
</g>
<g style="fill:#000000; fill-opacity:0.0; 
stroke:#000000; stroke-width:59.0551; stroke-opacity:1; 
stroke-linecap:round; stroke-linejoin:round;">
<path d="M70192 72289
L70276 72317
L70417 72317
L70473 72289
L70501 72260
L70529 72204
L70529 72148
L70501 72092
L70473 72064
L70417 72036
L70304 72007
L70248 71979
L70220 71951
L70192 71895
L70192 71839
L70220 71782
L70248 71754
L70304 71726
L70445 71726
L70529 71754
" />
<path d="M70782 72317
L70782 71726
" />
<path d="M71035 72317
L71035 72007
L71007 71951
L70951 71923
L70867 71923
L70810 71951
L70782 71979
" />
<path d="M71541 72289
L71485 72317
L71373 72317
L71316 72289
L71288 72232
L71288 72007
L71316 71951
L71373 71923
L71485 71923
L71541 71951
L71570 72007
L71570 72064
L71288 72120
" />
<path d="M72048 72289
L71991 72317
L71879 72317
L71823 72289
L71795 72232
L71795 72007
L71823 71951
L71879 71923
L71991 71923
L72048 71951
L72076 72007
L72076 72064
L71795 72120
" />
<path d="M72244 71923
L72469 71923
" />
<path d="M72329 71726
L72329 72232
L72357 72289
L72413 72317
L72469 72317
" />
<path d="M72666 72260
L72694 72289
L72666 72317
L72638 72289
L72666 72260
L72666 72317
" />
<path d="M72666 71951
L72694 71979
L72666 72007
L72638 71979
L72666 71951
L72666 72007
" />
</g>
<g style="fill:#000000; fill-opacity:0.0; 
stroke:#000000; stroke-width:39.3701; stroke-opacity:1; 
stroke-linecap:round; stroke-linejoin:round;">
</g>
<g style="fill:#000000; fill-opacity:0.0; 
stroke:#000000; stroke-width:59.0551; stroke-opacity:1; 
stroke-linecap:round; stroke-linejoin:round;">
<path d="M77559 75396
L77559 76577
" />
</g>
<g style="fill:#000000; fill-opacity:0.0; 
stroke:#000000; stroke-width:39.3701; stroke-opacity:1; 
stroke-linecap:round; stroke-linejoin:round;">
</g>
<g style="fill:#000000; fill-opacity:0.0; 
stroke:#000000; stroke-width:59.0551; stroke-opacity:1; 
stroke-linecap:round; stroke-linejoin:round;">
<path d="M102756 75396
L102756 77955
" />
</g>
<g style="fill:#008484; fill-opacity:0.0; 
stroke:#008484; stroke-width:59.0551; stroke-opacity:1; 
stroke-linecap:round; stroke-linejoin:round;">
<path d="M73528 41449
L73134 41449
L73134 41356
L73153 41299
L73190 41262
L73228 41243
L73303 41224
L73359 41224
L73434 41243
L73471 41262
L73509 41299
L73528 41356
L73528 41449
" />
<path d="M73134 41112
L73134 40887
" />
<path d="M73528 41000
L73134 41000
" />
<path d="M73528 40531
L73340 40662
" />
<path d="M73528 40756
L73134 40756
L73134 40606
L73153 40568
L73171 40550
L73209 40531
L73265 40531
L73303 40550
L73321 40568
L73340 40606
L73340 40756
" />
<path d="M73066 41543
L73066 40456
" />
<path d="M73528 40065
L73340 40196
" />
<path d="M73528 40290
L73134 40290
L73134 40140
L73153 40103
L73171 40084
L73209 40065
L73265 40065
L73303 40084
L73321 40103
L73340 40140
L73340 40290
" />
<path d="M73134 39934
L73528 39671
" />
<path d="M73134 39671
L73528 39934
" />
<path d="M73134 39299
L73134 39074
" />
<path d="M73528 39187
L73134 39187
" />
<path d="M73134 38981
L73528 38718
" />
<path d="M73134 38718
L73528 38981
" />
<path d="M73134 38281
L73528 38149
L73134 38018
" />
<path d="M73134 37943
L73134 37718
" />
<path d="M73528 37831
L73134 37831
" />
<path d="M73490 37315
L73509 37334
L73528 37390
L73528 37428
L73509 37484
L73471 37521
L73434 37540
L73359 37559
L73303 37559
L73228 37540
L73190 37521
L73153 37484
L73134 37428
L73134 37390
L73153 37334
L73171 37315
" />
<path d="M73134 37203
L73134 36978
" />
<path d="M73528 37090
L73134 37090
" />
<path d="M73509 36865
L73528 36809
L73528 36715
L73509 36678
L73490 36659
L73453 36640
L73415 36640
L73378 36659
L73359 36678
L73340 36715
L73321 36790
L73303 36828
L73284 36846
L73246 36865
L73209 36865
L73171 36846
L73153 36828
L73134 36790
L73134 36696
L73153 36640
" />
<path d="M73066 37634
L73066 36565
" />
<path d="M73153 36199
L73134 36237
L73134 36293
L73153 36349
L73190 36387
L73228 36406
L73303 36424
L73359 36424
L73434 36406
L73471 36387
L73509 36349
L73528 36293
L73528 36256
L73509 36199
L73490 36181
L73359 36181
L73359 36256
" />
<path d="M73528 36012
L73134 36012
L73528 35787
L73134 35787
" />
<path d="M73528 35600
L73134 35600
L73134 35506
L73153 35450
L73190 35412
L73228 35393
L73303 35375
L73359 35375
L73434 35393
L73471 35412
L73509 35450
L73528 35506
L73528 35600
" />
</g>
<g style="fill:#C2C200; fill-opacity:0.0; 
stroke:#C2C200; stroke-width:59.0551; stroke-opacity:1; 
stroke-linecap:round; stroke-linejoin:round;">
<path d="M74750 41750
L74750 35250
" />
<path d="M62500 41750
L74750 41750
" />
<path d="M62500 35250
L62500 41750
" />
<path d="M74750 35250
L62500 35250
" />
<path d="M70040 38115
L70059 38134
L70078 38190
L70078 38228
L70059 38284
L70021 38321
L69984 38340
L69909 38359
L69853 38359
L69778 38340
L69740 38321
L69703 38284
L69684 38228
L69684 38190
L69703 38134
L69721 38115
" />
<path d="M69721 37965
L69703 37946
L69684 37909
L69684 37815
L69703 37778
L69721 37759
L69759 37740
L69796 37740
L69853 37759
L70078 37984
L70078 37740
" />
<path d="M72209 38628
L72209 38234
L72303 38234
L72359 38253
L72396 38290
L72415 38328
L72434 38403
L72434 38459
L72415 38534
L72396 38571
L72359 38609
L72303 38628
L72209 38628
" />
<path d="M72809 38628
L72584 38628
" />
<path d="M72696 38628
L72696 38234
L72659 38290
L72621 38328
L72584 38346
" />
<path d="M72209 39728
L72209 39334
L72303 39334
L72359 39353
L72396 39390
L72415 39428
L72434 39503
L72434 39559
L72415 39634
L72396 39671
L72359 39709
L72303 39728
L72209 39728
" />
<path d="M72584 39371
L72603 39353
L72640 39334
L72734 39334
L72771 39353
L72790 39371
L72809 39409
L72809 39446
L72790 39503
L72565 39728
L72809 39728
" />
<path d="M64138 37670
L64138 37801
" />
<path d="M64345 37801
L63951 37801
L63951 37613
" />
<path d="M64345 37257
L64345 37482
" />
<path d="M64345 37370
L63951 37370
L64007 37407
L64045 37445
L64063 37482
" />
<path d="M63128 39490
L62734 39490
L62734 39340
L62753 39303
L62771 39284
L62809 39265
L62865 39265
L62903 39284
L62921 39303
L62940 39340
L62940 39490
" />
<path d="M63128 38890
L63128 39115
" />
<path d="M63128 39003
L62734 39003
L62790 39040
L62828 39078
L62846 39115
" />
<path d="M73709 35028
L73709 34634
L73859 34634
L73896 34653
L73915 34671
L73934 34709
L73934 34765
L73915 34803
L73896 34821
L73859 34840
L73709 34840
" />
<path d="M74290 34634
L74103 34634
L74084 34821
L74103 34803
L74140 34784
L74234 34784
L74271 34803
L74290 34821
L74309 34859
L74309 34953
L74290 34990
L74271 35009
L74234 35028
L74140 35028
L74103 35009
L74084 34990
" />
<path d="M72462 36915
L72425 36896
L72387 36859
L72331 36803
L72293 36784
L72256 36784
" />
<path d="M72275 36878
L72237 36859
L72200 36821
L72181 36746
L72181 36615
L72200 36540
L72237 36503
L72275 36484
L72350 36484
L72387 36503
L72425 36540
L72443 36615
L72443 36746
L72425 36821
L72387 36859
L72350 36878
L72275 36878
" />
<path d="M72818 36878
L72593 36878
" />
<path d="M72706 36878
L72706 36484
L72668 36540
L72631 36578
L72593 36596
" />
<path d="M63728 37765
L63540 37896
" />
<path d="M63728 37990
L63334 37990
L63334 37840
L63353 37803
L63371 37784
L63409 37765
L63465 37765
L63503 37784
L63521 37803
L63540 37840
L63540 37990
" />
<path d="M63728 37390
L63728 37615
" />
<path d="M63728 37503
L63334 37503
L63390 37540
L63428 37578
L63446 37615
" />
<path d="M66128 40115
L65940 40246
" />
<path d="M66128 40340
L65734 40340
L65734 40190
L65753 40153
L65771 40134
L65809 40115
L65865 40115
L65903 40134
L65921 40153
L65940 40190
L65940 40340
" />
<path d="M65771 39965
L65753 39946
L65734 39909
L65734 39815
L65753 39778
L65771 39759
L65809 39740
L65846 39740
L65903 39759
L66128 39984
L66128 39740
" />
<path d="M63178 37765
L62990 37896
" />
<path d="M63178 37990
L62784 37990
L62784 37840
L62803 37803
L62821 37784
L62859 37765
L62915 37765
L62953 37784
L62971 37803
L62990 37840
L62990 37990
" />
<path d="M62784 37634
L62784 37390
L62934 37521
L62934 37465
L62953 37428
L62971 37409
L63009 37390
L63103 37390
L63140 37409
L63159 37428
L63178 37465
L63178 37578
L63159 37615
L63140 37634
" />
<path d="M70328 37065
L70140 37196
" />
<path d="M70328 37290
L69934 37290
L69934 37140
L69953 37103
L69971 37084
L70009 37065
L70065 37065
L70103 37084
L70121 37103
L70140 37140
L70140 37290
" />
<path d="M70065 36728
L70328 36728
" />
<path d="M69915 36821
L70196 36915
L70196 36671
" />
<path d="M70078 39065
L69890 39196
" />
<path d="M70078 39290
L69684 39290
L69684 39140
L69703 39103
L69721 39084
L69759 39065
L69815 39065
L69853 39084
L69871 39103
L69890 39140
L69890 39290
" />
<path d="M69684 38709
L69684 38896
L69871 38915
L69853 38896
L69834 38859
L69834 38765
L69853 38728
L69871 38709
L69909 38690
L70003 38690
L70040 38709
L70059 38728
L70078 38765
L70078 38859
L70059 38896
L70040 38915
" />
<path d="M70328 40065
L70140 40196
" />
<path d="M70328 40290
L69934 40290
L69934 40140
L69953 40103
L69971 40084
L70009 40065
L70065 40065
L70103 40084
L70121 40103
L70140 40140
L70140 40290
" />
<path d="M69934 39728
L69934 39803
L69953 39840
L69971 39859
L70028 39896
L70103 39915
L70253 39915
L70290 39896
L70309 39878
L70328 39840
L70328 39765
L70309 39728
L70290 39709
L70253 39690
L70159 39690
L70121 39709
L70103 39728
L70084 39765
L70084 39840
L70103 39878
L70121 39896
L70159 39915
" />
<path d="M66034 35949
L66353 35949
L66390 35931
L66409 35912
L66428 35874
L66428 35799
L66409 35762
L66390 35743
L66353 35724
L66034 35724
" />
<path d="M66428 35331
L66428 35556
" />
<path d="M66428 35443
L66034 35443
L66090 35481
L66128 35518
L66146 35556
" />
<path d="M65734 37249
L66053 37249
L66090 37231
L66109 37212
L66128 37174
L66128 37099
L66109 37062
L66090 37043
L66053 37024
L65734 37024
" />
<path d="M65771 36856
L65753 36837
L65734 36800
L65734 36706
L65753 36668
L65771 36650
L65809 36631
L65846 36631
L65903 36650
L66128 36875
L66128 36631
" />
<path d="M67184 36590
L67165 36609
L67109 36628
L67071 36628
L67015 36609
L66978 36571
L66959 36534
L66940 36459
L66940 36403
L66959 36328
L66978 36290
L67015 36253
L67071 36234
L67109 36234
L67165 36253
L67184 36271
" />
<path d="M67559 36628
L67334 36628
" />
<path d="M67446 36628
L67446 36234
L67409 36290
L67371 36328
L67334 36346
" />
<path d="M72209 36478
L72209 36084
L72303 36084
L72359 36103
L72396 36140
L72415 36178
L72434 36253
L72434 36309
L72415 36384
L72396 36421
L72359 36459
L72303 36478
L72209 36478
" />
<path d="M72565 36084
L72809 36084
L72678 36234
L72734 36234
L72771 36253
L72790 36271
L72809 36309
L72809 36403
L72790 36440
L72771 36459
L72734 36478
L72621 36478
L72584 36459
L72565 36440
" />
<path d="M70934 36578
L70803 36390
" />
<path d="M70709 36578
L70709 36184
L70859 36184
L70896 36203
L70915 36221
L70934 36259
L70934 36315
L70915 36353
L70896 36371
L70859 36390
L70709 36390
" />
<path d="M71065 36184
L71328 36184
L71159 36578
" />
<path d="M69184 36590
L69165 36609
L69109 36628
L69071 36628
L69015 36609
L68978 36571
L68959 36534
L68940 36459
L68940 36403
L68959 36328
L68978 36290
L69015 36253
L69071 36234
L69109 36234
L69165 36253
L69184 36271
" />
<path d="M69315 36234
L69559 36234
L69428 36384
L69484 36384
L69521 36403
L69540 36421
L69559 36459
L69559 36553
L69540 36590
L69521 36609
L69484 36628
L69371 36628
L69334 36609
L69315 36590
" />
</g>
<g style="fill:#008484; fill-opacity:0.0; 
stroke:#008484; stroke-width:59.0551; stroke-opacity:1; 
stroke-linecap:round; stroke-linejoin:round;">
<path d="M71196 37665
L70803 37665
" />
<path d="M70803 38334
L71196 38334
" />
<path d="M71870 39295
L72933 39295
" />
<path d="M71870 38704
L72933 38704
" />
<path d="M72460 39059
L72460 38960
" />
<path d="M72460 38960
L72401 39019
" />
<path d="M72362 38862
L72362 39137
" />
<path d="M72500 39000
L72637 39000
" />
<path d="M72362 39000
L72500 38862
" />
<path d="M72500 38862
L72500 39137
" />
<path d="M72500 39137
L72362 39000
" />
<path d="M71870 40295
L72933 40295
" />
<path d="M71870 39704
L72933 39704
" />
<path d="M72460 40059
L72460 39960
" />
<path d="M72460 39960
L72401 40019
" />
<path d="M72362 39862
L72362 40137
" />
<path d="M72500 40000
L72637 40000
" />
<path d="M72362 40000
L72500 39862
" />
<path d="M72500 39862
L72500 40137
" />
<path d="M72500 40137
L72362 40000
" />
<path d="M61997 36787
L61997 40212
" />
<path d="M64518 36787
L64518 40212
" />
<path d="M64518 40212
L61997 40212
" />
<path d="M62481 40212
L62481 36787
" />
<path d="M61997 36787
L64518 36787
" />
<path d="M73488 35389
L73488 36000
" />
<path d="M74000 35389
L73488 35389
" />
<path d="M75650 35950
L77950 35950
" />
<path d="M77950 35950
L77950 36050
" />
<path d="M77950 36050
L75650 36050
" />
<path d="M75650 36050
L75650 36000
" />
<path d="M75650 36000
L77950 36000
" />
<path d="M74600 35900
L74450 35900
" />
<path d="M74600 36100
L74450 36100
" />
<path d="M74600 36900
L74450 36900
" />
<path d="M74600 37100
L74450 37100
" />
<path d="M74600 37900
L74450 37900
" />
<path d="M74600 38100
L74450 38100
" />
<path d="M74600 41100
L74450 41100
" />
<path d="M74600 40900
L74450 40900
" />
<path d="M74600 40100
L74450 40100
" />
<path d="M74600 39900
L74450 39900
" />
<path d="M74600 39100
L74450 39100
" />
<path d="M74600 38900
L74450 38900
" />
<path d="M74600 35500
L75600 35500
" />
<path d="M74600 36500
L75600 36500
" />
<path d="M74600 36500
L74600 37500
" />
<path d="M74600 37500
L75600 37500
" />
<path d="M75600 36900
L78000 36900
" />
<path d="M78000 36900
L78000 37100
" />
<path d="M78000 37100
L75600 37100
" />
<path d="M75600 37500
L75600 36500
" />
<path d="M75600 36500
L75600 35500
" />
<path d="M78000 36100
L75600 36100
" />
<path d="M78000 35900
L78000 36100
" />
<path d="M75600 35900
L78000 35900
" />
<path d="M74600 36500
L75600 36500
" />
<path d="M74600 35500
L74600 36500
" />
<path d="M74600 39500
L75600 39500
" />
<path d="M74600 39500
L74600 40500
" />
<path d="M74600 40500
L75600 40500
" />
<path d="M75600 39900
L78000 39900
" />
<path d="M78000 39900
L78000 40100
" />
<path d="M78000 40100
L75600 40100
" />
<path d="M75600 40500
L75600 39500
" />
<path d="M75600 41500
L75600 40500
" />
<path d="M78000 41100
L75600 41100
" />
<path d="M78000 40900
L78000 41100
" />
<path d="M75600 40900
L78000 40900
" />
<path d="M74600 41500
L75600 41500
" />
<path d="M74600 40500
L74600 41500
" />
<path d="M74600 40500
L75600 40500
" />
<path d="M74600 38500
L75600 38500
" />
<path d="M74600 38500
L74600 39500
" />
<path d="M74600 39500
L75600 39500
" />
<path d="M75600 38900
L78000 38900
" />
<path d="M78000 38900
L78000 39100
" />
<path d="M78000 39100
L75600 39100
" />
<path d="M75600 39500
L75600 38500
" />
<path d="M75600 38500
L75600 37500
" />
<path d="M78000 38100
L75600 38100
" />
<path d="M78000 37900
L78000 38100
" />
<path d="M75600 37900
L78000 37900
" />
<path d="M74600 38500
L75600 38500
" />
<path d="M74600 37500
L74600 38500
" />
<path d="M74600 37500
L75600 37500
" />
<path d="M72756 38011
L72756 37992
" />
<path d="M72480 36909
L72756 36909
" />
<path d="M72756 36909
L72756 37007
" />
<path d="M72756 38011
L72756 38090
" />
<path d="M72756 38090
L72480 38090
" />
<path d="M64344 35763
L64344 36236
" />
<path d="M63655 36236
L63655 35763
" />
<path d="M65594 39513
L65594 39986
" />
<path d="M64905 39986
L64905 39513
" />
<path d="M63344 35763
L63344 36236
" />
<path d="M62655 36236
L62655 35763
" />
<path d="M71236 37344
L70763 37344
" />
<path d="M70763 36655
L71236 36655
" />
<path d="M71236 39344
L70763 39344
" />
<path d="M70763 38655
L71236 38655
" />
<path d="M71236 40344
L70763 40344
" />
<path d="M70763 39655
L71236 39655
" />
<circle cx="65131.9" cy="35330.7" r="39.3701" /> 
<path d="M65348 35429
L65151 35429
" />
<path d="M65348 36570
L65348 35429
" />
<path d="M65151 36570
L65348 36570
" />
<path d="M65151 35429
L65151 36570
" />
<path d="M70096 37368
L69840 37368
" />
<path d="M70096 39631
L69840 39631
" />
<path d="M65903 39631
L66159 39631
" />
<path d="M65903 37368
L66159 37368
" />
<path d="M70096 37368
L70096 39631
" />
<path d="M65903 37368
L65903 39631
" />
<path d="M69840 37368
L69840 36738
" />
<path d="M67446 35415
L67053 35415
" />
<path d="M67053 36084
L67446 36084
" />
<path d="M71870 36045
L72933 36045
" />
<path d="M71870 35454
L72933 35454
" />
<path d="M72460 35809
L72460 35710
" />
<path d="M72460 35710
L72401 35769
" />
<path d="M72362 35612
L72362 35887
" />
<path d="M72500 35750
L72637 35750
" />
<path d="M72362 35750
L72500 35612
" />
<path d="M72500 35612
L72500 35887
" />
<path d="M72500 35887
L72362 35750
" />
<path d="M71236 36094
L70763 36094
" />
<path d="M70763 35405
L71236 35405
" />
<path d="M69053 36084
L69446 36084
" />
<path d="M69446 35415
L69053 35415
" />
</g>
<g style="fill:#840000; fill-opacity:0.0; 
stroke:#840000; stroke-width:59.0551; stroke-opacity:1; 
stroke-linecap:round; stroke-linejoin:round;">
</g>
<g style="fill:#840000; fill-opacity:0.0; 
stroke:#840000; stroke-width:374.016; stroke-opacity:1; 
stroke-linecap:round; stroke-linejoin:round;">
<path d="M64115 37456
L64115 37574
" />
<path d="M64115 39424
L64115 39542
" />
</g>
<g style="fill:#840000; fill-opacity:0.0; 
stroke:#840000; stroke-width:393.701; stroke-opacity:1; 
stroke-linecap:round; stroke-linejoin:round;">
<path d="M62943 37121
L63160 37121
" />
<path d="M62943 39877
L63160 39877
" />
</g>
<g style="fill:#840000; fill-opacity:0.0; 
stroke:#840000; stroke-width:0; stroke-opacity:1; 
stroke-linecap:round; stroke-linejoin:round;">
</g>
<g style="fill:#840000; fill-opacity:1.0; 
stroke:#840000; stroke-width:0; stroke-opacity:1; 
stroke-linecap:round; stroke-linejoin:round;">
<polyline style="fill-rule:evenodd;"
points="73600,36340
73600,35660
74400,35660
74400,36340
73600,36340
" /> 
</g>
<g style="fill:#840000; fill-opacity:1.0; 
stroke:#840000; stroke-width:680; stroke-opacity:1; 
stroke-linecap:round; stroke-linejoin:round;">
</g>
<g style="fill:#840000; fill-opacity:0.0; 
stroke:#840000; stroke-width:680; stroke-opacity:1; 
stroke-linecap:round; stroke-linejoin:round;">
<path d="M73940 37000
L74060 37000
" />
<path d="M73940 38000
L74060 38000
" />
<path d="M73940 39000
L74060 39000
" />
<path d="M73940 40000
L74060 40000
" />
<path d="M73940 41000
L74060 41000
" />
</g> 
</svg>
